G04 #@! TF.FileFunction,Other,Fab,Top*
%FSLAX46Y46*%
G04 Gerber Fmt 4.6, Leading zero omitted, Abs format (unit mm)*
G04 Created by KiCad (PCBNEW 4.0.4-stable) date 06/04/17 23:31:50*
%MOMM*%
%LPD*%
G01*
G04 APERTURE LIST*
%ADD10C,0.100000*%
%ADD11C,0.200000*%
%ADD12C,0.150000*%
%ADD13C,0.120000*%
%ADD14C,0.075000*%
G04 APERTURE END LIST*
D10*
X49053810Y-174372857D02*
X49053810Y-174706190D01*
X49053810Y-174420476D02*
X49077619Y-174396667D01*
X49125238Y-174372857D01*
X49196667Y-174372857D01*
X49244286Y-174396667D01*
X49268095Y-174444286D01*
X49268095Y-174706190D01*
X49506191Y-174706190D02*
X49506191Y-174372857D01*
X49506191Y-174420476D02*
X49530000Y-174396667D01*
X49577619Y-174372857D01*
X49649048Y-174372857D01*
X49696667Y-174396667D01*
X49720476Y-174444286D01*
X49720476Y-174706190D01*
X49720476Y-174444286D02*
X49744286Y-174396667D01*
X49791905Y-174372857D01*
X49863333Y-174372857D01*
X49910953Y-174396667D01*
X49934762Y-174444286D01*
X49934762Y-174706190D01*
X50363334Y-174682381D02*
X50315715Y-174706190D01*
X50220477Y-174706190D01*
X50172858Y-174682381D01*
X50149048Y-174634762D01*
X50149048Y-174444286D01*
X50172858Y-174396667D01*
X50220477Y-174372857D01*
X50315715Y-174372857D01*
X50363334Y-174396667D01*
X50387143Y-174444286D01*
X50387143Y-174491905D01*
X50149048Y-174539524D01*
X50601429Y-174372857D02*
X50601429Y-174706190D01*
X50601429Y-174420476D02*
X50625238Y-174396667D01*
X50672857Y-174372857D01*
X50744286Y-174372857D01*
X50791905Y-174396667D01*
X50815714Y-174444286D01*
X50815714Y-174706190D01*
X51268095Y-174706190D02*
X51268095Y-174206190D01*
X51268095Y-174682381D02*
X51220476Y-174706190D01*
X51125238Y-174706190D01*
X51077619Y-174682381D01*
X51053810Y-174658571D01*
X51030000Y-174610952D01*
X51030000Y-174468095D01*
X51053810Y-174420476D01*
X51077619Y-174396667D01*
X51125238Y-174372857D01*
X51220476Y-174372857D01*
X51268095Y-174396667D01*
X51506191Y-174706190D02*
X51506191Y-174372857D01*
X51506191Y-174206190D02*
X51482381Y-174230000D01*
X51506191Y-174253810D01*
X51530000Y-174230000D01*
X51506191Y-174206190D01*
X51506191Y-174253810D01*
D11*
X30130000Y-164440000D02*
X29810000Y-164610000D01*
X31570000Y-164440000D02*
X30130000Y-164440000D01*
X31730000Y-164770000D02*
X31570000Y-164440000D01*
X32130000Y-167090000D02*
X31790000Y-167320000D01*
X32400000Y-162440000D02*
X32450000Y-162110000D01*
X27940000Y-164090000D02*
X32040000Y-164080000D01*
X32070000Y-164040000D02*
X32390000Y-162460000D01*
D12*
X47638095Y-169697619D02*
X47638095Y-170697619D01*
X47257142Y-170697619D01*
X47161904Y-170650000D01*
X47114285Y-170602381D01*
X47066666Y-170507143D01*
X47066666Y-170364286D01*
X47114285Y-170269048D01*
X47161904Y-170221429D01*
X47257142Y-170173810D01*
X47638095Y-170173810D01*
X46685714Y-170602381D02*
X46638095Y-170650000D01*
X46542857Y-170697619D01*
X46304761Y-170697619D01*
X46209523Y-170650000D01*
X46161904Y-170602381D01*
X46114285Y-170507143D01*
X46114285Y-170411905D01*
X46161904Y-170269048D01*
X46733333Y-169697619D01*
X46114285Y-169697619D01*
X38238095Y-186402381D02*
X38238095Y-187211905D01*
X38285714Y-187307143D01*
X38333333Y-187354762D01*
X38428571Y-187402381D01*
X38619048Y-187402381D01*
X38714286Y-187354762D01*
X38761905Y-187307143D01*
X38809524Y-187211905D01*
X38809524Y-186402381D01*
X39190476Y-186402381D02*
X39809524Y-186402381D01*
X39476190Y-186783333D01*
X39619048Y-186783333D01*
X39714286Y-186830952D01*
X39761905Y-186878571D01*
X39809524Y-186973810D01*
X39809524Y-187211905D01*
X39761905Y-187307143D01*
X39714286Y-187354762D01*
X39619048Y-187402381D01*
X39333333Y-187402381D01*
X39238095Y-187354762D01*
X39190476Y-187307143D01*
X40302381Y-195788095D02*
X39302381Y-195788095D01*
X39302381Y-195550000D01*
X39350000Y-195407142D01*
X39445238Y-195311904D01*
X39540476Y-195264285D01*
X39730952Y-195216666D01*
X39873810Y-195216666D01*
X40064286Y-195264285D01*
X40159524Y-195311904D01*
X40254762Y-195407142D01*
X40302381Y-195550000D01*
X40302381Y-195788095D01*
X39635714Y-194359523D02*
X40302381Y-194359523D01*
X39254762Y-194597619D02*
X39969048Y-194835714D01*
X39969048Y-194216666D01*
X13972381Y-170838095D02*
X12972381Y-170838095D01*
X12972381Y-170457142D01*
X13020000Y-170361904D01*
X13067619Y-170314285D01*
X13162857Y-170266666D01*
X13305714Y-170266666D01*
X13400952Y-170314285D01*
X13448571Y-170361904D01*
X13496190Y-170457142D01*
X13496190Y-170838095D01*
X12972381Y-169933333D02*
X12972381Y-169314285D01*
X13353333Y-169647619D01*
X13353333Y-169504761D01*
X13400952Y-169409523D01*
X13448571Y-169361904D01*
X13543810Y-169314285D01*
X13781905Y-169314285D01*
X13877143Y-169361904D01*
X13924762Y-169409523D01*
X13972381Y-169504761D01*
X13972381Y-169790476D01*
X13924762Y-169885714D01*
X13877143Y-169933333D01*
X19347619Y-184711905D02*
X20347619Y-184711905D01*
X20347619Y-185092858D01*
X20300000Y-185188096D01*
X20252381Y-185235715D01*
X20157143Y-185283334D01*
X20014286Y-185283334D01*
X19919048Y-185235715D01*
X19871429Y-185188096D01*
X19823810Y-185092858D01*
X19823810Y-184711905D01*
X19347619Y-186235715D02*
X19347619Y-185664286D01*
X19347619Y-185950000D02*
X20347619Y-185950000D01*
X20204762Y-185854762D01*
X20109524Y-185759524D01*
X20061905Y-185664286D01*
X21061905Y-191202381D02*
X21061905Y-190202381D01*
X21442858Y-190202381D01*
X21538096Y-190250000D01*
X21585715Y-190297619D01*
X21633334Y-190392857D01*
X21633334Y-190535714D01*
X21585715Y-190630952D01*
X21538096Y-190678571D01*
X21442858Y-190726190D01*
X21061905Y-190726190D01*
X22490477Y-190535714D02*
X22490477Y-191202381D01*
X22252381Y-190154762D02*
X22014286Y-190869048D01*
X22633334Y-190869048D01*
X50002381Y-189188095D02*
X49002381Y-189188095D01*
X49002381Y-188950000D01*
X49050000Y-188807142D01*
X49145238Y-188711904D01*
X49240476Y-188664285D01*
X49430952Y-188616666D01*
X49573810Y-188616666D01*
X49764286Y-188664285D01*
X49859524Y-188711904D01*
X49954762Y-188807142D01*
X50002381Y-188950000D01*
X50002381Y-189188095D01*
X49002381Y-187711904D02*
X49002381Y-188188095D01*
X49478571Y-188235714D01*
X49430952Y-188188095D01*
X49383333Y-188092857D01*
X49383333Y-187854761D01*
X49430952Y-187759523D01*
X49478571Y-187711904D01*
X49573810Y-187664285D01*
X49811905Y-187664285D01*
X49907143Y-187711904D01*
X49954762Y-187759523D01*
X50002381Y-187854761D01*
X50002381Y-188092857D01*
X49954762Y-188188095D01*
X49907143Y-188235714D01*
X47502381Y-189238095D02*
X46502381Y-189238095D01*
X46502381Y-189000000D01*
X46550000Y-188857142D01*
X46645238Y-188761904D01*
X46740476Y-188714285D01*
X46930952Y-188666666D01*
X47073810Y-188666666D01*
X47264286Y-188714285D01*
X47359524Y-188761904D01*
X47454762Y-188857142D01*
X47502381Y-189000000D01*
X47502381Y-189238095D01*
X47502381Y-187714285D02*
X47502381Y-188285714D01*
X47502381Y-188000000D02*
X46502381Y-188000000D01*
X46645238Y-188095238D01*
X46740476Y-188190476D01*
X46788095Y-188285714D01*
X41611905Y-183952381D02*
X41611905Y-182952381D01*
X41850000Y-182952381D01*
X41992858Y-183000000D01*
X42088096Y-183095238D01*
X42135715Y-183190476D01*
X42183334Y-183380952D01*
X42183334Y-183523810D01*
X42135715Y-183714286D01*
X42088096Y-183809524D01*
X41992858Y-183904762D01*
X41850000Y-183952381D01*
X41611905Y-183952381D01*
X42564286Y-183047619D02*
X42611905Y-183000000D01*
X42707143Y-182952381D01*
X42945239Y-182952381D01*
X43040477Y-183000000D01*
X43088096Y-183047619D01*
X43135715Y-183142857D01*
X43135715Y-183238095D01*
X43088096Y-183380952D01*
X42516667Y-183952381D01*
X43135715Y-183952381D01*
D11*
X27900000Y-164050000D02*
X27675000Y-163825000D01*
X28107640Y-171262040D02*
X27467560Y-171902120D01*
X28072080Y-170695620D02*
X27160220Y-170695620D01*
X28130500Y-171234100D02*
X29075380Y-170289220D01*
D12*
X39361101Y-177470787D02*
X32997140Y-183834748D01*
X32997140Y-183834748D02*
X25926072Y-176763680D01*
X25926072Y-176763680D02*
X32997140Y-169692612D01*
X32997140Y-169692612D02*
X39361101Y-176056573D01*
X39361101Y-176056573D02*
X39361101Y-177470787D01*
D10*
X47380000Y-184245000D02*
X46580000Y-184245000D01*
X46980000Y-184295000D02*
X47380000Y-184895000D01*
X46580000Y-184895000D02*
X46980000Y-184295000D01*
X47380000Y-184895000D02*
X46580000Y-184895000D01*
X46180000Y-186295000D02*
X46180000Y-183095000D01*
X47780000Y-186295000D02*
X46180000Y-186295000D01*
X47780000Y-183095000D02*
X47780000Y-186295000D01*
X46180000Y-183095000D02*
X47780000Y-183095000D01*
X29931424Y-185593378D02*
G75*
G02X26643378Y-188881424I-1644023J-1644023D01*
G01*
X25405942Y-181067895D02*
G75*
G03X22117894Y-184355941I-1644024J-1644023D01*
G01*
X29560194Y-185681767D02*
G75*
G02X26731766Y-188510193I-1414214J-1414213D01*
G01*
X25317552Y-181439125D02*
G75*
G03X22489126Y-184267553I-1414213J-1414214D01*
G01*
X26643378Y-188881424D02*
X22117894Y-184355941D01*
X29931424Y-185593378D02*
X25405941Y-181067894D01*
X26731766Y-188510193D02*
X22489126Y-184267553D01*
X29560193Y-185681766D02*
X25317553Y-181439126D01*
D11*
X47460000Y-177975000D02*
X46860000Y-178575000D01*
X46847500Y-177925000D02*
X48472500Y-177925000D01*
X46847500Y-180825000D02*
X46847500Y-177925000D01*
X48472500Y-180825000D02*
X46847500Y-180825000D01*
X48472500Y-177925000D02*
X48472500Y-180825000D01*
D10*
X49470000Y-185005000D02*
X49470000Y-185505000D01*
X49070000Y-185005000D02*
X49470000Y-184405000D01*
X49870000Y-185005000D02*
X49070000Y-185005000D01*
X49470000Y-184405000D02*
X49870000Y-185005000D01*
X49470000Y-184405000D02*
X48920000Y-184405000D01*
X49470000Y-184405000D02*
X50020000Y-184405000D01*
X49470000Y-184005000D02*
X49470000Y-184405000D01*
X48570000Y-183355000D02*
X50370000Y-183355000D01*
X48570000Y-186155000D02*
X48570000Y-183355000D01*
X50370000Y-186155000D02*
X48570000Y-186155000D01*
X50370000Y-183355000D02*
X50370000Y-186155000D01*
X17176840Y-181678240D02*
X16376840Y-181678240D01*
X17176840Y-180078240D02*
X17176840Y-181678240D01*
X16376840Y-180078240D02*
X17176840Y-180078240D01*
X16376840Y-181678240D02*
X16376840Y-180078240D01*
X31812597Y-189717848D02*
X31246912Y-189152163D01*
X32943968Y-188586477D02*
X31812597Y-189717848D01*
X32378283Y-188020792D02*
X32943968Y-188586477D01*
X31246912Y-189152163D02*
X32378283Y-188020792D01*
X38289000Y-159896000D02*
X38289000Y-159096000D01*
X39889000Y-159896000D02*
X38289000Y-159896000D01*
X39889000Y-159096000D02*
X39889000Y-159896000D01*
X38289000Y-159096000D02*
X39889000Y-159096000D01*
X21707843Y-178851472D02*
X22273528Y-179417157D01*
X20576472Y-179982843D02*
X21707843Y-178851472D01*
X21142157Y-180548528D02*
X20576472Y-179982843D01*
X22273528Y-179417157D02*
X21142157Y-180548528D01*
X34225000Y-159896000D02*
X34225000Y-159096000D01*
X35825000Y-159896000D02*
X34225000Y-159896000D01*
X35825000Y-159096000D02*
X35825000Y-159896000D01*
X34225000Y-159096000D02*
X35825000Y-159096000D01*
X20067157Y-179498528D02*
X19501472Y-178932843D01*
X21198528Y-178367157D02*
X20067157Y-179498528D01*
X20632843Y-177801472D02*
X21198528Y-178367157D01*
X19501472Y-178932843D02*
X20632843Y-177801472D01*
X37919632Y-170733917D02*
X38485317Y-170168232D01*
X39051003Y-171865288D02*
X37919632Y-170733917D01*
X39616688Y-171299603D02*
X39051003Y-171865288D01*
X38485317Y-170168232D02*
X39616688Y-171299603D01*
X39119632Y-169533917D02*
X39685317Y-168968232D01*
X40251003Y-170665288D02*
X39119632Y-169533917D01*
X40816688Y-170099603D02*
X40251003Y-170665288D01*
X39685317Y-168968232D02*
X40816688Y-170099603D01*
X21920000Y-171935000D02*
X22720000Y-171935000D01*
X21920000Y-173535000D02*
X21920000Y-171935000D01*
X22720000Y-173535000D02*
X21920000Y-173535000D01*
X22720000Y-171935000D02*
X22720000Y-173535000D01*
X22675000Y-162675000D02*
X21875000Y-162675000D01*
X22675000Y-161075000D02*
X22675000Y-162675000D01*
X21875000Y-161075000D02*
X22675000Y-161075000D01*
X21875000Y-162675000D02*
X21875000Y-161075000D01*
X20825000Y-162650000D02*
X20025000Y-162650000D01*
X20825000Y-161050000D02*
X20825000Y-162650000D01*
X20025000Y-161050000D02*
X20825000Y-161050000D01*
X20025000Y-162650000D02*
X20025000Y-161050000D01*
X41141472Y-173912157D02*
X41707157Y-173346472D01*
X42272843Y-175043528D02*
X41141472Y-173912157D01*
X42838528Y-174477843D02*
X42272843Y-175043528D01*
X41707157Y-173346472D02*
X42838528Y-174477843D01*
X39385317Y-182765288D02*
X38819632Y-182199603D01*
X40516688Y-181633917D02*
X39385317Y-182765288D01*
X39951003Y-181068232D02*
X40516688Y-181633917D01*
X38819632Y-182199603D02*
X39951003Y-181068232D01*
X44570000Y-190785000D02*
X43770000Y-190785000D01*
X44570000Y-189185000D02*
X44570000Y-190785000D01*
X43770000Y-189185000D02*
X44570000Y-189185000D01*
X43770000Y-190785000D02*
X43770000Y-189185000D01*
X27768160Y-162766760D02*
X26968160Y-162766760D01*
X27768160Y-161166760D02*
X27768160Y-162766760D01*
X26968160Y-161166760D02*
X27768160Y-161166760D01*
X26968160Y-162766760D02*
X26968160Y-161166760D01*
X13746840Y-181518240D02*
X12946840Y-181518240D01*
X13746840Y-179918240D02*
X13746840Y-181518240D01*
X12946840Y-179918240D02*
X13746840Y-179918240D01*
X12946840Y-181518240D02*
X12946840Y-179918240D01*
X14696840Y-179918240D02*
X15496840Y-179918240D01*
X14696840Y-181518240D02*
X14696840Y-179918240D01*
X15496840Y-181518240D02*
X14696840Y-181518240D01*
X15496840Y-179918240D02*
X15496840Y-181518240D01*
X21000000Y-173635000D02*
X20200000Y-173635000D01*
X21000000Y-172035000D02*
X21000000Y-173635000D01*
X20200000Y-172035000D02*
X21000000Y-172035000D01*
X20200000Y-173635000D02*
X20200000Y-172035000D01*
X23668160Y-161266760D02*
X24468160Y-161266760D01*
X23668160Y-162866760D02*
X23668160Y-161266760D01*
X24468160Y-162866760D02*
X23668160Y-162866760D01*
X24468160Y-161266760D02*
X24468160Y-162866760D01*
X29675000Y-167200000D02*
X28875000Y-167200000D01*
X29675000Y-165600000D02*
X29675000Y-167200000D01*
X28875000Y-165600000D02*
X29675000Y-165600000D01*
X28875000Y-167200000D02*
X28875000Y-165600000D01*
X31261000Y-167205560D02*
X30461000Y-167205560D01*
X31261000Y-165605560D02*
X31261000Y-167205560D01*
X30461000Y-165605560D02*
X31261000Y-165605560D01*
X30461000Y-167205560D02*
X30461000Y-165605560D01*
X30668160Y-161016760D02*
X31468160Y-161016760D01*
X30668160Y-162616760D02*
X30668160Y-161016760D01*
X31468160Y-162616760D02*
X30668160Y-162616760D01*
X31468160Y-161016760D02*
X31468160Y-162616760D01*
X29718160Y-162616760D02*
X28918160Y-162616760D01*
X29718160Y-161016760D02*
X29718160Y-162616760D01*
X28918160Y-161016760D02*
X29718160Y-161016760D01*
X28918160Y-162616760D02*
X28918160Y-161016760D01*
D12*
X23774360Y-165136660D02*
X26674360Y-165136660D01*
X26674360Y-165136660D02*
X26674360Y-170036660D01*
X26674360Y-170036660D02*
X22774360Y-170036660D01*
X22774360Y-170036660D02*
X22774360Y-166136660D01*
X22774360Y-166136660D02*
X23774360Y-165136660D01*
D10*
X26218160Y-162616760D02*
X25418160Y-162616760D01*
X26218160Y-161016760D02*
X26218160Y-162616760D01*
X25418160Y-161016760D02*
X26218160Y-161016760D01*
X25418160Y-162616760D02*
X25418160Y-161016760D01*
X23560000Y-171945000D02*
X24360000Y-171945000D01*
X23560000Y-173545000D02*
X23560000Y-171945000D01*
X24360000Y-173545000D02*
X23560000Y-173545000D01*
X24360000Y-171945000D02*
X24360000Y-173545000D01*
X44940000Y-184195000D02*
X44140000Y-184195000D01*
X44540000Y-184245000D02*
X44940000Y-184845000D01*
X44140000Y-184845000D02*
X44540000Y-184245000D01*
X44940000Y-184845000D02*
X44140000Y-184845000D01*
X43740000Y-186245000D02*
X43740000Y-183045000D01*
X45340000Y-186245000D02*
X43740000Y-186245000D01*
X45340000Y-183045000D02*
X45340000Y-186245000D01*
X43740000Y-183045000D02*
X45340000Y-183045000D01*
X15730000Y-175955000D02*
X15230000Y-175955000D01*
X15730000Y-175555000D02*
X16330000Y-175955000D01*
X15730000Y-176355000D02*
X15730000Y-175555000D01*
X16330000Y-175955000D02*
X15730000Y-176355000D01*
X16330000Y-175955000D02*
X16330000Y-175405000D01*
X16330000Y-175955000D02*
X16330000Y-176505000D01*
X16730000Y-175955000D02*
X16330000Y-175955000D01*
X17380000Y-175055000D02*
X17380000Y-176855000D01*
X14580000Y-175055000D02*
X17380000Y-175055000D01*
X14580000Y-176855000D02*
X14580000Y-175055000D01*
X17380000Y-176855000D02*
X14580000Y-176855000D01*
X38452180Y-161971960D02*
X39502180Y-160921960D01*
X38452180Y-161971960D02*
X38452180Y-167621960D01*
X39502180Y-160921960D02*
X42152180Y-160921960D01*
X38452180Y-167621960D02*
X42152180Y-167621960D01*
X42152180Y-160921960D02*
X42152180Y-167621960D01*
X41910000Y-195155000D02*
X41910000Y-195405000D01*
X41560000Y-195155000D02*
X41910000Y-194655000D01*
X42260000Y-195155000D02*
X41560000Y-195155000D01*
X41910000Y-194655000D02*
X42260000Y-195155000D01*
X41910000Y-194655000D02*
X41910000Y-194455000D01*
X42260000Y-194655000D02*
X41560000Y-194655000D01*
X41210000Y-194055000D02*
X42610000Y-194055000D01*
X41210000Y-195855000D02*
X41210000Y-194055000D01*
X42610000Y-195855000D02*
X41210000Y-195855000D01*
X42610000Y-194055000D02*
X42610000Y-195855000D01*
D12*
X40080000Y-191405000D02*
X38080000Y-191405000D01*
X38080000Y-191405000D02*
X38080000Y-188405000D01*
X38080000Y-188405000D02*
X41080000Y-188405000D01*
X41080000Y-188405000D02*
X41080000Y-190405000D01*
X41080000Y-190405000D02*
X40080000Y-191405000D01*
D10*
X48940000Y-176280000D02*
X48940000Y-175480000D01*
X50540000Y-176280000D02*
X48940000Y-176280000D01*
X50540000Y-175480000D02*
X50540000Y-176280000D01*
X48940000Y-175480000D02*
X50540000Y-175480000D01*
D12*
X34498477Y-166464027D02*
X33926057Y-167036447D01*
X33892385Y-167137462D01*
X33892385Y-167204805D01*
X33926057Y-167305820D01*
X34060745Y-167440508D01*
X34161760Y-167474180D01*
X34229103Y-167474180D01*
X34330118Y-167440508D01*
X34902538Y-166868088D01*
X35306600Y-167743553D02*
X34835195Y-168214958D01*
X35407614Y-167305820D02*
X34734179Y-167642538D01*
X35171912Y-168080271D01*
X17257143Y-183666666D02*
X17304762Y-183714285D01*
X17352381Y-183857142D01*
X17352381Y-183952380D01*
X17304762Y-184095238D01*
X17209524Y-184190476D01*
X17114286Y-184238095D01*
X16923810Y-184285714D01*
X16780952Y-184285714D01*
X16590476Y-184238095D01*
X16495238Y-184190476D01*
X16400000Y-184095238D01*
X16352381Y-183952380D01*
X16352381Y-183857142D01*
X16400000Y-183714285D01*
X16447619Y-183666666D01*
X17352381Y-182714285D02*
X17352381Y-183285714D01*
X17352381Y-183000000D02*
X16352381Y-183000000D01*
X16495238Y-183095238D01*
X16590476Y-183190476D01*
X16638095Y-183285714D01*
X29984688Y-191420389D02*
X29984688Y-191487732D01*
X29917344Y-191622419D01*
X29850001Y-191689763D01*
X29715313Y-191757107D01*
X29580626Y-191757107D01*
X29479611Y-191723435D01*
X29311253Y-191622420D01*
X29210237Y-191521404D01*
X29109222Y-191353045D01*
X29075550Y-191252030D01*
X29075550Y-191117343D01*
X29142894Y-190982656D01*
X29210237Y-190915312D01*
X29344924Y-190847969D01*
X29412268Y-190847969D01*
X29681641Y-190578595D02*
X29681641Y-190511252D01*
X29715313Y-190410237D01*
X29883672Y-190241877D01*
X29984688Y-190208206D01*
X30052031Y-190208206D01*
X30153046Y-190241877D01*
X30220390Y-190309221D01*
X30287733Y-190443908D01*
X30287733Y-191252030D01*
X30725466Y-190814297D01*
X42083334Y-159907143D02*
X42035715Y-159954762D01*
X41892858Y-160002381D01*
X41797620Y-160002381D01*
X41654762Y-159954762D01*
X41559524Y-159859524D01*
X41511905Y-159764286D01*
X41464286Y-159573810D01*
X41464286Y-159430952D01*
X41511905Y-159240476D01*
X41559524Y-159145238D01*
X41654762Y-159050000D01*
X41797620Y-159002381D01*
X41892858Y-159002381D01*
X42035715Y-159050000D01*
X42083334Y-159097619D01*
X42416667Y-159002381D02*
X43035715Y-159002381D01*
X42702381Y-159383333D01*
X42845239Y-159383333D01*
X42940477Y-159430952D01*
X42988096Y-159478571D01*
X43035715Y-159573810D01*
X43035715Y-159811905D01*
X42988096Y-159907143D01*
X42940477Y-159954762D01*
X42845239Y-160002381D01*
X42559524Y-160002381D01*
X42464286Y-159954762D01*
X42416667Y-159907143D01*
X19134688Y-182370390D02*
X19134688Y-182437733D01*
X19067344Y-182572420D01*
X19000001Y-182639764D01*
X18865313Y-182707108D01*
X18730626Y-182707108D01*
X18629611Y-182673436D01*
X18461253Y-182572421D01*
X18360237Y-182471405D01*
X18259222Y-182303046D01*
X18225550Y-182202031D01*
X18225550Y-182067344D01*
X18292894Y-181932657D01*
X18360237Y-181865313D01*
X18494924Y-181797970D01*
X18562268Y-181797970D01*
X19336718Y-181360237D02*
X19808123Y-181831642D01*
X18898985Y-181259223D02*
X19235703Y-181932658D01*
X19673436Y-181494925D01*
X34733334Y-161157143D02*
X34685715Y-161204762D01*
X34542858Y-161252381D01*
X34447620Y-161252381D01*
X34304762Y-161204762D01*
X34209524Y-161109524D01*
X34161905Y-161014286D01*
X34114286Y-160823810D01*
X34114286Y-160680952D01*
X34161905Y-160490476D01*
X34209524Y-160395238D01*
X34304762Y-160300000D01*
X34447620Y-160252381D01*
X34542858Y-160252381D01*
X34685715Y-160300000D01*
X34733334Y-160347619D01*
X35638096Y-160252381D02*
X35161905Y-160252381D01*
X35114286Y-160728571D01*
X35161905Y-160680952D01*
X35257143Y-160633333D01*
X35495239Y-160633333D01*
X35590477Y-160680952D01*
X35638096Y-160728571D01*
X35685715Y-160823810D01*
X35685715Y-161061905D01*
X35638096Y-161157143D01*
X35590477Y-161204762D01*
X35495239Y-161252381D01*
X35257143Y-161252381D01*
X35161905Y-161204762D01*
X35114286Y-161157143D01*
X21384688Y-179920389D02*
X21384688Y-179987732D01*
X21317344Y-180122419D01*
X21250001Y-180189763D01*
X21115313Y-180257107D01*
X20980626Y-180257107D01*
X20879611Y-180223435D01*
X20711253Y-180122420D01*
X20610237Y-180021404D01*
X20509222Y-179853045D01*
X20475550Y-179752030D01*
X20475550Y-179617343D01*
X20542894Y-179482656D01*
X20610237Y-179415312D01*
X20744924Y-179347969D01*
X20812268Y-179347969D01*
X20980626Y-179044924D02*
X21452031Y-178573519D01*
X21856092Y-179583672D01*
X36937688Y-169772389D02*
X36937688Y-169839732D01*
X36870344Y-169974419D01*
X36803001Y-170041763D01*
X36668313Y-170109107D01*
X36533626Y-170109107D01*
X36432611Y-170075435D01*
X36264253Y-169974420D01*
X36163237Y-169873404D01*
X36062222Y-169705045D01*
X36028550Y-169604030D01*
X36028550Y-169469343D01*
X36095894Y-169334656D01*
X36163237Y-169267312D01*
X36297924Y-169199969D01*
X36365268Y-169199969D01*
X37005030Y-169031610D02*
X36904015Y-169065282D01*
X36836672Y-169065282D01*
X36735657Y-169031610D01*
X36701985Y-168997939D01*
X36668313Y-168896924D01*
X36668313Y-168829580D01*
X36701985Y-168728565D01*
X36836672Y-168593877D01*
X36937688Y-168560206D01*
X37005031Y-168560206D01*
X37106046Y-168593877D01*
X37139718Y-168627549D01*
X37173390Y-168728564D01*
X37173390Y-168795908D01*
X37139718Y-168896923D01*
X37005030Y-169031610D01*
X36971359Y-169132626D01*
X36971359Y-169199969D01*
X37005031Y-169300985D01*
X37139718Y-169435672D01*
X37240733Y-169469343D01*
X37308076Y-169469343D01*
X37409092Y-169435672D01*
X37543779Y-169300984D01*
X37577451Y-169199969D01*
X37577451Y-169132626D01*
X37543779Y-169031610D01*
X37409092Y-168896924D01*
X37308076Y-168863251D01*
X37240733Y-168863251D01*
X37139718Y-168896923D01*
X40750611Y-169028688D02*
X40683268Y-169028688D01*
X40548581Y-168961344D01*
X40481237Y-168894001D01*
X40413893Y-168759313D01*
X40413893Y-168624626D01*
X40447565Y-168523611D01*
X40548580Y-168355253D01*
X40649596Y-168254237D01*
X40817955Y-168153222D01*
X40918970Y-168119550D01*
X41053657Y-168119550D01*
X41188344Y-168186894D01*
X41255688Y-168254237D01*
X41323031Y-168388924D01*
X41323031Y-168456268D01*
X41019985Y-169432748D02*
X41154672Y-169567435D01*
X41255688Y-169601107D01*
X41323031Y-169601107D01*
X41491390Y-169567436D01*
X41659748Y-169466421D01*
X41929123Y-169197046D01*
X41962794Y-169096031D01*
X41962794Y-169028688D01*
X41929123Y-168927672D01*
X41794435Y-168792985D01*
X41693420Y-168759313D01*
X41626076Y-168759313D01*
X41525061Y-168792985D01*
X41356703Y-168961343D01*
X41323031Y-169062359D01*
X41323030Y-169129703D01*
X41356702Y-169230718D01*
X41491390Y-169365405D01*
X41592405Y-169399077D01*
X41659749Y-169399076D01*
X41760764Y-169365405D01*
X22707143Y-176642857D02*
X22754762Y-176690476D01*
X22802381Y-176833333D01*
X22802381Y-176928571D01*
X22754762Y-177071429D01*
X22659524Y-177166667D01*
X22564286Y-177214286D01*
X22373810Y-177261905D01*
X22230952Y-177261905D01*
X22040476Y-177214286D01*
X21945238Y-177166667D01*
X21850000Y-177071429D01*
X21802381Y-176928571D01*
X21802381Y-176833333D01*
X21850000Y-176690476D01*
X21897619Y-176642857D01*
X22802381Y-175690476D02*
X22802381Y-176261905D01*
X22802381Y-175976191D02*
X21802381Y-175976191D01*
X21945238Y-176071429D01*
X22040476Y-176166667D01*
X22088095Y-176261905D01*
X21802381Y-175071429D02*
X21802381Y-174976190D01*
X21850000Y-174880952D01*
X21897619Y-174833333D01*
X21992857Y-174785714D01*
X22183333Y-174738095D01*
X22421429Y-174738095D01*
X22611905Y-174785714D01*
X22707143Y-174833333D01*
X22754762Y-174880952D01*
X22802381Y-174976190D01*
X22802381Y-175071429D01*
X22754762Y-175166667D01*
X22707143Y-175214286D01*
X22611905Y-175261905D01*
X22421429Y-175309524D01*
X22183333Y-175309524D01*
X21992857Y-175261905D01*
X21897619Y-175214286D01*
X21850000Y-175166667D01*
X21802381Y-175071429D01*
X20807143Y-159607143D02*
X20759524Y-159654762D01*
X20616667Y-159702381D01*
X20521429Y-159702381D01*
X20378571Y-159654762D01*
X20283333Y-159559524D01*
X20235714Y-159464286D01*
X20188095Y-159273810D01*
X20188095Y-159130952D01*
X20235714Y-158940476D01*
X20283333Y-158845238D01*
X20378571Y-158750000D01*
X20521429Y-158702381D01*
X20616667Y-158702381D01*
X20759524Y-158750000D01*
X20807143Y-158797619D01*
X21759524Y-159702381D02*
X21188095Y-159702381D01*
X21473809Y-159702381D02*
X21473809Y-158702381D01*
X21378571Y-158845238D01*
X21283333Y-158940476D01*
X21188095Y-158988095D01*
X22140476Y-158797619D02*
X22188095Y-158750000D01*
X22283333Y-158702381D01*
X22521429Y-158702381D01*
X22616667Y-158750000D01*
X22664286Y-158797619D01*
X22711905Y-158892857D01*
X22711905Y-158988095D01*
X22664286Y-159130952D01*
X22092857Y-159702381D01*
X22711905Y-159702381D01*
X17407143Y-159607143D02*
X17359524Y-159654762D01*
X17216667Y-159702381D01*
X17121429Y-159702381D01*
X16978571Y-159654762D01*
X16883333Y-159559524D01*
X16835714Y-159464286D01*
X16788095Y-159273810D01*
X16788095Y-159130952D01*
X16835714Y-158940476D01*
X16883333Y-158845238D01*
X16978571Y-158750000D01*
X17121429Y-158702381D01*
X17216667Y-158702381D01*
X17359524Y-158750000D01*
X17407143Y-158797619D01*
X18359524Y-159702381D02*
X17788095Y-159702381D01*
X18073809Y-159702381D02*
X18073809Y-158702381D01*
X17978571Y-158845238D01*
X17883333Y-158940476D01*
X17788095Y-158988095D01*
X18692857Y-158702381D02*
X19311905Y-158702381D01*
X18978571Y-159083333D01*
X19121429Y-159083333D01*
X19216667Y-159130952D01*
X19264286Y-159178571D01*
X19311905Y-159273810D01*
X19311905Y-159511905D01*
X19264286Y-159607143D01*
X19216667Y-159654762D01*
X19121429Y-159702381D01*
X18835714Y-159702381D01*
X18740476Y-159654762D01*
X18692857Y-159607143D01*
X42462268Y-173302031D02*
X42563283Y-172729610D01*
X42058206Y-172897970D02*
X42765313Y-172190863D01*
X43034688Y-172460237D01*
X43068359Y-172561253D01*
X43068359Y-172628596D01*
X43034688Y-172729611D01*
X42933672Y-172830626D01*
X42832657Y-172864298D01*
X42765314Y-172864298D01*
X42664299Y-172830626D01*
X42394924Y-172561252D01*
X43135703Y-173975466D02*
X42731641Y-173571405D01*
X42933672Y-173773435D02*
X43640778Y-173066328D01*
X43472420Y-173100000D01*
X43337733Y-173100000D01*
X43236718Y-173066328D01*
X41445268Y-180018031D02*
X41546283Y-179445610D01*
X41041206Y-179613970D02*
X41748313Y-178906863D01*
X42017688Y-179176237D01*
X42051359Y-179277253D01*
X42051359Y-179344596D01*
X42017688Y-179445611D01*
X41916672Y-179546626D01*
X41815657Y-179580298D01*
X41748314Y-179580298D01*
X41647299Y-179546626D01*
X41377924Y-179277252D01*
X42354405Y-179647641D02*
X42421748Y-179647641D01*
X42522763Y-179681313D01*
X42691123Y-179849672D01*
X42724794Y-179950688D01*
X42724794Y-180018031D01*
X42691123Y-180119046D01*
X42623779Y-180186390D01*
X42489092Y-180253733D01*
X41680970Y-180253733D01*
X42118703Y-180691466D01*
X44602381Y-193416666D02*
X44126190Y-193750000D01*
X44602381Y-193988095D02*
X43602381Y-193988095D01*
X43602381Y-193607142D01*
X43650000Y-193511904D01*
X43697619Y-193464285D01*
X43792857Y-193416666D01*
X43935714Y-193416666D01*
X44030952Y-193464285D01*
X44078571Y-193511904D01*
X44126190Y-193607142D01*
X44126190Y-193988095D01*
X43602381Y-193083333D02*
X43602381Y-192464285D01*
X43983333Y-192797619D01*
X43983333Y-192654761D01*
X44030952Y-192559523D01*
X44078571Y-192511904D01*
X44173810Y-192464285D01*
X44411905Y-192464285D01*
X44507143Y-192511904D01*
X44554762Y-192559523D01*
X44602381Y-192654761D01*
X44602381Y-192940476D01*
X44554762Y-193035714D01*
X44507143Y-193083333D01*
X32803334Y-161962381D02*
X32470000Y-161486190D01*
X32231905Y-161962381D02*
X32231905Y-160962381D01*
X32612858Y-160962381D01*
X32708096Y-161010000D01*
X32755715Y-161057619D01*
X32803334Y-161152857D01*
X32803334Y-161295714D01*
X32755715Y-161390952D01*
X32708096Y-161438571D01*
X32612858Y-161486190D01*
X32231905Y-161486190D01*
X33660477Y-161295714D02*
X33660477Y-161962381D01*
X33422381Y-160914762D02*
X33184286Y-161629048D01*
X33803334Y-161629048D01*
X13802381Y-183816666D02*
X13326190Y-184150000D01*
X13802381Y-184388095D02*
X12802381Y-184388095D01*
X12802381Y-184007142D01*
X12850000Y-183911904D01*
X12897619Y-183864285D01*
X12992857Y-183816666D01*
X13135714Y-183816666D01*
X13230952Y-183864285D01*
X13278571Y-183911904D01*
X13326190Y-184007142D01*
X13326190Y-184388095D01*
X12802381Y-182911904D02*
X12802381Y-183388095D01*
X13278571Y-183435714D01*
X13230952Y-183388095D01*
X13183333Y-183292857D01*
X13183333Y-183054761D01*
X13230952Y-182959523D01*
X13278571Y-182911904D01*
X13373810Y-182864285D01*
X13611905Y-182864285D01*
X13707143Y-182911904D01*
X13754762Y-182959523D01*
X13802381Y-183054761D01*
X13802381Y-183292857D01*
X13754762Y-183388095D01*
X13707143Y-183435714D01*
X15652381Y-183766666D02*
X15176190Y-184100000D01*
X15652381Y-184338095D02*
X14652381Y-184338095D01*
X14652381Y-183957142D01*
X14700000Y-183861904D01*
X14747619Y-183814285D01*
X14842857Y-183766666D01*
X14985714Y-183766666D01*
X15080952Y-183814285D01*
X15128571Y-183861904D01*
X15176190Y-183957142D01*
X15176190Y-184338095D01*
X14652381Y-182909523D02*
X14652381Y-183100000D01*
X14700000Y-183195238D01*
X14747619Y-183242857D01*
X14890476Y-183338095D01*
X15080952Y-183385714D01*
X15461905Y-183385714D01*
X15557143Y-183338095D01*
X15604762Y-183290476D01*
X15652381Y-183195238D01*
X15652381Y-183004761D01*
X15604762Y-182909523D01*
X15557143Y-182861904D01*
X15461905Y-182814285D01*
X15223810Y-182814285D01*
X15128571Y-182861904D01*
X15080952Y-182909523D01*
X15033333Y-183004761D01*
X15033333Y-183195238D01*
X15080952Y-183290476D01*
X15128571Y-183338095D01*
X15223810Y-183385714D01*
X21152381Y-175966666D02*
X20676190Y-176300000D01*
X21152381Y-176538095D02*
X20152381Y-176538095D01*
X20152381Y-176157142D01*
X20200000Y-176061904D01*
X20247619Y-176014285D01*
X20342857Y-175966666D01*
X20485714Y-175966666D01*
X20580952Y-176014285D01*
X20628571Y-176061904D01*
X20676190Y-176157142D01*
X20676190Y-176538095D01*
X20152381Y-175633333D02*
X20152381Y-174966666D01*
X21152381Y-175395238D01*
X24552381Y-159366666D02*
X24076190Y-159700000D01*
X24552381Y-159938095D02*
X23552381Y-159938095D01*
X23552381Y-159557142D01*
X23600000Y-159461904D01*
X23647619Y-159414285D01*
X23742857Y-159366666D01*
X23885714Y-159366666D01*
X23980952Y-159414285D01*
X24028571Y-159461904D01*
X24076190Y-159557142D01*
X24076190Y-159938095D01*
X23980952Y-158795238D02*
X23933333Y-158890476D01*
X23885714Y-158938095D01*
X23790476Y-158985714D01*
X23742857Y-158985714D01*
X23647619Y-158938095D01*
X23600000Y-158890476D01*
X23552381Y-158795238D01*
X23552381Y-158604761D01*
X23600000Y-158509523D01*
X23647619Y-158461904D01*
X23742857Y-158414285D01*
X23790476Y-158414285D01*
X23885714Y-158461904D01*
X23933333Y-158509523D01*
X23980952Y-158604761D01*
X23980952Y-158795238D01*
X24028571Y-158890476D01*
X24076190Y-158938095D01*
X24171429Y-158985714D01*
X24361905Y-158985714D01*
X24457143Y-158938095D01*
X24504762Y-158890476D01*
X24552381Y-158795238D01*
X24552381Y-158604761D01*
X24504762Y-158509523D01*
X24457143Y-158461904D01*
X24361905Y-158414285D01*
X24171429Y-158414285D01*
X24076190Y-158461904D01*
X24028571Y-158509523D01*
X23980952Y-158604761D01*
X32603334Y-166832381D02*
X32270000Y-166356190D01*
X32031905Y-166832381D02*
X32031905Y-165832381D01*
X32412858Y-165832381D01*
X32508096Y-165880000D01*
X32555715Y-165927619D01*
X32603334Y-166022857D01*
X32603334Y-166165714D01*
X32555715Y-166260952D01*
X32508096Y-166308571D01*
X32412858Y-166356190D01*
X32031905Y-166356190D01*
X33079524Y-166832381D02*
X33270000Y-166832381D01*
X33365239Y-166784762D01*
X33412858Y-166737143D01*
X33508096Y-166594286D01*
X33555715Y-166403810D01*
X33555715Y-166022857D01*
X33508096Y-165927619D01*
X33460477Y-165880000D01*
X33365239Y-165832381D01*
X33174762Y-165832381D01*
X33079524Y-165880000D01*
X33031905Y-165927619D01*
X32984286Y-166022857D01*
X32984286Y-166260952D01*
X33031905Y-166356190D01*
X33079524Y-166403810D01*
X33174762Y-166451429D01*
X33365239Y-166451429D01*
X33460477Y-166403810D01*
X33508096Y-166356190D01*
X33555715Y-166260952D01*
X32527143Y-165412381D02*
X32193809Y-164936190D01*
X31955714Y-165412381D02*
X31955714Y-164412381D01*
X32336667Y-164412381D01*
X32431905Y-164460000D01*
X32479524Y-164507619D01*
X32527143Y-164602857D01*
X32527143Y-164745714D01*
X32479524Y-164840952D01*
X32431905Y-164888571D01*
X32336667Y-164936190D01*
X31955714Y-164936190D01*
X33479524Y-165412381D02*
X32908095Y-165412381D01*
X33193809Y-165412381D02*
X33193809Y-164412381D01*
X33098571Y-164555238D01*
X33003333Y-164650476D01*
X32908095Y-164698095D01*
X34098571Y-164412381D02*
X34193810Y-164412381D01*
X34289048Y-164460000D01*
X34336667Y-164507619D01*
X34384286Y-164602857D01*
X34431905Y-164793333D01*
X34431905Y-165031429D01*
X34384286Y-165221905D01*
X34336667Y-165317143D01*
X34289048Y-165364762D01*
X34193810Y-165412381D01*
X34098571Y-165412381D01*
X34003333Y-165364762D01*
X33955714Y-165317143D01*
X33908095Y-165221905D01*
X33860476Y-165031429D01*
X33860476Y-164793333D01*
X33908095Y-164602857D01*
X33955714Y-164507619D01*
X34003333Y-164460000D01*
X34098571Y-164412381D01*
X31157143Y-159552381D02*
X30823809Y-159076190D01*
X30585714Y-159552381D02*
X30585714Y-158552381D01*
X30966667Y-158552381D01*
X31061905Y-158600000D01*
X31109524Y-158647619D01*
X31157143Y-158742857D01*
X31157143Y-158885714D01*
X31109524Y-158980952D01*
X31061905Y-159028571D01*
X30966667Y-159076190D01*
X30585714Y-159076190D01*
X32109524Y-159552381D02*
X31538095Y-159552381D01*
X31823809Y-159552381D02*
X31823809Y-158552381D01*
X31728571Y-158695238D01*
X31633333Y-158790476D01*
X31538095Y-158838095D01*
X33061905Y-159552381D02*
X32490476Y-159552381D01*
X32776190Y-159552381D02*
X32776190Y-158552381D01*
X32680952Y-158695238D01*
X32585714Y-158790476D01*
X32490476Y-158838095D01*
X28207143Y-159552381D02*
X27873809Y-159076190D01*
X27635714Y-159552381D02*
X27635714Y-158552381D01*
X28016667Y-158552381D01*
X28111905Y-158600000D01*
X28159524Y-158647619D01*
X28207143Y-158742857D01*
X28207143Y-158885714D01*
X28159524Y-158980952D01*
X28111905Y-159028571D01*
X28016667Y-159076190D01*
X27635714Y-159076190D01*
X29159524Y-159552381D02*
X28588095Y-159552381D01*
X28873809Y-159552381D02*
X28873809Y-158552381D01*
X28778571Y-158695238D01*
X28683333Y-158790476D01*
X28588095Y-158838095D01*
X29540476Y-158647619D02*
X29588095Y-158600000D01*
X29683333Y-158552381D01*
X29921429Y-158552381D01*
X30016667Y-158600000D01*
X30064286Y-158647619D01*
X30111905Y-158742857D01*
X30111905Y-158838095D01*
X30064286Y-158980952D01*
X29492857Y-159552381D01*
X30111905Y-159552381D01*
X26207143Y-159216666D02*
X26254762Y-159264285D01*
X26302381Y-159407142D01*
X26302381Y-159502380D01*
X26254762Y-159645238D01*
X26159524Y-159740476D01*
X26064286Y-159788095D01*
X25873810Y-159835714D01*
X25730952Y-159835714D01*
X25540476Y-159788095D01*
X25445238Y-159740476D01*
X25350000Y-159645238D01*
X25302381Y-159502380D01*
X25302381Y-159407142D01*
X25350000Y-159264285D01*
X25397619Y-159216666D01*
X25302381Y-158359523D02*
X25302381Y-158550000D01*
X25350000Y-158645238D01*
X25397619Y-158692857D01*
X25540476Y-158788095D01*
X25730952Y-158835714D01*
X26111905Y-158835714D01*
X26207143Y-158788095D01*
X26254762Y-158740476D01*
X26302381Y-158645238D01*
X26302381Y-158454761D01*
X26254762Y-158359523D01*
X26207143Y-158311904D01*
X26111905Y-158264285D01*
X25873810Y-158264285D01*
X25778571Y-158311904D01*
X25730952Y-158359523D01*
X25683333Y-158454761D01*
X25683333Y-158645238D01*
X25730952Y-158740476D01*
X25778571Y-158788095D01*
X25873810Y-158835714D01*
X24357143Y-176442857D02*
X24404762Y-176490476D01*
X24452381Y-176633333D01*
X24452381Y-176728571D01*
X24404762Y-176871429D01*
X24309524Y-176966667D01*
X24214286Y-177014286D01*
X24023810Y-177061905D01*
X23880952Y-177061905D01*
X23690476Y-177014286D01*
X23595238Y-176966667D01*
X23500000Y-176871429D01*
X23452381Y-176728571D01*
X23452381Y-176633333D01*
X23500000Y-176490476D01*
X23547619Y-176442857D01*
X24452381Y-175490476D02*
X24452381Y-176061905D01*
X24452381Y-175776191D02*
X23452381Y-175776191D01*
X23595238Y-175871429D01*
X23690476Y-175966667D01*
X23738095Y-176061905D01*
X24452381Y-174538095D02*
X24452381Y-175109524D01*
X24452381Y-174823810D02*
X23452381Y-174823810D01*
X23595238Y-174919048D01*
X23690476Y-175014286D01*
X23738095Y-175109524D01*
D13*
X42990476Y-168061905D02*
X42990476Y-168709524D01*
X43028571Y-168785714D01*
X43066667Y-168823810D01*
X43142857Y-168861905D01*
X43295238Y-168861905D01*
X43371429Y-168823810D01*
X43409524Y-168785714D01*
X43447619Y-168709524D01*
X43447619Y-168061905D01*
X43790476Y-168138095D02*
X43828571Y-168100000D01*
X43904762Y-168061905D01*
X44095238Y-168061905D01*
X44171428Y-168100000D01*
X44209524Y-168138095D01*
X44247619Y-168214286D01*
X44247619Y-168290476D01*
X44209524Y-168404762D01*
X43752381Y-168861905D01*
X44247619Y-168861905D01*
D12*
X39122857Y-189576429D02*
X39122857Y-190062143D01*
X39151429Y-190119286D01*
X39180000Y-190147857D01*
X39237143Y-190176429D01*
X39351429Y-190176429D01*
X39408571Y-190147857D01*
X39437143Y-190119286D01*
X39465714Y-190062143D01*
X39465714Y-189576429D01*
X39694285Y-189576429D02*
X40065714Y-189576429D01*
X39865714Y-189805000D01*
X39951428Y-189805000D01*
X40008571Y-189833571D01*
X40037142Y-189862143D01*
X40065714Y-189919286D01*
X40065714Y-190062143D01*
X40037142Y-190119286D01*
X40008571Y-190147857D01*
X39951428Y-190176429D01*
X39780000Y-190176429D01*
X39722857Y-190147857D01*
X39694285Y-190119286D01*
D14*
X49418572Y-176106190D02*
X49251905Y-175868095D01*
X49132858Y-176106190D02*
X49132858Y-175606190D01*
X49323334Y-175606190D01*
X49370953Y-175630000D01*
X49394762Y-175653810D01*
X49418572Y-175701429D01*
X49418572Y-175772857D01*
X49394762Y-175820476D01*
X49370953Y-175844286D01*
X49323334Y-175868095D01*
X49132858Y-175868095D01*
X49894762Y-176106190D02*
X49609048Y-176106190D01*
X49751905Y-176106190D02*
X49751905Y-175606190D01*
X49704286Y-175677619D01*
X49656667Y-175725238D01*
X49609048Y-175749048D01*
X50061429Y-175606190D02*
X50370952Y-175606190D01*
X50204286Y-175796667D01*
X50275714Y-175796667D01*
X50323333Y-175820476D01*
X50347143Y-175844286D01*
X50370952Y-175891905D01*
X50370952Y-176010952D01*
X50347143Y-176058571D01*
X50323333Y-176082381D01*
X50275714Y-176106190D01*
X50132857Y-176106190D01*
X50085238Y-176082381D01*
X50061429Y-176058571D01*
M02*
