G04 #@! TF.FileFunction,Copper,L2,Bot,Signal*
%FSLAX46Y46*%
G04 Gerber Fmt 4.6, Leading zero omitted, Abs format (unit mm)*
G04 Created by KiCad (PCBNEW 4.0.4-stable) date 06/04/17 23:31:50*
%MOMM*%
%LPD*%
G01*
G04 APERTURE LIST*
%ADD10C,0.100000*%
%ADD11C,1.600200*%
%ADD12C,1.500000*%
%ADD13O,3.500120X1.800860*%
%ADD14O,1.998980X1.998980*%
%ADD15R,1.998980X1.998980*%
%ADD16C,0.600000*%
%ADD17C,0.400000*%
%ADD18C,0.254000*%
G04 APERTURE END LIST*
D10*
D11*
X46969680Y-194066160D03*
X50144680Y-194066160D03*
D12*
X27750000Y-186700000D03*
X24299319Y-183249319D03*
D13*
X48442880Y-160050480D03*
X48442880Y-162590480D03*
X48442880Y-165130480D03*
X48442880Y-167670480D03*
D14*
X15740000Y-188375000D03*
D15*
X15740000Y-195995000D03*
D14*
X15740000Y-193455000D03*
X15740000Y-190915000D03*
X15740000Y-185835000D03*
X15940000Y-164985000D03*
D15*
X15940000Y-172605000D03*
D14*
X15940000Y-170065000D03*
X15940000Y-167525000D03*
X15940000Y-162445000D03*
X29960000Y-194745000D03*
D15*
X22340000Y-194745000D03*
D14*
X24880000Y-194745000D03*
X27420000Y-194745000D03*
X32500000Y-194745000D03*
D16*
X35160000Y-189860000D03*
X46880000Y-184310000D03*
X44520000Y-184600000D03*
X41840000Y-171620000D03*
X44550000Y-171270000D03*
X46730000Y-170250000D03*
X42150000Y-169170000D03*
X41600000Y-164275000D03*
X40610000Y-196195000D03*
X35150000Y-193560000D03*
X44820000Y-179265000D03*
X49510000Y-187535000D03*
X32100000Y-186340000D03*
X37350000Y-187380000D03*
X24470000Y-168790000D03*
X21630000Y-173030000D03*
X29260000Y-161890000D03*
X38790000Y-164295000D03*
X14732000Y-176784000D03*
X30226000Y-180594000D03*
X20066000Y-181356000D03*
X16002000Y-180594000D03*
X38650000Y-188900000D03*
X35500000Y-160440000D03*
X22275000Y-164045000D03*
X25820000Y-159510000D03*
X15200000Y-183075000D03*
X28460000Y-164995000D03*
X40070000Y-160525000D03*
X36030000Y-173615000D03*
X19480000Y-169225000D03*
X24960000Y-177445000D03*
X17700000Y-181420000D03*
X19800000Y-176820000D03*
X50800000Y-182626000D03*
X45466000Y-190246000D03*
X43434000Y-169164000D03*
X41402000Y-167132000D03*
X23410000Y-168270000D03*
X21660000Y-171740000D03*
X29718000Y-178816000D03*
X43990000Y-179870000D03*
X45650000Y-176120000D03*
X50540000Y-188790000D03*
X39900000Y-192540000D03*
X18990000Y-175945000D03*
X28170000Y-175295000D03*
X17100000Y-177500000D03*
X30180000Y-173395000D03*
X44270000Y-161185000D03*
X19020000Y-180655000D03*
X28590000Y-178895000D03*
X33190000Y-180060000D03*
X35180000Y-185590000D03*
X50770000Y-177180000D03*
X49960000Y-179125000D03*
X29310000Y-174155000D03*
X50390000Y-181375000D03*
X42122060Y-180252781D03*
X42350000Y-183160000D03*
X35814000Y-196596000D03*
X47752000Y-175006000D03*
X39116000Y-162306000D03*
X38100000Y-168910000D03*
X21050000Y-166140000D03*
X19560000Y-171560000D03*
X28940000Y-177450000D03*
X26170000Y-169745000D03*
X28320000Y-160785000D03*
X26120000Y-166565000D03*
X33660000Y-175885000D03*
X32630000Y-177830000D03*
X31780000Y-177440000D03*
X41730000Y-178375000D03*
X27890000Y-159175000D03*
X26550000Y-172785000D03*
X13130000Y-176650000D03*
X28630000Y-175955000D03*
X29040000Y-192905000D03*
X25570000Y-167980000D03*
X17780000Y-171450000D03*
X17526000Y-168148000D03*
X18542000Y-166370000D03*
X20574000Y-172720000D03*
D17*
X24970000Y-162720000D02*
X24970000Y-160360000D01*
X24970000Y-160360000D02*
X25820000Y-159510000D01*
X23645000Y-164045000D02*
X24970000Y-162720000D01*
X22275000Y-164045000D02*
X23645000Y-164045000D01*
X40760000Y-166560000D02*
X40760000Y-165115000D01*
X40760000Y-165115000D02*
X41600000Y-164275000D01*
X46970000Y-174190000D02*
X46970000Y-171130000D01*
X46970000Y-171130000D02*
X46945000Y-171105000D01*
X44820000Y-177798542D02*
X45798541Y-176820001D01*
X45798541Y-176820001D02*
X46399999Y-176820001D01*
X46399999Y-176820001D02*
X46970000Y-176250000D01*
X44820000Y-179265000D02*
X44820000Y-177798542D01*
X35160000Y-189860000D02*
X35160000Y-193550000D01*
X35160000Y-193550000D02*
X35150000Y-193560000D01*
X44520000Y-184600000D02*
X46590000Y-184600000D01*
X46590000Y-184600000D02*
X46880000Y-184310000D01*
X41840000Y-171620000D02*
X43820000Y-171620000D01*
X44170000Y-171270000D02*
X44550000Y-171270000D01*
X43820000Y-171620000D02*
X44170000Y-171270000D01*
X46730000Y-170250000D02*
X47060000Y-170250000D01*
X47060000Y-170250000D02*
X47230000Y-170420000D01*
X41830000Y-169000000D02*
X41980000Y-169000000D01*
X41060000Y-168230000D02*
X41830000Y-169000000D01*
X40490000Y-168230000D02*
X41060000Y-168230000D01*
X41980000Y-169000000D02*
X42150000Y-169170000D01*
X40490000Y-166830000D02*
X40490000Y-168230000D01*
X40760000Y-166560000D02*
X40490000Y-166830000D01*
X40490000Y-168230000D02*
X40550000Y-168290000D01*
X46945000Y-171105000D02*
X47230000Y-170820000D01*
X47230000Y-170820000D02*
X47230000Y-170420000D01*
X48442880Y-169207120D02*
X48442880Y-167670480D01*
X47230000Y-170420000D02*
X48442880Y-169207120D01*
X46970000Y-174190000D02*
X46945000Y-174165000D01*
X46945000Y-174165000D02*
X46940000Y-174160000D01*
X46970000Y-176250000D02*
X46970000Y-174190000D01*
X21630000Y-173030000D02*
X22100000Y-172560000D01*
X22100000Y-172560000D02*
X22130000Y-172560000D01*
X22130000Y-172560000D02*
X24470000Y-170220000D01*
X24470000Y-170220000D02*
X24470000Y-168790000D01*
X22275000Y-164045000D02*
X22270000Y-164040000D01*
X15090000Y-183185000D02*
X15090000Y-183205000D01*
X15200000Y-183075000D02*
X15090000Y-183185000D01*
X18640000Y-170065000D02*
X15940000Y-170065000D01*
X19480000Y-169225000D02*
X18640000Y-170065000D01*
X19470001Y-177119999D02*
X18161273Y-178428727D01*
X18161273Y-178428727D02*
X18068876Y-178490885D01*
X18068876Y-178490885D02*
X17400001Y-179159760D01*
X17400001Y-179159760D02*
X17400001Y-181120001D01*
X17400001Y-181120001D02*
X17700000Y-181420000D01*
X19800000Y-176820000D02*
X19500001Y-177119999D01*
X19500001Y-177119999D02*
X19470001Y-177119999D01*
X26199264Y-178260000D02*
X26291264Y-178168000D01*
X26291264Y-178168000D02*
X29070000Y-178168000D01*
X29070000Y-178168000D02*
X29418001Y-178516001D01*
X29418001Y-178516001D02*
X29718000Y-178816000D01*
X24960000Y-177445000D02*
X25384264Y-177445000D01*
X25384264Y-177445000D02*
X26199264Y-178260000D01*
X19800000Y-176820000D02*
X19740000Y-176880000D01*
X48514000Y-182626000D02*
X50800000Y-182626000D01*
X48006000Y-183134000D02*
X48514000Y-182626000D01*
X48006000Y-187706000D02*
X48006000Y-183134000D01*
X46228000Y-189484000D02*
X48006000Y-187706000D01*
X45466000Y-190246000D02*
X46228000Y-189484000D01*
X43180000Y-168910000D02*
X43434000Y-169164000D01*
X41402000Y-167132000D02*
X43180000Y-168910000D01*
X21660000Y-171740000D02*
X21660000Y-171460000D01*
X23420000Y-168280000D02*
X23410000Y-168270000D01*
X23420000Y-169700000D02*
X23420000Y-168280000D01*
X21660000Y-171460000D02*
X23420000Y-169700000D01*
X21640000Y-171760000D02*
X21630000Y-171760000D01*
X21660000Y-171740000D02*
X21640000Y-171760000D01*
X29718000Y-178816000D02*
X29718000Y-178756000D01*
X43990000Y-179870000D02*
X43690001Y-179570001D01*
X43690001Y-179570001D02*
X43690001Y-178079999D01*
X43690001Y-178079999D02*
X43710000Y-178060000D01*
X43710000Y-178060000D02*
X45650000Y-176120000D01*
X39900000Y-192540000D02*
X45260000Y-192540000D01*
X45260000Y-192540000D02*
X48990000Y-188810000D01*
X50520000Y-188810000D02*
X50540000Y-188790000D01*
X48990000Y-188810000D02*
X50520000Y-188810000D01*
X13900000Y-179010000D02*
X13900000Y-183350000D01*
X18070000Y-188585000D02*
X15740000Y-190915000D01*
X18070000Y-184550000D02*
X18070000Y-188585000D01*
X17740000Y-184220000D02*
X18070000Y-184550000D01*
X14770000Y-184220000D02*
X17740000Y-184220000D01*
X13900000Y-183350000D02*
X14770000Y-184220000D01*
X18990000Y-175945000D02*
X18990000Y-176680000D01*
X13900000Y-179010000D02*
X13910000Y-179040000D01*
X14050000Y-178300000D02*
X13900000Y-179010000D01*
X17370000Y-178300000D02*
X14050000Y-178300000D01*
X18990000Y-176680000D02*
X17370000Y-178300000D01*
X18970000Y-175965000D02*
X18990000Y-175945000D01*
X28170000Y-175205000D02*
X26620000Y-173655000D01*
X26620000Y-173655000D02*
X25650000Y-173655000D01*
X25650000Y-173655000D02*
X24860000Y-174445000D01*
X24860000Y-174445000D02*
X24860000Y-175085000D01*
X24860000Y-175085000D02*
X24000000Y-175945000D01*
X24000000Y-175945000D02*
X18990000Y-175945000D01*
X18990000Y-175945000D02*
X18970000Y-175965000D01*
X28170000Y-175295000D02*
X28170000Y-175205000D01*
X17010872Y-177501857D02*
X17098143Y-177501857D01*
X17098143Y-177501857D02*
X17100000Y-177500000D01*
X12690000Y-183610000D02*
X12690000Y-184760000D01*
X13740000Y-177570000D02*
X12690000Y-178620000D01*
X12690000Y-178620000D02*
X12690000Y-183610000D01*
X17010872Y-177501857D02*
X13740000Y-177570000D01*
X13765000Y-185835000D02*
X15740000Y-185835000D01*
X12690000Y-184760000D02*
X13765000Y-185835000D01*
X17100000Y-177500000D02*
X17100000Y-177510000D01*
X30180000Y-173395000D02*
X30180000Y-172925000D01*
X44300000Y-161215000D02*
X44270000Y-161185000D01*
X44196000Y-170180000D02*
X44300000Y-161215000D01*
X37840000Y-170200000D02*
X44196000Y-170180000D01*
X35306000Y-170180000D02*
X37840000Y-170200000D01*
X34036000Y-170180000D02*
X35306000Y-170180000D01*
X33020000Y-170180000D02*
X34036000Y-170180000D01*
X30180000Y-172925000D02*
X33020000Y-170180000D01*
X19070000Y-179975000D02*
X19070000Y-180605000D01*
X19070000Y-180605000D02*
X19020000Y-180655000D01*
X24010000Y-178285000D02*
X23960000Y-178285000D01*
X28570000Y-178815000D02*
X27330000Y-180055000D01*
X27330000Y-180055000D02*
X25780000Y-180055000D01*
X25780000Y-180055000D02*
X24010000Y-178285000D01*
X28720000Y-178815000D02*
X28670000Y-178815000D01*
X28590000Y-178895000D02*
X28670000Y-178815000D01*
X28720000Y-178815000D02*
X28570000Y-178815000D01*
X21540000Y-177505000D02*
X19070000Y-179975000D01*
X23180000Y-177505000D02*
X21540000Y-177505000D01*
X23960000Y-178285000D02*
X23180000Y-177505000D01*
X35180000Y-185590000D02*
X35180000Y-185470000D01*
X33190000Y-183630000D02*
X34680000Y-184970000D01*
X33190000Y-180060000D02*
X33190000Y-183630000D01*
X35180000Y-185470000D02*
X34680000Y-184970000D01*
X50770000Y-177890736D02*
X50770000Y-177180000D01*
X49960000Y-179125000D02*
X49960000Y-178700736D01*
X49960000Y-178700736D02*
X50770000Y-177890736D01*
X40814645Y-179895156D02*
X39630156Y-179895156D01*
X39630156Y-179895156D02*
X34450000Y-174715000D01*
X46820000Y-181670000D02*
X42520000Y-181670000D01*
X42520000Y-181670000D02*
X42210000Y-181360000D01*
X47115000Y-181375000D02*
X46820000Y-181670000D01*
X50390000Y-181375000D02*
X47115000Y-181375000D01*
X49960000Y-179125000D02*
X51290000Y-179125000D01*
X51390000Y-180375000D02*
X50390000Y-181375000D01*
X51390000Y-179225000D02*
X51390000Y-180375000D01*
X51290000Y-179125000D02*
X51390000Y-179225000D01*
X49980000Y-179105000D02*
X49980000Y-179075000D01*
X49960000Y-179125000D02*
X49980000Y-179105000D01*
X40814645Y-179895156D02*
X42210000Y-181360000D01*
X29880000Y-174715000D02*
X34450000Y-174715000D01*
X29310000Y-174145000D02*
X29880000Y-174715000D01*
X29310000Y-174155000D02*
X29310000Y-174145000D01*
X38100000Y-168910000D02*
X38100000Y-168485736D01*
X38089999Y-168475735D02*
X38089999Y-163332001D01*
X38100000Y-168485736D02*
X38089999Y-168475735D01*
X38089999Y-163332001D02*
X38816001Y-162605999D01*
X38816001Y-162605999D02*
X39116000Y-162306000D01*
X42122060Y-180252781D02*
X42439280Y-180570001D01*
X42439280Y-180570001D02*
X47220001Y-180570001D01*
X47220001Y-180570001D02*
X47244000Y-180594000D01*
X42350000Y-183160000D02*
X42350000Y-183584264D01*
X42350000Y-183584264D02*
X40132000Y-185802264D01*
X40132000Y-185802264D02*
X40132000Y-190246000D01*
X40132000Y-190246000D02*
X36830000Y-193548000D01*
X36830000Y-193548000D02*
X36830000Y-195580000D01*
X36830000Y-195580000D02*
X35814000Y-196596000D01*
X47752000Y-180086000D02*
X47244000Y-180594000D01*
X47752000Y-175006000D02*
X47752000Y-180086000D01*
X19560000Y-171560000D02*
X19560000Y-171135736D01*
X19560000Y-171135736D02*
X21050000Y-169645736D01*
X21050000Y-169645736D02*
X21050000Y-166564264D01*
X21050000Y-166564264D02*
X21050000Y-166140000D01*
X28940000Y-177450000D02*
X29820000Y-176570000D01*
X29820000Y-176570000D02*
X29820000Y-175720000D01*
X29820000Y-175720000D02*
X28200000Y-174100000D01*
X27390000Y-171605000D02*
X26170000Y-170385000D01*
X28200000Y-174100000D02*
X28200000Y-173645000D01*
X28200000Y-173645000D02*
X27390000Y-172835000D01*
X27390000Y-172835000D02*
X27390000Y-171605000D01*
X26170000Y-170385000D02*
X26170000Y-170330000D01*
X26170000Y-170330000D02*
X26170000Y-169745000D01*
X28150000Y-160955000D02*
X28320000Y-160785000D01*
X28150000Y-163685000D02*
X28150000Y-160955000D01*
X27830000Y-164005000D02*
X28150000Y-163685000D01*
X26910000Y-164005000D02*
X27830000Y-164005000D01*
X26200000Y-164715000D02*
X26910000Y-164005000D01*
X26200000Y-166485000D02*
X26200000Y-164715000D01*
X26120000Y-166565000D02*
X26200000Y-166485000D01*
X22340000Y-194745000D02*
X24540000Y-196945000D01*
X36040000Y-178255000D02*
X33670000Y-175885000D01*
X24540000Y-196945000D02*
X34225000Y-196945000D01*
X34225000Y-196945000D02*
X35900000Y-195270000D01*
X35900000Y-195270000D02*
X35900000Y-194610000D01*
X35900000Y-194610000D02*
X36040000Y-185500000D01*
X36040000Y-185500000D02*
X36040000Y-178255000D01*
X33670000Y-175885000D02*
X33660000Y-175885000D01*
X32070000Y-178740000D02*
X32630000Y-178180000D01*
X32630000Y-178180000D02*
X32630000Y-177830000D01*
X32070000Y-183382575D02*
X32070000Y-178740000D01*
X24880000Y-194745000D02*
X26450000Y-196315000D01*
X26450000Y-196315000D02*
X33455000Y-196315000D01*
X33455000Y-196315000D02*
X34360000Y-195410000D01*
X34360000Y-195410000D02*
X34360000Y-186120000D01*
X34360000Y-186120000D02*
X32082101Y-183842101D01*
X32082101Y-183842101D02*
X32070000Y-183382575D01*
X33460000Y-189810000D02*
X33460000Y-186610000D01*
X33460000Y-186610000D02*
X33010000Y-186160000D01*
X31469990Y-177830010D02*
X31780000Y-177520000D01*
X31780000Y-177520000D02*
X31780000Y-177440000D01*
X31500000Y-184530000D02*
X31469990Y-184499990D01*
X31469990Y-184499990D02*
X31469990Y-177830010D01*
X33460000Y-189810000D02*
X29960000Y-194265000D01*
X31500000Y-184530000D02*
X33010000Y-186160000D01*
X29960000Y-194265000D02*
X29960000Y-194745000D01*
X41730000Y-178375000D02*
X45380000Y-174725000D01*
X45380000Y-174725000D02*
X45380000Y-160745000D01*
X45380000Y-160745000D02*
X43360000Y-158725000D01*
X43360000Y-158725000D02*
X28340000Y-158725000D01*
X28340000Y-158725000D02*
X27890000Y-159175000D01*
X20170000Y-173950000D02*
X24506458Y-173950000D01*
X25671458Y-172785000D02*
X26125736Y-172785000D01*
X24506458Y-173950000D02*
X25671458Y-172785000D01*
X26125736Y-172785000D02*
X26550000Y-172785000D01*
X19570000Y-174550000D02*
X20170000Y-173950000D01*
X13100002Y-174550000D02*
X19570000Y-174550000D01*
X12830001Y-174820001D02*
X13100002Y-174550000D01*
X13130000Y-176650000D02*
X12830001Y-176350001D01*
X12830001Y-176350001D02*
X12830001Y-174820001D01*
X26550000Y-172785000D02*
X26560000Y-172785000D01*
X26560000Y-172785000D02*
X26520000Y-172745000D01*
X13070000Y-176590000D02*
X13130000Y-176650000D01*
X20960000Y-176730000D02*
X26990000Y-176730000D01*
X26990000Y-176730000D02*
X27150000Y-176570000D01*
X18319999Y-179370001D02*
X20960000Y-176730000D01*
X18620000Y-181650000D02*
X18580000Y-181650000D01*
X18580000Y-181650000D02*
X18400001Y-181470001D01*
X18400001Y-181470001D02*
X18400001Y-181071003D01*
X18400001Y-181071003D02*
X18319999Y-180991001D01*
X18319999Y-180991001D02*
X18319999Y-179370001D01*
X27135000Y-190375000D02*
X29040000Y-192280000D01*
X29040000Y-192280000D02*
X29040000Y-192905000D01*
X26580000Y-190375000D02*
X27135000Y-190375000D01*
X28630000Y-175955000D02*
X27150000Y-176570000D01*
X18620000Y-181650000D02*
X26580000Y-190375000D01*
X25570000Y-167980000D02*
X22440000Y-164850000D01*
X22440000Y-164850000D02*
X18345000Y-164850000D01*
X18345000Y-164850000D02*
X15940000Y-162445000D01*
X18034000Y-167640000D02*
X18034000Y-166878000D01*
X18796000Y-172720000D02*
X17780000Y-171704000D01*
X17780000Y-171704000D02*
X17780000Y-171450000D01*
X17526000Y-168148000D02*
X18034000Y-167640000D01*
X20574000Y-172720000D02*
X18796000Y-172720000D01*
X18034000Y-166878000D02*
X18542000Y-166370000D01*
D18*
G36*
X51385000Y-193307990D02*
X51152497Y-193237948D01*
X50324285Y-194066160D01*
X51152497Y-194894372D01*
X51385000Y-194824330D01*
X51385000Y-197435000D01*
X36231897Y-197435000D01*
X36342943Y-197389117D01*
X36606192Y-197126327D01*
X36706778Y-196884090D01*
X37420434Y-196170434D01*
X37460815Y-196110000D01*
X37601439Y-195899541D01*
X37665000Y-195580000D01*
X37665000Y-194350367D01*
X45534332Y-194350367D01*
X45752352Y-194878017D01*
X46155700Y-195282069D01*
X46682969Y-195501010D01*
X47253887Y-195501508D01*
X47781537Y-195283488D01*
X47991413Y-195073977D01*
X49316468Y-195073977D01*
X49390615Y-195320107D01*
X49927880Y-195513224D01*
X50498150Y-195486039D01*
X50898745Y-195320107D01*
X50972892Y-195073977D01*
X50144680Y-194245765D01*
X49316468Y-195073977D01*
X47991413Y-195073977D01*
X48185589Y-194880140D01*
X48404530Y-194352871D01*
X48404969Y-193849360D01*
X48697616Y-193849360D01*
X48724801Y-194419630D01*
X48890733Y-194820225D01*
X49136863Y-194894372D01*
X49965075Y-194066160D01*
X49136863Y-193237948D01*
X48890733Y-193312095D01*
X48697616Y-193849360D01*
X48404969Y-193849360D01*
X48405028Y-193781953D01*
X48187008Y-193254303D01*
X47991390Y-193058343D01*
X49316468Y-193058343D01*
X50144680Y-193886555D01*
X50972892Y-193058343D01*
X50898745Y-192812213D01*
X50361480Y-192619096D01*
X49791210Y-192646281D01*
X49390615Y-192812213D01*
X49316468Y-193058343D01*
X47991390Y-193058343D01*
X47783660Y-192850251D01*
X47256391Y-192631310D01*
X46685473Y-192630812D01*
X46157823Y-192848832D01*
X45753771Y-193252180D01*
X45534830Y-193779449D01*
X45534332Y-194350367D01*
X37665000Y-194350367D01*
X37665000Y-193893868D01*
X38964952Y-192593916D01*
X38964838Y-192725167D01*
X39106883Y-193068943D01*
X39369673Y-193332192D01*
X39713201Y-193474838D01*
X40085167Y-193475162D01*
X40327578Y-193375000D01*
X45260000Y-193375000D01*
X45579541Y-193311439D01*
X45850434Y-193130434D01*
X49335868Y-189645000D01*
X50160931Y-189645000D01*
X50353201Y-189724838D01*
X50725167Y-189725162D01*
X51068943Y-189583117D01*
X51332192Y-189320327D01*
X51385000Y-189193152D01*
X51385000Y-193307990D01*
X51385000Y-193307990D01*
G37*
X51385000Y-193307990D02*
X51152497Y-193237948D01*
X50324285Y-194066160D01*
X51152497Y-194894372D01*
X51385000Y-194824330D01*
X51385000Y-197435000D01*
X36231897Y-197435000D01*
X36342943Y-197389117D01*
X36606192Y-197126327D01*
X36706778Y-196884090D01*
X37420434Y-196170434D01*
X37460815Y-196110000D01*
X37601439Y-195899541D01*
X37665000Y-195580000D01*
X37665000Y-194350367D01*
X45534332Y-194350367D01*
X45752352Y-194878017D01*
X46155700Y-195282069D01*
X46682969Y-195501010D01*
X47253887Y-195501508D01*
X47781537Y-195283488D01*
X47991413Y-195073977D01*
X49316468Y-195073977D01*
X49390615Y-195320107D01*
X49927880Y-195513224D01*
X50498150Y-195486039D01*
X50898745Y-195320107D01*
X50972892Y-195073977D01*
X50144680Y-194245765D01*
X49316468Y-195073977D01*
X47991413Y-195073977D01*
X48185589Y-194880140D01*
X48404530Y-194352871D01*
X48404969Y-193849360D01*
X48697616Y-193849360D01*
X48724801Y-194419630D01*
X48890733Y-194820225D01*
X49136863Y-194894372D01*
X49965075Y-194066160D01*
X49136863Y-193237948D01*
X48890733Y-193312095D01*
X48697616Y-193849360D01*
X48404969Y-193849360D01*
X48405028Y-193781953D01*
X48187008Y-193254303D01*
X47991390Y-193058343D01*
X49316468Y-193058343D01*
X50144680Y-193886555D01*
X50972892Y-193058343D01*
X50898745Y-192812213D01*
X50361480Y-192619096D01*
X49791210Y-192646281D01*
X49390615Y-192812213D01*
X49316468Y-193058343D01*
X47991390Y-193058343D01*
X47783660Y-192850251D01*
X47256391Y-192631310D01*
X46685473Y-192630812D01*
X46157823Y-192848832D01*
X45753771Y-193252180D01*
X45534830Y-193779449D01*
X45534332Y-194350367D01*
X37665000Y-194350367D01*
X37665000Y-193893868D01*
X38964952Y-192593916D01*
X38964838Y-192725167D01*
X39106883Y-193068943D01*
X39369673Y-193332192D01*
X39713201Y-193474838D01*
X40085167Y-193475162D01*
X40327578Y-193375000D01*
X45260000Y-193375000D01*
X45579541Y-193311439D01*
X45850434Y-193130434D01*
X49335868Y-189645000D01*
X50160931Y-189645000D01*
X50353201Y-189724838D01*
X50725167Y-189725162D01*
X51068943Y-189583117D01*
X51332192Y-189320327D01*
X51385000Y-189193152D01*
X51385000Y-193307990D01*
G36*
X16565001Y-179159760D02*
X16565001Y-181120001D01*
X16628562Y-181439542D01*
X16806335Y-181705598D01*
X16906883Y-181948943D01*
X17169673Y-182212192D01*
X17513201Y-182354838D01*
X17885167Y-182355162D01*
X18055770Y-182284670D01*
X18088985Y-182306863D01*
X25963143Y-190937772D01*
X25978778Y-190949289D01*
X25989566Y-190965434D01*
X26109413Y-191045513D01*
X26225462Y-191130994D01*
X26244313Y-191135650D01*
X26260459Y-191146439D01*
X26401835Y-191174561D01*
X26541756Y-191209123D01*
X26560953Y-191206211D01*
X26580000Y-191210000D01*
X26789132Y-191210000D01*
X28161546Y-192582414D01*
X28105162Y-192718201D01*
X28104838Y-193090167D01*
X28209574Y-193343648D01*
X27800355Y-193155373D01*
X27547000Y-193274193D01*
X27547000Y-194618000D01*
X27567000Y-194618000D01*
X27567000Y-194872000D01*
X27547000Y-194872000D01*
X27547000Y-194892000D01*
X27293000Y-194892000D01*
X27293000Y-194872000D01*
X27273000Y-194872000D01*
X27273000Y-194618000D01*
X27293000Y-194618000D01*
X27293000Y-193274193D01*
X27039645Y-193155373D01*
X26460274Y-193421932D01*
X26167379Y-193738300D01*
X26067781Y-193589241D01*
X25537514Y-193234928D01*
X24912022Y-193110510D01*
X24847978Y-193110510D01*
X24222486Y-193234928D01*
X23902923Y-193448453D01*
X23803580Y-193294069D01*
X23591380Y-193149079D01*
X23339490Y-193098070D01*
X21340510Y-193098070D01*
X21105193Y-193142348D01*
X20889069Y-193281420D01*
X20744079Y-193493620D01*
X20693070Y-193745510D01*
X20693070Y-195744490D01*
X20737348Y-195979807D01*
X20876420Y-196195931D01*
X21088620Y-196340921D01*
X21340510Y-196391930D01*
X22806062Y-196391930D01*
X23849132Y-197435000D01*
X17207043Y-197435000D01*
X17335921Y-197246380D01*
X17386930Y-196994490D01*
X17386930Y-194995510D01*
X17342652Y-194760193D01*
X17203580Y-194544069D01*
X17042351Y-194433906D01*
X17063068Y-194414726D01*
X17329627Y-193835355D01*
X17210807Y-193582000D01*
X15867000Y-193582000D01*
X15867000Y-193602000D01*
X15613000Y-193602000D01*
X15613000Y-193582000D01*
X14269193Y-193582000D01*
X14150373Y-193835355D01*
X14416932Y-194414726D01*
X14438863Y-194435030D01*
X14289069Y-194531420D01*
X14144079Y-194743620D01*
X14093070Y-194995510D01*
X14093070Y-196994490D01*
X14137348Y-197229807D01*
X14269386Y-197435000D01*
X12750000Y-197435000D01*
X12750000Y-186000868D01*
X13174566Y-186425434D01*
X13445460Y-186606440D01*
X13765000Y-186670000D01*
X14348520Y-186670000D01*
X14584241Y-187022781D01*
X14707290Y-187105000D01*
X14584241Y-187187219D01*
X14229928Y-187717486D01*
X14105510Y-188342978D01*
X14105510Y-188407022D01*
X14229928Y-189032514D01*
X14584241Y-189562781D01*
X14707290Y-189645000D01*
X14584241Y-189727219D01*
X14229928Y-190257486D01*
X14105510Y-190882978D01*
X14105510Y-190947022D01*
X14229928Y-191572514D01*
X14584241Y-192102781D01*
X14733300Y-192202379D01*
X14416932Y-192495274D01*
X14150373Y-193074645D01*
X14269193Y-193328000D01*
X15613000Y-193328000D01*
X15613000Y-193308000D01*
X15867000Y-193308000D01*
X15867000Y-193328000D01*
X17210807Y-193328000D01*
X17329627Y-193074645D01*
X17063068Y-192495274D01*
X16746700Y-192202379D01*
X16895759Y-192102781D01*
X17250072Y-191572514D01*
X17374490Y-190947022D01*
X17374490Y-190882978D01*
X17304542Y-190531326D01*
X18660434Y-189175434D01*
X18841440Y-188904540D01*
X18905000Y-188585000D01*
X18905000Y-184550000D01*
X18841439Y-184230459D01*
X18660434Y-183959566D01*
X18330434Y-183629566D01*
X18227575Y-183560838D01*
X18059541Y-183448561D01*
X17740000Y-183385000D01*
X15115868Y-183385000D01*
X14735000Y-183004132D01*
X14735000Y-179135000D01*
X16569926Y-179135000D01*
X16565001Y-179159760D01*
X16565001Y-179159760D01*
G37*
X16565001Y-179159760D02*
X16565001Y-181120001D01*
X16628562Y-181439542D01*
X16806335Y-181705598D01*
X16906883Y-181948943D01*
X17169673Y-182212192D01*
X17513201Y-182354838D01*
X17885167Y-182355162D01*
X18055770Y-182284670D01*
X18088985Y-182306863D01*
X25963143Y-190937772D01*
X25978778Y-190949289D01*
X25989566Y-190965434D01*
X26109413Y-191045513D01*
X26225462Y-191130994D01*
X26244313Y-191135650D01*
X26260459Y-191146439D01*
X26401835Y-191174561D01*
X26541756Y-191209123D01*
X26560953Y-191206211D01*
X26580000Y-191210000D01*
X26789132Y-191210000D01*
X28161546Y-192582414D01*
X28105162Y-192718201D01*
X28104838Y-193090167D01*
X28209574Y-193343648D01*
X27800355Y-193155373D01*
X27547000Y-193274193D01*
X27547000Y-194618000D01*
X27567000Y-194618000D01*
X27567000Y-194872000D01*
X27547000Y-194872000D01*
X27547000Y-194892000D01*
X27293000Y-194892000D01*
X27293000Y-194872000D01*
X27273000Y-194872000D01*
X27273000Y-194618000D01*
X27293000Y-194618000D01*
X27293000Y-193274193D01*
X27039645Y-193155373D01*
X26460274Y-193421932D01*
X26167379Y-193738300D01*
X26067781Y-193589241D01*
X25537514Y-193234928D01*
X24912022Y-193110510D01*
X24847978Y-193110510D01*
X24222486Y-193234928D01*
X23902923Y-193448453D01*
X23803580Y-193294069D01*
X23591380Y-193149079D01*
X23339490Y-193098070D01*
X21340510Y-193098070D01*
X21105193Y-193142348D01*
X20889069Y-193281420D01*
X20744079Y-193493620D01*
X20693070Y-193745510D01*
X20693070Y-195744490D01*
X20737348Y-195979807D01*
X20876420Y-196195931D01*
X21088620Y-196340921D01*
X21340510Y-196391930D01*
X22806062Y-196391930D01*
X23849132Y-197435000D01*
X17207043Y-197435000D01*
X17335921Y-197246380D01*
X17386930Y-196994490D01*
X17386930Y-194995510D01*
X17342652Y-194760193D01*
X17203580Y-194544069D01*
X17042351Y-194433906D01*
X17063068Y-194414726D01*
X17329627Y-193835355D01*
X17210807Y-193582000D01*
X15867000Y-193582000D01*
X15867000Y-193602000D01*
X15613000Y-193602000D01*
X15613000Y-193582000D01*
X14269193Y-193582000D01*
X14150373Y-193835355D01*
X14416932Y-194414726D01*
X14438863Y-194435030D01*
X14289069Y-194531420D01*
X14144079Y-194743620D01*
X14093070Y-194995510D01*
X14093070Y-196994490D01*
X14137348Y-197229807D01*
X14269386Y-197435000D01*
X12750000Y-197435000D01*
X12750000Y-186000868D01*
X13174566Y-186425434D01*
X13445460Y-186606440D01*
X13765000Y-186670000D01*
X14348520Y-186670000D01*
X14584241Y-187022781D01*
X14707290Y-187105000D01*
X14584241Y-187187219D01*
X14229928Y-187717486D01*
X14105510Y-188342978D01*
X14105510Y-188407022D01*
X14229928Y-189032514D01*
X14584241Y-189562781D01*
X14707290Y-189645000D01*
X14584241Y-189727219D01*
X14229928Y-190257486D01*
X14105510Y-190882978D01*
X14105510Y-190947022D01*
X14229928Y-191572514D01*
X14584241Y-192102781D01*
X14733300Y-192202379D01*
X14416932Y-192495274D01*
X14150373Y-193074645D01*
X14269193Y-193328000D01*
X15613000Y-193328000D01*
X15613000Y-193308000D01*
X15867000Y-193308000D01*
X15867000Y-193328000D01*
X17210807Y-193328000D01*
X17329627Y-193074645D01*
X17063068Y-192495274D01*
X16746700Y-192202379D01*
X16895759Y-192102781D01*
X17250072Y-191572514D01*
X17374490Y-190947022D01*
X17374490Y-190882978D01*
X17304542Y-190531326D01*
X18660434Y-189175434D01*
X18841440Y-188904540D01*
X18905000Y-188585000D01*
X18905000Y-184550000D01*
X18841439Y-184230459D01*
X18660434Y-183959566D01*
X18330434Y-183629566D01*
X18227575Y-183560838D01*
X18059541Y-183448561D01*
X17740000Y-183385000D01*
X15115868Y-183385000D01*
X14735000Y-183004132D01*
X14735000Y-179135000D01*
X16569926Y-179135000D01*
X16565001Y-179159760D01*
G36*
X23369566Y-178875434D02*
X23520250Y-178976118D01*
X25189566Y-180645434D01*
X25460459Y-180826439D01*
X25780000Y-180890000D01*
X27330000Y-180890000D01*
X27649541Y-180826439D01*
X27920434Y-180645434D01*
X28735740Y-179830128D01*
X28775167Y-179830162D01*
X29118943Y-179688117D01*
X29195678Y-179611516D01*
X29531201Y-179750838D01*
X29903167Y-179751162D01*
X30246943Y-179609117D01*
X30510192Y-179346327D01*
X30634990Y-179045782D01*
X30634990Y-184499990D01*
X30698551Y-184819531D01*
X30859009Y-185059673D01*
X30879556Y-185090424D01*
X30898283Y-185109151D01*
X32397449Y-186727455D01*
X32410565Y-186736963D01*
X32419566Y-186750434D01*
X32625000Y-186955868D01*
X32625000Y-189521227D01*
X29975010Y-192894287D01*
X29975162Y-192719833D01*
X29875000Y-192477422D01*
X29875000Y-192280000D01*
X29811439Y-191960459D01*
X29630434Y-191689566D01*
X27725434Y-189784566D01*
X27639608Y-189727219D01*
X27454541Y-189603561D01*
X27135000Y-189540000D01*
X26948498Y-189540000D01*
X24607743Y-186974285D01*
X26364760Y-186974285D01*
X26575169Y-187483515D01*
X26964436Y-187873461D01*
X27473298Y-188084759D01*
X28024285Y-188085240D01*
X28533515Y-187874831D01*
X28923461Y-187485564D01*
X29134759Y-186976702D01*
X29135240Y-186425715D01*
X28924831Y-185916485D01*
X28535564Y-185526539D01*
X28026702Y-185315241D01*
X27475715Y-185314760D01*
X26966485Y-185525169D01*
X26576539Y-185914436D01*
X26365241Y-186423298D01*
X26364760Y-186974285D01*
X24607743Y-186974285D01*
X21459615Y-183523604D01*
X22914079Y-183523604D01*
X23124488Y-184032834D01*
X23513755Y-184422780D01*
X24022617Y-184634078D01*
X24573604Y-184634559D01*
X25082834Y-184424150D01*
X25472780Y-184034883D01*
X25684078Y-183526021D01*
X25684559Y-182975034D01*
X25474150Y-182465804D01*
X25084883Y-182075858D01*
X24576021Y-181864560D01*
X24025034Y-181864079D01*
X23515804Y-182074488D01*
X23125858Y-182463755D01*
X22914560Y-182972617D01*
X22914079Y-183523604D01*
X21459615Y-183523604D01*
X19557924Y-181439151D01*
X19812192Y-181185327D01*
X19954838Y-180841799D01*
X19955162Y-180469833D01*
X19905000Y-180348431D01*
X19905000Y-180320868D01*
X21885869Y-178340000D01*
X22834132Y-178340000D01*
X23369566Y-178875434D01*
X23369566Y-178875434D01*
G37*
X23369566Y-178875434D02*
X23520250Y-178976118D01*
X25189566Y-180645434D01*
X25460459Y-180826439D01*
X25780000Y-180890000D01*
X27330000Y-180890000D01*
X27649541Y-180826439D01*
X27920434Y-180645434D01*
X28735740Y-179830128D01*
X28775167Y-179830162D01*
X29118943Y-179688117D01*
X29195678Y-179611516D01*
X29531201Y-179750838D01*
X29903167Y-179751162D01*
X30246943Y-179609117D01*
X30510192Y-179346327D01*
X30634990Y-179045782D01*
X30634990Y-184499990D01*
X30698551Y-184819531D01*
X30859009Y-185059673D01*
X30879556Y-185090424D01*
X30898283Y-185109151D01*
X32397449Y-186727455D01*
X32410565Y-186736963D01*
X32419566Y-186750434D01*
X32625000Y-186955868D01*
X32625000Y-189521227D01*
X29975010Y-192894287D01*
X29975162Y-192719833D01*
X29875000Y-192477422D01*
X29875000Y-192280000D01*
X29811439Y-191960459D01*
X29630434Y-191689566D01*
X27725434Y-189784566D01*
X27639608Y-189727219D01*
X27454541Y-189603561D01*
X27135000Y-189540000D01*
X26948498Y-189540000D01*
X24607743Y-186974285D01*
X26364760Y-186974285D01*
X26575169Y-187483515D01*
X26964436Y-187873461D01*
X27473298Y-188084759D01*
X28024285Y-188085240D01*
X28533515Y-187874831D01*
X28923461Y-187485564D01*
X29134759Y-186976702D01*
X29135240Y-186425715D01*
X28924831Y-185916485D01*
X28535564Y-185526539D01*
X28026702Y-185315241D01*
X27475715Y-185314760D01*
X26966485Y-185525169D01*
X26576539Y-185914436D01*
X26365241Y-186423298D01*
X26364760Y-186974285D01*
X24607743Y-186974285D01*
X21459615Y-183523604D01*
X22914079Y-183523604D01*
X23124488Y-184032834D01*
X23513755Y-184422780D01*
X24022617Y-184634078D01*
X24573604Y-184634559D01*
X25082834Y-184424150D01*
X25472780Y-184034883D01*
X25684078Y-183526021D01*
X25684559Y-182975034D01*
X25474150Y-182465804D01*
X25084883Y-182075858D01*
X24576021Y-181864560D01*
X24025034Y-181864079D01*
X23515804Y-182074488D01*
X23125858Y-182463755D01*
X22914560Y-182972617D01*
X22914079Y-183523604D01*
X21459615Y-183523604D01*
X19557924Y-181439151D01*
X19812192Y-181185327D01*
X19954838Y-180841799D01*
X19955162Y-180469833D01*
X19905000Y-180348431D01*
X19905000Y-180320868D01*
X21885869Y-178340000D01*
X22834132Y-178340000D01*
X23369566Y-178875434D01*
G36*
X39039722Y-180485590D02*
X39310615Y-180666595D01*
X39630156Y-180730156D01*
X40456835Y-180730156D01*
X41605400Y-181935920D01*
X41613836Y-181941858D01*
X41619566Y-181950434D01*
X41929566Y-182260434D01*
X41986544Y-182298505D01*
X41821057Y-182366883D01*
X41557808Y-182629673D01*
X41415162Y-182973201D01*
X41414844Y-183338552D01*
X39541566Y-185211830D01*
X39360561Y-185482723D01*
X39297000Y-185802264D01*
X39297000Y-189900132D01*
X36768623Y-192428509D01*
X36874901Y-185512830D01*
X36873726Y-185506407D01*
X36875000Y-185500000D01*
X36875000Y-178320868D01*
X39039722Y-180485590D01*
X39039722Y-180485590D01*
G37*
X39039722Y-180485590D02*
X39310615Y-180666595D01*
X39630156Y-180730156D01*
X40456835Y-180730156D01*
X41605400Y-181935920D01*
X41613836Y-181941858D01*
X41619566Y-181950434D01*
X41929566Y-182260434D01*
X41986544Y-182298505D01*
X41821057Y-182366883D01*
X41557808Y-182629673D01*
X41415162Y-182973201D01*
X41414844Y-183338552D01*
X39541566Y-185211830D01*
X39360561Y-185482723D01*
X39297000Y-185802264D01*
X39297000Y-189900132D01*
X36768623Y-192428509D01*
X36874901Y-185512830D01*
X36873726Y-185506407D01*
X36875000Y-185500000D01*
X36875000Y-178320868D01*
X39039722Y-180485590D01*
G36*
X47415566Y-182543566D02*
X47234561Y-182814459D01*
X47171000Y-183134000D01*
X47171000Y-187360132D01*
X45177667Y-189353465D01*
X44937057Y-189452883D01*
X44673808Y-189715673D01*
X44531162Y-190059201D01*
X44530838Y-190431167D01*
X44672883Y-190774943D01*
X44935673Y-191038192D01*
X45279201Y-191180838D01*
X45438156Y-191180976D01*
X44914132Y-191705000D01*
X40327234Y-191705000D01*
X40086799Y-191605162D01*
X39953822Y-191605046D01*
X40722434Y-190836434D01*
X40763521Y-190774943D01*
X40903439Y-190565541D01*
X40967000Y-190246000D01*
X40967000Y-186148132D01*
X42940434Y-184174698D01*
X43121440Y-183903804D01*
X43183866Y-183589966D01*
X43284838Y-183346799D01*
X43285162Y-182974833D01*
X43143117Y-182631057D01*
X43017280Y-182505000D01*
X46820000Y-182505000D01*
X47139541Y-182441439D01*
X47410434Y-182260434D01*
X47460868Y-182210000D01*
X47749131Y-182210000D01*
X47415566Y-182543566D01*
X47415566Y-182543566D01*
G37*
X47415566Y-182543566D02*
X47234561Y-182814459D01*
X47171000Y-183134000D01*
X47171000Y-187360132D01*
X45177667Y-189353465D01*
X44937057Y-189452883D01*
X44673808Y-189715673D01*
X44531162Y-190059201D01*
X44530838Y-190431167D01*
X44672883Y-190774943D01*
X44935673Y-191038192D01*
X45279201Y-191180838D01*
X45438156Y-191180976D01*
X44914132Y-191705000D01*
X40327234Y-191705000D01*
X40086799Y-191605162D01*
X39953822Y-191605046D01*
X40722434Y-190836434D01*
X40763521Y-190774943D01*
X40903439Y-190565541D01*
X40967000Y-190246000D01*
X40967000Y-186148132D01*
X42940434Y-184174698D01*
X43121440Y-183903804D01*
X43183866Y-183589966D01*
X43284838Y-183346799D01*
X43285162Y-182974833D01*
X43143117Y-182631057D01*
X43017280Y-182505000D01*
X46820000Y-182505000D01*
X47139541Y-182441439D01*
X47410434Y-182260434D01*
X47460868Y-182210000D01*
X47749131Y-182210000D01*
X47415566Y-182543566D01*
G36*
X51385000Y-188386624D02*
X51333117Y-188261057D01*
X51070327Y-187997808D01*
X50726799Y-187855162D01*
X50354833Y-187854838D01*
X50064018Y-187975000D01*
X48990000Y-187975000D01*
X48779151Y-188016940D01*
X48841000Y-187706000D01*
X48841000Y-183479868D01*
X48859869Y-183461000D01*
X50372766Y-183461000D01*
X50613201Y-183560838D01*
X50985167Y-183561162D01*
X51328943Y-183419117D01*
X51385000Y-183363158D01*
X51385000Y-188386624D01*
X51385000Y-188386624D01*
G37*
X51385000Y-188386624D02*
X51333117Y-188261057D01*
X51070327Y-187997808D01*
X50726799Y-187855162D01*
X50354833Y-187854838D01*
X50064018Y-187975000D01*
X48990000Y-187975000D01*
X48779151Y-188016940D01*
X48841000Y-187706000D01*
X48841000Y-183479868D01*
X48859869Y-183461000D01*
X50372766Y-183461000D01*
X50613201Y-183560838D01*
X50985167Y-183561162D01*
X51328943Y-183419117D01*
X51385000Y-183363158D01*
X51385000Y-188386624D01*
G36*
X51385000Y-176472629D02*
X51300327Y-176387808D01*
X50956799Y-176245162D01*
X50584833Y-176244838D01*
X50241057Y-176386883D01*
X49977808Y-176649673D01*
X49835162Y-176993201D01*
X49834838Y-177365167D01*
X49916665Y-177563203D01*
X49369566Y-178110302D01*
X49188561Y-178381195D01*
X49126134Y-178695034D01*
X49025162Y-178938201D01*
X49024838Y-179310167D01*
X49166883Y-179653943D01*
X49429673Y-179917192D01*
X49773201Y-180059838D01*
X50145167Y-180060162D01*
X50387578Y-179960000D01*
X50555000Y-179960000D01*
X50555000Y-180029132D01*
X50101667Y-180482465D01*
X49962422Y-180540000D01*
X48433596Y-180540000D01*
X48481571Y-180468201D01*
X48523439Y-180405541D01*
X48587000Y-180086000D01*
X48587000Y-175433234D01*
X48686838Y-175192799D01*
X48687162Y-174820833D01*
X48545117Y-174477057D01*
X48282327Y-174213808D01*
X47938799Y-174071162D01*
X47566833Y-174070838D01*
X47223057Y-174212883D01*
X46959808Y-174475673D01*
X46817162Y-174819201D01*
X46816838Y-175191167D01*
X46917000Y-175433578D01*
X46917000Y-179735001D01*
X44925118Y-179735001D01*
X44925162Y-179684833D01*
X44783117Y-179341057D01*
X44525001Y-179082490D01*
X44525001Y-178425867D01*
X45938333Y-177012535D01*
X46178943Y-176913117D01*
X46442192Y-176650327D01*
X46584838Y-176306799D01*
X46585162Y-175934833D01*
X46443117Y-175591057D01*
X46180327Y-175327808D01*
X46009550Y-175256895D01*
X46151440Y-175044540D01*
X46215000Y-174725000D01*
X46215000Y-168300974D01*
X46417735Y-168666391D01*
X46888334Y-169040432D01*
X47466250Y-169205910D01*
X48315880Y-169205910D01*
X48315880Y-167797480D01*
X48569880Y-167797480D01*
X48569880Y-169205910D01*
X49419510Y-169205910D01*
X49997426Y-169040432D01*
X50468025Y-168666391D01*
X50759663Y-168140732D01*
X50783973Y-168035288D01*
X50663320Y-167797480D01*
X48569880Y-167797480D01*
X48315880Y-167797480D01*
X48295880Y-167797480D01*
X48295880Y-167543480D01*
X48315880Y-167543480D01*
X48315880Y-167523480D01*
X48569880Y-167523480D01*
X48569880Y-167543480D01*
X50663320Y-167543480D01*
X50783973Y-167305672D01*
X50759663Y-167200228D01*
X50468025Y-166674569D01*
X50135038Y-166409905D01*
X50424949Y-166216193D01*
X50757788Y-165718064D01*
X50874666Y-165130480D01*
X50757788Y-164542896D01*
X50424949Y-164044767D01*
X50149144Y-163860480D01*
X50424949Y-163676193D01*
X50757788Y-163178064D01*
X50874666Y-162590480D01*
X50757788Y-162002896D01*
X50424949Y-161504767D01*
X50149144Y-161320480D01*
X50424949Y-161136193D01*
X50757788Y-160638064D01*
X50874666Y-160050480D01*
X50757788Y-159462896D01*
X50424949Y-158964767D01*
X50178358Y-158800000D01*
X51385000Y-158800000D01*
X51385000Y-176472629D01*
X51385000Y-176472629D01*
G37*
X51385000Y-176472629D02*
X51300327Y-176387808D01*
X50956799Y-176245162D01*
X50584833Y-176244838D01*
X50241057Y-176386883D01*
X49977808Y-176649673D01*
X49835162Y-176993201D01*
X49834838Y-177365167D01*
X49916665Y-177563203D01*
X49369566Y-178110302D01*
X49188561Y-178381195D01*
X49126134Y-178695034D01*
X49025162Y-178938201D01*
X49024838Y-179310167D01*
X49166883Y-179653943D01*
X49429673Y-179917192D01*
X49773201Y-180059838D01*
X50145167Y-180060162D01*
X50387578Y-179960000D01*
X50555000Y-179960000D01*
X50555000Y-180029132D01*
X50101667Y-180482465D01*
X49962422Y-180540000D01*
X48433596Y-180540000D01*
X48481571Y-180468201D01*
X48523439Y-180405541D01*
X48587000Y-180086000D01*
X48587000Y-175433234D01*
X48686838Y-175192799D01*
X48687162Y-174820833D01*
X48545117Y-174477057D01*
X48282327Y-174213808D01*
X47938799Y-174071162D01*
X47566833Y-174070838D01*
X47223057Y-174212883D01*
X46959808Y-174475673D01*
X46817162Y-174819201D01*
X46816838Y-175191167D01*
X46917000Y-175433578D01*
X46917000Y-179735001D01*
X44925118Y-179735001D01*
X44925162Y-179684833D01*
X44783117Y-179341057D01*
X44525001Y-179082490D01*
X44525001Y-178425867D01*
X45938333Y-177012535D01*
X46178943Y-176913117D01*
X46442192Y-176650327D01*
X46584838Y-176306799D01*
X46585162Y-175934833D01*
X46443117Y-175591057D01*
X46180327Y-175327808D01*
X46009550Y-175256895D01*
X46151440Y-175044540D01*
X46215000Y-174725000D01*
X46215000Y-168300974D01*
X46417735Y-168666391D01*
X46888334Y-169040432D01*
X47466250Y-169205910D01*
X48315880Y-169205910D01*
X48315880Y-167797480D01*
X48569880Y-167797480D01*
X48569880Y-169205910D01*
X49419510Y-169205910D01*
X49997426Y-169040432D01*
X50468025Y-168666391D01*
X50759663Y-168140732D01*
X50783973Y-168035288D01*
X50663320Y-167797480D01*
X48569880Y-167797480D01*
X48315880Y-167797480D01*
X48295880Y-167797480D01*
X48295880Y-167543480D01*
X48315880Y-167543480D01*
X48315880Y-167523480D01*
X48569880Y-167523480D01*
X48569880Y-167543480D01*
X50663320Y-167543480D01*
X50783973Y-167305672D01*
X50759663Y-167200228D01*
X50468025Y-166674569D01*
X50135038Y-166409905D01*
X50424949Y-166216193D01*
X50757788Y-165718064D01*
X50874666Y-165130480D01*
X50757788Y-164542896D01*
X50424949Y-164044767D01*
X50149144Y-163860480D01*
X50424949Y-163676193D01*
X50757788Y-163178064D01*
X50874666Y-162590480D01*
X50757788Y-162002896D01*
X50424949Y-161504767D01*
X50149144Y-161320480D01*
X50424949Y-161136193D01*
X50757788Y-160638064D01*
X50874666Y-160050480D01*
X50757788Y-159462896D01*
X50424949Y-158964767D01*
X50178358Y-158800000D01*
X51385000Y-158800000D01*
X51385000Y-176472629D01*
G36*
X44545000Y-174379131D02*
X41441666Y-177482465D01*
X41201057Y-177581883D01*
X40937808Y-177844673D01*
X40795162Y-178188201D01*
X40794838Y-178560167D01*
X40936883Y-178903943D01*
X41191236Y-179158741D01*
X41152828Y-179131705D01*
X41142762Y-179129447D01*
X41134186Y-179123717D01*
X40984164Y-179093876D01*
X40834925Y-179060403D01*
X40824764Y-179062169D01*
X40814645Y-179060156D01*
X39976024Y-179060156D01*
X35040434Y-174124566D01*
X34956645Y-174068580D01*
X34769541Y-173943561D01*
X34450000Y-173880000D01*
X30991014Y-173880000D01*
X31114838Y-173581799D01*
X31115162Y-173209833D01*
X31107064Y-173190233D01*
X33357578Y-171015000D01*
X35302704Y-171015000D01*
X37833410Y-171034974D01*
X37838020Y-171034095D01*
X37842627Y-171034996D01*
X44198627Y-171014996D01*
X44352370Y-170983911D01*
X44506571Y-170955094D01*
X44511823Y-170951672D01*
X44517966Y-170950430D01*
X44545000Y-170932243D01*
X44545000Y-174379131D01*
X44545000Y-174379131D01*
G37*
X44545000Y-174379131D02*
X41441666Y-177482465D01*
X41201057Y-177581883D01*
X40937808Y-177844673D01*
X40795162Y-178188201D01*
X40794838Y-178560167D01*
X40936883Y-178903943D01*
X41191236Y-179158741D01*
X41152828Y-179131705D01*
X41142762Y-179129447D01*
X41134186Y-179123717D01*
X40984164Y-179093876D01*
X40834925Y-179060403D01*
X40824764Y-179062169D01*
X40814645Y-179060156D01*
X39976024Y-179060156D01*
X35040434Y-174124566D01*
X34956645Y-174068580D01*
X34769541Y-173943561D01*
X34450000Y-173880000D01*
X30991014Y-173880000D01*
X31114838Y-173581799D01*
X31115162Y-173209833D01*
X31107064Y-173190233D01*
X33357578Y-171015000D01*
X35302704Y-171015000D01*
X37833410Y-171034974D01*
X37838020Y-171034095D01*
X37842627Y-171034996D01*
X44198627Y-171014996D01*
X44352370Y-170983911D01*
X44506571Y-170955094D01*
X44511823Y-170951672D01*
X44517966Y-170950430D01*
X44545000Y-170932243D01*
X44545000Y-174379131D01*
G36*
X26955162Y-158988201D02*
X26954838Y-159360167D01*
X27096883Y-159703943D01*
X27359673Y-159967192D01*
X27681799Y-160100951D01*
X27527808Y-160254673D01*
X27385162Y-160598201D01*
X27385138Y-160625616D01*
X27378561Y-160635459D01*
X27315000Y-160955000D01*
X27315000Y-163170000D01*
X26910000Y-163170000D01*
X26590460Y-163233560D01*
X26319566Y-163414566D01*
X25609566Y-164124566D01*
X25428561Y-164395459D01*
X25365000Y-164715000D01*
X25365000Y-165997546D01*
X25327808Y-166034673D01*
X25185162Y-166378201D01*
X25185131Y-166414263D01*
X23030434Y-164259566D01*
X22759541Y-164078561D01*
X22440000Y-164015000D01*
X18690868Y-164015000D01*
X17504542Y-162828674D01*
X17574490Y-162477022D01*
X17574490Y-162412978D01*
X17450072Y-161787486D01*
X17095759Y-161257219D01*
X16565492Y-160902906D01*
X15940000Y-160778488D01*
X15314508Y-160902906D01*
X14784241Y-161257219D01*
X14429928Y-161787486D01*
X14305510Y-162412978D01*
X14305510Y-162477022D01*
X14429928Y-163102514D01*
X14784241Y-163632781D01*
X14907290Y-163715000D01*
X14784241Y-163797219D01*
X14429928Y-164327486D01*
X14305510Y-164952978D01*
X14305510Y-165017022D01*
X14429928Y-165642514D01*
X14784241Y-166172781D01*
X14933300Y-166272379D01*
X14616932Y-166565274D01*
X14350373Y-167144645D01*
X14469193Y-167398000D01*
X15813000Y-167398000D01*
X15813000Y-167378000D01*
X16067000Y-167378000D01*
X16067000Y-167398000D01*
X16087000Y-167398000D01*
X16087000Y-167652000D01*
X16067000Y-167652000D01*
X16067000Y-167672000D01*
X15813000Y-167672000D01*
X15813000Y-167652000D01*
X14469193Y-167652000D01*
X14350373Y-167905355D01*
X14616932Y-168484726D01*
X14933300Y-168777621D01*
X14784241Y-168877219D01*
X14429928Y-169407486D01*
X14305510Y-170032978D01*
X14305510Y-170097022D01*
X14429928Y-170722514D01*
X14643453Y-171042077D01*
X14489069Y-171141420D01*
X14344079Y-171353620D01*
X14293070Y-171605510D01*
X14293070Y-173604490D01*
X14313864Y-173715000D01*
X13100002Y-173715000D01*
X12780461Y-173778561D01*
X12750000Y-173798914D01*
X12750000Y-158800000D01*
X27033310Y-158800000D01*
X26955162Y-158988201D01*
X26955162Y-158988201D01*
G37*
X26955162Y-158988201D02*
X26954838Y-159360167D01*
X27096883Y-159703943D01*
X27359673Y-159967192D01*
X27681799Y-160100951D01*
X27527808Y-160254673D01*
X27385162Y-160598201D01*
X27385138Y-160625616D01*
X27378561Y-160635459D01*
X27315000Y-160955000D01*
X27315000Y-163170000D01*
X26910000Y-163170000D01*
X26590460Y-163233560D01*
X26319566Y-163414566D01*
X25609566Y-164124566D01*
X25428561Y-164395459D01*
X25365000Y-164715000D01*
X25365000Y-165997546D01*
X25327808Y-166034673D01*
X25185162Y-166378201D01*
X25185131Y-166414263D01*
X23030434Y-164259566D01*
X22759541Y-164078561D01*
X22440000Y-164015000D01*
X18690868Y-164015000D01*
X17504542Y-162828674D01*
X17574490Y-162477022D01*
X17574490Y-162412978D01*
X17450072Y-161787486D01*
X17095759Y-161257219D01*
X16565492Y-160902906D01*
X15940000Y-160778488D01*
X15314508Y-160902906D01*
X14784241Y-161257219D01*
X14429928Y-161787486D01*
X14305510Y-162412978D01*
X14305510Y-162477022D01*
X14429928Y-163102514D01*
X14784241Y-163632781D01*
X14907290Y-163715000D01*
X14784241Y-163797219D01*
X14429928Y-164327486D01*
X14305510Y-164952978D01*
X14305510Y-165017022D01*
X14429928Y-165642514D01*
X14784241Y-166172781D01*
X14933300Y-166272379D01*
X14616932Y-166565274D01*
X14350373Y-167144645D01*
X14469193Y-167398000D01*
X15813000Y-167398000D01*
X15813000Y-167378000D01*
X16067000Y-167378000D01*
X16067000Y-167398000D01*
X16087000Y-167398000D01*
X16087000Y-167652000D01*
X16067000Y-167652000D01*
X16067000Y-167672000D01*
X15813000Y-167672000D01*
X15813000Y-167652000D01*
X14469193Y-167652000D01*
X14350373Y-167905355D01*
X14616932Y-168484726D01*
X14933300Y-168777621D01*
X14784241Y-168877219D01*
X14429928Y-169407486D01*
X14305510Y-170032978D01*
X14305510Y-170097022D01*
X14429928Y-170722514D01*
X14643453Y-171042077D01*
X14489069Y-171141420D01*
X14344079Y-171353620D01*
X14293070Y-171605510D01*
X14293070Y-173604490D01*
X14313864Y-173715000D01*
X13100002Y-173715000D01*
X12780461Y-173778561D01*
X12750000Y-173798914D01*
X12750000Y-158800000D01*
X27033310Y-158800000D01*
X26955162Y-158988201D01*
G36*
X43815327Y-160361195D02*
X43741057Y-160391883D01*
X43477808Y-160654673D01*
X43335162Y-160998201D01*
X43334838Y-161370167D01*
X43459640Y-161672211D01*
X43386974Y-167936106D01*
X42294535Y-166843667D01*
X42195117Y-166603057D01*
X41932327Y-166339808D01*
X41588799Y-166197162D01*
X41216833Y-166196838D01*
X40873057Y-166338883D01*
X40609808Y-166601673D01*
X40467162Y-166945201D01*
X40466838Y-167317167D01*
X40608883Y-167660943D01*
X40871673Y-167924192D01*
X41113910Y-168024778D01*
X42439654Y-169350522D01*
X38924890Y-169361582D01*
X39034838Y-169096799D01*
X39035162Y-168724833D01*
X38933729Y-168479345D01*
X38924999Y-168435458D01*
X38924999Y-163677869D01*
X39404333Y-163198535D01*
X39644943Y-163099117D01*
X39908192Y-162836327D01*
X40050838Y-162492799D01*
X40051162Y-162120833D01*
X39909117Y-161777057D01*
X39646327Y-161513808D01*
X39302799Y-161371162D01*
X38930833Y-161370838D01*
X38587057Y-161512883D01*
X38323808Y-161775673D01*
X38223222Y-162017910D01*
X37499565Y-162741567D01*
X37318560Y-163012460D01*
X37254999Y-163332001D01*
X37254999Y-168475735D01*
X37259184Y-168496773D01*
X37165162Y-168723201D01*
X37164838Y-169095167D01*
X37274475Y-169360510D01*
X35312590Y-169345026D01*
X35309292Y-169345655D01*
X35306000Y-169345000D01*
X33020000Y-169345000D01*
X32867081Y-169375418D01*
X32713626Y-169403237D01*
X32707547Y-169407151D01*
X32700459Y-169408561D01*
X32570832Y-169495175D01*
X32439693Y-169579609D01*
X29599693Y-172324609D01*
X29595575Y-172330551D01*
X29589566Y-172334566D01*
X29502933Y-172464221D01*
X29414107Y-172592386D01*
X29412577Y-172599449D01*
X29408561Y-172605459D01*
X29378137Y-172758408D01*
X29345121Y-172910799D01*
X29346410Y-172917910D01*
X29345000Y-172925000D01*
X29345000Y-172967766D01*
X29245162Y-173208201D01*
X29245152Y-173219943D01*
X29124833Y-173219838D01*
X28949321Y-173292358D01*
X28790434Y-173054566D01*
X28225000Y-172489132D01*
X28225000Y-171605000D01*
X28215021Y-171554833D01*
X28161440Y-171285460D01*
X27980434Y-171014566D01*
X27044053Y-170078185D01*
X27104838Y-169931799D01*
X27105162Y-169559833D01*
X26963117Y-169216057D01*
X26700327Y-168952808D01*
X26356799Y-168810162D01*
X26010018Y-168809860D01*
X26098943Y-168773117D01*
X26362192Y-168510327D01*
X26504838Y-168166799D01*
X26505162Y-167794833D01*
X26371997Y-167472548D01*
X26648943Y-167358117D01*
X26912192Y-167095327D01*
X27054838Y-166751799D01*
X27055162Y-166379833D01*
X27035000Y-166331037D01*
X27035000Y-165060868D01*
X27255868Y-164840000D01*
X27830000Y-164840000D01*
X28149541Y-164776439D01*
X28420434Y-164595434D01*
X28740434Y-164275434D01*
X28751037Y-164259566D01*
X28921439Y-164004541D01*
X28985000Y-163685000D01*
X28985000Y-161442297D01*
X29112192Y-161315327D01*
X29254838Y-160971799D01*
X29255162Y-160599833D01*
X29113117Y-160256057D01*
X28850327Y-159992808D01*
X28528201Y-159859049D01*
X28682192Y-159705327D01*
X28742537Y-159560000D01*
X43014132Y-159560000D01*
X43815327Y-160361195D01*
X43815327Y-160361195D01*
G37*
X43815327Y-160361195D02*
X43741057Y-160391883D01*
X43477808Y-160654673D01*
X43335162Y-160998201D01*
X43334838Y-161370167D01*
X43459640Y-161672211D01*
X43386974Y-167936106D01*
X42294535Y-166843667D01*
X42195117Y-166603057D01*
X41932327Y-166339808D01*
X41588799Y-166197162D01*
X41216833Y-166196838D01*
X40873057Y-166338883D01*
X40609808Y-166601673D01*
X40467162Y-166945201D01*
X40466838Y-167317167D01*
X40608883Y-167660943D01*
X40871673Y-167924192D01*
X41113910Y-168024778D01*
X42439654Y-169350522D01*
X38924890Y-169361582D01*
X39034838Y-169096799D01*
X39035162Y-168724833D01*
X38933729Y-168479345D01*
X38924999Y-168435458D01*
X38924999Y-163677869D01*
X39404333Y-163198535D01*
X39644943Y-163099117D01*
X39908192Y-162836327D01*
X40050838Y-162492799D01*
X40051162Y-162120833D01*
X39909117Y-161777057D01*
X39646327Y-161513808D01*
X39302799Y-161371162D01*
X38930833Y-161370838D01*
X38587057Y-161512883D01*
X38323808Y-161775673D01*
X38223222Y-162017910D01*
X37499565Y-162741567D01*
X37318560Y-163012460D01*
X37254999Y-163332001D01*
X37254999Y-168475735D01*
X37259184Y-168496773D01*
X37165162Y-168723201D01*
X37164838Y-169095167D01*
X37274475Y-169360510D01*
X35312590Y-169345026D01*
X35309292Y-169345655D01*
X35306000Y-169345000D01*
X33020000Y-169345000D01*
X32867081Y-169375418D01*
X32713626Y-169403237D01*
X32707547Y-169407151D01*
X32700459Y-169408561D01*
X32570832Y-169495175D01*
X32439693Y-169579609D01*
X29599693Y-172324609D01*
X29595575Y-172330551D01*
X29589566Y-172334566D01*
X29502933Y-172464221D01*
X29414107Y-172592386D01*
X29412577Y-172599449D01*
X29408561Y-172605459D01*
X29378137Y-172758408D01*
X29345121Y-172910799D01*
X29346410Y-172917910D01*
X29345000Y-172925000D01*
X29345000Y-172967766D01*
X29245162Y-173208201D01*
X29245152Y-173219943D01*
X29124833Y-173219838D01*
X28949321Y-173292358D01*
X28790434Y-173054566D01*
X28225000Y-172489132D01*
X28225000Y-171605000D01*
X28215021Y-171554833D01*
X28161440Y-171285460D01*
X27980434Y-171014566D01*
X27044053Y-170078185D01*
X27104838Y-169931799D01*
X27105162Y-169559833D01*
X26963117Y-169216057D01*
X26700327Y-168952808D01*
X26356799Y-168810162D01*
X26010018Y-168809860D01*
X26098943Y-168773117D01*
X26362192Y-168510327D01*
X26504838Y-168166799D01*
X26505162Y-167794833D01*
X26371997Y-167472548D01*
X26648943Y-167358117D01*
X26912192Y-167095327D01*
X27054838Y-166751799D01*
X27055162Y-166379833D01*
X27035000Y-166331037D01*
X27035000Y-165060868D01*
X27255868Y-164840000D01*
X27830000Y-164840000D01*
X28149541Y-164776439D01*
X28420434Y-164595434D01*
X28740434Y-164275434D01*
X28751037Y-164259566D01*
X28921439Y-164004541D01*
X28985000Y-163685000D01*
X28985000Y-161442297D01*
X29112192Y-161315327D01*
X29254838Y-160971799D01*
X29255162Y-160599833D01*
X29113117Y-160256057D01*
X28850327Y-159992808D01*
X28528201Y-159859049D01*
X28682192Y-159705327D01*
X28742537Y-159560000D01*
X43014132Y-159560000D01*
X43815327Y-160361195D01*
G36*
X24677465Y-168268333D02*
X24776883Y-168508943D01*
X25039673Y-168772192D01*
X25383201Y-168914838D01*
X25729982Y-168915140D01*
X25641057Y-168951883D01*
X25377808Y-169214673D01*
X25235162Y-169558201D01*
X25234838Y-169930167D01*
X25335000Y-170172578D01*
X25335000Y-170385000D01*
X25398561Y-170704541D01*
X25545867Y-170925000D01*
X25579566Y-170975434D01*
X26454048Y-171849916D01*
X26364833Y-171849838D01*
X26122422Y-171950000D01*
X25671458Y-171950000D01*
X25351917Y-172013561D01*
X25140888Y-172154566D01*
X25081024Y-172194566D01*
X24160590Y-173115000D01*
X21422385Y-173115000D01*
X21508838Y-172906799D01*
X21509040Y-172674869D01*
X21845167Y-172675162D01*
X22188943Y-172533117D01*
X22452192Y-172270327D01*
X22594838Y-171926799D01*
X22595030Y-171705838D01*
X24010434Y-170290434D01*
X24074735Y-170194201D01*
X24191439Y-170019541D01*
X24255000Y-169700000D01*
X24255000Y-168673152D01*
X24344838Y-168456799D01*
X24345162Y-168084833D01*
X24240385Y-167831253D01*
X24677465Y-168268333D01*
X24677465Y-168268333D01*
G37*
X24677465Y-168268333D02*
X24776883Y-168508943D01*
X25039673Y-168772192D01*
X25383201Y-168914838D01*
X25729982Y-168915140D01*
X25641057Y-168951883D01*
X25377808Y-169214673D01*
X25235162Y-169558201D01*
X25234838Y-169930167D01*
X25335000Y-170172578D01*
X25335000Y-170385000D01*
X25398561Y-170704541D01*
X25545867Y-170925000D01*
X25579566Y-170975434D01*
X26454048Y-171849916D01*
X26364833Y-171849838D01*
X26122422Y-171950000D01*
X25671458Y-171950000D01*
X25351917Y-172013561D01*
X25140888Y-172154566D01*
X25081024Y-172194566D01*
X24160590Y-173115000D01*
X21422385Y-173115000D01*
X21508838Y-172906799D01*
X21509040Y-172674869D01*
X21845167Y-172675162D01*
X22188943Y-172533117D01*
X22452192Y-172270327D01*
X22594838Y-171926799D01*
X22595030Y-171705838D01*
X24010434Y-170290434D01*
X24074735Y-170194201D01*
X24191439Y-170019541D01*
X24255000Y-169700000D01*
X24255000Y-168673152D01*
X24344838Y-168456799D01*
X24345162Y-168084833D01*
X24240385Y-167831253D01*
X24677465Y-168268333D01*
M02*
