M48
;DRILL file {KiCad 4.0.4-stable} date 06/04/17 23:31:46
;FORMAT={-:-/ absolute / metric / decimal}
FMAT,2
METRIC,TZ
T1C0.400
T2C0.800
T3C1.001
T4C1.097
T5C1.199
%
G90
G05
M71
T1
X13.13Y-176.65
X14.732Y-176.784
X15.2Y-183.075
X16.002Y-180.594
X17.1Y-177.5
X17.526Y-168.148
X17.7Y-181.42
X17.78Y-171.45
X18.542Y-166.37
X18.99Y-175.945
X19.02Y-180.655
X19.48Y-169.225
X19.56Y-171.56
X19.8Y-176.82
X20.066Y-181.356
X20.574Y-172.72
X21.05Y-166.14
X21.63Y-173.03
X21.66Y-171.74
X22.275Y-164.045
X23.41Y-168.27
X24.47Y-168.79
X24.96Y-177.445
X25.57Y-167.98
X25.82Y-159.51
X26.12Y-166.565
X26.17Y-169.745
X26.55Y-172.785
X27.89Y-159.175
X28.17Y-175.295
X28.32Y-160.785
X28.46Y-164.995
X28.59Y-178.895
X28.63Y-175.955
X28.94Y-177.45
X29.04Y-192.905
X29.26Y-161.89
X29.31Y-174.155
X29.718Y-178.816
X30.18Y-173.395
X30.226Y-180.594
X31.78Y-177.44
X32.1Y-186.34
X32.63Y-177.83
X33.19Y-180.06
X33.66Y-175.885
X35.15Y-193.56
X35.16Y-189.86
X35.18Y-185.59
X35.5Y-160.44
X35.814Y-196.596
X36.03Y-173.615
X37.35Y-187.38
X38.1Y-168.91
X38.65Y-188.9
X38.79Y-164.295
X39.116Y-162.306
X39.9Y-192.54
X40.07Y-160.525
X40.61Y-196.195
X41.402Y-167.132
X41.6Y-164.275
X41.73Y-178.375
X41.84Y-171.62
X42.122Y-180.253
X42.15Y-169.17
X42.35Y-183.16
X43.434Y-169.164
X43.99Y-179.87
X44.27Y-161.185
X44.52Y-184.6
X44.55Y-171.27
X44.82Y-179.265
X45.466Y-190.246
X45.65Y-176.12
X46.73Y-170.25
X46.88Y-184.31
X47.752Y-175.006
X49.51Y-187.535
X49.96Y-179.125
X50.39Y-181.375
X50.54Y-188.79
X50.77Y-177.18
X50.8Y-182.626
T2
X24.299Y-183.249
X27.75Y-186.7
T3
X46.97Y-194.066
X50.145Y-194.066
T4
X15.74Y-185.835
X15.74Y-188.375
X15.74Y-190.915
X15.74Y-193.455
X15.74Y-195.995
X15.94Y-162.445
X15.94Y-164.985
X15.94Y-167.525
X15.94Y-170.065
X15.94Y-172.605
X22.34Y-194.745
X24.88Y-194.745
X27.42Y-194.745
X29.96Y-194.745
X32.5Y-194.745
T5
X48.443Y-160.05
X48.443Y-162.59
X48.443Y-165.13
X48.443Y-167.67
T0
M30
