G04 #@! TF.FileFunction,Copper,L1,Top,Signal*
%FSLAX46Y46*%
G04 Gerber Fmt 4.6, Leading zero omitted, Abs format (unit mm)*
G04 Created by KiCad (PCBNEW 4.0.7) date 04/11/18 20:39:28*
%MOMM*%
%LPD*%
G01*
G04 APERTURE LIST*
%ADD10C,0.100000*%
%ADD11C,0.125000*%
%ADD12R,0.800000X0.800000*%
%ADD13R,2.000000X1.100000*%
%ADD14R,0.750000X0.800000*%
%ADD15R,2.500000X1.000000*%
%ADD16R,0.900000X0.500000*%
%ADD17R,1.000000X1.250000*%
%ADD18R,0.600000X0.700000*%
%ADD19R,1.400000X0.300000*%
%ADD20R,0.500000X0.900000*%
%ADD21R,1.000000X2.500000*%
%ADD22R,0.800100X0.800100*%
%ADD23R,0.900000X1.700000*%
%ADD24R,0.800000X0.750000*%
%ADD25R,0.900000X0.800000*%
%ADD26R,1.000000X1.000000*%
%ADD27O,1.000000X1.000000*%
%ADD28C,0.600000*%
%ADD29C,0.250000*%
G04 APERTURE END LIST*
D10*
D11*
X126489050Y-124513333D02*
X126727145Y-124513333D01*
X126441431Y-124656190D02*
X126608098Y-124156190D01*
X126774764Y-124656190D01*
X126941431Y-124656190D02*
X126941431Y-124156190D01*
X127108097Y-124513333D01*
X127274764Y-124156190D01*
X127274764Y-124656190D01*
X127489050Y-124632381D02*
X127560479Y-124656190D01*
X127679526Y-124656190D01*
X127727145Y-124632381D01*
X127750955Y-124608571D01*
X127774764Y-124560952D01*
X127774764Y-124513333D01*
X127750955Y-124465714D01*
X127727145Y-124441905D01*
X127679526Y-124418095D01*
X127584288Y-124394286D01*
X127536669Y-124370476D01*
X127512860Y-124346667D01*
X127489050Y-124299048D01*
X127489050Y-124251429D01*
X127512860Y-124203810D01*
X127536669Y-124180000D01*
X127584288Y-124156190D01*
X127703336Y-124156190D01*
X127774764Y-124180000D01*
X127965240Y-124513333D02*
X128203335Y-124513333D01*
X127917621Y-124656190D02*
X128084288Y-124156190D01*
X128250954Y-124656190D01*
X128346192Y-124156190D02*
X128631906Y-124156190D01*
X128489049Y-124656190D02*
X128489049Y-124156190D01*
X129179525Y-124394286D02*
X129346191Y-124394286D01*
X129417620Y-124656190D02*
X129179525Y-124656190D01*
X129179525Y-124156190D01*
X129417620Y-124156190D01*
X129608096Y-124513333D02*
X129846191Y-124513333D01*
X129560477Y-124656190D02*
X129727144Y-124156190D01*
X129893810Y-124656190D01*
X130441429Y-124465714D02*
X130822381Y-124465714D01*
X131441429Y-124394286D02*
X131608095Y-124394286D01*
X131679524Y-124656190D02*
X131441429Y-124656190D01*
X131441429Y-124156190D01*
X131679524Y-124156190D01*
X131870000Y-124513333D02*
X132108095Y-124513333D01*
X131822381Y-124656190D02*
X131989048Y-124156190D01*
X132155714Y-124656190D01*
X132298571Y-124632381D02*
X132370000Y-124656190D01*
X132489047Y-124656190D01*
X132536666Y-124632381D01*
X132560476Y-124608571D01*
X132584285Y-124560952D01*
X132584285Y-124513333D01*
X132560476Y-124465714D01*
X132536666Y-124441905D01*
X132489047Y-124418095D01*
X132393809Y-124394286D01*
X132346190Y-124370476D01*
X132322381Y-124346667D01*
X132298571Y-124299048D01*
X132298571Y-124251429D01*
X132322381Y-124203810D01*
X132346190Y-124180000D01*
X132393809Y-124156190D01*
X132512857Y-124156190D01*
X132584285Y-124180000D01*
X132774761Y-124513333D02*
X133012856Y-124513333D01*
X132727142Y-124656190D02*
X132893809Y-124156190D01*
X133060475Y-124656190D01*
X133155713Y-124156190D02*
X133441427Y-124156190D01*
X133298570Y-124656190D02*
X133298570Y-124156190D01*
X133965236Y-124203810D02*
X133989046Y-124180000D01*
X134036665Y-124156190D01*
X134155712Y-124156190D01*
X134203331Y-124180000D01*
X134227141Y-124203810D01*
X134250950Y-124251429D01*
X134250950Y-124299048D01*
X134227141Y-124370476D01*
X133941427Y-124656190D01*
X134250950Y-124656190D01*
D12*
X148770000Y-109630000D03*
D13*
X146870000Y-109630000D03*
D14*
X150250000Y-115500000D03*
X150250000Y-117000000D03*
X150250000Y-112500000D03*
X150250000Y-114000000D03*
D15*
X147500000Y-116250000D03*
X147500000Y-113250000D03*
D14*
X147070000Y-118180000D03*
X147070000Y-119680000D03*
D16*
X159870000Y-117280000D03*
X159870000Y-118780000D03*
X162570000Y-110380000D03*
X162570000Y-108880000D03*
X162370000Y-117280000D03*
X162370000Y-118780000D03*
X153470000Y-109180000D03*
X153470000Y-110680000D03*
D17*
X156070000Y-122130000D03*
X154070000Y-122130000D03*
D14*
X150070000Y-90480000D03*
X150070000Y-91980000D03*
D18*
X150270000Y-109630000D03*
X151670000Y-109630000D03*
D19*
X157570000Y-118580000D03*
X157570000Y-118080000D03*
X157570000Y-117580000D03*
X157570000Y-117080000D03*
X157570000Y-116580000D03*
X153170000Y-116580000D03*
X153170000Y-117080000D03*
X153170000Y-117580000D03*
X153170000Y-118080000D03*
X153170000Y-118580000D03*
X157570000Y-116080000D03*
X157570000Y-115580000D03*
X157570000Y-115080000D03*
X153170000Y-116080000D03*
X153170000Y-115580000D03*
X153170000Y-115080000D03*
D20*
X132520000Y-122830000D03*
X134020000Y-122830000D03*
D21*
X159570000Y-113130000D03*
X162570000Y-113130000D03*
D14*
X150170000Y-93880000D03*
X150170000Y-95380000D03*
X150370000Y-101480000D03*
X150370000Y-102980000D03*
D15*
X145970000Y-93230000D03*
X145970000Y-90230000D03*
D12*
X149150000Y-85250000D03*
D13*
X147250000Y-85250000D03*
D20*
X161620000Y-98430000D03*
X163120000Y-98430000D03*
D16*
X157270000Y-88680000D03*
X157270000Y-87180000D03*
D14*
X158370000Y-121080000D03*
X158370000Y-122580000D03*
D16*
X162070000Y-91980000D03*
X162070000Y-90480000D03*
D18*
X144970000Y-85230000D03*
X143570000Y-85230000D03*
D16*
X150750000Y-84500000D03*
X150750000Y-86000000D03*
D21*
X159670000Y-95130000D03*
X162670000Y-95130000D03*
D14*
X150170000Y-97480000D03*
X150170000Y-98980000D03*
D19*
X157550000Y-94300000D03*
X157550000Y-93800000D03*
X157550000Y-93300000D03*
X157550000Y-92800000D03*
X157550000Y-92300000D03*
X153150000Y-92300000D03*
X153150000Y-92800000D03*
X153150000Y-93300000D03*
X153150000Y-93800000D03*
X153150000Y-94300000D03*
X157550000Y-91800000D03*
X157550000Y-91300000D03*
X157550000Y-90800000D03*
X153150000Y-91800000D03*
X153150000Y-91300000D03*
X153150000Y-90800000D03*
D17*
X155250000Y-85250000D03*
X153250000Y-85250000D03*
D16*
X159870000Y-92080000D03*
X159870000Y-90580000D03*
D15*
X141370000Y-113330000D03*
X141370000Y-116330000D03*
D12*
X127970000Y-122930000D03*
D13*
X129870000Y-122930000D03*
D14*
X138600000Y-119450000D03*
X138600000Y-117950000D03*
X138600000Y-116450000D03*
X138600000Y-114950000D03*
D19*
X131470000Y-114680000D03*
X131470000Y-115180000D03*
X131470000Y-115680000D03*
X131470000Y-116180000D03*
X131470000Y-116680000D03*
X135870000Y-116680000D03*
X135870000Y-116180000D03*
X135870000Y-115680000D03*
X135870000Y-115180000D03*
X135870000Y-114680000D03*
X131470000Y-117180000D03*
X131470000Y-117680000D03*
X131470000Y-118180000D03*
X135870000Y-117180000D03*
X135870000Y-117680000D03*
X135870000Y-118180000D03*
D17*
X132570000Y-120430000D03*
X134570000Y-120430000D03*
D16*
X129070000Y-116580000D03*
X129070000Y-118080000D03*
D14*
X127070000Y-117980000D03*
X127070000Y-116480000D03*
D16*
X125070000Y-114380000D03*
X125070000Y-112880000D03*
D21*
X136370000Y-111730000D03*
X133370000Y-111730000D03*
D16*
X124770000Y-108080000D03*
X124770000Y-106580000D03*
D14*
X129070000Y-114880000D03*
X129070000Y-113380000D03*
D16*
X124670000Y-101080000D03*
X124670000Y-99580000D03*
D18*
X125470000Y-120230000D03*
X126870000Y-120230000D03*
D16*
X126970000Y-90980000D03*
X126970000Y-89480000D03*
D15*
X141750000Y-102000000D03*
X141750000Y-105000000D03*
D12*
X140720000Y-107130000D03*
D13*
X142620000Y-107130000D03*
D14*
X138770000Y-106980000D03*
X138770000Y-105480000D03*
X138770000Y-103680000D03*
X138770000Y-102180000D03*
D19*
X131500000Y-103500000D03*
X131500000Y-104000000D03*
X131500000Y-104500000D03*
X131500000Y-105000000D03*
X131500000Y-105500000D03*
X135900000Y-105500000D03*
X135900000Y-105000000D03*
X135900000Y-104500000D03*
X135900000Y-104000000D03*
X135900000Y-103500000D03*
X131500000Y-106000000D03*
X131500000Y-106500000D03*
X131500000Y-107000000D03*
X135900000Y-106000000D03*
X135900000Y-106500000D03*
X135900000Y-107000000D03*
D17*
X126970000Y-110730000D03*
X128970000Y-110730000D03*
D16*
X127270000Y-103280000D03*
X127270000Y-104780000D03*
D14*
X129070000Y-107980000D03*
X129070000Y-106480000D03*
D16*
X124770000Y-104780000D03*
X124770000Y-103280000D03*
D21*
X136370000Y-100130000D03*
X133370000Y-100130000D03*
D20*
X125320000Y-110830000D03*
X123820000Y-110830000D03*
D14*
X131370000Y-100980000D03*
X131370000Y-99480000D03*
D16*
X129370000Y-94280000D03*
X129370000Y-92780000D03*
D18*
X135070000Y-109030000D03*
X136470000Y-109030000D03*
D16*
X144270000Y-110580000D03*
X144270000Y-112080000D03*
D19*
X131550000Y-90800000D03*
X131550000Y-91300000D03*
X131550000Y-91800000D03*
X131550000Y-92300000D03*
X131550000Y-92800000D03*
X135950000Y-92800000D03*
X135950000Y-92300000D03*
X135950000Y-91800000D03*
X135950000Y-91300000D03*
X135950000Y-90800000D03*
X131550000Y-93300000D03*
X131550000Y-93800000D03*
X131550000Y-94300000D03*
X135950000Y-93300000D03*
X135950000Y-93800000D03*
X135950000Y-94300000D03*
D22*
X157670760Y-100680000D03*
X157670760Y-98780000D03*
X155671780Y-99730000D03*
D23*
X159020000Y-109830000D03*
X156120000Y-109830000D03*
D17*
X134050000Y-96800000D03*
X136050000Y-96800000D03*
D21*
X136370000Y-86630000D03*
X133370000Y-86630000D03*
D14*
X138770000Y-90780000D03*
X138770000Y-89280000D03*
X138770000Y-94080000D03*
X138770000Y-92580000D03*
X131070000Y-87680000D03*
X131070000Y-86180000D03*
X124570000Y-94280000D03*
X124570000Y-92780000D03*
X150270000Y-118880000D03*
X150270000Y-120380000D03*
D24*
X155820000Y-96630000D03*
X157320000Y-96630000D03*
D18*
X139070000Y-96530000D03*
X137670000Y-96530000D03*
D12*
X140470000Y-95630000D03*
D13*
X142370000Y-95630000D03*
D15*
X141670000Y-90230000D03*
X141670000Y-93230000D03*
D16*
X140870000Y-118880000D03*
X140870000Y-120380000D03*
X126870000Y-99580000D03*
X126870000Y-101080000D03*
X126870000Y-97580000D03*
X126870000Y-96080000D03*
X131470000Y-97880000D03*
X131470000Y-96380000D03*
X124570000Y-90980000D03*
X124570000Y-89480000D03*
X159670000Y-99280000D03*
X159670000Y-97780000D03*
X152870000Y-102280000D03*
X152870000Y-103780000D03*
D23*
X147820000Y-97930000D03*
X144920000Y-97930000D03*
D16*
X152970000Y-97180000D03*
X152970000Y-98680000D03*
D20*
X148500000Y-105750000D03*
X147000000Y-105750000D03*
D22*
X157670760Y-104880000D03*
X157670760Y-102980000D03*
X155671780Y-103930000D03*
D21*
X159570000Y-102230000D03*
X162570000Y-102230000D03*
D20*
X142820000Y-120330000D03*
X144320000Y-120330000D03*
X151620000Y-100930000D03*
X153120000Y-100930000D03*
X156020000Y-107330000D03*
X157520000Y-107330000D03*
D25*
X145570000Y-101080000D03*
X145570000Y-102980000D03*
X147570000Y-102030000D03*
D26*
X140670000Y-99630000D03*
D27*
X139400000Y-99630000D03*
D26*
X140670000Y-110430000D03*
D27*
X139400000Y-110430000D03*
D26*
X140670000Y-86630000D03*
D27*
X139400000Y-86630000D03*
D26*
X161070000Y-86330000D03*
D27*
X159800000Y-86330000D03*
D26*
X161070000Y-106230000D03*
D27*
X159800000Y-106230000D03*
D26*
X152070000Y-106030000D03*
D27*
X150800000Y-106030000D03*
D26*
X139070000Y-123230000D03*
D27*
X140340000Y-123230000D03*
X141610000Y-123230000D03*
X142880000Y-123230000D03*
X144150000Y-123230000D03*
X145420000Y-123230000D03*
X146690000Y-123230000D03*
X147960000Y-123230000D03*
X149230000Y-123230000D03*
X150500000Y-123230000D03*
D28*
X140134200Y-119630000D03*
X134363400Y-116180000D03*
X158895100Y-90800000D03*
X154358900Y-92420200D03*
X151138400Y-115500000D03*
X157497300Y-97507500D03*
X154650700Y-101187500D03*
X158790400Y-118275100D03*
X154372400Y-118810100D03*
X156537700Y-95127300D03*
X147917000Y-110988400D03*
X149042700Y-94535600D03*
X151067100Y-97676800D03*
X145880600Y-97700400D03*
X150198000Y-117905100D03*
X157991900Y-95127300D03*
X150118300Y-108743400D03*
X150415500Y-104521600D03*
X146169200Y-118011100D03*
X154647500Y-108132600D03*
X156135600Y-93300000D03*
X150945900Y-86771200D03*
X155807300Y-117720800D03*
X155751900Y-111485700D03*
X127733700Y-100332300D03*
X144931200Y-112871100D03*
X151535400Y-101885600D03*
X155259300Y-107526700D03*
D29*
X136370000Y-86630000D02*
X135544700Y-86630000D01*
X126194600Y-91879900D02*
X128594700Y-94280000D01*
X126194600Y-90520300D02*
X126194600Y-91879900D01*
X126310300Y-90404600D02*
X126194600Y-90520300D01*
X129428900Y-90404600D02*
X126310300Y-90404600D01*
X130324300Y-91300000D02*
X129428900Y-90404600D01*
X131550000Y-91300000D02*
X130324300Y-91300000D01*
X129370000Y-94280000D02*
X128594700Y-94280000D01*
X135950000Y-90800000D02*
X134924700Y-90800000D01*
X140308900Y-119804700D02*
X140870000Y-119804700D01*
X140134200Y-119630000D02*
X140308900Y-119804700D01*
X140870000Y-120380000D02*
X140870000Y-119804700D01*
X131550000Y-91300000D02*
X132575300Y-91300000D01*
X133499900Y-91300000D02*
X132575300Y-91300000D01*
X134462300Y-90337600D02*
X133499900Y-91300000D01*
X134924700Y-90800000D02*
X134462300Y-90337600D01*
X134462300Y-87712400D02*
X135544700Y-86630000D01*
X134462300Y-90337600D02*
X134462300Y-87712400D01*
X138020600Y-85804700D02*
X137195300Y-86630000D01*
X139844700Y-85804700D02*
X138020600Y-85804700D01*
X140670000Y-86630000D02*
X139844700Y-85804700D01*
X136370000Y-86630000D02*
X137195300Y-86630000D01*
X129945300Y-118180000D02*
X129845300Y-118080000D01*
X131470000Y-118180000D02*
X129945300Y-118180000D01*
X129070000Y-118080000D02*
X129845300Y-118080000D01*
X131420300Y-111730000D02*
X129770300Y-113380000D01*
X133370000Y-111730000D02*
X131420300Y-111730000D01*
X129070000Y-113380000D02*
X129770300Y-113380000D01*
X124570000Y-89480000D02*
X124570000Y-90055300D01*
X150250000Y-115500000D02*
X150250000Y-114774700D01*
X126970000Y-89480000D02*
X126970000Y-89192300D01*
X125633000Y-89192300D02*
X125345300Y-89480000D01*
X126970000Y-89192300D02*
X125633000Y-89192300D01*
X124570000Y-89480000D02*
X125345300Y-89480000D01*
X132495300Y-118180000D02*
X132495300Y-116180000D01*
X131470000Y-116180000D02*
X132495300Y-116180000D01*
X124770000Y-106580000D02*
X124770000Y-106004700D01*
X124770000Y-106580000D02*
X124770000Y-107155300D01*
X126970000Y-109067700D02*
X126970000Y-110730000D01*
X125057600Y-107155300D02*
X126970000Y-109067700D01*
X124770000Y-107155300D02*
X125057600Y-107155300D01*
X128369700Y-113080000D02*
X128369700Y-113380000D01*
X126970000Y-111680300D02*
X128369700Y-113080000D01*
X126970000Y-110730000D02*
X126970000Y-111680300D01*
X129070000Y-113380000D02*
X128369700Y-113380000D01*
X123947800Y-105182500D02*
X123947800Y-104204600D01*
X124770000Y-106004700D02*
X123947800Y-105182500D01*
X150170000Y-98980000D02*
X149469700Y-98980000D01*
X151170300Y-98680000D02*
X150870300Y-98980000D01*
X152970000Y-98680000D02*
X151170300Y-98680000D01*
X127270000Y-104780000D02*
X127270000Y-105355300D01*
X123746900Y-96080000D02*
X126094700Y-96080000D01*
X123434500Y-96392400D02*
X123746900Y-96080000D01*
X123434500Y-103691300D02*
X123434500Y-96392400D01*
X123947800Y-104204600D02*
X123434500Y-103691300D01*
X124282400Y-90055300D02*
X124570000Y-90055300D01*
X123746900Y-90590800D02*
X124282400Y-90055300D01*
X123746900Y-96080000D02*
X123746900Y-90590800D01*
X126482400Y-96080000D02*
X126094700Y-96080000D01*
X131470000Y-118180000D02*
X131982700Y-118180000D01*
X131982700Y-118180000D02*
X132495300Y-118180000D01*
X131982700Y-118892400D02*
X132570000Y-119479700D01*
X131982700Y-118180000D02*
X131982700Y-118892400D01*
X132570000Y-120430000D02*
X132570000Y-119479700D01*
X139400000Y-110430000D02*
X139400000Y-109992300D01*
X139400000Y-109992300D02*
X139400000Y-109604700D01*
X134195300Y-111626800D02*
X134195300Y-111730000D01*
X135829800Y-109992300D02*
X134195300Y-111626800D01*
X139400000Y-109992300D02*
X135829800Y-109992300D01*
X132525300Y-107000000D02*
X132525300Y-105000000D01*
X131500000Y-107000000D02*
X132525300Y-107000000D01*
X131500000Y-105000000D02*
X132525300Y-105000000D01*
X135900000Y-105000000D02*
X132525300Y-105000000D01*
X139400000Y-99630000D02*
X138574700Y-99630000D01*
X149469700Y-97819000D02*
X149469700Y-98980000D01*
X148370300Y-96719600D02*
X149469700Y-97819000D01*
X147254700Y-96719600D02*
X148370300Y-96719600D01*
X146905700Y-97068600D02*
X147254700Y-96719600D01*
X146905700Y-97768500D02*
X146905700Y-97068600D01*
X144946600Y-99727600D02*
X146905700Y-97768500D01*
X162295000Y-119355300D02*
X162370000Y-119355300D01*
X159070300Y-122580000D02*
X162295000Y-119355300D01*
X158370000Y-122580000D02*
X159070300Y-122580000D01*
X162370000Y-118780000D02*
X162370000Y-119355300D01*
X125423900Y-104204600D02*
X123947800Y-104204600D01*
X126574600Y-105355300D02*
X125423900Y-104204600D01*
X127270000Y-105355300D02*
X126574600Y-105355300D01*
X131500000Y-107000000D02*
X130474700Y-107000000D01*
X130269300Y-107205400D02*
X130474700Y-107000000D01*
X128559200Y-107205400D02*
X130269300Y-107205400D01*
X127270000Y-105916200D02*
X128559200Y-107205400D01*
X127270000Y-105355300D02*
X127270000Y-105916200D01*
X133370000Y-111730000D02*
X134195300Y-111730000D01*
X135870000Y-116180000D02*
X134844700Y-116180000D01*
X134363400Y-116180000D02*
X132495300Y-116180000D01*
X134363400Y-116180000D02*
X134844700Y-116180000D01*
X150170000Y-98980000D02*
X150520200Y-98980000D01*
X150520200Y-98980000D02*
X150870300Y-98980000D01*
X150520200Y-100604500D02*
X150370000Y-100754700D01*
X150520200Y-98980000D02*
X150520200Y-100604500D01*
X150370000Y-101480000D02*
X150370000Y-100754700D01*
X131550000Y-92300000D02*
X132062700Y-92300000D01*
X145996600Y-100164300D02*
X144946600Y-100164300D01*
X146407700Y-100575400D02*
X145996600Y-100164300D01*
X146407700Y-102180000D02*
X146407700Y-100575400D01*
X150257700Y-106030000D02*
X146407700Y-102180000D01*
X150800000Y-106030000D02*
X150257700Y-106030000D01*
X143960700Y-101150200D02*
X144946600Y-100164300D01*
X143960700Y-107808700D02*
X143960700Y-101150200D01*
X142164700Y-109604700D02*
X143960700Y-107808700D01*
X139400000Y-109604700D02*
X142164700Y-109604700D01*
X144946600Y-99727700D02*
X144946600Y-99727600D01*
X144946600Y-100164300D02*
X144946600Y-99727700D01*
X139400000Y-86630000D02*
X139400000Y-87455300D01*
X158370000Y-122580000D02*
X157669700Y-122580000D01*
X137491100Y-92300000D02*
X135950000Y-92300000D01*
X138285700Y-91505400D02*
X137491100Y-92300000D01*
X142638200Y-91505400D02*
X138285700Y-91505400D01*
X143251300Y-90892300D02*
X142638200Y-91505400D01*
X143251300Y-89380200D02*
X143251300Y-90892300D01*
X141326500Y-87455400D02*
X143251300Y-89380200D01*
X139400100Y-87455400D02*
X139400000Y-87455300D01*
X141326500Y-87455400D02*
X139400100Y-87455400D01*
X141495400Y-87286500D02*
X141326500Y-87455400D01*
X141495400Y-85962600D02*
X141495400Y-87286500D01*
X140571200Y-85038400D02*
X141495400Y-85962600D01*
X135683700Y-85038400D02*
X140571200Y-85038400D01*
X134195300Y-86526800D02*
X135683700Y-85038400D01*
X134195300Y-86630000D02*
X134195300Y-86526800D01*
X133370000Y-86630000D02*
X134195300Y-86630000D01*
X161194700Y-90580000D02*
X161294700Y-90480000D01*
X159870000Y-90580000D02*
X161194700Y-90580000D01*
X162070000Y-90480000D02*
X161294700Y-90480000D01*
X159800000Y-106230000D02*
X159800000Y-107055300D01*
X162570000Y-108880000D02*
X162570000Y-108304700D01*
X161711200Y-107445900D02*
X162570000Y-108304700D01*
X161711200Y-107055400D02*
X161711200Y-107445900D01*
X159800100Y-107055400D02*
X159800000Y-107055300D01*
X161711200Y-107055400D02*
X159800100Y-107055400D01*
X129982300Y-86180000D02*
X131070000Y-86180000D01*
X126970000Y-89192300D02*
X129982300Y-86180000D01*
X132094700Y-86180000D02*
X132544700Y-86630000D01*
X131070000Y-86180000D02*
X132094700Y-86180000D01*
X133370000Y-86630000D02*
X132544700Y-86630000D01*
X147070000Y-119680000D02*
X147070000Y-120042600D01*
X144320000Y-120330000D02*
X144895300Y-120330000D01*
X145182700Y-120042600D02*
X147070000Y-120042600D01*
X144895300Y-120330000D02*
X145182700Y-120042600D01*
X147312600Y-120042600D02*
X150500000Y-123230000D01*
X147070000Y-120042600D02*
X147312600Y-120042600D01*
X156524700Y-90800000D02*
X156524700Y-92800000D01*
X157550000Y-90800000D02*
X156524700Y-90800000D01*
X157550000Y-92800000D02*
X156524700Y-92800000D01*
X157550000Y-90800000D02*
X158575300Y-90800000D01*
X158895100Y-90800000D02*
X158575300Y-90800000D01*
X159094700Y-90600400D02*
X159094700Y-90580000D01*
X158895100Y-90800000D02*
X159094700Y-90600400D01*
X159870000Y-90580000D02*
X159094700Y-90580000D01*
X154175300Y-92603800D02*
X154358900Y-92420200D01*
X154175300Y-92800000D02*
X154175300Y-92603800D01*
X153150000Y-92800000D02*
X154175300Y-92800000D01*
X150250000Y-114000000D02*
X150250000Y-114774700D01*
X150250000Y-115500000D02*
X150950300Y-115500000D01*
X150950300Y-115500000D02*
X151138400Y-115500000D01*
X157173500Y-122704000D02*
X157173500Y-122580000D01*
X156305200Y-123572300D02*
X157173500Y-122704000D01*
X150842300Y-123572300D02*
X156305200Y-123572300D01*
X150500000Y-123230000D02*
X150842300Y-123572300D01*
X157173500Y-122580000D02*
X157669700Y-122580000D01*
X153170000Y-117080000D02*
X154195300Y-117080000D01*
X157570000Y-115080000D02*
X156544700Y-115080000D01*
X157570000Y-117080000D02*
X156544700Y-117080000D01*
X156544700Y-115080000D02*
X156544700Y-117080000D01*
X154195300Y-117080000D02*
X154870200Y-117754900D01*
X157173500Y-120058200D02*
X157173500Y-122580000D01*
X154870200Y-117754900D02*
X157173500Y-120058200D01*
X155545100Y-117080000D02*
X156544700Y-117080000D01*
X154870200Y-117754900D02*
X155545100Y-117080000D01*
X145702300Y-95380000D02*
X150170000Y-95380000D01*
X144137600Y-96944700D02*
X145702300Y-95380000D01*
X144137600Y-98918700D02*
X144137600Y-96944700D01*
X144946600Y-99727600D02*
X144137600Y-98918700D01*
X132754100Y-92300000D02*
X135950000Y-92300000D01*
X132575400Y-92478700D02*
X132754100Y-92300000D01*
X132575400Y-94299900D02*
X132575300Y-94300000D01*
X132575400Y-92478700D02*
X132575400Y-94299900D01*
X132396700Y-92300000D02*
X132575400Y-92478700D01*
X132062700Y-92300000D02*
X132396700Y-92300000D01*
X131550000Y-94300000D02*
X132135200Y-94300000D01*
X132135200Y-94300000D02*
X132575300Y-94300000D01*
X133684900Y-95849700D02*
X134050000Y-95849700D01*
X132135200Y-94300000D02*
X133684900Y-95849700D01*
X134050000Y-96800000D02*
X134050000Y-95849700D01*
X162570000Y-106196600D02*
X161711200Y-107055400D01*
X162570000Y-103805300D02*
X162570000Y-106196600D01*
X162570000Y-102230000D02*
X162570000Y-103805300D01*
X157320000Y-96630000D02*
X157320000Y-97330300D01*
X157497200Y-97507500D02*
X157497300Y-97507500D01*
X157320000Y-97330300D02*
X157497200Y-97507500D01*
X157769800Y-97780000D02*
X157497300Y-97507500D01*
X159670000Y-97780000D02*
X157769800Y-97780000D01*
X132070300Y-99655600D02*
X132070300Y-99480000D01*
X132544700Y-100130000D02*
X132070300Y-99655600D01*
X138574700Y-100145800D02*
X138574700Y-99630000D01*
X137015100Y-101705400D02*
X138574700Y-100145800D01*
X135667500Y-101705400D02*
X137015100Y-101705400D01*
X134195300Y-100233200D02*
X135667500Y-101705400D01*
X134195300Y-100130000D02*
X134195300Y-100233200D01*
X133370000Y-100130000D02*
X134195300Y-100130000D01*
X133370000Y-100130000D02*
X132544700Y-100130000D01*
X131370000Y-99480000D02*
X132070300Y-99480000D01*
X126482400Y-96080000D02*
X126870000Y-96080000D01*
X127645300Y-96455600D02*
X130669700Y-99480000D01*
X127645300Y-96080000D02*
X127645300Y-96455600D01*
X131370000Y-99480000D02*
X130669700Y-99480000D01*
X126870000Y-96080000D02*
X127645300Y-96080000D01*
X126870000Y-101080000D02*
X124670000Y-101080000D01*
X136370000Y-100130000D02*
X137195300Y-100130000D01*
X131500000Y-104000000D02*
X132525300Y-104000000D01*
X135900000Y-103500000D02*
X134874700Y-103500000D01*
X140618500Y-99630000D02*
X140670000Y-99630000D01*
X139783300Y-98794800D02*
X140618500Y-99630000D01*
X138530500Y-98794800D02*
X139783300Y-98794800D01*
X137195300Y-100130000D02*
X138530500Y-98794800D01*
X138112200Y-101287800D02*
X135900000Y-103500000D01*
X138960700Y-101287800D02*
X138112200Y-101287800D01*
X140618500Y-99630000D02*
X138960700Y-101287800D01*
X134024300Y-102649600D02*
X133488600Y-102649600D01*
X134874700Y-103500000D02*
X134024300Y-102649600D01*
X132525300Y-103612900D02*
X132525300Y-104000000D01*
X133488600Y-102649600D02*
X132525300Y-103612900D01*
X132114500Y-101275500D02*
X133488600Y-102649600D01*
X132114500Y-100390400D02*
X132114500Y-101275500D01*
X131929500Y-100205400D02*
X132114500Y-100390400D01*
X129341900Y-100205400D02*
X131929500Y-100205400D01*
X128467300Y-101080000D02*
X129341900Y-100205400D01*
X127645300Y-101080000D02*
X128467300Y-101080000D01*
X126870000Y-101080000D02*
X127645300Y-101080000D01*
X131470000Y-115180000D02*
X132495300Y-115180000D01*
X136370000Y-111730000D02*
X136370000Y-113305300D01*
X132495300Y-114439300D02*
X132520700Y-114413900D01*
X132495300Y-115180000D02*
X132495300Y-114439300D01*
X125320000Y-111013200D02*
X125320000Y-110830000D01*
X128458500Y-114151700D02*
X125320000Y-111013200D01*
X132258500Y-114151700D02*
X128458500Y-114151700D01*
X132520700Y-114413900D02*
X132258500Y-114151700D01*
X135870000Y-114413900D02*
X132520700Y-114413900D01*
X135870000Y-114680000D02*
X135870000Y-114413900D01*
X135870000Y-113805300D02*
X136370000Y-113305300D01*
X135870000Y-114413900D02*
X135870000Y-113805300D01*
X144270000Y-112080000D02*
X143494700Y-112080000D01*
X140670000Y-110430000D02*
X140670000Y-111255300D01*
X140670000Y-111255300D02*
X140670000Y-111706800D01*
X140646800Y-111730000D02*
X140670000Y-111706800D01*
X136370000Y-111730000D02*
X140646800Y-111730000D01*
X143121500Y-111706800D02*
X143494700Y-112080000D01*
X140670000Y-111706800D02*
X143121500Y-111706800D01*
X139544700Y-90780000D02*
X140094700Y-90230000D01*
X138770000Y-90780000D02*
X139544700Y-90780000D01*
X141670000Y-90230000D02*
X140094700Y-90230000D01*
X137995300Y-90780000D02*
X138770000Y-90780000D01*
X136975300Y-91800000D02*
X137995300Y-90780000D01*
X135950000Y-91800000D02*
X136975300Y-91800000D01*
X138060200Y-90005300D02*
X138770000Y-90005300D01*
X136765500Y-91300000D02*
X138060200Y-90005300D01*
X135950000Y-91300000D02*
X136765500Y-91300000D01*
X138770000Y-89280000D02*
X138770000Y-90005300D01*
X140325000Y-102825300D02*
X139470300Y-103680000D01*
X141750000Y-102825300D02*
X140325000Y-102825300D01*
X141750000Y-102000000D02*
X141750000Y-102825300D01*
X139120200Y-103680000D02*
X139470300Y-103680000D01*
X139120200Y-103680000D02*
X138770000Y-103680000D01*
X137249700Y-104500000D02*
X135900000Y-104500000D01*
X138069700Y-103680000D02*
X137249700Y-104500000D01*
X138770000Y-103680000D02*
X138069700Y-103680000D01*
X136925300Y-103324400D02*
X138069700Y-102180000D01*
X136925300Y-104000000D02*
X136925300Y-103324400D01*
X138770000Y-102180000D02*
X138069700Y-102180000D01*
X135900000Y-104000000D02*
X136925300Y-104000000D01*
X137129700Y-115680000D02*
X137899700Y-116450000D01*
X135870000Y-115680000D02*
X137129700Y-115680000D01*
X138600000Y-116450000D02*
X137899700Y-116450000D01*
X141370000Y-113330000D02*
X141370000Y-114155300D01*
X138600000Y-116450000D02*
X139300300Y-116450000D01*
X139300300Y-116150300D02*
X139300300Y-116450000D01*
X141295300Y-114155300D02*
X139300300Y-116150300D01*
X141370000Y-114155300D02*
X141295300Y-114155300D01*
X137125300Y-114950000D02*
X138600000Y-114950000D01*
X136895300Y-115180000D02*
X137125300Y-114950000D01*
X135870000Y-115180000D02*
X136895300Y-115180000D01*
X137289700Y-93300000D02*
X135950000Y-93300000D01*
X138069700Y-94080000D02*
X137289700Y-93300000D01*
X138770000Y-94080000D02*
X138069700Y-94080000D01*
X139470300Y-92605600D02*
X140094700Y-93230000D01*
X139470300Y-92580000D02*
X139470300Y-92605600D01*
X141670000Y-93230000D02*
X140094700Y-93230000D01*
X138770000Y-92580000D02*
X139470300Y-92580000D01*
X137849700Y-92800000D02*
X138069700Y-92580000D01*
X135950000Y-92800000D02*
X137849700Y-92800000D01*
X138770000Y-92580000D02*
X138069700Y-92580000D01*
X137089700Y-106000000D02*
X138069700Y-106980000D01*
X135900000Y-106000000D02*
X137089700Y-106000000D01*
X138770000Y-106980000D02*
X138069700Y-106980000D01*
X139694700Y-105480000D02*
X140174700Y-105000000D01*
X138770000Y-105480000D02*
X139694700Y-105480000D01*
X141750000Y-105000000D02*
X140174700Y-105000000D01*
X138049700Y-105500000D02*
X138069700Y-105480000D01*
X135900000Y-105500000D02*
X138049700Y-105500000D01*
X138770000Y-105480000D02*
X138069700Y-105480000D01*
X135829900Y-119450000D02*
X138600000Y-119450000D01*
X134844700Y-118464800D02*
X135829900Y-119450000D01*
X134844700Y-117180000D02*
X134844700Y-118464800D01*
X135870000Y-117180000D02*
X134844700Y-117180000D01*
X140095000Y-117155300D02*
X139300300Y-117950000D01*
X141370000Y-117155300D02*
X140095000Y-117155300D01*
X141370000Y-116330000D02*
X141370000Y-117155300D01*
X138600000Y-117950000D02*
X139300300Y-117950000D01*
X136895300Y-116945600D02*
X137899700Y-117950000D01*
X136895300Y-116680000D02*
X136895300Y-116945600D01*
X138600000Y-117950000D02*
X137899700Y-117950000D01*
X135870000Y-116680000D02*
X136895300Y-116680000D01*
X130524700Y-88950600D02*
X131070000Y-88405300D01*
X130524700Y-90800000D02*
X130524700Y-88950600D01*
X131550000Y-90800000D02*
X130524700Y-90800000D01*
X131070000Y-87680000D02*
X131070000Y-88405300D01*
X130474700Y-101175000D02*
X130669700Y-100980000D01*
X130474700Y-103500000D02*
X130474700Y-101175000D01*
X131500000Y-103500000D02*
X130474700Y-103500000D01*
X131370000Y-100980000D02*
X130669700Y-100980000D01*
X129970300Y-114680000D02*
X129770300Y-114880000D01*
X131470000Y-114680000D02*
X129970300Y-114680000D01*
X129070000Y-114880000D02*
X129770300Y-114880000D01*
X127094700Y-94280000D02*
X124570000Y-94280000D01*
X130694700Y-97880000D02*
X127094700Y-94280000D01*
X131470000Y-97880000D02*
X130694700Y-97880000D01*
X135950000Y-93800000D02*
X136975300Y-93800000D01*
X136975300Y-93800000D02*
X136975300Y-94974800D01*
X137514800Y-94974800D02*
X139070000Y-96530000D01*
X136975300Y-94974800D02*
X137514800Y-94974800D01*
X136100400Y-95849700D02*
X136050000Y-95849700D01*
X136975300Y-94974800D02*
X136100400Y-95849700D01*
X136050000Y-96800000D02*
X136050000Y-96324800D01*
X136050000Y-96324800D02*
X136050000Y-95849700D01*
X134578400Y-97880000D02*
X131470000Y-97880000D01*
X136050000Y-96408400D02*
X134578400Y-97880000D01*
X136050000Y-96324800D02*
X136050000Y-96408400D01*
X124770000Y-104780000D02*
X124770000Y-105355300D01*
X128970000Y-110730000D02*
X128970000Y-109779700D01*
X128970000Y-107980000D02*
X128970000Y-109779700D01*
X127394700Y-107980000D02*
X128970000Y-107980000D01*
X124770000Y-105355300D02*
X127394700Y-107980000D01*
X128970000Y-107980000D02*
X129070000Y-107980000D01*
X135900000Y-106500000D02*
X134874700Y-106500000D01*
X135070000Y-109030000D02*
X135070000Y-108354700D01*
X129070000Y-107980000D02*
X129770300Y-107980000D01*
X134874700Y-107980000D02*
X129770300Y-107980000D01*
X134874700Y-106500000D02*
X134874700Y-107980000D01*
X134874700Y-108159400D02*
X135070000Y-108354700D01*
X134874700Y-107980000D02*
X134874700Y-108159400D01*
X125470000Y-120230000D02*
X125470000Y-119554700D01*
X126369700Y-118655000D02*
X126369700Y-117980000D01*
X125470000Y-119554700D02*
X126369700Y-118655000D01*
X126369700Y-116255000D02*
X125070000Y-114955300D01*
X126369700Y-117980000D02*
X126369700Y-116255000D01*
X127070000Y-117980000D02*
X126369700Y-117980000D01*
X125070000Y-114380000D02*
X125070000Y-114955300D01*
X135870000Y-117680000D02*
X136895300Y-117680000D01*
X127070000Y-117980000D02*
X127770300Y-117980000D01*
X138856900Y-120430000D02*
X134570000Y-120430000D01*
X139305500Y-119981400D02*
X138856900Y-120430000D01*
X139305500Y-118852200D02*
X139305500Y-119981400D01*
X139128700Y-118675400D02*
X139305500Y-118852200D01*
X137890700Y-118675400D02*
X139128700Y-118675400D01*
X136895300Y-117680000D02*
X137890700Y-118675400D01*
X131172000Y-121381700D02*
X127770300Y-117980000D01*
X133205600Y-121381700D02*
X131172000Y-121381700D01*
X133744700Y-120842600D02*
X133205600Y-121381700D01*
X133744700Y-120430000D02*
X133744700Y-120842600D01*
X134570000Y-120430000D02*
X133744700Y-120430000D01*
X131550000Y-92800000D02*
X130524700Y-92800000D01*
X131470000Y-96380000D02*
X131470000Y-95804700D01*
X124570000Y-90980000D02*
X124570000Y-92780000D01*
X130524700Y-92800000D02*
X130524700Y-94859400D01*
X130524700Y-94859400D02*
X131470000Y-95804700D01*
X128311000Y-94859400D02*
X130524700Y-94859400D01*
X126231600Y-92780000D02*
X128311000Y-94859400D01*
X124570000Y-92780000D02*
X126231600Y-92780000D01*
X130474700Y-105775600D02*
X129770300Y-106480000D01*
X130474700Y-105500000D02*
X130474700Y-105775600D01*
X129070000Y-106480000D02*
X129770300Y-106480000D01*
X131500000Y-105500000D02*
X130474700Y-105500000D01*
X129070000Y-105367700D02*
X129070000Y-106480000D01*
X127557600Y-103855300D02*
X129070000Y-105367700D01*
X127270000Y-103855300D02*
X127557600Y-103855300D01*
X127270000Y-103280000D02*
X127270000Y-103567600D01*
X127270000Y-103567600D02*
X127270000Y-103855300D01*
X125832900Y-103567600D02*
X125545300Y-103280000D01*
X127270000Y-103567600D02*
X125832900Y-103567600D01*
X124770000Y-103280000D02*
X125545300Y-103280000D01*
X127070000Y-115167700D02*
X127070000Y-116480000D01*
X125357600Y-113455300D02*
X127070000Y-115167700D01*
X125070000Y-113455300D02*
X125357600Y-113455300D01*
X125070000Y-112880000D02*
X125070000Y-113455300D01*
X127870300Y-116580000D02*
X127770300Y-116480000D01*
X129070000Y-116580000D02*
X127870300Y-116580000D01*
X127070000Y-116480000D02*
X127770300Y-116480000D01*
X129945300Y-116680000D02*
X129845300Y-116580000D01*
X131470000Y-116680000D02*
X129945300Y-116680000D01*
X129070000Y-116580000D02*
X129845300Y-116580000D01*
X150750000Y-84500000D02*
X151525300Y-84500000D01*
X161070000Y-86330000D02*
X161070000Y-87155300D01*
X155820000Y-96630000D02*
X155820000Y-95929700D01*
X152667200Y-83358100D02*
X151525300Y-84500000D01*
X158098100Y-83358100D02*
X152667200Y-83358100D01*
X161070000Y-86330000D02*
X158098100Y-83358100D01*
X157550000Y-93800000D02*
X156524700Y-93800000D01*
X161341000Y-87155300D02*
X161070000Y-87155300D01*
X163956400Y-89770700D02*
X161341000Y-87155300D01*
X163956400Y-96762100D02*
X163956400Y-89770700D01*
X163520700Y-97197800D02*
X163956400Y-96762100D01*
X159503700Y-97197800D02*
X163520700Y-97197800D01*
X158235600Y-95929700D02*
X159503700Y-97197800D01*
X155820000Y-95929700D02*
X158235600Y-95929700D01*
X153150000Y-94300000D02*
X154175300Y-94300000D01*
X155820000Y-94300000D02*
X154175300Y-94300000D01*
X156024700Y-94300000D02*
X155820000Y-94300000D01*
X156524700Y-93800000D02*
X156024700Y-94300000D01*
X155820000Y-94300000D02*
X155820000Y-95929700D01*
X153952800Y-101187500D02*
X153695300Y-100930000D01*
X154650700Y-101187500D02*
X153952800Y-101187500D01*
X153120000Y-100930000D02*
X153695300Y-100930000D01*
X153470000Y-109180000D02*
X153470000Y-108604700D01*
X159570000Y-102230000D02*
X159570000Y-103805300D01*
X159570000Y-105399100D02*
X159570000Y-103805300D01*
X160239100Y-105399100D02*
X159570000Y-105399100D01*
X161070000Y-106230000D02*
X160239100Y-105399100D01*
X157570000Y-118080000D02*
X158595300Y-118080000D01*
X158790400Y-118275100D02*
X158595300Y-118080000D01*
X159450900Y-105399100D02*
X159570000Y-105399100D01*
X158095300Y-106754700D02*
X159450900Y-105399100D01*
X158095300Y-107330000D02*
X158095300Y-106754700D01*
X157520000Y-107330000D02*
X158095300Y-107330000D01*
X153470000Y-108354500D02*
X153470000Y-108604700D01*
X155281400Y-106543100D02*
X153470000Y-108354500D01*
X156445400Y-106543100D02*
X155281400Y-106543100D01*
X156944700Y-107042400D02*
X156445400Y-106543100D01*
X156944700Y-107330000D02*
X156944700Y-107042400D01*
X157520000Y-107330000D02*
X156944700Y-107330000D01*
X153170000Y-118580000D02*
X154195300Y-118580000D01*
X154195300Y-118633000D02*
X154372400Y-118810100D01*
X154195300Y-118580000D02*
X154195300Y-118633000D01*
X157365000Y-94300000D02*
X156537700Y-95127300D01*
X157550000Y-94300000D02*
X157365000Y-94300000D01*
X148038100Y-110988400D02*
X149549700Y-112500000D01*
X147917000Y-110988400D02*
X148038100Y-110988400D01*
X150250000Y-112500000D02*
X149549700Y-112500000D01*
X158370000Y-119380000D02*
X158370000Y-121080000D01*
X157570000Y-118580000D02*
X158370000Y-119380000D01*
X150070000Y-90480000D02*
X150770300Y-90480000D01*
X152090300Y-91800000D02*
X153150000Y-91800000D01*
X150770300Y-90480000D02*
X152090300Y-91800000D01*
X158220100Y-99954600D02*
X157670800Y-99954600D01*
X158894700Y-99280000D02*
X158220100Y-99954600D01*
X159670000Y-99280000D02*
X158894700Y-99280000D01*
X157670800Y-100680000D02*
X157670800Y-99954600D01*
X157549000Y-99954600D02*
X157670800Y-99954600D01*
X152775700Y-95181300D02*
X157549000Y-99954600D01*
X152171600Y-95181300D02*
X152775700Y-95181300D01*
X150870300Y-93880000D02*
X152171600Y-95181300D01*
X150170000Y-93880000D02*
X150870300Y-93880000D01*
X149469700Y-94108600D02*
X149469700Y-93880000D01*
X149042700Y-94535600D02*
X149469700Y-94108600D01*
X150170000Y-93880000D02*
X149469700Y-93880000D01*
X153250000Y-85250000D02*
X154075300Y-85250000D01*
X154500600Y-93800000D02*
X153150000Y-93800000D01*
X156004500Y-92296100D02*
X154500600Y-93800000D01*
X156004500Y-86244700D02*
X156004500Y-92296100D01*
X156075400Y-86173800D02*
X156004500Y-86244700D01*
X156075400Y-84476300D02*
X156075400Y-86173800D01*
X155857800Y-84258700D02*
X156075400Y-84476300D01*
X154629800Y-84258700D02*
X155857800Y-84258700D01*
X154075300Y-84813200D02*
X154629800Y-84258700D01*
X154075300Y-85250000D02*
X154075300Y-84813200D01*
X150170000Y-97480000D02*
X150870300Y-97480000D01*
X150870300Y-97480000D02*
X151067100Y-97676800D01*
X151697900Y-97676800D02*
X152194700Y-97180000D01*
X151067100Y-97676800D02*
X151697900Y-97676800D01*
X152659900Y-97180000D02*
X152194700Y-97180000D01*
X152659900Y-97180000D02*
X152970000Y-97180000D01*
X152970000Y-97180000D02*
X152970000Y-97755300D01*
X153257600Y-97755300D02*
X152970000Y-97755300D01*
X154818200Y-99315900D02*
X153257600Y-97755300D01*
X154818200Y-100470600D02*
X154818200Y-99315900D01*
X155276000Y-100928400D02*
X154818200Y-100470600D01*
X155276000Y-101947400D02*
X155276000Y-100928400D01*
X157670800Y-104342200D02*
X155276000Y-101947400D01*
X157670800Y-104880000D02*
X157670800Y-104342200D01*
X145904700Y-85230000D02*
X145924700Y-85250000D01*
X144970000Y-85230000D02*
X145904700Y-85230000D01*
X147250000Y-85250000D02*
X145924700Y-85250000D01*
X144920000Y-97930000D02*
X145695300Y-97930000D01*
X152870000Y-103780000D02*
X152870000Y-104355300D01*
X154141100Y-105626400D02*
X152870000Y-104355300D01*
X158187500Y-105626400D02*
X154141100Y-105626400D01*
X158396200Y-105417700D02*
X158187500Y-105626400D01*
X158396200Y-104340000D02*
X158396200Y-105417700D01*
X157761500Y-103705300D02*
X158396200Y-104340000D01*
X157670800Y-103705300D02*
X157761500Y-103705300D01*
X157670800Y-102980000D02*
X157670800Y-103705300D01*
X145695300Y-97885700D02*
X145880600Y-97700400D01*
X145695300Y-97930000D02*
X145695300Y-97885700D01*
X155671800Y-98714300D02*
X155671800Y-99004600D01*
X153217500Y-96260000D02*
X155671800Y-98714300D01*
X147069000Y-96260000D02*
X153217500Y-96260000D01*
X145880600Y-97448400D02*
X147069000Y-96260000D01*
X145880600Y-97700400D02*
X145880600Y-97448400D01*
X133095300Y-122542400D02*
X133095300Y-122830000D01*
X133604200Y-122033500D02*
X133095300Y-122542400D01*
X137048200Y-122033500D02*
X133604200Y-122033500D01*
X138244700Y-123230000D02*
X137048200Y-122033500D01*
X139070000Y-123230000D02*
X138244700Y-123230000D01*
X132520000Y-122830000D02*
X133095300Y-122830000D01*
X155671800Y-99367300D02*
X155671800Y-99004600D01*
X157670800Y-102980000D02*
X157670800Y-102254600D01*
X155671800Y-99367300D02*
X155671800Y-99730000D01*
X155671800Y-99730000D02*
X155671800Y-100455300D01*
X161620000Y-98430000D02*
X161620000Y-99205300D01*
X158723700Y-100887900D02*
X157513900Y-102097700D01*
X158723700Y-100813800D02*
X158723700Y-100887900D01*
X159089800Y-100447700D02*
X158723700Y-100813800D01*
X160377600Y-100447700D02*
X159089800Y-100447700D01*
X161620000Y-99205300D02*
X160377600Y-100447700D01*
X155871500Y-100455300D02*
X157513900Y-102097700D01*
X155671800Y-100455300D02*
X155871500Y-100455300D01*
X157513900Y-102097700D02*
X157670800Y-102254600D01*
X149150000Y-85250000D02*
X149875300Y-85250000D01*
X157270000Y-88680000D02*
X157270000Y-88104700D01*
X159670000Y-95130000D02*
X158844700Y-95130000D01*
X150250000Y-117000000D02*
X150250000Y-117725300D01*
X159670000Y-95130000D02*
X160495300Y-95130000D01*
X156490400Y-86640300D02*
X156546700Y-86584000D01*
X156490400Y-87612800D02*
X156490400Y-86640300D01*
X156982300Y-88104700D02*
X156490400Y-87612800D01*
X157270000Y-88104700D02*
X156982300Y-88104700D01*
X158314800Y-86584000D02*
X156546700Y-86584000D01*
X160231100Y-88500300D02*
X158314800Y-86584000D01*
X162001700Y-88500300D02*
X160231100Y-88500300D01*
X163506000Y-90004600D02*
X162001700Y-88500300D01*
X163506000Y-96575600D02*
X163506000Y-90004600D01*
X163376200Y-96705400D02*
X163506000Y-96575600D01*
X161967500Y-96705400D02*
X163376200Y-96705400D01*
X160495300Y-95233200D02*
X161967500Y-96705400D01*
X160495300Y-95130000D02*
X160495300Y-95233200D01*
X150198100Y-117905100D02*
X150198000Y-117905100D01*
X150198100Y-117777200D02*
X150198100Y-117905100D01*
X150250000Y-117725300D02*
X150198100Y-117777200D01*
X151899500Y-85250000D02*
X149875300Y-85250000D01*
X151899500Y-90953000D02*
X151899500Y-85250000D01*
X152246500Y-91300000D02*
X151899500Y-90953000D01*
X153150000Y-91300000D02*
X152246500Y-91300000D01*
X156546700Y-84310700D02*
X156546700Y-86584000D01*
X156044400Y-83808400D02*
X156546700Y-84310700D01*
X153103000Y-83808400D02*
X156044400Y-83808400D01*
X151899500Y-85011900D02*
X153103000Y-83808400D01*
X151899500Y-85250000D02*
X151899500Y-85011900D01*
X158842000Y-95127300D02*
X157991900Y-95127300D01*
X158844700Y-95130000D02*
X158842000Y-95127300D01*
X162070000Y-92954700D02*
X162670000Y-93554700D01*
X162070000Y-91980000D02*
X162070000Y-92954700D01*
X162670000Y-95130000D02*
X162670000Y-93554700D01*
X159265700Y-89175700D02*
X157270000Y-87180000D01*
X161969300Y-89175700D02*
X159265700Y-89175700D01*
X162845400Y-90051800D02*
X161969300Y-89175700D01*
X162845400Y-90916900D02*
X162845400Y-90051800D01*
X162357600Y-91404700D02*
X162845400Y-90916900D01*
X162070000Y-91404700D02*
X162357600Y-91404700D01*
X162070000Y-91980000D02*
X162070000Y-91404700D01*
X160813100Y-91498400D02*
X161294700Y-91980000D01*
X159267000Y-91498400D02*
X160813100Y-91498400D01*
X158575300Y-92190100D02*
X159267000Y-91498400D01*
X158575300Y-92300000D02*
X158575300Y-92190100D01*
X157550000Y-92300000D02*
X158575300Y-92300000D01*
X162070000Y-91980000D02*
X161294700Y-91980000D01*
X159870000Y-117280000D02*
X159870000Y-116704700D01*
X159570000Y-116404700D02*
X159870000Y-116704700D01*
X159570000Y-114604600D02*
X159570000Y-116404700D01*
X159570000Y-113130000D02*
X159570000Y-114305500D01*
X159570000Y-114305500D02*
X159570000Y-114604600D01*
X153170000Y-115580000D02*
X154195300Y-115580000D01*
X155103800Y-114305500D02*
X155038300Y-114371000D01*
X159570000Y-114305500D02*
X155103800Y-114305500D01*
X154195300Y-115214000D02*
X154195300Y-115580000D01*
X155038300Y-114371000D02*
X154195300Y-115214000D01*
X150681500Y-108916100D02*
X150118300Y-108916100D01*
X151044600Y-109279200D02*
X150681500Y-108916100D01*
X151044600Y-110377400D02*
X151044600Y-109279200D01*
X155038300Y-114371000D02*
X151044600Y-110377400D01*
X149483900Y-108916100D02*
X148770000Y-109630000D01*
X150118300Y-108916100D02*
X149483900Y-108916100D01*
X150118300Y-108916100D02*
X150118300Y-108743400D01*
X150370000Y-104476100D02*
X150415500Y-104521600D01*
X150370000Y-102980000D02*
X150370000Y-104476100D01*
X162370000Y-117280000D02*
X162370000Y-116704700D01*
X162370000Y-114905300D02*
X162370000Y-116704700D01*
X162570000Y-114705300D02*
X162370000Y-114905300D01*
X162570000Y-113130000D02*
X162570000Y-114705300D01*
X159632700Y-118204700D02*
X159870000Y-118204700D01*
X158595300Y-117167300D02*
X159632700Y-118204700D01*
X158595300Y-116580000D02*
X158595300Y-117167300D01*
X157570000Y-116580000D02*
X158595300Y-116580000D01*
X159870000Y-118780000D02*
X159870000Y-118492300D01*
X159870000Y-118492300D02*
X159870000Y-118204700D01*
X161082300Y-117280000D02*
X162370000Y-117280000D01*
X159870000Y-118492300D02*
X161082300Y-117280000D01*
X150070000Y-91980000D02*
X149369700Y-91980000D01*
X147619700Y-90230000D02*
X149369700Y-91980000D01*
X145970000Y-90230000D02*
X147619700Y-90230000D01*
X151090300Y-92300000D02*
X150770300Y-91980000D01*
X153150000Y-92300000D02*
X151090300Y-92300000D01*
X150070000Y-91980000D02*
X150770300Y-91980000D01*
X147500000Y-113250000D02*
X147500000Y-114075300D01*
X150270000Y-120117600D02*
X150270000Y-120380000D01*
X150401400Y-120117600D02*
X150270000Y-120117600D01*
X151694300Y-118824700D02*
X150401400Y-120117600D01*
X151694300Y-117030400D02*
X151694300Y-118824700D01*
X152144700Y-116580000D02*
X151694300Y-117030400D01*
X147603200Y-114075300D02*
X147500000Y-114075300D01*
X149495400Y-115967500D02*
X147603200Y-114075300D01*
X149495400Y-119343000D02*
X149495400Y-115967500D01*
X150270000Y-120117600D02*
X149495400Y-119343000D01*
X153170000Y-116580000D02*
X152144700Y-116580000D01*
X155250000Y-85250000D02*
X155250000Y-86200300D01*
X154363600Y-93300000D02*
X153150000Y-93300000D01*
X155250000Y-92413600D02*
X154363600Y-93300000D01*
X155250000Y-86200300D02*
X155250000Y-92413600D01*
X147662800Y-93112500D02*
X147545300Y-93230000D01*
X151937200Y-93112500D02*
X147662800Y-93112500D01*
X152124700Y-93300000D02*
X151937200Y-93112500D01*
X153150000Y-93300000D02*
X152124700Y-93300000D01*
X145970000Y-93230000D02*
X147545300Y-93230000D01*
X147500000Y-116250000D02*
X147500000Y-117075300D01*
X148325300Y-117900600D02*
X147500000Y-117075300D01*
X148325300Y-119745300D02*
X148325300Y-117900600D01*
X151660400Y-123080400D02*
X148325300Y-119745300D01*
X154742700Y-123080400D02*
X151660400Y-123080400D01*
X155635800Y-122187300D02*
X154742700Y-123080400D01*
X155635800Y-122130000D02*
X155635800Y-122187300D01*
X156070000Y-122130000D02*
X155635800Y-122130000D01*
X155635800Y-119189000D02*
X155635800Y-122130000D01*
X154026800Y-117580000D02*
X155635800Y-119189000D01*
X153170000Y-117580000D02*
X154026800Y-117580000D01*
X147070000Y-118180000D02*
X146369700Y-118180000D01*
X145570000Y-101080000D02*
X145570000Y-101805300D01*
X146200800Y-118011100D02*
X146169200Y-118011100D01*
X146369700Y-118180000D02*
X146200800Y-118011100D01*
X142820000Y-122344700D02*
X142820000Y-120330000D01*
X142880000Y-122404700D02*
X142820000Y-122344700D01*
X142880000Y-123230000D02*
X142880000Y-122404700D01*
X145569200Y-117411100D02*
X146169200Y-118011100D01*
X145569200Y-110557400D02*
X145569200Y-117411100D01*
X144785000Y-109773200D02*
X145569200Y-110557400D01*
X144785000Y-102409000D02*
X144785000Y-109773200D01*
X145388700Y-101805300D02*
X144785000Y-102409000D01*
X145570000Y-101805300D02*
X145388700Y-101805300D01*
X139619900Y-97205400D02*
X140470000Y-96355300D01*
X138579900Y-97205400D02*
X139619900Y-97205400D01*
X138295300Y-96920800D02*
X138579900Y-97205400D01*
X138295300Y-96530000D02*
X138295300Y-96920800D01*
X137670000Y-96530000D02*
X138295300Y-96530000D01*
X140470000Y-95630000D02*
X140470000Y-96355300D01*
X138094700Y-109030000D02*
X139994700Y-107130000D01*
X136470000Y-109030000D02*
X138094700Y-109030000D01*
X140720000Y-107130000D02*
X139994700Y-107130000D01*
X126870000Y-121104700D02*
X127970000Y-122204700D01*
X126870000Y-120230000D02*
X126870000Y-121104700D01*
X127970000Y-122930000D02*
X127970000Y-122204700D01*
X163120000Y-98430000D02*
X163120000Y-99205300D01*
X142708300Y-106254700D02*
X142620000Y-106254700D01*
X143325400Y-105637600D02*
X142708300Y-106254700D01*
X143325400Y-97460700D02*
X143325400Y-105637600D01*
X142370000Y-96505300D02*
X143325400Y-97460700D01*
X142370000Y-95630000D02*
X142370000Y-96505300D01*
X142620000Y-107130000D02*
X142620000Y-106254700D01*
X151670000Y-109630000D02*
X151670000Y-110305300D01*
X142370000Y-95630000D02*
X142370000Y-94754700D01*
X143570000Y-85230000D02*
X143570000Y-85905300D01*
X143749300Y-93375400D02*
X142370000Y-94754700D01*
X143749300Y-86084600D02*
X143749300Y-93375400D01*
X143570000Y-85905300D02*
X143749300Y-86084600D01*
X163120000Y-98430000D02*
X163120000Y-98042300D01*
X143570000Y-85230000D02*
X144195300Y-85230000D01*
X134020000Y-122830000D02*
X134595300Y-122830000D01*
X163395400Y-110777200D02*
X162950400Y-111222200D01*
X163395400Y-99480700D02*
X163395400Y-110777200D01*
X163120000Y-99205300D02*
X163395400Y-99480700D01*
X153475700Y-112111000D02*
X151670000Y-110305300D01*
X157553400Y-112111000D02*
X153475700Y-112111000D01*
X158109700Y-111554700D02*
X157553400Y-112111000D01*
X162617900Y-111554700D02*
X158109700Y-111554700D01*
X162950400Y-111222200D02*
X162617900Y-111554700D01*
X129870000Y-122930000D02*
X131195300Y-122930000D01*
X131884500Y-123619200D02*
X131195300Y-122930000D01*
X134595300Y-123619200D02*
X131884500Y-123619200D01*
X134693800Y-123717700D02*
X134595300Y-123619200D01*
X135483100Y-123717700D02*
X134693800Y-123717700D01*
X135820800Y-124055400D02*
X135483100Y-123717700D01*
X158311000Y-124055400D02*
X135820800Y-124055400D01*
X163395400Y-118971000D02*
X158311000Y-124055400D01*
X163395400Y-111667300D02*
X163395400Y-118971000D01*
X162950400Y-111222200D02*
X163395400Y-111667300D01*
X134595300Y-123619200D02*
X134595300Y-122830000D01*
X144195300Y-84839200D02*
X144195300Y-85230000D01*
X146126700Y-82907800D02*
X144195300Y-84839200D01*
X159132300Y-82907800D02*
X146126700Y-82907800D01*
X164406700Y-88182200D02*
X159132300Y-82907800D01*
X164406700Y-96948700D02*
X164406700Y-88182200D01*
X163313100Y-98042300D02*
X164406700Y-96948700D01*
X163120000Y-98042300D02*
X163313100Y-98042300D01*
X162732300Y-97654600D02*
X163120000Y-98042300D01*
X160966800Y-97654600D02*
X162732300Y-97654600D01*
X159916800Y-98704600D02*
X160966800Y-97654600D01*
X158471500Y-98704600D02*
X159916800Y-98704600D01*
X158396100Y-98780000D02*
X158471500Y-98704600D01*
X157670800Y-98780000D02*
X158396100Y-98780000D01*
X147595400Y-110355400D02*
X146870000Y-109630000D01*
X149310100Y-110355400D02*
X147595400Y-110355400D01*
X149644700Y-110020800D02*
X149310100Y-110355400D01*
X149644700Y-109630000D02*
X149644700Y-110020800D01*
X150270000Y-109630000D02*
X149644700Y-109630000D01*
X146345300Y-103595300D02*
X148500000Y-105750000D01*
X146345300Y-102980000D02*
X146345300Y-103595300D01*
X145570000Y-102980000D02*
X146345300Y-102980000D01*
X150185600Y-106860300D02*
X149075300Y-105750000D01*
X151239700Y-106860300D02*
X150185600Y-106860300D01*
X152070000Y-106030000D02*
X151239700Y-106860300D01*
X148500000Y-105750000D02*
X149075300Y-105750000D01*
X156750700Y-108336000D02*
X158244700Y-109830000D01*
X154850900Y-108336000D02*
X156750700Y-108336000D01*
X154647500Y-108132600D02*
X154850900Y-108336000D01*
X159020000Y-109830000D02*
X158244700Y-109830000D01*
X129370000Y-92780000D02*
X129370000Y-92204700D01*
X126970000Y-90980000D02*
X126970000Y-91555300D01*
X129370000Y-91800000D02*
X129370000Y-92204700D01*
X131550000Y-91800000D02*
X129370000Y-91800000D01*
X127214700Y-91800000D02*
X126970000Y-91555300D01*
X129370000Y-91800000D02*
X127214700Y-91800000D01*
X131500000Y-104500000D02*
X130474700Y-104500000D01*
X124670000Y-99580000D02*
X124670000Y-100155300D01*
X126094700Y-97580000D02*
X124670000Y-99004700D01*
X126870000Y-97580000D02*
X126094700Y-97580000D01*
X124670000Y-99580000D02*
X124670000Y-99004700D01*
X128555500Y-102580800D02*
X130474700Y-104500000D01*
X125001800Y-102580800D02*
X128555500Y-102580800D01*
X123894600Y-101473600D02*
X125001800Y-102580800D01*
X123894600Y-100643100D02*
X123894600Y-101473600D01*
X124382400Y-100155300D02*
X123894600Y-100643100D01*
X124670000Y-100155300D02*
X124382400Y-100155300D01*
X123820000Y-110830000D02*
X124107700Y-110830000D01*
X124107700Y-109317600D02*
X124770000Y-108655300D01*
X124107700Y-110830000D02*
X124107700Y-109317600D01*
X124770000Y-108080000D02*
X124770000Y-108655300D01*
X124945400Y-111667700D02*
X124107700Y-110830000D01*
X125024400Y-111667700D02*
X124945400Y-111667700D01*
X125920600Y-112563900D02*
X125024400Y-111667700D01*
X125920600Y-113025300D02*
X125920600Y-112563900D01*
X128575300Y-115680000D02*
X125920600Y-113025300D01*
X131470000Y-115680000D02*
X128575300Y-115680000D01*
X155671800Y-103930000D02*
X154946400Y-103930000D01*
X153645300Y-102628900D02*
X154946400Y-103930000D01*
X153645300Y-102280000D02*
X153645300Y-102628900D01*
X152870000Y-102280000D02*
X153645300Y-102280000D01*
X152870000Y-102280000D02*
X152870000Y-102855300D01*
X147820000Y-101054700D02*
X147820000Y-97930000D01*
X147570000Y-101304700D02*
X147820000Y-101054700D01*
X147570000Y-102030000D02*
X147570000Y-101667300D01*
X147570000Y-101667300D02*
X147570000Y-101304700D01*
X147000000Y-105750000D02*
X147575300Y-105750000D01*
X151563800Y-102855300D02*
X152074500Y-102855300D01*
X150929000Y-102220500D02*
X151563800Y-102855300D01*
X148123200Y-102220500D02*
X150929000Y-102220500D01*
X147570000Y-101667300D02*
X148123200Y-102220500D01*
X152074500Y-102855300D02*
X152870000Y-102855300D01*
X152423500Y-107457300D02*
X152281900Y-107315700D01*
X152423500Y-109315600D02*
X152423500Y-107457300D01*
X152937900Y-109830000D02*
X152423500Y-109315600D01*
X156120000Y-109830000D02*
X152937900Y-109830000D01*
X152895400Y-106702200D02*
X152281900Y-107315700D01*
X152895400Y-105383300D02*
X152895400Y-106702200D01*
X152074500Y-104562400D02*
X152895400Y-105383300D01*
X152074500Y-102855300D02*
X152074500Y-104562400D01*
X147575300Y-106037700D02*
X147575300Y-105750000D01*
X148853300Y-107315700D02*
X147575300Y-106037700D01*
X152281900Y-107315700D02*
X148853300Y-107315700D01*
X150750000Y-86000000D02*
X150750000Y-86575300D01*
X150945900Y-86771200D02*
X150750000Y-86575300D01*
X156135600Y-93300000D02*
X157550000Y-93300000D01*
X159225300Y-93300000D02*
X159870000Y-92655300D01*
X157550000Y-93300000D02*
X159225300Y-93300000D01*
X159870000Y-92080000D02*
X159870000Y-92655300D01*
X153470000Y-110680000D02*
X153470000Y-111255300D01*
X162570000Y-110380000D02*
X161794700Y-110380000D01*
X155521500Y-111255300D02*
X155751900Y-111485700D01*
X153470000Y-111255300D02*
X155521500Y-111255300D01*
X156145700Y-111091900D02*
X155751900Y-111485700D01*
X161082800Y-111091900D02*
X156145700Y-111091900D01*
X161794700Y-110380000D02*
X161082800Y-111091900D01*
X155948100Y-117580000D02*
X157570000Y-117580000D01*
X155807300Y-117720800D02*
X155948100Y-117580000D01*
X142539100Y-118880000D02*
X140870000Y-118880000D01*
X143566400Y-119907300D02*
X142539100Y-118880000D01*
X143566400Y-121821100D02*
X143566400Y-119907300D01*
X144150000Y-122404700D02*
X143566400Y-121821100D01*
X144150000Y-123230000D02*
X144150000Y-122404700D01*
X127047000Y-100332300D02*
X126870000Y-100155300D01*
X127733700Y-100332300D02*
X127047000Y-100332300D01*
X126870000Y-99580000D02*
X126870000Y-100155300D01*
X144270000Y-110580000D02*
X144270000Y-111155300D01*
X145045400Y-112756900D02*
X144931200Y-112871100D01*
X145045400Y-111643100D02*
X145045400Y-112756900D01*
X144557600Y-111155300D02*
X145045400Y-111643100D01*
X144270000Y-111155300D02*
X144557600Y-111155300D01*
X151620000Y-100930000D02*
X151620000Y-101705300D01*
X151620000Y-101801000D02*
X151535400Y-101885600D01*
X151620000Y-101705300D02*
X151620000Y-101801000D01*
X155444700Y-107341300D02*
X155444700Y-107330000D01*
X155259300Y-107526700D02*
X155444700Y-107341300D01*
X156020000Y-107330000D02*
X155444700Y-107330000D01*
X153170000Y-116080000D02*
X152144700Y-116080000D01*
X150270000Y-118880000D02*
X150970300Y-118880000D01*
X150970300Y-117102600D02*
X150970300Y-118880000D01*
X151992900Y-116080000D02*
X150970300Y-117102600D01*
X152144700Y-116080000D02*
X151992900Y-116080000D01*
X152144700Y-121030000D02*
X153244700Y-122130000D01*
X152144700Y-118080000D02*
X152144700Y-121030000D01*
X153170000Y-118080000D02*
X152144700Y-118080000D01*
X154070000Y-122130000D02*
X153244700Y-122130000D01*
M02*
