M48
;DRILL file {KiCad 4.0.7} date 04/11/18 20:39:35
;FORMAT={-:-/ absolute / inch / decimal}
FMAT,2
INCH,TZ
T1C0.016
T2C0.026
%
G90
G05
M72
T1
X5.0289Y-3.9501
X5.2899Y-4.574
X5.5171Y-4.7098
X5.706Y-4.4437
X5.7433Y-3.8465
X5.7547Y-4.6461
X5.8235Y-4.3696
X5.8678Y-3.7219
X5.9102Y-4.2812
X5.9133Y-4.6419
X5.9219Y-4.115
X5.9428Y-3.4162
X5.9475Y-3.8455
X5.9503Y-4.5472
X5.966Y-4.0112
X6.0771Y-3.6386
X6.0777Y-4.6776
X6.0885Y-4.2572
X6.0886Y-3.9838
X6.1126Y-4.2333
X6.132Y-4.3892
X6.1341Y-4.6347
X6.1471Y-3.6732
X6.1629Y-3.7452
X6.2007Y-3.8389
X6.2202Y-3.7452
X6.2516Y-4.6565
X6.2557Y-3.5748
T2
X5.4752Y-4.8516
X5.4882Y-3.4106
X5.4882Y-3.9224
X5.4882Y-4.3476
X5.5252Y-4.8516
X5.5382Y-3.4106
X5.5382Y-3.9224
X5.5382Y-4.3476
X5.5752Y-4.8516
X5.6252Y-4.8516
X5.6752Y-4.8516
X5.7252Y-4.8516
X5.7752Y-4.8516
X5.8252Y-4.8516
X5.8752Y-4.8516
X5.9252Y-4.8516
X5.937Y-4.1744
X5.987Y-4.1744
X6.2913Y-3.3988
X6.2913Y-4.1823
X6.3413Y-3.3988
X6.3413Y-4.1823
T0
M30
