G04 #@! TF.FileFunction,Copper,L1,Top,Signal*
%FSLAX46Y46*%
G04 Gerber Fmt 4.6, Leading zero omitted, Abs format (unit mm)*
G04 Created by KiCad (PCBNEW 4.0.7) date 03/30/18 15:53:02*
%MOMM*%
%LPD*%
G01*
G04 APERTURE LIST*
%ADD10C,0.100000*%
%ADD11R,0.800000X0.800000*%
%ADD12R,2.000000X1.100000*%
%ADD13R,0.750000X0.800000*%
%ADD14R,2.032000X2.032000*%
%ADD15O,2.032000X2.032000*%
%ADD16R,2.500000X1.000000*%
%ADD17R,0.900000X0.500000*%
%ADD18R,1.000000X1.250000*%
%ADD19R,0.600000X0.700000*%
%ADD20R,1.400000X0.300000*%
%ADD21R,1.650000X2.850000*%
%ADD22C,0.650000*%
%ADD23R,0.500000X0.900000*%
%ADD24R,1.000000X2.500000*%
%ADD25R,0.800100X0.800100*%
%ADD26R,0.900000X1.700000*%
%ADD27R,0.800000X0.750000*%
%ADD28R,0.900000X0.800000*%
%ADD29R,2.000000X2.600000*%
%ADD30O,2.000000X2.600000*%
%ADD31C,0.600000*%
%ADD32C,0.250000*%
%ADD33C,1.000000*%
%ADD34C,0.500000*%
%ADD35C,0.300000*%
G04 APERTURE END LIST*
D10*
D11*
X151150000Y-114000000D03*
D12*
X149250000Y-114000000D03*
D13*
X152250000Y-118500000D03*
X152250000Y-120000000D03*
X152250000Y-115500000D03*
X152250000Y-117000000D03*
D14*
X152250000Y-122750000D03*
D15*
X149710000Y-122750000D03*
D16*
X149500000Y-119250000D03*
X149500000Y-116250000D03*
D13*
X161750000Y-115750000D03*
X161750000Y-117250000D03*
D17*
X161750000Y-120250000D03*
X161750000Y-118750000D03*
X163500000Y-117250000D03*
X163500000Y-115750000D03*
X163500000Y-118750000D03*
X163500000Y-120250000D03*
X159750000Y-113250000D03*
X159750000Y-114750000D03*
D18*
X157250000Y-113750000D03*
X155250000Y-113750000D03*
D13*
X160000000Y-121500000D03*
X160000000Y-123000000D03*
D19*
X161850000Y-123500000D03*
X163250000Y-123500000D03*
D20*
X159750000Y-119750000D03*
X159750000Y-119250000D03*
X159750000Y-118750000D03*
X159750000Y-118250000D03*
X159750000Y-117750000D03*
X155350000Y-117750000D03*
X155350000Y-118250000D03*
X155350000Y-118750000D03*
X155350000Y-119250000D03*
X155350000Y-119750000D03*
X159750000Y-117250000D03*
X159750000Y-116750000D03*
X159750000Y-116250000D03*
X155350000Y-117250000D03*
X155350000Y-116750000D03*
X155350000Y-116250000D03*
D21*
X157550000Y-118000000D03*
D22*
X157550000Y-118000000D03*
X157550000Y-117000000D03*
X157550000Y-119000000D03*
D23*
X161750000Y-121750000D03*
X163250000Y-121750000D03*
D24*
X155250000Y-122500000D03*
X158250000Y-122500000D03*
D13*
X152250000Y-91750000D03*
X152250000Y-93250000D03*
X152250000Y-88750000D03*
X152250000Y-90250000D03*
D16*
X149500000Y-92500000D03*
X149500000Y-89500000D03*
D14*
X152250000Y-96000000D03*
D15*
X149710000Y-96000000D03*
D11*
X151150000Y-87250000D03*
D12*
X149250000Y-87250000D03*
D23*
X161750000Y-95000000D03*
X163250000Y-95000000D03*
D17*
X161750000Y-93500000D03*
X161750000Y-92000000D03*
D13*
X160000000Y-94750000D03*
X160000000Y-96250000D03*
D17*
X163500000Y-92000000D03*
X163500000Y-93500000D03*
D19*
X161850000Y-96750000D03*
X163250000Y-96750000D03*
D17*
X159750000Y-86500000D03*
X159750000Y-88000000D03*
D24*
X155250000Y-95750000D03*
X158250000Y-95750000D03*
D13*
X161750000Y-89000000D03*
X161750000Y-90500000D03*
D20*
X159750000Y-93000000D03*
X159750000Y-92500000D03*
X159750000Y-92000000D03*
X159750000Y-91500000D03*
X159750000Y-91000000D03*
X155350000Y-91000000D03*
X155350000Y-91500000D03*
X155350000Y-92000000D03*
X155350000Y-92500000D03*
X155350000Y-93000000D03*
X159750000Y-90500000D03*
X159750000Y-90000000D03*
X159750000Y-89500000D03*
X155350000Y-90500000D03*
X155350000Y-90000000D03*
X155350000Y-89500000D03*
D21*
X157550000Y-91250000D03*
D22*
X157550000Y-91250000D03*
X157550000Y-90250000D03*
X157550000Y-92250000D03*
D18*
X157250000Y-87250000D03*
X155250000Y-87250000D03*
D17*
X163500000Y-90500000D03*
X163500000Y-89000000D03*
D16*
X141500000Y-118250000D03*
X141500000Y-121250000D03*
D11*
X139850000Y-123500000D03*
D12*
X141750000Y-123500000D03*
D14*
X138750000Y-114750000D03*
D15*
X141290000Y-114750000D03*
D13*
X138750000Y-122000000D03*
X138750000Y-120500000D03*
X138750000Y-119000000D03*
X138750000Y-117500000D03*
D20*
X131250000Y-117750000D03*
X131250000Y-118250000D03*
X131250000Y-118750000D03*
X131250000Y-119250000D03*
X131250000Y-119750000D03*
X135650000Y-119750000D03*
X135650000Y-119250000D03*
X135650000Y-118750000D03*
X135650000Y-118250000D03*
X135650000Y-117750000D03*
X131250000Y-120250000D03*
X131250000Y-120750000D03*
X131250000Y-121250000D03*
X135650000Y-120250000D03*
X135650000Y-120750000D03*
X135650000Y-121250000D03*
D21*
X133450000Y-119500000D03*
D22*
X133450000Y-119500000D03*
X133450000Y-120500000D03*
X133450000Y-118500000D03*
D18*
X133750000Y-123250000D03*
X135750000Y-123250000D03*
D17*
X127500000Y-120250000D03*
X127500000Y-121750000D03*
D13*
X129250000Y-121750000D03*
X129250000Y-120250000D03*
D17*
X131250000Y-124250000D03*
X131250000Y-122750000D03*
D24*
X135750000Y-115000000D03*
X132750000Y-115000000D03*
D23*
X129250000Y-115750000D03*
X127750000Y-115750000D03*
D13*
X131000000Y-116000000D03*
X131000000Y-114500000D03*
D17*
X127500000Y-118750000D03*
X127500000Y-117250000D03*
D19*
X129150000Y-114000000D03*
X127750000Y-114000000D03*
D17*
X129250000Y-117250000D03*
X129250000Y-118750000D03*
D16*
X141750000Y-105000000D03*
X141750000Y-108000000D03*
D11*
X140100000Y-110250000D03*
D12*
X142000000Y-110250000D03*
D14*
X139000000Y-101500000D03*
D15*
X141540000Y-101500000D03*
D13*
X139000000Y-108750000D03*
X139000000Y-107250000D03*
X139000000Y-105750000D03*
X139000000Y-104250000D03*
D20*
X131500000Y-104500000D03*
X131500000Y-105000000D03*
X131500000Y-105500000D03*
X131500000Y-106000000D03*
X131500000Y-106500000D03*
X135900000Y-106500000D03*
X135900000Y-106000000D03*
X135900000Y-105500000D03*
X135900000Y-105000000D03*
X135900000Y-104500000D03*
X131500000Y-107000000D03*
X131500000Y-107500000D03*
X131500000Y-108000000D03*
X135900000Y-107000000D03*
X135900000Y-107500000D03*
X135900000Y-108000000D03*
D21*
X133700000Y-106250000D03*
D22*
X133700000Y-106250000D03*
X133700000Y-107250000D03*
X133700000Y-105250000D03*
D18*
X134000000Y-110500000D03*
X136000000Y-110500000D03*
D17*
X127750000Y-107000000D03*
X127750000Y-108500000D03*
D13*
X129500000Y-108500000D03*
X129500000Y-107000000D03*
D17*
X131500000Y-111000000D03*
X131500000Y-109500000D03*
D24*
X136000000Y-101750000D03*
X133000000Y-101750000D03*
D23*
X129500000Y-102500000D03*
X128000000Y-102500000D03*
D13*
X131250000Y-102750000D03*
X131250000Y-101250000D03*
D17*
X127750000Y-105500000D03*
X127750000Y-104000000D03*
D19*
X129400000Y-100750000D03*
X128000000Y-100750000D03*
D17*
X129500000Y-104000000D03*
X129500000Y-105500000D03*
D20*
X131250000Y-91000000D03*
X131250000Y-91500000D03*
X131250000Y-92000000D03*
X131250000Y-92500000D03*
X131250000Y-93000000D03*
X135650000Y-93000000D03*
X135650000Y-92500000D03*
X135650000Y-92000000D03*
X135650000Y-91500000D03*
X135650000Y-91000000D03*
X131250000Y-93500000D03*
X131250000Y-94000000D03*
X131250000Y-94500000D03*
X135650000Y-93500000D03*
X135650000Y-94000000D03*
X135650000Y-94500000D03*
D21*
X133450000Y-92750000D03*
D22*
X133450000Y-92750000D03*
X133450000Y-93750000D03*
X133450000Y-91750000D03*
D25*
X153501020Y-99050000D03*
X153501020Y-100950000D03*
X155500000Y-100000000D03*
D26*
X163150000Y-103250000D03*
X160250000Y-103250000D03*
D18*
X133750000Y-97000000D03*
X135750000Y-97000000D03*
D24*
X135750000Y-88250000D03*
X132750000Y-88250000D03*
D13*
X138750000Y-92250000D03*
X138750000Y-90750000D03*
X138750000Y-95250000D03*
X138750000Y-93750000D03*
X131000000Y-89250000D03*
X131000000Y-87750000D03*
X129250000Y-95000000D03*
X129250000Y-93500000D03*
X149750000Y-99250000D03*
X149750000Y-100750000D03*
D27*
X161250000Y-109250000D03*
X162750000Y-109250000D03*
D19*
X129150000Y-87250000D03*
X127750000Y-87250000D03*
D11*
X139850000Y-96750000D03*
D12*
X141750000Y-96750000D03*
D16*
X141500000Y-91500000D03*
X141500000Y-94500000D03*
D14*
X162250000Y-100000000D03*
D15*
X159710000Y-100000000D03*
D14*
X138750000Y-88000000D03*
D15*
X141290000Y-88000000D03*
D25*
X154000000Y-109350000D03*
X154000000Y-111250000D03*
X155998980Y-110300000D03*
D17*
X129250000Y-90500000D03*
X129250000Y-92000000D03*
X127500000Y-92000000D03*
X127500000Y-90500000D03*
D23*
X129250000Y-89000000D03*
X127750000Y-89000000D03*
D17*
X131250000Y-97500000D03*
X131250000Y-96000000D03*
X127500000Y-93500000D03*
X127500000Y-95000000D03*
X152250000Y-111000000D03*
X152250000Y-109500000D03*
X150250000Y-109500000D03*
X150250000Y-111000000D03*
D26*
X156150000Y-103250000D03*
X153250000Y-103250000D03*
D17*
X151750000Y-99250000D03*
X151750000Y-100750000D03*
D23*
X159500000Y-109250000D03*
X158000000Y-109250000D03*
D25*
X163000000Y-107400000D03*
X163000000Y-105500000D03*
X161001020Y-106450000D03*
D18*
X-1000000Y0D03*
X1000000Y0D03*
D23*
X-750000Y0D03*
X750000Y0D03*
X-750000Y0D03*
X750000Y0D03*
X-750000Y0D03*
X750000Y0D03*
X-750000Y0D03*
X750000Y0D03*
D28*
X-1000000Y950000D03*
X-1000000Y-950000D03*
X1000000Y0D03*
D29*
X1040000Y-6120000D03*
D30*
X3580000Y-6120000D03*
X6120000Y-6120000D03*
X8660000Y-6120000D03*
X11200000Y-6120000D03*
X13740000Y-6120000D03*
X16280000Y-6120000D03*
X18820000Y-6120000D03*
X21360000Y-6120000D03*
X23900000Y-6120000D03*
D31*
X162750000Y-114750000D03*
X128250000Y-122750000D03*
X127750000Y-109500000D03*
X164250000Y-94500000D03*
X164000000Y-121000000D03*
X127000000Y-116500000D03*
X127250000Y-103250000D03*
X127000000Y-89750000D03*
X163250000Y-108300052D03*
X127500000Y-96000000D03*
X163500000Y-87750000D03*
D32*
X135650000Y-91000000D02*
X135650000Y-90600000D01*
X135650000Y-90600000D02*
X135700010Y-90549990D01*
X135700010Y-90549990D02*
X135750000Y-90549990D01*
D33*
X138750000Y-88000000D02*
X136000000Y-88000000D01*
X136000000Y-88000000D02*
X135750000Y-88250000D01*
D32*
X135000000Y-88250000D02*
X135750000Y-88250000D01*
D33*
X135750000Y-88250000D02*
X135750000Y-90549990D01*
X135750000Y-90549990D02*
X135650000Y-90649990D01*
D34*
X157900000Y-109350000D02*
X158000000Y-109250000D01*
D32*
X131250000Y-91500000D02*
X130300000Y-91500000D01*
X130300000Y-91500000D02*
X130025001Y-91225001D01*
X130025001Y-91225001D02*
X130025001Y-89975001D01*
X133324999Y-86574999D02*
X135000000Y-88250000D01*
X128589999Y-86574999D02*
X133324999Y-86574999D01*
X128524999Y-88025001D02*
X128524999Y-86639999D01*
X128524999Y-86639999D02*
X128589999Y-86574999D01*
X163500000Y-115750000D02*
X163500000Y-115500000D01*
X163500000Y-115500000D02*
X162750000Y-114750000D01*
X127500000Y-121750000D02*
X127500000Y-122000000D01*
X127500000Y-122000000D02*
X128250000Y-122750000D01*
X127750000Y-108500000D02*
X127750000Y-109500000D01*
X163700000Y-93500000D02*
X163500000Y-93500000D01*
X163500000Y-93500000D02*
X163500000Y-93750000D01*
X163500000Y-93750000D02*
X164250000Y-94500000D01*
X163500000Y-120250000D02*
X163500000Y-120500000D01*
X163500000Y-120500000D02*
X164000000Y-121000000D01*
X127500000Y-117250000D02*
X127500000Y-117000000D01*
X127500000Y-117000000D02*
X127000000Y-116500000D01*
X127750000Y-104000000D02*
X127750000Y-103750000D01*
X127750000Y-103750000D02*
X127250000Y-103250000D01*
X127500000Y-90500000D02*
X127500000Y-90250000D01*
X127500000Y-90250000D02*
X127000000Y-89750000D01*
D34*
X149710000Y-96000000D02*
X148694001Y-97015999D01*
X148694001Y-97015999D02*
X148694001Y-99669001D01*
X148694001Y-99669001D02*
X149775000Y-100750000D01*
X149775000Y-100750000D02*
X150800000Y-100750000D01*
D32*
X162750000Y-109250000D02*
X162750000Y-108800052D01*
X162750000Y-108800052D02*
X163250000Y-108300052D01*
D34*
X154000000Y-109350000D02*
X157900000Y-109350000D01*
X153850000Y-109500000D02*
X154000000Y-109350000D01*
D33*
X157250000Y-89500000D02*
X157250000Y-87250000D01*
X133750000Y-120800000D02*
X133750000Y-123250000D01*
D32*
X131250000Y-119250000D02*
X133200000Y-119250000D01*
X133200000Y-119250000D02*
X133450000Y-119500000D01*
X131500000Y-106000000D02*
X133450000Y-106000000D01*
X133450000Y-106000000D02*
X133700000Y-106250000D01*
X159750000Y-91500000D02*
X157800000Y-91500000D01*
X157800000Y-91500000D02*
X157550000Y-91250000D01*
X159750000Y-118250000D02*
X157800000Y-118250000D01*
X157800000Y-118250000D02*
X157550000Y-118000000D01*
D33*
X157250000Y-116700000D02*
X157550000Y-117000000D01*
X157250000Y-116250000D02*
X157250000Y-116700000D01*
D32*
X158700000Y-116250000D02*
X157550000Y-117400000D01*
X157300000Y-118250000D02*
X157550000Y-118000000D01*
X157550000Y-117400000D02*
X157550000Y-118000000D01*
X159750000Y-116250000D02*
X158700000Y-116250000D01*
X155350000Y-118250000D02*
X157300000Y-118250000D01*
D33*
X158250000Y-119700000D02*
X157550000Y-119000000D01*
X158250000Y-92950000D02*
X157550000Y-92250000D01*
D32*
X157550000Y-90650000D02*
X157550000Y-91250000D01*
X157300000Y-91500000D02*
X157550000Y-91250000D01*
D33*
X157250000Y-89950000D02*
X157550000Y-90250000D01*
X157250000Y-89500000D02*
X157250000Y-89950000D01*
D32*
X159750000Y-89500000D02*
X158700000Y-89500000D01*
X158700000Y-89500000D02*
X157550000Y-90650000D01*
X155350000Y-91500000D02*
X157300000Y-91500000D01*
X131250000Y-121250000D02*
X132300000Y-121250000D01*
D33*
X133750000Y-121250000D02*
X133750000Y-120800000D01*
X133750000Y-120800000D02*
X133450000Y-120500000D01*
D35*
X131000000Y-114500000D02*
X132250000Y-114500000D01*
D32*
X135650000Y-119250000D02*
X133700000Y-119250000D01*
D33*
X132750000Y-117800000D02*
X133450000Y-118500000D01*
D32*
X133700000Y-119250000D02*
X133450000Y-119500000D01*
X132300000Y-121250000D02*
X133450000Y-120100000D01*
X133450000Y-120100000D02*
X133450000Y-119500000D01*
X131500000Y-108000000D02*
X132550000Y-108000000D01*
D33*
X134000000Y-108000000D02*
X134000000Y-107550000D01*
X134000000Y-107550000D02*
X133700000Y-107250000D01*
D35*
X131250000Y-101250000D02*
X132500000Y-101250000D01*
D32*
X135900000Y-106000000D02*
X133950000Y-106000000D01*
D33*
X133000000Y-104550000D02*
X133700000Y-105250000D01*
D32*
X133950000Y-106000000D02*
X133700000Y-106250000D01*
X132550000Y-108000000D02*
X133700000Y-106850000D01*
X133700000Y-106850000D02*
X133700000Y-106250000D01*
X135650000Y-92500000D02*
X133700000Y-92500000D01*
X133700000Y-92500000D02*
X133450000Y-92750000D01*
X131250000Y-94500000D02*
X132300000Y-94500000D01*
X132300000Y-94500000D02*
X133450000Y-93350000D01*
X133450000Y-93350000D02*
X133450000Y-92750000D01*
X131250000Y-92500000D02*
X133200000Y-92500000D01*
X133200000Y-92500000D02*
X133450000Y-92750000D01*
D33*
X132750000Y-88250000D02*
X132750000Y-91050000D01*
X132750000Y-91050000D02*
X133450000Y-91750000D01*
X133750000Y-94500000D02*
X133750000Y-94050000D01*
X133750000Y-94050000D02*
X133450000Y-93750000D01*
D35*
X131000000Y-87750000D02*
X132250000Y-87750000D01*
X132250000Y-87750000D02*
X132750000Y-88250000D01*
D32*
X128774999Y-101525001D02*
X128774999Y-100139999D01*
X128000000Y-102300000D02*
X128774999Y-101525001D01*
X128774999Y-100139999D02*
X128839999Y-100074999D01*
X133574999Y-100074999D02*
X135250000Y-101750000D01*
X128839999Y-100074999D02*
X133574999Y-100074999D01*
X129500000Y-104000000D02*
X128000000Y-102500000D01*
X128000000Y-102500000D02*
X128000000Y-102300000D01*
D34*
X138750000Y-90750000D02*
X137875000Y-90750000D01*
D33*
X139000000Y-105750000D02*
X141000000Y-105750000D01*
D34*
X137869899Y-105600010D02*
X137248532Y-105600010D01*
X138019889Y-105750000D02*
X137869899Y-105600010D01*
X139000000Y-105750000D02*
X138019889Y-105750000D01*
X137248532Y-105600010D02*
X137000000Y-105600010D01*
D35*
X137000000Y-105600010D02*
X137000000Y-105500000D01*
D32*
X136899990Y-105500000D02*
X137000000Y-105600010D01*
D35*
X129250000Y-95000000D02*
X129250000Y-95700000D01*
D32*
X134875000Y-124250000D02*
X135750000Y-123375000D01*
X135750000Y-123375000D02*
X135750000Y-123250000D01*
D33*
X139850000Y-123500000D02*
X136000000Y-123500000D01*
X136000000Y-123500000D02*
X135750000Y-123250000D01*
D34*
X136800001Y-121000000D02*
X136800001Y-122074999D01*
X136800001Y-122074999D02*
X135750000Y-123125000D01*
X135750000Y-123125000D02*
X135750000Y-123250000D01*
D35*
X136800001Y-120900001D02*
X136800001Y-121000000D01*
X136650000Y-120750000D02*
X136800001Y-120900001D01*
D32*
X131250000Y-96000000D02*
X131050000Y-96000000D01*
X131050000Y-96000000D02*
X130000000Y-94950000D01*
D33*
X155250000Y-95750000D02*
X155250000Y-93450010D01*
D32*
X156000000Y-95750000D02*
X155250000Y-95750000D01*
D33*
X155000000Y-96000000D02*
X155250000Y-95750000D01*
D32*
X157675001Y-97425001D02*
X156000000Y-95750000D01*
X162410001Y-97425001D02*
X157675001Y-97425001D01*
X162475001Y-124110001D02*
X162410001Y-124175001D01*
X162475001Y-122724999D02*
X162475001Y-124110001D01*
X163250000Y-121950000D02*
X162475001Y-122724999D01*
X162410001Y-124175001D02*
X157675001Y-124175001D01*
X163250000Y-121750000D02*
X163250000Y-121950000D01*
D34*
X152250000Y-120000000D02*
X153125000Y-120000000D01*
X153125000Y-120000000D02*
X153775000Y-119350000D01*
D32*
X154100000Y-119250000D02*
X154000000Y-119350000D01*
D34*
X153775000Y-119350000D02*
X154000000Y-119350000D01*
X153620092Y-91150018D02*
X154000000Y-91150018D01*
X152720073Y-90250000D02*
X153620092Y-91150018D01*
X152250000Y-90250000D02*
X152720073Y-90250000D01*
D33*
X150250000Y-90250000D02*
X152250000Y-90250000D01*
D34*
X154000000Y-91150018D02*
X154199999Y-91150018D01*
D32*
X154249982Y-91150018D02*
X154000000Y-91150018D01*
X154400000Y-91000000D02*
X154249982Y-91150018D01*
D35*
X154199999Y-91150018D02*
X154299999Y-91150018D01*
D34*
X152720073Y-117000000D02*
X153620092Y-117900018D01*
X152250000Y-117000000D02*
X152720073Y-117000000D01*
D33*
X150250000Y-117000000D02*
X152250000Y-117000000D01*
D34*
X153620092Y-117900018D02*
X154000000Y-117900018D01*
X154000000Y-117900018D02*
X154199999Y-117900018D01*
D32*
X154249982Y-117900018D02*
X154000000Y-117900018D01*
D35*
X154199999Y-117900018D02*
X154299999Y-117900018D01*
D32*
X154400000Y-117750000D02*
X154249982Y-117900018D01*
D35*
X161750000Y-90500000D02*
X163500000Y-90500000D01*
D32*
X161250000Y-91000000D02*
X161750000Y-90500000D01*
X159950000Y-114750000D02*
X161000000Y-115800000D01*
X159750000Y-114750000D02*
X159950000Y-114750000D01*
X161250000Y-117750000D02*
X161750000Y-117250000D01*
X161000000Y-115800000D02*
X161000000Y-117750000D01*
D35*
X161750000Y-117250000D02*
X163500000Y-117250000D01*
D32*
X161000000Y-117750000D02*
X161250000Y-117750000D01*
X161250000Y-103500000D02*
X161000000Y-103250000D01*
X161000000Y-103250000D02*
X160250000Y-103250000D01*
X161250000Y-105550970D02*
X161250000Y-103500000D01*
X161001020Y-105799950D02*
X161250000Y-105550970D01*
D33*
X158000000Y-103250000D02*
X160250000Y-103250000D01*
D32*
X130000000Y-94950000D02*
X130000000Y-93000000D01*
X161000000Y-91000000D02*
X161250000Y-91000000D01*
X155350000Y-93400000D02*
X155299990Y-93450010D01*
X155299990Y-93450010D02*
X155250000Y-93450010D01*
D33*
X155250000Y-93450010D02*
X155350000Y-93350010D01*
D32*
X162475001Y-97360001D02*
X162410001Y-97425001D01*
X162475001Y-95974999D02*
X162475001Y-97360001D01*
D34*
X137875000Y-90750000D02*
X137225000Y-91400000D01*
D32*
X157675001Y-124175001D02*
X156000000Y-122500000D01*
X161000000Y-89050000D02*
X161000000Y-91000000D01*
D33*
X158000000Y-104484000D02*
X158000000Y-103250000D01*
D32*
X130000000Y-93000000D02*
X129750000Y-93000000D01*
X136900000Y-91500000D02*
X137000000Y-91400000D01*
D34*
X137225000Y-91400000D02*
X137000000Y-91400000D01*
D33*
X158000000Y-106500000D02*
X158000000Y-104484000D01*
D32*
X135900000Y-104500000D02*
X135900000Y-104100000D01*
X135900000Y-104100000D02*
X135950010Y-104049990D01*
X135950010Y-104049990D02*
X136000000Y-104049990D01*
D33*
X136000000Y-104049990D02*
X135900000Y-104149990D01*
D32*
X131250000Y-117750000D02*
X131250000Y-116250000D01*
X131250000Y-116250000D02*
X131000000Y-116000000D01*
X131500000Y-105000000D02*
X130550000Y-105000000D01*
X130025001Y-116725001D02*
X129250000Y-115950000D01*
X129250000Y-115950000D02*
X129250000Y-115750000D01*
D35*
X129150000Y-115650000D02*
X129250000Y-115750000D01*
D32*
X130025001Y-117975001D02*
X130025001Y-116725001D01*
X130300000Y-118250000D02*
X130025001Y-117975001D01*
X130550000Y-105000000D02*
X130275001Y-104725001D01*
X130275001Y-104725001D02*
X130275001Y-103475001D01*
X135650000Y-117750000D02*
X135650000Y-117350000D01*
X135650000Y-117350000D02*
X135700010Y-117299990D01*
X135700010Y-117299990D02*
X135750000Y-117299990D01*
D33*
X135750000Y-117299990D02*
X135650000Y-117399990D01*
D32*
X161750000Y-120250000D02*
X163250000Y-121750000D01*
D34*
X152250000Y-115500000D02*
X153125000Y-115500000D01*
X153499989Y-115874989D02*
X153499989Y-116789953D01*
X153125000Y-115500000D02*
X153499989Y-115874989D01*
X153499989Y-116789953D02*
X153910046Y-117200010D01*
D32*
X153960036Y-117250000D02*
X153910046Y-117200010D01*
X131250000Y-118250000D02*
X130300000Y-118250000D01*
D33*
X138750000Y-92250000D02*
X140750000Y-92250000D01*
D34*
X138750000Y-92250000D02*
X137769889Y-92250000D01*
X137769889Y-92250000D02*
X137619899Y-92100010D01*
X137619899Y-92100010D02*
X136998532Y-92100010D01*
D32*
X136649990Y-92000000D02*
X136750000Y-92100010D01*
D35*
X136750000Y-92100010D02*
X136750000Y-92000000D01*
D34*
X136998532Y-92100010D02*
X136750000Y-92100010D01*
X138125000Y-104250000D02*
X137475000Y-104900000D01*
X139000000Y-104250000D02*
X138125000Y-104250000D01*
D32*
X137150000Y-105000000D02*
X137250000Y-104900000D01*
D34*
X137475000Y-104900000D02*
X137250000Y-104900000D01*
D33*
X138750000Y-119000000D02*
X140750000Y-119000000D01*
D34*
X137619899Y-118850010D02*
X136998532Y-118850010D01*
X137769889Y-119000000D02*
X137619899Y-118850010D01*
X138750000Y-119000000D02*
X137769889Y-119000000D01*
X136998532Y-118850010D02*
X136750000Y-118850010D01*
D35*
X136750000Y-118850010D02*
X136750000Y-118750000D01*
D32*
X136649990Y-118750000D02*
X136750000Y-118850010D01*
X135650000Y-94000000D02*
X136650000Y-94000000D01*
D35*
X136650000Y-94000000D02*
X136800001Y-94150001D01*
X136800001Y-94150001D02*
X136800001Y-94250000D01*
D34*
X136800001Y-95010001D02*
X136800001Y-94250000D01*
X135750000Y-96060002D02*
X136800001Y-95010001D01*
D35*
X129150000Y-87250000D02*
X129150000Y-88900000D01*
D34*
X137875000Y-117500000D02*
X137225000Y-118150000D01*
X138750000Y-117500000D02*
X137875000Y-117500000D01*
D32*
X136900000Y-118250000D02*
X137000000Y-118150000D01*
D34*
X137225000Y-118150000D02*
X137000000Y-118150000D01*
D32*
X131250000Y-93000000D02*
X130000000Y-93000000D01*
X129500000Y-105500000D02*
X131500000Y-105500000D01*
D35*
X129500000Y-105500000D02*
X127750000Y-105500000D01*
D33*
X140750000Y-93750000D02*
X138750000Y-93750000D01*
D34*
X138279927Y-93750000D02*
X137379908Y-92849982D01*
X138750000Y-93750000D02*
X138279927Y-93750000D01*
D32*
X159750000Y-91000000D02*
X161000000Y-91000000D01*
X131250000Y-118750000D02*
X129250000Y-118750000D01*
D35*
X129250000Y-118750000D02*
X127500000Y-118750000D01*
D34*
X137379908Y-92849982D02*
X137000000Y-92849982D01*
D32*
X136600000Y-93000000D02*
X136750018Y-92849982D01*
X136750018Y-92849982D02*
X137000000Y-92849982D01*
D35*
X136800001Y-92849982D02*
X136700001Y-92849982D01*
D34*
X137000000Y-92849982D02*
X136800001Y-92849982D01*
X139000000Y-108750000D02*
X138125000Y-108750000D01*
X137750011Y-108375011D02*
X137750011Y-107460047D01*
X138125000Y-108750000D02*
X137750011Y-108375011D01*
X137750011Y-107460047D02*
X137339954Y-107049990D01*
D32*
X155350000Y-90500000D02*
X153960036Y-90500000D01*
D34*
X153499989Y-90039953D02*
X153910046Y-90450010D01*
D32*
X153960036Y-90500000D02*
X153910046Y-90450010D01*
X137289964Y-107000000D02*
X137339954Y-107049990D01*
D34*
X153499989Y-89124989D02*
X153499989Y-90039953D01*
X153125000Y-88750000D02*
X153499989Y-89124989D01*
D33*
X141000000Y-107250000D02*
X139000000Y-107250000D01*
D34*
X138529927Y-107250000D02*
X137629908Y-106349982D01*
X139000000Y-107250000D02*
X138529927Y-107250000D01*
X137629908Y-106349982D02*
X137250000Y-106349982D01*
D33*
X141750000Y-108000000D02*
X141000000Y-107250000D01*
D32*
X136850000Y-106500000D02*
X137000018Y-106349982D01*
X137000018Y-106349982D02*
X137250000Y-106349982D01*
D35*
X137050001Y-106349982D02*
X136950001Y-106349982D01*
D34*
X137250000Y-106349982D02*
X137050001Y-106349982D01*
D32*
X155350000Y-91000000D02*
X154400000Y-91000000D01*
D33*
X141000000Y-105750000D02*
X141750000Y-105000000D01*
D34*
X138750000Y-122000000D02*
X137875000Y-122000000D01*
X137500011Y-121625011D02*
X137500011Y-120710047D01*
X137875000Y-122000000D02*
X137500011Y-121625011D01*
X137500011Y-120710047D02*
X137089954Y-120299990D01*
D32*
X155350000Y-92000000D02*
X154350010Y-92000000D01*
D35*
X154250000Y-91899990D02*
X154250000Y-92000000D01*
D32*
X154350010Y-92000000D02*
X154250000Y-91899990D01*
X137039964Y-120250000D02*
X137089954Y-120299990D01*
D34*
X154001468Y-91899990D02*
X154250000Y-91899990D01*
X153380101Y-91899990D02*
X154001468Y-91899990D01*
X153230111Y-91750000D02*
X153380101Y-91899990D01*
D33*
X140750000Y-120500000D02*
X138750000Y-120500000D01*
D34*
X138279927Y-120500000D02*
X137379908Y-119599982D01*
X138750000Y-120500000D02*
X138279927Y-120500000D01*
X137379908Y-119599982D02*
X137000000Y-119599982D01*
D32*
X136600000Y-119750000D02*
X136750018Y-119599982D01*
X136750018Y-119599982D02*
X137000000Y-119599982D01*
D35*
X136800001Y-119599982D02*
X136700001Y-119599982D01*
D34*
X137000000Y-119599982D02*
X136800001Y-119599982D01*
D32*
X155350000Y-92500000D02*
X154100000Y-92500000D01*
X154100000Y-92500000D02*
X154000000Y-92600000D01*
D34*
X153775000Y-92600000D02*
X154000000Y-92600000D01*
X153125000Y-93250000D02*
X153775000Y-92600000D01*
D32*
X131250000Y-91000000D02*
X131250000Y-89500000D01*
X131250000Y-89500000D02*
X131000000Y-89250000D01*
X159750000Y-93000000D02*
X159750000Y-94500000D01*
X135900000Y-105000000D02*
X137150000Y-105000000D01*
X134924999Y-97950001D02*
X135750000Y-97125000D01*
X132400001Y-97950001D02*
X134924999Y-97950001D01*
X135750000Y-97125000D02*
X135750000Y-97000000D01*
D33*
X135750000Y-97000000D02*
X139600000Y-97000000D01*
D34*
X135750000Y-97000000D02*
X135750000Y-96060002D01*
D32*
X131950000Y-97500000D02*
X132400001Y-97950001D01*
X135900000Y-106500000D02*
X136850000Y-106500000D01*
D33*
X141500000Y-121250000D02*
X140750000Y-120500000D01*
D32*
X131500000Y-111000000D02*
X131700000Y-111000000D01*
X131700000Y-111000000D02*
X132150001Y-111450001D01*
X132150001Y-111450001D02*
X135174999Y-111450001D01*
X135174999Y-111450001D02*
X136000000Y-110625000D01*
X136000000Y-110625000D02*
X136000000Y-110500000D01*
D35*
X129500000Y-109200000D02*
X131300000Y-111000000D01*
X131300000Y-111000000D02*
X131500000Y-111000000D01*
D34*
X136000000Y-110500000D02*
X136000000Y-109560002D01*
D33*
X136000000Y-110500000D02*
X139850000Y-110500000D01*
D34*
X136000000Y-109560002D02*
X137050001Y-108510001D01*
D35*
X137050001Y-107650001D02*
X137050001Y-107750000D01*
D34*
X137050001Y-108510001D02*
X137050001Y-107750000D01*
D35*
X136900000Y-107500000D02*
X137050001Y-107650001D01*
X129500000Y-108500000D02*
X129500000Y-109200000D01*
D33*
X139850000Y-110500000D02*
X140100000Y-110250000D01*
D32*
X135900000Y-107500000D02*
X136900000Y-107500000D01*
X129750000Y-93000000D02*
X129250000Y-93500000D01*
D35*
X129250000Y-93500000D02*
X127500000Y-93500000D01*
D32*
X127500000Y-95000000D02*
X127500000Y-96000000D01*
X131500000Y-109500000D02*
X131300000Y-109500000D01*
X131300000Y-109500000D02*
X130250000Y-108450000D01*
X130250000Y-108450000D02*
X130250000Y-106500000D01*
X130250000Y-106500000D02*
X130000000Y-106500000D01*
X130000000Y-106500000D02*
X129500000Y-107000000D01*
D35*
X129500000Y-107000000D02*
X127750000Y-107000000D01*
D32*
X131500000Y-106500000D02*
X130250000Y-106500000D01*
X131250000Y-122750000D02*
X131050000Y-122750000D01*
X131050000Y-122750000D02*
X130000000Y-121700000D01*
X130000000Y-121700000D02*
X130000000Y-119750000D01*
X130000000Y-119750000D02*
X129750000Y-119750000D01*
X129750000Y-119750000D02*
X129250000Y-120250000D01*
D35*
X129250000Y-120250000D02*
X127500000Y-120250000D01*
D32*
X159750000Y-117750000D02*
X161000000Y-117750000D01*
X131500000Y-104500000D02*
X131500000Y-103000000D01*
X131500000Y-103000000D02*
X131250000Y-102750000D01*
X155350000Y-93000000D02*
X155350000Y-93400000D01*
D33*
X152250000Y-96000000D02*
X155000000Y-96000000D01*
D32*
X130025001Y-89975001D02*
X129250000Y-89200000D01*
X129250000Y-89200000D02*
X129250000Y-89000000D01*
D35*
X129150000Y-88900000D02*
X129250000Y-89000000D01*
D32*
X159750000Y-92500000D02*
X160700000Y-92500000D01*
X160700000Y-92500000D02*
X160974999Y-92774999D01*
X160974999Y-92774999D02*
X160974999Y-94024999D01*
X161750000Y-93500000D02*
X163250000Y-95000000D01*
X155350000Y-119750000D02*
X155350000Y-120150000D01*
X155350000Y-120150000D02*
X155299990Y-120200010D01*
X155299990Y-120200010D02*
X155250000Y-120200010D01*
D33*
X155250000Y-120200010D02*
X155350000Y-120100010D01*
X152250000Y-122750000D02*
X155000000Y-122750000D01*
D34*
X152250000Y-88750000D02*
X153125000Y-88750000D01*
D32*
X159750000Y-119250000D02*
X160700000Y-119250000D01*
X160700000Y-119250000D02*
X160974999Y-119524999D01*
X160974999Y-119524999D02*
X160974999Y-120774999D01*
D34*
X152250000Y-91750000D02*
X153230111Y-91750000D01*
D33*
X152250000Y-91750000D02*
X150250000Y-91750000D01*
X150250000Y-91750000D02*
X149500000Y-92500000D01*
D32*
X155350000Y-118750000D02*
X154350010Y-118750000D01*
X154350010Y-118750000D02*
X154250000Y-118649990D01*
D35*
X154250000Y-118649990D02*
X154250000Y-118750000D01*
D34*
X154001468Y-118649990D02*
X154250000Y-118649990D01*
X153380101Y-118649990D02*
X154001468Y-118649990D01*
X153230111Y-118500000D02*
X153380101Y-118649990D01*
X152250000Y-93250000D02*
X153125000Y-93250000D01*
D32*
X155350000Y-119250000D02*
X154100000Y-119250000D01*
D33*
X152250000Y-118500000D02*
X150250000Y-118500000D01*
D34*
X152250000Y-118500000D02*
X153230111Y-118500000D01*
D32*
X159750000Y-119750000D02*
X159750000Y-121250000D01*
X135650000Y-118750000D02*
X136649990Y-118750000D01*
D33*
X150250000Y-118500000D02*
X149500000Y-119250000D01*
D32*
X159750000Y-94500000D02*
X160000000Y-94750000D01*
X135650000Y-120250000D02*
X137039964Y-120250000D01*
X159750000Y-121250000D02*
X160000000Y-121500000D01*
X153301020Y-99250000D02*
X153501020Y-99050000D01*
X154950010Y-101112530D02*
X154950010Y-104724010D01*
X154950010Y-104724010D02*
X155460000Y-105234000D01*
X155460000Y-105234000D02*
X155460000Y-106500000D01*
X153501020Y-99050000D02*
X153501020Y-99663540D01*
X153501020Y-99663540D02*
X154950010Y-101112530D01*
D35*
X155460000Y-106347600D02*
X155460000Y-106500000D01*
X161750000Y-89000000D02*
X161750000Y-88300000D01*
D32*
X159750000Y-113250000D02*
X158460002Y-113250000D01*
X158460002Y-113250000D02*
X158010001Y-112799999D01*
X158010001Y-112799999D02*
X156075001Y-112799999D01*
D35*
X159950000Y-113250000D02*
X159750000Y-113250000D01*
X161750000Y-115050000D02*
X159950000Y-113250000D01*
D33*
X157250000Y-113750000D02*
X157250000Y-116250000D01*
D32*
X135650000Y-120750000D02*
X136650000Y-120750000D01*
X156075001Y-86299999D02*
X155250000Y-87125000D01*
D33*
X155250000Y-87250000D02*
X151150000Y-87250000D01*
D32*
X155250000Y-86875000D02*
X155250000Y-87000000D01*
D34*
X155250000Y-87000000D02*
X155250000Y-87939998D01*
X154199999Y-88989999D02*
X154199999Y-89750000D01*
X155250000Y-87939998D02*
X154199999Y-88989999D01*
D35*
X154350000Y-90000000D02*
X154199999Y-89849999D01*
X154199999Y-89849999D02*
X154199999Y-89750000D01*
D32*
X160974999Y-94024999D02*
X161750000Y-94800000D01*
D35*
X161850000Y-95100000D02*
X161750000Y-95000000D01*
D32*
X161750000Y-94800000D02*
X161750000Y-95000000D01*
D35*
X161850000Y-96750000D02*
X161850000Y-95100000D01*
D32*
X158010001Y-86299999D02*
X156075001Y-86299999D01*
X158210002Y-86500000D02*
X158010001Y-86299999D01*
X131250000Y-119750000D02*
X130000000Y-119750000D01*
X163250000Y-95000000D02*
X163250000Y-95200000D01*
X163250000Y-95200000D02*
X162475001Y-95974999D01*
X156075001Y-112799999D02*
X155250000Y-113625000D01*
X155250000Y-113625000D02*
X155250000Y-113750000D01*
D34*
X155250000Y-114689998D02*
X154199999Y-115739999D01*
X154199999Y-115739999D02*
X154199999Y-116500000D01*
D35*
X154199999Y-116599999D02*
X154199999Y-116500000D01*
D34*
X155250000Y-113750000D02*
X155250000Y-114689998D01*
D35*
X154350000Y-116750000D02*
X154199999Y-116599999D01*
X161850000Y-123500000D02*
X161850000Y-121850000D01*
X161850000Y-121850000D02*
X161750000Y-121750000D01*
D32*
X161750000Y-121550000D02*
X161750000Y-121750000D01*
X160974999Y-120774999D02*
X161750000Y-121550000D01*
D35*
X161750000Y-115750000D02*
X161750000Y-115050000D01*
D32*
X159335002Y-110300000D02*
X155998980Y-110300000D01*
X164750000Y-115714998D02*
X159335002Y-110300000D01*
X155998980Y-110300000D02*
X163060002Y-110300000D01*
X163060002Y-110300000D02*
X163925001Y-109435001D01*
X163925001Y-98025001D02*
X163250000Y-97350000D01*
X163925001Y-109435001D02*
X163925001Y-98025001D01*
X164750000Y-121950000D02*
X164750000Y-115714998D01*
D35*
X129150000Y-114000000D02*
X129150000Y-115650000D01*
D33*
X141750000Y-96750000D02*
X143750000Y-96750000D01*
X143750000Y-96750000D02*
X146500000Y-99500000D01*
X141750000Y-96750000D02*
X142200000Y-96750000D01*
X146500000Y-100750000D02*
X147750000Y-102000000D01*
X146500000Y-99500000D02*
X146500000Y-100750000D01*
X146500000Y-88000000D02*
X146500000Y-100750000D01*
X147250000Y-87250000D02*
X146500000Y-88000000D01*
X147750000Y-102000000D02*
X149000000Y-103250000D01*
X145500000Y-104250000D02*
X147750000Y-102000000D01*
X145500000Y-107250000D02*
X145500000Y-104250000D01*
X145500000Y-111000000D02*
X145500000Y-107250000D01*
X145500000Y-108750000D02*
X145500000Y-107250000D01*
X144000000Y-110250000D02*
X145500000Y-108750000D01*
D32*
X163250000Y-123500000D02*
X163250000Y-123450000D01*
X163250000Y-123450000D02*
X164750000Y-121950000D01*
X163250000Y-124100000D02*
X163250000Y-123500000D01*
X162524999Y-124825001D02*
X163250000Y-124100000D01*
X129289999Y-124825001D02*
X162524999Y-124825001D01*
X126374999Y-121910001D02*
X129289999Y-124825001D01*
X126374999Y-115425001D02*
X126374999Y-121910001D01*
X159750000Y-86500000D02*
X158210002Y-86500000D01*
D35*
X159950000Y-86500000D02*
X159750000Y-86500000D01*
X161750000Y-88300000D02*
X159950000Y-86500000D01*
D33*
X162250000Y-100000000D02*
X162250000Y-102016000D01*
D32*
X163000000Y-105500000D02*
X162349950Y-105500000D01*
X162349950Y-105500000D02*
X162000000Y-105150050D01*
X162000000Y-103500000D02*
X162250000Y-103250000D01*
X162000000Y-105150050D02*
X162000000Y-103500000D01*
D34*
X150800000Y-100750000D02*
X151750000Y-100750000D01*
D33*
X149000000Y-103250000D02*
X153250000Y-103250000D01*
D32*
X154500000Y-103000000D02*
X154250000Y-103250000D01*
X154250000Y-103250000D02*
X153250000Y-103250000D01*
X154500000Y-101298930D02*
X154500000Y-103000000D01*
X154151070Y-100950000D02*
X154500000Y-101298930D01*
X155500000Y-100000000D02*
X155500000Y-102600000D01*
X150380000Y-106500000D02*
X150380000Y-109370000D01*
X150380000Y-109370000D02*
X150250000Y-109500000D01*
X152250000Y-111000000D02*
X153750000Y-111000000D01*
X153750000Y-111000000D02*
X154000000Y-111250000D01*
X131250000Y-92000000D02*
X129250000Y-92000000D01*
D35*
X129250000Y-92000000D02*
X127500000Y-92000000D01*
X161750000Y-92000000D02*
X163500000Y-92000000D01*
D32*
X159750000Y-118750000D02*
X161750000Y-118750000D01*
D35*
X161750000Y-118750000D02*
X163500000Y-118750000D01*
D33*
X136250000Y-101500000D02*
X136000000Y-101750000D01*
X139000000Y-101500000D02*
X136250000Y-101500000D01*
D32*
X135250000Y-101750000D02*
X136000000Y-101750000D01*
D33*
X136000000Y-101750000D02*
X136000000Y-104049990D01*
D32*
X135650000Y-92000000D02*
X136649990Y-92000000D01*
D33*
X140750000Y-92250000D02*
X141500000Y-91500000D01*
X133000000Y-101750000D02*
X133000000Y-104550000D01*
D35*
X132500000Y-101250000D02*
X133000000Y-101750000D01*
D32*
X135650000Y-91500000D02*
X136900000Y-91500000D01*
D33*
X136000000Y-114750000D02*
X135750000Y-115000000D01*
X138750000Y-114750000D02*
X136000000Y-114750000D01*
D32*
X135000000Y-115000000D02*
X135750000Y-115000000D01*
D33*
X135750000Y-115000000D02*
X135750000Y-117299990D01*
D32*
X135650000Y-93500000D02*
X137039964Y-93500000D01*
X137039964Y-93500000D02*
X137089954Y-93549990D01*
D34*
X137500011Y-93960047D02*
X137089954Y-93549990D01*
X137500011Y-94875011D02*
X137500011Y-93960047D01*
X137875000Y-95250000D02*
X137500011Y-94875011D01*
D32*
X133324999Y-113324999D02*
X135000000Y-115000000D01*
X128589999Y-113324999D02*
X133324999Y-113324999D01*
X128524999Y-114775001D02*
X128524999Y-113389999D01*
X128524999Y-113389999D02*
X128589999Y-113324999D01*
D33*
X132750000Y-115000000D02*
X132750000Y-117800000D01*
D35*
X132250000Y-114500000D02*
X132750000Y-115000000D01*
D32*
X135650000Y-93000000D02*
X136600000Y-93000000D01*
D33*
X141500000Y-94500000D02*
X140750000Y-93750000D01*
D34*
X138750000Y-95250000D02*
X137875000Y-95250000D01*
D33*
X139600000Y-97000000D02*
X139850000Y-96750000D01*
D32*
X155350000Y-90000000D02*
X154350000Y-90000000D01*
D33*
X133750000Y-97000000D02*
X133750000Y-94500000D01*
D32*
X135900000Y-105500000D02*
X136899990Y-105500000D01*
D33*
X140750000Y-119000000D02*
X141500000Y-118250000D01*
X134000000Y-110500000D02*
X134000000Y-108000000D01*
D32*
X135900000Y-107000000D02*
X137289964Y-107000000D01*
D33*
X158250000Y-95750000D02*
X158250000Y-92950000D01*
D35*
X158750000Y-96250000D02*
X158250000Y-95750000D01*
X160000000Y-96250000D02*
X158750000Y-96250000D01*
D32*
X131250000Y-124250000D02*
X134875000Y-124250000D01*
D35*
X129250000Y-122450000D02*
X131050000Y-124250000D01*
X129250000Y-121750000D02*
X129250000Y-122450000D01*
X131050000Y-124250000D02*
X131250000Y-124250000D01*
D32*
X155350000Y-116750000D02*
X154350000Y-116750000D01*
D33*
X155000000Y-122750000D02*
X155250000Y-122500000D01*
D32*
X156000000Y-122500000D02*
X155250000Y-122500000D01*
D33*
X155250000Y-122500000D02*
X155250000Y-120200010D01*
D32*
X155350000Y-117250000D02*
X153960036Y-117250000D01*
D33*
X158250000Y-122500000D02*
X158250000Y-119700000D01*
D35*
X158750000Y-123000000D02*
X158250000Y-122500000D01*
X160000000Y-123000000D02*
X158750000Y-123000000D01*
D33*
X149500000Y-89500000D02*
X150250000Y-90250000D01*
D32*
X155350000Y-117750000D02*
X154400000Y-117750000D01*
X135650000Y-118250000D02*
X136900000Y-118250000D01*
X135650000Y-119750000D02*
X136600000Y-119750000D01*
D33*
X149500000Y-116250000D02*
X150250000Y-117000000D01*
D35*
X149750000Y-99250000D02*
X151750000Y-99250000D01*
X163000000Y-107400000D02*
X163000000Y-107500000D01*
X163000000Y-107500000D02*
X161250000Y-109250000D01*
X163150000Y-107250000D02*
X163000000Y-107400000D01*
D33*
X162250000Y-102016000D02*
X163099991Y-102865991D01*
X163099991Y-102865991D02*
X163099991Y-103250000D01*
D32*
X162250000Y-103250000D02*
X163150000Y-103250000D01*
X127750000Y-87250000D02*
X127750000Y-87300000D01*
X127750000Y-87300000D02*
X126374999Y-88675001D01*
X126374999Y-88675001D02*
X126374999Y-98524999D01*
X126374999Y-98524999D02*
X128000000Y-100150000D01*
D35*
X129400000Y-100750000D02*
X129400000Y-102400000D01*
D34*
X147840000Y-106500000D02*
X147840000Y-108600002D01*
X147840000Y-108600002D02*
X149489998Y-110250000D01*
X149489998Y-110250000D02*
X151300000Y-110250000D01*
X152250000Y-109500000D02*
X153850000Y-109500000D01*
X151300000Y-110250000D02*
X152050000Y-109500000D01*
X152050000Y-109500000D02*
X152250000Y-109500000D01*
D32*
X127750000Y-114000000D02*
X127750000Y-114050000D01*
X127750000Y-114050000D02*
X126374999Y-115425001D01*
X128000000Y-100750000D02*
X128000000Y-100800000D01*
X128000000Y-100800000D02*
X126624999Y-102175001D01*
X126624999Y-102175001D02*
X126624999Y-112274999D01*
X126624999Y-112274999D02*
X127750000Y-113400000D01*
X127750000Y-113400000D02*
X127750000Y-114000000D01*
X128000000Y-100150000D02*
X128000000Y-100750000D01*
X163250000Y-97350000D02*
X163250000Y-96750000D01*
D33*
X145500000Y-120260002D02*
X145500000Y-111000000D01*
X149250000Y-114000000D02*
X147250000Y-114000000D01*
X147250000Y-114000000D02*
X145500000Y-112250000D01*
X145500000Y-112250000D02*
X145500000Y-111000000D01*
X141750000Y-123500000D02*
X142260002Y-123500000D01*
X142260002Y-123500000D02*
X145500000Y-120260002D01*
X149250000Y-114000000D02*
X148800000Y-114000000D01*
D32*
X153501020Y-100950000D02*
X154151070Y-100950000D01*
X150250000Y-111000000D02*
X152250000Y-111000000D01*
D33*
X142000000Y-110250000D02*
X144000000Y-110250000D01*
X142000000Y-110250000D02*
X142510002Y-110250000D01*
X155250000Y-113750000D02*
X151400000Y-113750000D01*
X151400000Y-113750000D02*
X151150000Y-114000000D01*
X149250000Y-87250000D02*
X147250000Y-87250000D01*
D32*
X127750000Y-89000000D02*
X127750000Y-88800000D01*
X127750000Y-88800000D02*
X128524999Y-88025001D01*
X129250000Y-90500000D02*
X127750000Y-89000000D01*
X130275001Y-103475001D02*
X129500000Y-102700000D01*
X129500000Y-102700000D02*
X129500000Y-102500000D01*
D35*
X129400000Y-102400000D02*
X129500000Y-102500000D01*
D32*
X159750000Y-92000000D02*
X161750000Y-92000000D01*
X127750000Y-115550000D02*
X128524999Y-114775001D01*
X129250000Y-117250000D02*
X127750000Y-115750000D01*
X127750000Y-115750000D02*
X127750000Y-115550000D01*
X131250000Y-97500000D02*
X131950000Y-97500000D01*
D35*
X129250000Y-95700000D02*
X131050000Y-97500000D01*
X131050000Y-97500000D02*
X131250000Y-97500000D01*
D32*
X163500000Y-89000000D02*
X163500000Y-87750000D01*
X163500000Y-89000000D02*
X163700000Y-89000000D01*
X151750000Y-99250000D02*
X153301020Y-99250000D01*
X159750000Y-88000000D02*
X159950000Y-88000000D01*
X159950000Y-88000000D02*
X161000000Y-89050000D01*
X155500000Y-102600000D02*
X156150000Y-103250000D01*
X161001020Y-106450000D02*
X161001020Y-105799950D01*
D33*
X156150000Y-103250000D02*
X158000000Y-103250000D01*
D35*
X154133601Y-107866001D02*
X152920000Y-106652400D01*
X152920000Y-106652400D02*
X152920000Y-106500000D01*
X152920000Y-106347600D02*
X152920000Y-106500000D01*
X153250000Y-106500000D02*
X152920000Y-106500000D01*
X158316001Y-107866001D02*
X154133601Y-107866001D01*
X159500000Y-109250000D02*
X159500000Y-109050000D01*
X159500000Y-109050000D02*
X158316001Y-107866001D01*
X161250000Y-109250000D02*
X159500000Y-109250000D01*
M02*
