G04 #@! TF.FileFunction,Copper,L2,Bot,Signal*
%FSLAX46Y46*%
G04 Gerber Fmt 4.6, Leading zero omitted, Abs format (unit mm)*
G04 Created by KiCad (PCBNEW 4.0.7) date 04/07/18 17:00:11*
%MOMM*%
%LPD*%
G01*
G04 APERTURE LIST*
%ADD10C,0.100000*%
%ADD11R,1.000000X1.000000*%
%ADD12O,1.000000X1.000000*%
%ADD13C,0.600000*%
%ADD14C,0.250000*%
G04 APERTURE END LIST*
D10*
D11*
X140620000Y-99630000D03*
D12*
X139350000Y-99630000D03*
D11*
X140620000Y-113130000D03*
D12*
X139350000Y-113130000D03*
D11*
X140370000Y-86130000D03*
D12*
X139100000Y-86130000D03*
D11*
X172270000Y-86330000D03*
D12*
X171000000Y-86330000D03*
D11*
X172470000Y-110830000D03*
D12*
X171200000Y-110830000D03*
D11*
X149270000Y-107030000D03*
D12*
X148000000Y-107030000D03*
D11*
X145170000Y-124330000D03*
D12*
X146440000Y-124330000D03*
X147710000Y-124330000D03*
X148980000Y-124330000D03*
X150250000Y-124330000D03*
X151520000Y-124330000D03*
X152790000Y-124330000D03*
X154060000Y-124330000D03*
X155330000Y-124330000D03*
X156600000Y-124330000D03*
D13*
X162228700Y-116568300D03*
X127075900Y-116986000D03*
X124670500Y-89000000D03*
X131149200Y-101048800D03*
X126716500Y-93880000D03*
X124863400Y-86224600D03*
X129565100Y-107194400D03*
X129565100Y-103127900D03*
X161303400Y-105863900D03*
X166731300Y-92603300D03*
X169970100Y-117250000D03*
X161478400Y-112563300D03*
X166797800Y-93403700D03*
X167425600Y-117905100D03*
X168995400Y-98154600D03*
X156353300Y-105877500D03*
X160137300Y-92050000D03*
X159747400Y-98027600D03*
X167730600Y-89126200D03*
X169617700Y-95373500D03*
X158644900Y-87302500D03*
X153017400Y-106566000D03*
X158494200Y-102495500D03*
X159482900Y-115312700D03*
X162190300Y-97583900D03*
X162918800Y-90129600D03*
X160108200Y-112915800D03*
X162814000Y-114737000D03*
X161786400Y-91302600D03*
X162586100Y-88403100D03*
X158586300Y-91795600D03*
X166018800Y-118143900D03*
X167406800Y-113398600D03*
X168148100Y-112998900D03*
X152794600Y-113481000D03*
X158705300Y-123824800D03*
X155882700Y-114145100D03*
X124655700Y-100779800D03*
X128421000Y-114868100D03*
X130409300Y-112452100D03*
X132915600Y-103500000D03*
X126710000Y-88752200D03*
X126364700Y-114576400D03*
X126271600Y-101155300D03*
X128637900Y-88980000D03*
X126715900Y-90500000D03*
X128735900Y-103633600D03*
D14*
X148000000Y-107030000D02*
X147174700Y-107030000D01*
X139350000Y-113130000D02*
X139350000Y-112304700D01*
X139350000Y-100455300D02*
X145274700Y-106380000D01*
X146524700Y-106380000D02*
X145274700Y-106380000D01*
X147174700Y-107030000D02*
X146524700Y-106380000D01*
X145274700Y-106380000D02*
X139350000Y-112304700D01*
X156600000Y-124330000D02*
X157425300Y-124330000D01*
X163674400Y-118014000D02*
X163674400Y-118769200D01*
X162228700Y-116568300D02*
X163674400Y-118014000D01*
X157545400Y-124450100D02*
X157425300Y-124330000D01*
X158964400Y-124450100D02*
X157545400Y-124450100D01*
X163674400Y-119740100D02*
X158964400Y-124450100D01*
X163674400Y-118769200D02*
X163674400Y-119740100D01*
X171000000Y-86330000D02*
X171000000Y-87155300D01*
X171200000Y-110830000D02*
X171200000Y-110004700D01*
X171200000Y-87355300D02*
X171000000Y-87155300D01*
X171200000Y-110004700D02*
X171200000Y-87355300D01*
X139350000Y-100042600D02*
X139350000Y-100455300D01*
X139350000Y-100042600D02*
X139350000Y-99630000D01*
X139350000Y-87205300D02*
X139100000Y-86955300D01*
X139350000Y-99630000D02*
X139350000Y-87205300D01*
X139100000Y-86130000D02*
X139100000Y-86955300D01*
X171200000Y-115034200D02*
X171200000Y-110830000D01*
X167465000Y-118769200D02*
X171200000Y-115034200D01*
X163674400Y-118769200D02*
X167465000Y-118769200D01*
X124670500Y-98633500D02*
X124670500Y-89000000D01*
X127085800Y-101048800D02*
X124670500Y-98633500D01*
X127075900Y-101058700D02*
X127075900Y-116986000D01*
X127085800Y-101048800D02*
X127075900Y-101058700D01*
X131149200Y-101048800D02*
X127085800Y-101048800D01*
X125313700Y-86674900D02*
X124863400Y-86224600D01*
X125313700Y-92477200D02*
X125313700Y-86674900D01*
X126716500Y-93880000D02*
X125313700Y-92477200D01*
X129565100Y-103127900D02*
X129565100Y-107194400D01*
X166731300Y-92737700D02*
X166731300Y-92603300D01*
X166544600Y-92737700D02*
X166731300Y-92737700D01*
X166099600Y-93182700D02*
X166544600Y-92737700D01*
X166099600Y-101067700D02*
X166099600Y-93182700D01*
X161303400Y-105863900D02*
X166099600Y-101067700D01*
X171440000Y-85500000D02*
X172270000Y-86330000D01*
X170620000Y-85500000D02*
X171440000Y-85500000D01*
X170160900Y-85959100D02*
X170620000Y-85500000D01*
X170160900Y-94964500D02*
X170160900Y-85959100D01*
X170264400Y-95068000D02*
X170160900Y-94964500D01*
X170264400Y-95611200D02*
X170264400Y-95068000D01*
X169876800Y-95998800D02*
X170264400Y-95611200D01*
X169358700Y-95998800D02*
X169876800Y-95998800D01*
X168992400Y-95632500D02*
X169358700Y-95998800D01*
X168992400Y-94711400D02*
X168992400Y-95632500D01*
X167018700Y-92737700D02*
X168992400Y-94711400D01*
X166731300Y-92737700D02*
X167018700Y-92737700D01*
X172470000Y-114750100D02*
X169970100Y-117250000D01*
X172470000Y-110830000D02*
X172470000Y-114750100D01*
X166797800Y-107243900D02*
X166797800Y-93403700D01*
X161478400Y-112563300D02*
X166797800Y-107243900D01*
X168995400Y-116335300D02*
X167425600Y-117905100D01*
X168995400Y-98154600D02*
X168995400Y-116335300D01*
X146440000Y-115790800D02*
X156353300Y-105877500D01*
X146440000Y-124330000D02*
X146440000Y-115790800D01*
X159120300Y-93067000D02*
X160137300Y-92050000D01*
X159120300Y-103110500D02*
X159120300Y-93067000D01*
X156353300Y-105877500D02*
X159120300Y-103110500D01*
X159747400Y-104013100D02*
X159747400Y-98027600D01*
X147710000Y-116050500D02*
X159747400Y-104013100D01*
X147710000Y-124330000D02*
X147710000Y-116050500D01*
X163009100Y-89126200D02*
X167730600Y-89126200D01*
X160784800Y-91350500D02*
X163009100Y-89126200D01*
X160784800Y-96990200D02*
X160784800Y-91350500D01*
X159747400Y-98027600D02*
X160784800Y-96990200D01*
X166813200Y-87302500D02*
X158644900Y-87302500D01*
X169617700Y-90107000D02*
X166813200Y-87302500D01*
X169617700Y-95373500D02*
X169617700Y-90107000D01*
X145170000Y-114413400D02*
X153017400Y-106566000D01*
X145170000Y-124330000D02*
X145170000Y-114413400D01*
X157087900Y-102495500D02*
X158494200Y-102495500D01*
X153017400Y-106566000D02*
X157087900Y-102495500D01*
X162190300Y-103783200D02*
X162190300Y-97583900D01*
X159482900Y-106490600D02*
X162190300Y-103783200D01*
X159482900Y-115312700D02*
X159482900Y-106490600D01*
X162918800Y-96855400D02*
X162918800Y-90129600D01*
X162190300Y-97583900D02*
X162918800Y-96855400D01*
X160108200Y-112915800D02*
X160108200Y-114737000D01*
X160108200Y-114737000D02*
X162814000Y-114737000D01*
X161448400Y-91640600D02*
X161786400Y-91302600D01*
X161448400Y-103811400D02*
X161448400Y-91640600D01*
X158840500Y-106419300D02*
X161448400Y-103811400D01*
X158840500Y-115572800D02*
X158840500Y-106419300D01*
X159211100Y-115943400D02*
X158840500Y-115572800D01*
X159747100Y-115943400D02*
X159211100Y-115943400D01*
X160108200Y-115582300D02*
X159747100Y-115943400D01*
X160108200Y-114737000D02*
X160108200Y-115582300D01*
X161978800Y-88403100D02*
X158586300Y-91795600D01*
X162586100Y-88403100D02*
X161978800Y-88403100D01*
X167406800Y-116755900D02*
X167406800Y-113398600D01*
X166018800Y-118143900D02*
X167406800Y-116755900D01*
X148980000Y-124330000D02*
X148980000Y-123504700D01*
X167922500Y-112773300D02*
X168148100Y-112998900D01*
X165884700Y-112773300D02*
X167922500Y-112773300D01*
X162869000Y-115789000D02*
X165884700Y-112773300D01*
X160840000Y-115789000D02*
X162869000Y-115789000D01*
X160235300Y-116393700D02*
X160840000Y-115789000D01*
X159024400Y-116393700D02*
X160235300Y-116393700D01*
X156147400Y-113516700D02*
X159024400Y-116393700D01*
X152794600Y-113516700D02*
X156147400Y-113516700D01*
X148980000Y-117331300D02*
X152794600Y-113516700D01*
X148980000Y-123504700D02*
X148980000Y-117331300D01*
X152794600Y-113516700D02*
X152794600Y-113481000D01*
X155882700Y-121002200D02*
X155882700Y-114145100D01*
X158705300Y-123824800D02*
X155882700Y-121002200D01*
X128421000Y-116525500D02*
X128421000Y-114868100D01*
X127285100Y-117661400D02*
X128421000Y-116525500D01*
X126785700Y-117661400D02*
X127285100Y-117661400D01*
X124655700Y-115531400D02*
X126785700Y-117661400D01*
X124655700Y-100779800D02*
X124655700Y-115531400D01*
X126090500Y-89371700D02*
X126710000Y-88752200D01*
X126090500Y-92026800D02*
X126090500Y-89371700D01*
X132228000Y-98164300D02*
X126090500Y-92026800D01*
X132228000Y-103500000D02*
X132228000Y-98164300D01*
X130409300Y-105318700D02*
X132228000Y-103500000D01*
X130409300Y-112452100D02*
X130409300Y-105318700D01*
X132228000Y-103500000D02*
X132915600Y-103500000D01*
X126364700Y-101248400D02*
X126271600Y-101155300D01*
X126364700Y-114576400D02*
X126364700Y-101248400D01*
X135980400Y-96322500D02*
X128637900Y-88980000D01*
X135980400Y-116636300D02*
X135980400Y-96322500D01*
X144499500Y-125155400D02*
X135980400Y-116636300D01*
X149424600Y-125155400D02*
X144499500Y-125155400D01*
X150250000Y-124330000D02*
X149424600Y-125155400D01*
X134756600Y-98540700D02*
X126715900Y-90500000D01*
X134756600Y-116049400D02*
X134756600Y-98540700D01*
X144359400Y-125652200D02*
X134756600Y-116049400D01*
X150197800Y-125652200D02*
X144359400Y-125652200D01*
X151520000Y-124330000D02*
X150197800Y-125652200D01*
X150987400Y-126132600D02*
X152790000Y-124330000D01*
X143205500Y-126132600D02*
X150987400Y-126132600D01*
X128735900Y-111663000D02*
X143205500Y-126132600D01*
X128735900Y-103633600D02*
X128735900Y-111663000D01*
M02*
