M48
;DRILL file {KiCad 4.0.7} date 04/07/18 17:01:15
;FORMAT={-:-/ absolute / inch / decimal}
FMAT,2
INCH,TZ
T1C0.016
T2C0.026
%
G90
G05
M72
T1
X4.9077Y-3.9677
X4.9083Y-3.5039
X4.9159Y-3.3947
X4.9713Y-3.9825
X4.975Y-4.5109
X4.9886Y-3.4942
X4.9888Y-3.563
X4.9888Y-3.6961
X5.003Y-4.6057
X5.0559Y-4.5224
X5.0645Y-3.5031
X5.0683Y-4.0801
X5.101Y-4.0602
X5.101Y-4.2203
X5.1342Y-4.4272
X5.1634Y-3.9783
X5.2329Y-4.0748
X6.0155Y-4.4678
X6.0243Y-4.1955
X6.1371Y-4.4939
X6.1556Y-4.1684
X6.2399Y-4.0353
X6.2436Y-3.614
X6.2459Y-3.4371
X6.2482Y-4.875
X6.2789Y-4.5399
X6.2893Y-3.8594
X6.3035Y-4.4455
X6.3046Y-3.624
X6.3505Y-4.1679
X6.3574Y-4.4316
X6.3695Y-3.5946
X6.3854Y-3.8419
X6.387Y-4.5893
X6.401Y-3.4804
X6.41Y-4.5172
X6.4141Y-3.5484
X6.5362Y-4.6513
X6.5642Y-3.6458
X6.5668Y-3.6773
X6.5908Y-4.4645
X6.5916Y-4.6419
X6.6036Y-3.5089
X6.62Y-4.4488
X6.6534Y-3.8644
X6.6779Y-3.7549
X6.6917Y-4.6161
T2
X5.4764Y-3.3909
X5.4862Y-3.9224
X5.4862Y-4.4539
X5.5264Y-3.3909
X5.5362Y-3.9224
X5.5362Y-4.4539
X5.7154Y-4.8949
X5.7654Y-4.8949
X5.8154Y-4.8949
X5.8268Y-4.2138
X5.8654Y-4.8949
X5.8768Y-4.2138
X5.9154Y-4.8949
X5.9654Y-4.8949
X6.0154Y-4.8949
X6.0654Y-4.8949
X6.1154Y-4.8949
X6.1654Y-4.8949
X6.7323Y-3.3988
X6.7402Y-4.3634
X6.7823Y-3.3988
X6.7902Y-4.3634
T0
M30
