G04 #@! TF.FileFunction,Soldermask,Top*
%FSLAX46Y46*%
G04 Gerber Fmt 4.6, Leading zero omitted, Abs format (unit mm)*
G04 Created by KiCad (PCBNEW 4.0.7) date 04/07/18 17:00:11*
%MOMM*%
%LPD*%
G01*
G04 APERTURE LIST*
%ADD10C,0.100000*%
%ADD11R,1.200000X1.200000*%
%ADD12R,2.400000X1.500000*%
%ADD13R,1.150000X1.200000*%
%ADD14R,2.900000X1.400000*%
%ADD15R,1.300000X0.900000*%
%ADD16R,1.400000X1.650000*%
%ADD17R,1.000000X1.100000*%
%ADD18R,1.800000X0.700000*%
%ADD19R,0.900000X1.300000*%
%ADD20R,1.400000X2.900000*%
%ADD21R,1.200100X1.200100*%
%ADD22R,1.300000X2.100000*%
%ADD23R,1.200000X1.150000*%
%ADD24R,1.300000X1.200000*%
%ADD25R,1.400000X1.400000*%
%ADD26O,1.400000X1.400000*%
G04 APERTURE END LIST*
D10*
D11*
X160150000Y-112000000D03*
D12*
X158250000Y-112000000D03*
D13*
X161250000Y-116500000D03*
X161250000Y-118000000D03*
X161250000Y-113500000D03*
X161250000Y-115000000D03*
D14*
X158500000Y-117250000D03*
X158500000Y-114250000D03*
D13*
X170970000Y-113580000D03*
X170970000Y-115080000D03*
D15*
X171070000Y-118180000D03*
X171070000Y-116680000D03*
X173170000Y-114980000D03*
X173170000Y-113480000D03*
X173270000Y-116680000D03*
X173270000Y-118180000D03*
X163670000Y-110680000D03*
X163670000Y-112180000D03*
D16*
X167670000Y-111130000D03*
X165670000Y-111130000D03*
D13*
X158670000Y-94680000D03*
X158670000Y-96180000D03*
D17*
X161850000Y-123500000D03*
X163250000Y-123500000D03*
D18*
X168750000Y-117750000D03*
X168750000Y-117250000D03*
X168750000Y-116750000D03*
X168750000Y-116250000D03*
X168750000Y-115750000D03*
X164350000Y-115750000D03*
X164350000Y-116250000D03*
X164350000Y-116750000D03*
X164350000Y-117250000D03*
X164350000Y-117750000D03*
X168750000Y-115250000D03*
X168750000Y-114750000D03*
X168750000Y-114250000D03*
X164350000Y-115250000D03*
X164350000Y-114750000D03*
X164350000Y-114250000D03*
D19*
X161620000Y-120730000D03*
X163120000Y-120730000D03*
D20*
X148370000Y-118230000D03*
X151370000Y-118230000D03*
D13*
X161050000Y-92050000D03*
X161050000Y-93550000D03*
X161050000Y-89050000D03*
X161050000Y-90550000D03*
D14*
X158300000Y-92800000D03*
X158300000Y-89800000D03*
D11*
X160150000Y-86250000D03*
D12*
X158250000Y-86250000D03*
D19*
X166420000Y-101230000D03*
X167920000Y-101230000D03*
D15*
X170770000Y-94280000D03*
X170770000Y-92780000D03*
D13*
X169770000Y-97380000D03*
X169770000Y-98880000D03*
D15*
X172970000Y-92680000D03*
X172970000Y-94180000D03*
D17*
X170850000Y-95750000D03*
X172250000Y-95750000D03*
D15*
X161750000Y-85500000D03*
X161750000Y-87000000D03*
D20*
X164470000Y-97930000D03*
X167470000Y-97930000D03*
D13*
X170870000Y-89480000D03*
X170870000Y-90980000D03*
D18*
X168550000Y-93300000D03*
X168550000Y-92800000D03*
X168550000Y-92300000D03*
X168550000Y-91800000D03*
X168550000Y-91300000D03*
X164150000Y-91300000D03*
X164150000Y-91800000D03*
X164150000Y-92300000D03*
X164150000Y-92800000D03*
X164150000Y-93300000D03*
X168550000Y-90800000D03*
X168550000Y-90300000D03*
X168550000Y-89800000D03*
X164150000Y-90800000D03*
X164150000Y-90300000D03*
X164150000Y-89800000D03*
D16*
X166250000Y-86250000D03*
X164250000Y-86250000D03*
D15*
X172870000Y-90980000D03*
X172870000Y-89480000D03*
D14*
X141750000Y-116500000D03*
X141750000Y-119500000D03*
D11*
X140720000Y-121630000D03*
D12*
X142620000Y-121630000D03*
D13*
X139000000Y-120250000D03*
X139000000Y-118750000D03*
X139000000Y-117250000D03*
X139000000Y-115750000D03*
D18*
X131500000Y-116000000D03*
X131500000Y-116500000D03*
X131500000Y-117000000D03*
X131500000Y-117500000D03*
X131500000Y-118000000D03*
X135900000Y-118000000D03*
X135900000Y-117500000D03*
X135900000Y-117000000D03*
X135900000Y-116500000D03*
X135900000Y-116000000D03*
X131500000Y-118500000D03*
X131500000Y-119000000D03*
X131500000Y-119500000D03*
X135900000Y-118500000D03*
X135900000Y-119000000D03*
X135900000Y-119500000D03*
D16*
X134070000Y-121930000D03*
X136070000Y-121930000D03*
D15*
X126170000Y-118680000D03*
X126170000Y-120180000D03*
D13*
X128170000Y-120380000D03*
X128170000Y-118880000D03*
D15*
X131370000Y-123080000D03*
X131370000Y-121580000D03*
D20*
X136000000Y-113250000D03*
X133000000Y-113250000D03*
D19*
X125870000Y-113630000D03*
X127370000Y-113630000D03*
D13*
X129370000Y-113380000D03*
X129370000Y-111880000D03*
D15*
X126120000Y-117130000D03*
X126120000Y-115630000D03*
D17*
X125920000Y-111880000D03*
X127320000Y-111880000D03*
D15*
X128120000Y-115630000D03*
X128120000Y-117130000D03*
D14*
X141750000Y-103000000D03*
X141750000Y-106000000D03*
D11*
X140720000Y-108130000D03*
D12*
X142620000Y-108130000D03*
D13*
X139000000Y-106750000D03*
X139000000Y-105250000D03*
X139000000Y-103750000D03*
X139000000Y-102250000D03*
D18*
X131500000Y-102500000D03*
X131500000Y-103000000D03*
X131500000Y-103500000D03*
X131500000Y-104000000D03*
X131500000Y-104500000D03*
X135900000Y-104500000D03*
X135900000Y-104000000D03*
X135900000Y-103500000D03*
X135900000Y-103000000D03*
X135900000Y-102500000D03*
X131500000Y-105000000D03*
X131500000Y-105500000D03*
X131500000Y-106000000D03*
X135900000Y-105000000D03*
X135900000Y-105500000D03*
X135900000Y-106000000D03*
D16*
X134000000Y-108500000D03*
X136000000Y-108500000D03*
D15*
X125870000Y-105630000D03*
X125870000Y-107130000D03*
D13*
X127770000Y-107280000D03*
X127770000Y-105780000D03*
D15*
X131470000Y-109480000D03*
X131470000Y-107980000D03*
D20*
X136000000Y-99750000D03*
X133000000Y-99750000D03*
D19*
X127120000Y-100380000D03*
X125620000Y-100380000D03*
D13*
X129120000Y-100380000D03*
X129120000Y-98880000D03*
D15*
X125870000Y-103880000D03*
X125870000Y-102380000D03*
D17*
X127070000Y-98630000D03*
X125670000Y-98630000D03*
D15*
X127770000Y-102380000D03*
X127770000Y-103880000D03*
D18*
X131250000Y-89000000D03*
X131250000Y-89500000D03*
X131250000Y-90000000D03*
X131250000Y-90500000D03*
X131250000Y-91000000D03*
X135650000Y-91000000D03*
X135650000Y-90500000D03*
X135650000Y-90000000D03*
X135650000Y-89500000D03*
X135650000Y-89000000D03*
X131250000Y-91500000D03*
X131250000Y-92000000D03*
X131250000Y-92500000D03*
X135650000Y-91500000D03*
X135650000Y-92000000D03*
X135650000Y-92500000D03*
D21*
X168470760Y-105580000D03*
X168470760Y-103680000D03*
X166471780Y-104630000D03*
D22*
X156020000Y-109330000D03*
X153120000Y-109330000D03*
D16*
X133750000Y-95000000D03*
X135750000Y-95000000D03*
D20*
X135750000Y-86250000D03*
X132750000Y-86250000D03*
D13*
X138750000Y-90250000D03*
X138750000Y-88750000D03*
X138750000Y-93250000D03*
X138750000Y-91750000D03*
X129120000Y-86880000D03*
X129120000Y-85380000D03*
X127620000Y-93880000D03*
X127620000Y-92380000D03*
X161970000Y-108680000D03*
X161970000Y-110180000D03*
D23*
X161250000Y-106750000D03*
X162750000Y-106750000D03*
D17*
X126900000Y-85250000D03*
X125500000Y-85250000D03*
D11*
X140470000Y-94630000D03*
D12*
X142370000Y-94630000D03*
D14*
X141500000Y-89500000D03*
X141500000Y-92500000D03*
D15*
X127670000Y-88980000D03*
X127670000Y-90480000D03*
X125750000Y-90500000D03*
X125750000Y-89000000D03*
D19*
X127000000Y-87000000D03*
X125500000Y-87000000D03*
D15*
X131170000Y-96080000D03*
X131170000Y-94580000D03*
X125750000Y-92250000D03*
X125750000Y-93750000D03*
X155370000Y-105780000D03*
X155370000Y-104280000D03*
X153170000Y-104280000D03*
X153170000Y-105780000D03*
D22*
X156150000Y-100750000D03*
X153250000Y-100750000D03*
D15*
X160750000Y-98250000D03*
X160750000Y-99750000D03*
D19*
X159500000Y-106750000D03*
X158000000Y-106750000D03*
D21*
X162999760Y-104900000D03*
X162999760Y-103000000D03*
X161000780Y-103950000D03*
D20*
X146970000Y-101030000D03*
X149970000Y-101030000D03*
D19*
X148820000Y-92830000D03*
X150320000Y-92830000D03*
X145120000Y-96230000D03*
X146620000Y-96230000D03*
X148800000Y-96240000D03*
X150300000Y-96240000D03*
D24*
X152470000Y-94080000D03*
X152470000Y-95980000D03*
X154470000Y-95030000D03*
D25*
X140620000Y-99630000D03*
D26*
X139350000Y-99630000D03*
D25*
X140620000Y-113130000D03*
D26*
X139350000Y-113130000D03*
D25*
X140370000Y-86130000D03*
D26*
X139100000Y-86130000D03*
D25*
X172270000Y-86330000D03*
D26*
X171000000Y-86330000D03*
D25*
X172470000Y-110830000D03*
D26*
X171200000Y-110830000D03*
D25*
X149270000Y-107030000D03*
D26*
X148000000Y-107030000D03*
D25*
X145170000Y-124330000D03*
D26*
X146440000Y-124330000D03*
X147710000Y-124330000D03*
X148980000Y-124330000D03*
X150250000Y-124330000D03*
X151520000Y-124330000D03*
X152790000Y-124330000D03*
X154060000Y-124330000D03*
X155330000Y-124330000D03*
X156600000Y-124330000D03*
M02*
