G04 #@! TF.FileFunction,Legend,Bot*
%FSLAX46Y46*%
G04 Gerber Fmt 4.6, Leading zero omitted, Abs format (unit mm)*
G04 Created by KiCad (PCBNEW 4.0.7) date 03/30/18 15:53:02*
%MOMM*%
%LPD*%
G01*
G04 APERTURE LIST*
%ADD10C,0.100000*%
%ADD11C,0.300000*%
%ADD12C,0.500000*%
G04 APERTURE END LIST*
D10*
D11*
X145940477Y-123333333D02*
X144988096Y-123333333D01*
X146130953Y-123904762D02*
X145464286Y-121904762D01*
X144797619Y-123904762D01*
X144130953Y-123904762D02*
X144130953Y-121904762D01*
X143464286Y-123333333D01*
X142797619Y-121904762D01*
X142797619Y-123904762D01*
X141940477Y-123809524D02*
X141654762Y-123904762D01*
X141178572Y-123904762D01*
X140988096Y-123809524D01*
X140892858Y-123714286D01*
X140797619Y-123523810D01*
X140797619Y-123333333D01*
X140892858Y-123142857D01*
X140988096Y-123047619D01*
X141178572Y-122952381D01*
X141559524Y-122857143D01*
X141750000Y-122761905D01*
X141845239Y-122666667D01*
X141940477Y-122476190D01*
X141940477Y-122285714D01*
X141845239Y-122095238D01*
X141750000Y-122000000D01*
X141559524Y-121904762D01*
X141083334Y-121904762D01*
X140797619Y-122000000D01*
X140035715Y-123333333D02*
X139083334Y-123333333D01*
X140226191Y-123904762D02*
X139559524Y-121904762D01*
X138892857Y-123904762D01*
X138511905Y-121904762D02*
X137369048Y-121904762D01*
X137940476Y-123904762D02*
X137940476Y-121904762D01*
X136702381Y-123142857D02*
X135178571Y-123142857D01*
X134226191Y-122857143D02*
X133559524Y-122857143D01*
X133273810Y-123904762D02*
X134226191Y-123904762D01*
X134226191Y-121904762D01*
X133273810Y-121904762D01*
X132511905Y-123333333D02*
X131559524Y-123333333D01*
X132702381Y-123904762D02*
X132035714Y-121904762D01*
X131369047Y-123904762D01*
X155642856Y-114342857D02*
X155142856Y-114342857D01*
X154928570Y-115128571D02*
X155642856Y-115128571D01*
X155642856Y-113628571D01*
X154928570Y-113628571D01*
X154357142Y-114700000D02*
X153642856Y-114700000D01*
X154499999Y-115128571D02*
X153999999Y-113628571D01*
X153499999Y-115128571D01*
X152357142Y-114128571D02*
X152357142Y-115128571D01*
X152714285Y-113557143D02*
X153071428Y-114628571D01*
X152142856Y-114628571D01*
X150785714Y-113700000D02*
X150928571Y-113628571D01*
X151142857Y-113628571D01*
X151357142Y-113700000D01*
X151500000Y-113842857D01*
X151571428Y-113985714D01*
X151642857Y-114271429D01*
X151642857Y-114485714D01*
X151571428Y-114771429D01*
X151500000Y-114914286D01*
X151357142Y-115057143D01*
X151142857Y-115128571D01*
X151000000Y-115128571D01*
X150785714Y-115057143D01*
X150714285Y-114985714D01*
X150714285Y-114485714D01*
X151000000Y-114485714D01*
X150071428Y-115128571D02*
X150071428Y-113628571D01*
X149500000Y-113628571D01*
X149357142Y-113700000D01*
X149285714Y-113771429D01*
X149214285Y-113914286D01*
X149214285Y-114128571D01*
X149285714Y-114271429D01*
X149357142Y-114342857D01*
X149500000Y-114414286D01*
X150071428Y-114414286D01*
X148714285Y-113628571D02*
X147714285Y-113628571D01*
X148714285Y-115128571D01*
X147714285Y-115128571D01*
X155678571Y-116892857D02*
X155178571Y-116892857D01*
X154964285Y-117678571D02*
X155678571Y-117678571D01*
X155678571Y-116178571D01*
X154964285Y-116178571D01*
X154392857Y-117250000D02*
X153678571Y-117250000D01*
X154535714Y-117678571D02*
X154035714Y-116178571D01*
X153535714Y-117678571D01*
X152392857Y-116678571D02*
X152392857Y-117678571D01*
X152750000Y-116107143D02*
X153107143Y-117178571D01*
X152178571Y-117178571D01*
X150821429Y-116250000D02*
X150964286Y-116178571D01*
X151178572Y-116178571D01*
X151392857Y-116250000D01*
X151535715Y-116392857D01*
X151607143Y-116535714D01*
X151678572Y-116821429D01*
X151678572Y-117035714D01*
X151607143Y-117321429D01*
X151535715Y-117464286D01*
X151392857Y-117607143D01*
X151178572Y-117678571D01*
X151035715Y-117678571D01*
X150821429Y-117607143D01*
X150750000Y-117535714D01*
X150750000Y-117035714D01*
X151035715Y-117035714D01*
X149107143Y-117821429D02*
X149250000Y-117750000D01*
X149392857Y-117607143D01*
X149607143Y-117392857D01*
X149750000Y-117321429D01*
X149892857Y-117321429D01*
X149821429Y-117678571D02*
X149964286Y-117607143D01*
X150107143Y-117464286D01*
X150178572Y-117178571D01*
X150178572Y-116678571D01*
X150107143Y-116392857D01*
X149964286Y-116250000D01*
X149821429Y-116178571D01*
X149535715Y-116178571D01*
X149392857Y-116250000D01*
X149250000Y-116392857D01*
X149178572Y-116678571D01*
X149178572Y-117178571D01*
X149250000Y-117464286D01*
X149392857Y-117607143D01*
X149535715Y-117678571D01*
X149821429Y-117678571D01*
X148607143Y-117607143D02*
X148392857Y-117678571D01*
X148035714Y-117678571D01*
X147892857Y-117607143D01*
X147821428Y-117535714D01*
X147750000Y-117392857D01*
X147750000Y-117250000D01*
X147821428Y-117107143D01*
X147892857Y-117035714D01*
X148035714Y-116964286D01*
X148321428Y-116892857D01*
X148464286Y-116821429D01*
X148535714Y-116750000D01*
X148607143Y-116607143D01*
X148607143Y-116464286D01*
X148535714Y-116321429D01*
X148464286Y-116250000D01*
X148321428Y-116178571D01*
X147964286Y-116178571D01*
X147750000Y-116250000D01*
X155464285Y-119442857D02*
X154964285Y-119442857D01*
X154749999Y-120228571D02*
X155464285Y-120228571D01*
X155464285Y-118728571D01*
X154749999Y-118728571D01*
X154178571Y-119800000D02*
X153464285Y-119800000D01*
X154321428Y-120228571D02*
X153821428Y-118728571D01*
X153321428Y-120228571D01*
X152178571Y-119228571D02*
X152178571Y-120228571D01*
X152535714Y-118657143D02*
X152892857Y-119728571D01*
X151964285Y-119728571D01*
X150607143Y-118800000D02*
X150750000Y-118728571D01*
X150964286Y-118728571D01*
X151178571Y-118800000D01*
X151321429Y-118942857D01*
X151392857Y-119085714D01*
X151464286Y-119371429D01*
X151464286Y-119585714D01*
X151392857Y-119871429D01*
X151321429Y-120014286D01*
X151178571Y-120157143D01*
X150964286Y-120228571D01*
X150821429Y-120228571D01*
X150607143Y-120157143D01*
X150535714Y-120085714D01*
X150535714Y-119585714D01*
X150821429Y-119585714D01*
X150107143Y-118728571D02*
X149607143Y-120228571D01*
X149107143Y-118728571D01*
X148678572Y-119800000D02*
X147964286Y-119800000D01*
X148821429Y-120228571D02*
X148321429Y-118728571D01*
X147821429Y-120228571D01*
D12*
X162547620Y-87607143D02*
X161880953Y-87607143D01*
X161595239Y-88654762D02*
X162547620Y-88654762D01*
X162547620Y-86654762D01*
X161595239Y-86654762D01*
X160833334Y-88083333D02*
X159880953Y-88083333D01*
X161023810Y-88654762D02*
X160357143Y-86654762D01*
X159690476Y-88654762D01*
X159119048Y-88559524D02*
X158833333Y-88654762D01*
X158357143Y-88654762D01*
X158166667Y-88559524D01*
X158071429Y-88464286D01*
X157976190Y-88273810D01*
X157976190Y-88083333D01*
X158071429Y-87892857D01*
X158166667Y-87797619D01*
X158357143Y-87702381D01*
X158738095Y-87607143D01*
X158928571Y-87511905D01*
X159023810Y-87416667D01*
X159119048Y-87226190D01*
X159119048Y-87035714D01*
X159023810Y-86845238D01*
X158928571Y-86750000D01*
X158738095Y-86654762D01*
X158261905Y-86654762D01*
X157976190Y-86750000D01*
X157214286Y-88083333D02*
X156261905Y-88083333D01*
X157404762Y-88654762D02*
X156738095Y-86654762D01*
X156071428Y-88654762D01*
X155690476Y-86654762D02*
X154547619Y-86654762D01*
X155119047Y-88654762D02*
X155119047Y-86654762D01*
X153880952Y-87892857D02*
X152357142Y-87892857D01*
X151500000Y-86845238D02*
X151404762Y-86750000D01*
X151214285Y-86654762D01*
X150738095Y-86654762D01*
X150547619Y-86750000D01*
X150452381Y-86845238D01*
X150357142Y-87035714D01*
X150357142Y-87226190D01*
X150452381Y-87511905D01*
X151595238Y-88654762D01*
X150357142Y-88654762D01*
M02*
