999
dxflib 3.2.3.0
  0
SECTION
  2
HEADER
  9
$ACADVER
  1
AC1015
  9
$HANDSEED
  5
FFFF
  9
$DIMADEC
 70
0
  9
$DIMASZ
 40
2.5
  9
$DIMAUNIT
 70
0
  9
$DIMAZIN
 70
2
  9
$DIMDEC
 70
4
  9
$DIMEXE
 40
1.25
  9
$DIMEXO
 40
0.625
  9
$DIMGAP
 40
0.625
  9
$DIMLUNIT
 70
2
  9
$DIMTSZ
 40
0.0
  9
$DIMTXT
 40
2.5
  9
$DIMZIN
 70
8
  9
$INSUNITS
 70
4
  9
$LTSCALE
 40
1.0
  0
ENDSEC
  0
SECTION
  2
TABLES
  0
TABLE
  2
VPORT
  5
8
100
AcDbSymbolTable
 70
1
  0
VPORT
  5
30
100
AcDbSymbolTableRecord
100
AcDbViewportTableRecord
  2
*Active
 70
0
 10
0.0
 20
0.0
 11
1.0
 21
1.0
 12
286.30555555555549
 22
148.5
 13
0.0
 23
0.0
 14
10.0
 24
10.0
 15
10.0
 25
10.0
 16
0.0
 26
0.0
 36
1.0
 17
0.0
 27
0.0
 37
0.0
 40
297.0
 41
1.92798353909465
 42
50.0
 43
0.0
 44
0.0
 50
0.0
 51
0.0
 71
0
 72
100
 73
1
 74
3
 75
1
 76
1
 77
0
 78
0
281
0
 65
1
110
0.0
120
0.0
130
0.0
111
1.0
121
0.0
131
0.0
112
0.0
122
1.0
132
0.0
 79
0
146
0.0
  0
ENDTAB
  0
TABLE
  2
LTYPE
  5
5
100
AcDbSymbolTable
 70
21
  0
LTYPE
  5
31
100
AcDbSymbolTableRecord
100
AcDbLinetypeTableRecord
  2
CENTER2
 70
0
  3
Center (.5x) ___ _ ___ _ ___ _ ___ _ ___ _ ___
 72
65
 73
4
 40
28.574999999999999
 49
19.050000000000001
 74
0
 49
-3.1749999999999998
 74
0
 49
3.1749999999999998
 74
0
 49
-3.1749999999999998
 74
0
  0
LTYPE
  5
32
100
AcDbSymbolTableRecord
100
AcDbLinetypeTableRecord
  2
DIVIDEX2
 70
0
  3
Divide (2x) ________  .  .  ________  .  .  _
 72
65
 73
6
 40
63.5
 49
25.399999999999999
 74
0
 49
-12.699999999999999
 74
0
 49
0.0
 74
0
 49
-12.699999999999999
 74
0
 49
0.0
 74
0
 49
-12.699999999999999
 74
0
  0
LTYPE
  5
33
100
AcDbSymbolTableRecord
100
AcDbLinetypeTableRecord
  2
DOT2
 70
0
  3
Dot (.5x) .....................................
 72
65
 73
2
 40
3.1749999999999998
 49
0.0
 74
0
 49
-3.1749999999999998
 74
0
  0
LTYPE
  5
34
100
AcDbSymbolTableRecord
100
AcDbLinetypeTableRecord
  2
DASHDOT2
 70
0
  3
Dash dot (.5x) _._._._._._._._._._._._._._._.
 72
65
 73
4
 40
12.699999999999999
 49
6.3499999999999996
 74
0
 49
-3.1749999999999998
 74
0
 49
0.0
 74
0
 49
-3.1749999999999998
 74
0
  0
LTYPE
  5
35
100
AcDbSymbolTableRecord
100
AcDbLinetypeTableRecord
  2
DIVIDE
 70
0
  3
Divide ____ . . ____ . . ____ . . ____ . . ____
 72
65
 73
6
 40
31.75
 49
12.699999999999999
 74
0
 49
-6.3499999999999996
 74
0
 49
0.0
 74
0
 49
-6.3499999999999996
 74
0
 49
0.0
 74
0
 49
-6.3499999999999996
 74
0
  0
LTYPE
  5
36
100
AcDbSymbolTableRecord
100
AcDbLinetypeTableRecord
  2
DASHDOT
 70
0
  3
Dash dot __ . __ . __ . __ . __ . __ . __ . __
 72
65
 73
4
 40
25.399999999999999
 49
12.699999999999999
 74
0
 49
-6.3499999999999996
 74
0
 49
0.0
 74
0
 49
-6.3499999999999996
 74
0
  0
LTYPE
  5
37
100
AcDbSymbolTableRecord
100
AcDbLinetypeTableRecord
  2
BORDER
 70
0
  3
Border __ __ . __ __ . __ __ . __ __ . __ __ .
 72
65
 73
6
 40
44.450000000000003
 49
12.699999999999999
 74
0
 49
-6.3499999999999996
 74
0
 49
12.699999999999999
 74
0
 49
-6.3499999999999996
 74
0
 49
0.0
 74
0
 49
-6.3499999999999996
 74
0
  0
LTYPE
  5
38
100
AcDbSymbolTableRecord
100
AcDbLinetypeTableRecord
  2
DASHDOTX2
 70
0
  3
Dash dot (2x) ____  .  ____  .  ____  .  ___
 72
65
 73
4
 40
50.799999999999997
 49
25.399999999999999
 74
0
 49
-12.699999999999999
 74
0
 49
0.0
 74
0
 49
-12.699999999999999
 74
0
  0
LTYPE
  5
39
100
AcDbSymbolTableRecord
100
AcDbLinetypeTableRecord
  2
CENTERX2
 70
0
  3
Center (2x) ________  __  ________  __  _____
 72
65
 73
4
 40
101.59999999999999
 49
63.5
 74
0
 49
-12.699999999999999
 74
0
 49
12.699999999999999
 74
0
 49
-12.699999999999999
 74
0
  0
LTYPE
  5
3A
100
AcDbSymbolTableRecord
100
AcDbLinetypeTableRecord
  2
BORDER2
 70
0
  3
Border (.5x) __.__.__.__.__.__.__.__.__.__.__.
 72
65
 73
6
 40
22.225000000000001
 49
6.3499999999999996
 74
0
 49
-3.1749999999999998
 74
0
 49
6.3499999999999996
 74
0
 49
-3.1749999999999998
 74
0
 49
0.0
 74
0
 49
-3.1749999999999998
 74
0
  0
LTYPE
  5
3B
100
AcDbSymbolTableRecord
100
AcDbLinetypeTableRecord
  2
BORDERX2
 70
0
  3
Border (2x) ____  ____  .  ____  ____  .  ___
 72
65
 73
6
 40
88.900000000000006
 49
25.399999999999999
 74
0
 49
-12.699999999999999
 74
0
 49
25.399999999999999
 74
0
 49
-12.699999999999999
 74
0
 49
0.0
 74
0
 49
-12.699999999999999
 74
0
  0
LTYPE
  5
16
100
AcDbSymbolTableRecord
100
AcDbLinetypeTableRecord
  2
CONTINUOUS
 70
0
  3
Solid line
 72
65
 73
0
 40
0.0
  0
LTYPE
  5
14
100
AcDbSymbolTableRecord
100
AcDbLinetypeTableRecord
  2
BYBLOCK
 70
0
  3

 72
65
 73
0
 40
0.0
  0
LTYPE
  5
15
100
AcDbSymbolTableRecord
100
AcDbLinetypeTableRecord
  2
BYLAYER
 70
0
  3

 72
65
 73
0
 40
0.0
  0
LTYPE
  5
3C
100
AcDbSymbolTableRecord
100
AcDbLinetypeTableRecord
  2
DASHED2
 70
0
  3
Dashed (.5x) _ _ _ _ _ _ _ _ _ _ _ _ _ _ _ _ _
 72
65
 73
2
 40
9.5250000000000004
 49
6.3499999999999996
 74
0
 49
-3.1749999999999998
 74
0
  0
LTYPE
  5
3D
100
AcDbSymbolTableRecord
100
AcDbLinetypeTableRecord
  2
CENTER
 70
0
  3
Center ____ _ ____ _ ____ _ ____ _ ____ _ ____
 72
65
 73
4
 40
50.799999999999997
 49
31.75
 74
0
 49
-6.3499999999999996
 74
0
 49
6.3499999999999996
 74
0
 49
-6.3499999999999996
 74
0
  0
LTYPE
  5
3E
100
AcDbSymbolTableRecord
100
AcDbLinetypeTableRecord
  2
DIVIDE2
 70
0
  3
Divide (.5x) __..__..__..__..__..__..__..__.._
 72
65
 73
6
 40
15.875
 49
6.3499999999999996
 74
0
 49
-3.1749999999999998
 74
0
 49
0.0
 74
0
 49
-3.1749999999999998
 74
0
 49
0.0
 74
0
 49
-3.1749999999999998
 74
0
  0
LTYPE
  5
3F
100
AcDbSymbolTableRecord
100
AcDbLinetypeTableRecord
  2
DASHED
 70
0
  3
Dashed __ __ __ __ __ __ __ __ __ __ __ __ __ _
 72
65
 73
2
 40
19.050000000000001
 49
12.699999999999999
 74
0
 49
-6.3499999999999996
 74
0
  0
LTYPE
  5
40
100
AcDbSymbolTableRecord
100
AcDbLinetypeTableRecord
  2
DOTX2
 70
0
  3
Dot (2x) .  .  .  .  .  .  .  .  .  .  .  .  .
 72
65
 73
2
 40
12.699999999999999
 49
0.0
 74
0
 49
-12.699999999999999
 74
0
  0
LTYPE
  5
41
100
AcDbSymbolTableRecord
100
AcDbLinetypeTableRecord
  2
DASHEDX2
 70
0
  3
Dashed (2x) ____  ____  ____  ____  ____  ___
 72
65
 73
2
 40
38.100000000000001
 49
25.399999999999999
 74
0
 49
-12.699999999999999
 74
0
  0
LTYPE
  5
42
100
AcDbSymbolTableRecord
100
AcDbLinetypeTableRecord
  2
DOT
 70
0
  3
Dot . . . . . . . . . . . . . . . . . . . . . .
 72
65
 73
2
 40
6.3499999999999996
 49
0.0
 74
0
 49
-6.3499999999999996
 74
0
  0
ENDTAB
  0
TABLE
  2
LAYER
  5
2
100
AcDbSymbolTable
 70
6
  0
LAYER
  5
43
100
AcDbSymbolTableRecord
100
AcDbLayerTableRecord
  2
SAT
 70
0
 62
7
420
0
  6
CONTINUOUS
370
40
390
F
  0
LAYER
  5
44
100
AcDbSymbolTableRecord
100
AcDbLayerTableRecord
  2
AUX
 70
1
 62
-2
420
16776960
  6
CONTINUOUS
370
25
390
F
  0
LAYER
  5
45
100
AcDbSymbolTableRecord
100
AcDbLayerTableRecord
  2
COTAS
 70
0
 62
5
420
255
  6
CONTINUOUS
370
25
390
F
  0
LAYER
  5
46
100
AcDbSymbolTableRecord
100
AcDbLayerTableRecord
  2
SEPARADORES
 70
0
 62
3
420
65280
  6
CONTINUOUS
370
25
390
F
  0
LAYER
  5
47
100
AcDbSymbolTableRecord
100
AcDbLayerTableRecord
  2
LANZADOR
 70
0
 62
1
420
16711680
  6
CONTINUOUS
370
20
390
F
  0
LAYER
  5
10
100
AcDbSymbolTableRecord
100
AcDbLayerTableRecord
  2
0
 70
0
 62
7
420
16777215
  6
CONTINUOUS
370
25
390
F
  0
ENDTAB
  0
TABLE
  2
STYLE
  5
3
100
AcDbSymbolTable
 70
1
  0
STYLE
  5
48
100
AcDbSymbolTableRecord
100
AcDbTextStyleTableRecord
  2
textstyle0
 70
0
 40
0.0
 41
1.0
 50
0.0
 71
0
 42
5.0
  3

  4

1001
ACAD
1000
Standard
1071
0
  0
ENDTAB
  0
TABLE
  2
VIEW
  5
6
100
AcDbSymbolTable
 70
0
  0
ENDTAB
  0
TABLE
  2
UCS
  5
7
100
AcDbSymbolTable
 70
0
  0
ENDTAB
  0
TABLE
  2
APPID
  5
9
100
AcDbSymbolTable
 70
1
  0
APPID
  5
49
100
AcDbSymbolTableRecord
100
AcDbRegAppTableRecord
  2
QCAD
 70
0
  0
ENDTAB
  0
TABLE
  2
DIMSTYLE
  5
A
100
AcDbSymbolTable
 70
1
100
AcDbDimStyleTable
 71
0
  0
DIMSTYLE
105
27
100
AcDbSymbolTableRecord
100
AcDbDimStyleTableRecord
  2
Standard
 41
2.5
 42
0.625
 43
3.75
 44
1.25
 70
0
 73
0
 74
0
 77
1
 78
8
140
2.5
141
2.5
143
0.03937007874016
147
0.625
171
3
172
1
271
2
272
2
274
3
278
44
283
0
284
8
340
11
  0
ENDTAB
  0
TABLE
  2
BLOCK_RECORD
  5
1
100
AcDbSymbolTable
 70
1
  0
BLOCK_RECORD
  5
1F
100
AcDbSymbolTableRecord
100
AcDbBlockTableRecord
  2
*Model_Space
340
22
  0
BLOCK_RECORD
  5
1B
100
AcDbSymbolTableRecord
100
AcDbBlockTableRecord
  2
*Paper_Space
340
1E
  0
BLOCK_RECORD
  5
23
100
AcDbSymbolTableRecord
100
AcDbBlockTableRecord
  2
*Paper_Space0
340
26
  0
BLOCK_RECORD
  5
4A
100
AcDbSymbolTableRecord
100
AcDbBlockTableRecord
  2
*Model_Space
340
0
  0
ENDTAB
  0
ENDSEC
  0
SECTION
  2
BLOCKS
  0
BLOCK
  5
20
100
AcDbEntity
  8
0
100
AcDbBlockBegin
  2
*Model_Space
 70
0
 10
0.0
 20
0.0
 30
0.0
  3
*Model_Space
  1

  0
ENDSEC
  0
SECTION
  2
ENTITIES
  0
LINE
  5
4B
100
AcDbEntity
100
AcDbLine
  8
LANZADOR
 62
256
370
-1
  6
BYLAYER
 10
0.0
 20
0.0
 30
0.0
 11
74.0
 21
0.0
 31
0.0
  0
LINE
  5
4C
100
AcDbEntity
100
AcDbLine
  8
LANZADOR
 62
256
370
-1
  6
BYLAYER
 10
74.0
 20
0.0
 30
0.0
 11
74.0
 21
74.0
 31
0.0
  0
LINE
  5
4D
100
AcDbEntity
100
AcDbLine
  8
LANZADOR
 62
256
370
-1
  6
BYLAYER
 10
74.0
 20
74.0
 30
0.0
 11
0.0
 21
74.0
 31
0.0
  0
LINE
  5
4E
100
AcDbEntity
100
AcDbLine
  8
LANZADOR
 62
256
370
-1
  6
BYLAYER
 10
0.0
 20
74.0
 30
0.0
 11
0.0
 21
0.0
 31
0.0
  0
LINE
  5
4F
100
AcDbEntity
100
AcDbLine
  8
AUX
 62
256
370
-1
  6
BYLAYER
 10
-0.0
 20
-0.0
 30
0.0
 11
74.0
 21
-0.0
 31
0.0
  0
LINE
  5
50
100
AcDbEntity
100
AcDbLine
  8
AUX
 62
256
370
-1
  6
BYLAYER
 10
74.0
 20
-0.0
 30
0.0
 11
74.0
 21
12.0
 31
0.0
  0
LINE
  5
51
100
AcDbEntity
100
AcDbLine
  8
AUX
 62
256
370
-1
  6
BYLAYER
 10
74.0
 20
12.0
 30
0.0
 11
-0.0
 21
12.0
 31
0.0
  0
LINE
  5
52
100
AcDbEntity
100
AcDbLine
  8
AUX
 62
256
370
-1
  6
BYLAYER
 10
-0.0
 20
12.0
 30
0.0
 11
-0.0
 21
-0.0
 31
0.0
  0
LINE
  5
53
100
AcDbEntity
100
AcDbLine
  8
AUX
 62
256
370
-1
  6
BYLAYER
 10
-0.0
 20
-0.0
 30
0.0
 11
12.0
 21
-0.0
 31
0.0
  0
LINE
  5
54
100
AcDbEntity
100
AcDbLine
  8
AUX
 62
256
370
-1
  6
BYLAYER
 10
12.0
 20
-0.0
 30
0.0
 11
12.0
 21
74.0
 31
0.0
  0
LINE
  5
55
100
AcDbEntity
100
AcDbLine
  8
AUX
 62
256
370
-1
  6
BYLAYER
 10
12.0
 20
74.0
 30
0.0
 11
-0.0
 21
74.0
 31
0.0
  0
LINE
  5
56
100
AcDbEntity
100
AcDbLine
  8
AUX
 62
256
370
-1
  6
BYLAYER
 10
-0.0
 20
74.0
 30
0.0
 11
-0.0
 21
-0.0
 31
0.0
  0
DIMENSION
  5
57
100
AcDbEntity
  8
COTAS
 62
256
370
-1
  6
BYLAYER
100
AcDbDimension
 10
70.0
 20
-20.0
 30
0.0
 11
37.0
 21
-18.125
 31
0.0
 70
0
 71
8
 72
2
 41
1.0
 42
0.0
  1

  3
Standard
100
AcDbAlignedDimension
 13
-0.0
 23
-0.0
 33
0.0
 14
74.0
 24
0.0
 34
0.0
 50
0.0
100
AcDbRotatedDimension
1001
ACAD
1000
DSTYLE
1002
{
1070
144
1040
1
1002
}
  0
DIMENSION
  5
58
100
AcDbEntity
  8
COTAS
 62
256
370
-1
  6
BYLAYER
100
AcDbDimension
 10
10.0
 20
-10.0
 30
0.0
 11
6.0
 21
-8.125
 31
0.0
 70
0
 71
8
 72
2
 41
1.0
 42
0.0
  1

  3
Standard
100
AcDbAlignedDimension
 13
-0.0
 23
-0.0
 33
0.0
 14
12.0
 24
0.0
 34
0.0
 50
0.0
100
AcDbRotatedDimension
1001
ACAD
1000
DSTYLE
1002
{
1070
144
1040
1
1002
}
  0
LINE
  5
59
100
AcDbEntity
100
AcDbLine
  8
SAT
 62
256
370
-1
  6
BYLAYER
 10
12.0
 20
12.0
 30
0.0
 11
62.0
 21
12.0
 31
0.0
  0
LINE
  5
5A
100
AcDbEntity
100
AcDbLine
  8
SAT
 62
256
370
-1
  6
BYLAYER
 10
62.0
 20
62.0
 30
0.0
 11
12.0
 21
62.0
 31
0.0
  0
LINE
  5
5B
100
AcDbEntity
100
AcDbLine
  8
SAT
 62
256
370
-1
  6
BYLAYER
 10
12.0
 20
12.0
 30
0.0
 11
62.0
 21
12.0
 31
0.0
  0
LINE
  5
5C
100
AcDbEntity
100
AcDbLine
  8
SAT
 62
256
370
-1
  6
BYLAYER
 10
62.0
 20
12.0
 30
0.0
 11
62.0
 21
12.0
 31
0.0
  0
LINE
  5
5D
100
AcDbEntity
100
AcDbLine
  8
SAT
 62
256
370
-1
  6
BYLAYER
 10
62.0
 20
12.0
 30
0.0
 11
12.0
 21
12.0
 31
0.0
  0
LINE
  5
5E
100
AcDbEntity
100
AcDbLine
  8
SAT
 62
256
370
-1
  6
BYLAYER
 10
12.0
 20
12.0
 30
0.0
 11
12.0
 21
12.0
 31
0.0
  0
DIMENSION
  5
5F
100
AcDbEntity
  8
COTAS
 62
256
370
-1
  6
BYLAYER
100
AcDbDimension
 10
12.0
 20
-10.0
 30
0.0
 11
37.0
 21
-8.125
 31
0.0
 70
0
 71
8
 72
2
 41
1.0
 42
0.0
  1

  3
Standard
100
AcDbAlignedDimension
 13
12.0
 23
0.0
 33
0.0
 14
62.0
 24
-0.0
 34
0.0
 50
0.0
100
AcDbRotatedDimension
1001
ACAD
1000
DSTYLE
1002
{
1070
144
1040
1
1002
}
  0
DIMENSION
  5
60
100
AcDbEntity
  8
COTAS
 62
256
370
-1
  6
BYLAYER
100
AcDbDimension
 10
-10.0
 20
80.0
 30
0.0
 11
-11.875
 21
68.0
 31
0.0
 70
0
 71
8
 72
2
 41
1.0
 42
0.0
  1

  3
Standard
100
AcDbAlignedDimension
 13
0.0
 23
74.0
 33
0.0
 14
-0.0
 24
62.0
 34
0.0
 50
90.0
100
AcDbRotatedDimension
1001
ACAD
1000
DSTYLE
1002
{
1070
144
1040
1
1002
}
  0
LINE
  5
61
100
AcDbEntity
100
AcDbLine
  8
SAT
 62
256
370
-1
  6
BYLAYER
 10
9.0
 20
12.0
 30
0.0
 11
65.0
 21
12.0
 31
0.0
  0
LINE
  5
62
100
AcDbEntity
100
AcDbLine
  8
SAT
 62
256
370
-1
  6
BYLAYER
 10
65.0
 20
12.0
 30
0.0
 11
65.0
 21
13.6
 31
0.0
  0
LINE
  5
63
100
AcDbEntity
100
AcDbLine
  8
SAT
 62
256
370
-1
  6
BYLAYER
 10
65.0
 20
13.6
 30
0.0
 11
9.0
 21
13.6
 31
0.0
  0
LINE
  5
64
100
AcDbEntity
100
AcDbLine
  8
SAT
 62
256
370
-1
  6
BYLAYER
 10
9.0
 20
13.6
 30
0.0
 11
9.0
 21
12.0
 31
0.0
  0
LINE
  5
65
100
AcDbEntity
100
AcDbLine
  8
SAT
 62
256
370
-1
  6
BYLAYER
 10
12.0
 20
62.0
 30
0.0
 11
62.0
 21
62.0
 31
0.0
  0
LINE
  5
66
100
AcDbEntity
100
AcDbLine
  8
SAT
 62
256
370
-1
  6
BYLAYER
 10
62.0
 20
62.0
 30
0.0
 11
62.0
 21
60.399999999999999
 31
0.0
  0
LINE
  5
67
100
AcDbEntity
100
AcDbLine
  8
SAT
 62
256
370
-1
  6
BYLAYER
 10
62.0
 20
60.399999999999999
 30
0.0
 11
12.0
 21
60.399999999999999
 31
0.0
  0
LINE
  5
68
100
AcDbEntity
100
AcDbLine
  8
SAT
 62
256
370
-1
  6
BYLAYER
 10
12.0
 20
60.399999999999999
 30
0.0
 11
12.0
 21
62.0
 31
0.0
  0
LINE
  5
69
100
AcDbEntity
100
AcDbLine
  8
SAT
 62
256
370
-1
  6
BYLAYER
 10
13.6
 20
23.280000000000001
 30
0.0
 11
60.399999999999999
 21
23.280000000000001
 31
0.0
  0
LINE
  5
6A
100
AcDbEntity
100
AcDbLine
  8
SAT
 62
256
370
-1
  6
BYLAYER
 10
62.0
 20
23.280000000000001
 30
0.0
 11
62.0
 21
21.68
 31
0.0
  0
LINE
  5
6B
100
AcDbEntity
100
AcDbLine
  8
SAT
 62
256
370
-1
  6
BYLAYER
 10
60.399999999999999
 20
21.68
 30
0.0
 11
13.6
 21
21.679999999999996
 31
0.0
  0
LINE
  5
6C
100
AcDbEntity
100
AcDbLine
  8
SAT
 62
256
370
-1
  6
BYLAYER
 10
12.0
 20
21.68
 30
0.0
 11
12.0
 21
23.280000000000001
 31
0.0
  0
LINE
  5
6D
100
AcDbEntity
100
AcDbLine
  8
SAT
 62
256
370
-1
  6
BYLAYER
 10
13.6
 20
32.960000000000001
 30
0.0
 11
60.399999999999999
 21
32.960000000000001
 31
0.0
  0
LINE
  5
6E
100
AcDbEntity
100
AcDbLine
  8
SAT
 62
256
370
-1
  6
BYLAYER
 10
62.0
 20
32.960000000000001
 30
0.0
 11
62.0
 21
31.359999999999999
 31
0.0
  0
LINE
  5
6F
100
AcDbEntity
100
AcDbLine
  8
SAT
 62
256
370
-1
  6
BYLAYER
 10
60.399999999999999
 20
31.359999999999999
 30
0.0
 11
13.6
 21
31.359999999999999
 31
0.0
  0
LINE
  5
70
100
AcDbEntity
100
AcDbLine
  8
SAT
 62
256
370
-1
  6
BYLAYER
 10
12.0
 20
31.359999999999999
 30
0.0
 11
12.0
 21
32.960000000000001
 31
0.0
  0
LINE
  5
71
100
AcDbEntity
100
AcDbLine
  8
SAT
 62
256
370
-1
  6
BYLAYER
 10
13.6
 20
42.640000000000001
 30
0.0
 11
60.399999999999999
 21
42.639999999999993
 31
0.0
  0
LINE
  5
72
100
AcDbEntity
100
AcDbLine
  8
SAT
 62
256
370
-1
  6
BYLAYER
 10
62.0
 20
42.640000000000001
 30
0.0
 11
62.0
 21
41.039999999999999
 31
0.0
  0
LINE
  5
73
100
AcDbEntity
100
AcDbLine
  8
SAT
 62
256
370
-1
  6
BYLAYER
 10
60.399999999999999
 20
41.039999999999999
 30
0.0
 11
13.6
 21
41.039999999999999
 31
0.0
  0
LINE
  5
74
100
AcDbEntity
100
AcDbLine
  8
SAT
 62
256
370
-1
  6
BYLAYER
 10
12.0
 20
41.039999999999999
 30
0.0
 11
12.0
 21
42.640000000000001
 31
0.0
  0
LINE
  5
75
100
AcDbEntity
100
AcDbLine
  8
SAT
 62
256
370
-1
  6
BYLAYER
 10
13.6
 20
52.32
 30
0.0
 11
60.399999999999999
 21
52.32
 31
0.0
  0
LINE
  5
76
100
AcDbEntity
100
AcDbLine
  8
SAT
 62
256
370
-1
  6
BYLAYER
 10
62.0
 20
52.32
 30
0.0
 11
62.0
 21
50.719999999999999
 31
0.0
  0
LINE
  5
77
100
AcDbEntity
100
AcDbLine
  8
SAT
 62
256
370
-1
  6
BYLAYER
 10
60.399999999999999
 20
50.719999999999999
 30
0.0
 11
13.6
 21
50.719999999999999
 31
0.0
  0
LINE
  5
78
100
AcDbEntity
100
AcDbLine
  8
SAT
 62
256
370
-1
  6
BYLAYER
 10
12.0
 20
50.719999999999999
 30
0.0
 11
12.0
 21
52.32
 31
0.0
  0
LINE
  5
79
100
AcDbEntity
100
AcDbLine
  8
SAT
 62
256
370
-1
  6
BYLAYER
 10
12.0
 20
12.0
 30
0.0
 11
13.6
 21
12.0
 31
0.0
  0
LINE
  5
7A
100
AcDbEntity
100
AcDbLine
  8
SAT
 62
256
370
-1
  6
BYLAYER
 10
13.6
 20
13.6
 30
0.0
 11
13.6
 21
60.399999999999999
 31
0.0
  0
LINE
  5
7B
100
AcDbEntity
100
AcDbLine
  8
SAT
 62
256
370
-1
  6
BYLAYER
 10
13.6
 20
62.0
 30
0.0
 11
12.0
 21
62.0
 31
0.0
  0
LINE
  5
7C
100
AcDbEntity
100
AcDbLine
  8
SAT
 62
256
370
-1
  6
BYLAYER
 10
12.0
 20
62.0
 30
0.0
 11
12.0
 21
13.6
 31
0.0
  0
LINE
  5
7D
100
AcDbEntity
100
AcDbLine
  8
SAT
 62
256
370
-1
  6
BYLAYER
 10
62.0
 20
12.0
 30
0.0
 11
60.399999999999999
 21
12.0
 31
0.0
  0
LINE
  5
7E
100
AcDbEntity
100
AcDbLine
  8
SAT
 62
256
370
-1
  6
BYLAYER
 10
60.399999999999999
 20
13.6
 30
0.0
 11
60.399999999999991
 21
60.399999999999999
 31
0.0
  0
LINE
  5
7F
100
AcDbEntity
100
AcDbLine
  8
SAT
 62
256
370
-1
  6
BYLAYER
 10
60.399999999999999
 20
62.0
 30
0.0
 11
62.0
 21
62.0
 31
0.0
  0
LINE
  5
80
100
AcDbEntity
100
AcDbLine
  8
SAT
 62
256
370
-1
  6
BYLAYER
 10
62.0
 20
62.0
 30
0.0
 11
62.0
 21
13.6
 31
0.0
  0
LINE
  5
81
100
AcDbEntity
100
AcDbLine
  8
AUX
 62
256
370
-1
  6
BYLAYER
 10
9.0
 20
13.6
 30
0.0
 11
0.0
 21
13.600000000000009
 31
0.0
  0
LINE
  5
82
100
AcDbEntity
100
AcDbLine
  8
LANZADOR
 62
256
370
-1
  6
BYLAYER
 10
0.0
 20
18.60000000000008
 30
0.0
 11
12.0
 21
18.60000000000008
 31
0.0
  0
LINE
  5
83
100
AcDbEntity
100
AcDbLine
  8
LANZADOR
 62
256
370
-1
  6
BYLAYER
 10
12.0
 20
18.60000000000008
 30
0.0
 11
12.0
 21
13.6
 31
0.0
  0
LINE
  5
84
100
AcDbEntity
100
AcDbLine
  8
LANZADOR
 62
256
370
-1
  6
BYLAYER
 10
12.0
 20
13.6
 30
0.0
 11
9.0
 21
13.600000000000001
 31
0.0
  0
LINE
  5
85
100
AcDbEntity
100
AcDbLine
  8
LANZADOR
 62
256
370
-1
  6
BYLAYER
 10
9.0
 20
13.600000000000001
 30
0.0
 11
8.9999999999999982
 21
12.0
 31
0.0
  0
LINE
  5
86
100
AcDbEntity
100
AcDbLine
  8
LANZADOR
 62
256
370
-1
  6
BYLAYER
 10
8.9999999999999982
 20
12.0
 30
0.0
 11
12.0
 21
12.0
 31
0.0
  0
LINE
  5
87
100
AcDbEntity
100
AcDbLine
  8
LANZADOR
 62
256
370
-1
  6
BYLAYER
 10
0.0
 20
18.60000000000008
 30
0.0
 11
0.0
 21
7.0
 31
0.0
  0
LINE
  5
88
100
AcDbEntity
100
AcDbLine
  8
LANZADOR
 62
256
370
-1
  6
BYLAYER
 10
0.0
 20
7.0
 30
0.0
 11
12.0
 21
7.0
 31
0.0
  0
LINE
  5
89
100
AcDbEntity
100
AcDbLine
  8
LANZADOR
 62
256
370
-1
  6
BYLAYER
 10
12.0
 20
7.0
 30
0.0
 11
12.0
 21
12.0
 31
0.0
  0
LINE
  5
8A
100
AcDbEntity
100
AcDbLine
  8
LANZADOR
 62
256
370
-1
  6
BYLAYER
 10
65.0
 20
13.6
 30
0.0
 11
65.0
 21
12.000000000000002
 31
0.0
  0
LINE
  5
8B
100
AcDbEntity
100
AcDbLine
  8
LANZADOR
 62
256
370
-1
  6
BYLAYER
 10
65.0
 20
12.000000000000002
 30
0.0
 11
62.0
 21
12.000000000000002
 31
0.0
  0
LINE
  5
8C
100
AcDbEntity
100
AcDbLine
  8
LANZADOR
 62
256
370
-1
  6
BYLAYER
 10
74.0
 20
18.60000000000008
 30
0.0
 11
74.0
 21
7.0
 31
0.0
  0
LINE
  5
8D
100
AcDbEntity
100
AcDbLine
  8
LANZADOR
 62
256
370
-1
  6
BYLAYER
 10
74.0
 20
7.0
 30
0.0
 11
62.0
 21
6.9999999999999956
 31
0.0
  0
LINE
  5
8E
100
AcDbEntity
100
AcDbLine
  8
LANZADOR
 62
256
370
-1
  6
BYLAYER
 10
62.0
 20
6.9999999999999956
 30
0.0
 11
62.0
 21
12.000000000000002
 31
0.0
  0
LINE
  5
8F
100
AcDbEntity
100
AcDbLine
  8
LANZADOR
 62
256
370
-1
  6
BYLAYER
 10
74.0
 20
18.60000000000008
 30
0.0
 11
62.0
 21
18.60000000000008
 31
0.0
  0
LINE
  5
90
100
AcDbEntity
100
AcDbLine
  8
LANZADOR
 62
256
370
-1
  6
BYLAYER
 10
62.0
 20
18.60000000000008
 30
0.0
 11
62.0
 21
13.600000000000003
 31
0.0
  0
LINE
  5
91
100
AcDbEntity
100
AcDbLine
  8
LANZADOR
 62
256
370
-1
  6
BYLAYER
 10
62.0
 20
13.600000000000003
 30
0.0
 11
65.0
 21
13.6
 31
0.0
  0
DIMENSION
  5
92
100
AcDbEntity
  8
COTAS
 62
256
370
-1
  6
BYLAYER
100
AcDbDimension
 10
90.0
 20
10.0
 30
0.0
 11
88.125
 21
6.0000000000000018
 31
0.0
 70
0
 71
8
 72
2
 41
1.0
 42
0.0
  1

  3
Standard
100
AcDbAlignedDimension
 13
74.0
 23
0.0
 33
0.0
 14
74.0
 24
12.000000000000004
 34
0.0
 50
90.0
100
AcDbRotatedDimension
1001
ACAD
1000
DSTYLE
1002
{
1070
144
1040
1
1002
}
  0
DIMENSION
  5
93
100
AcDbEntity
  8
COTAS
 62
256
370
-1
  6
BYLAYER
100
AcDbDimension
 10
80.835199999999958
 20
12.850559999999987
 30
0.0
 11
78.960199999999958
 21
15.891666666666667
 31
0.0
 70
0
 71
8
 72
2
 41
1.0
 42
0.0
  1

  3
Standard
100
AcDbAlignedDimension
 13
74.0
 23
11.999999999999998
 33
0.0
 14
74.000000000000014
 24
13.6
 34
0.0
 50
90.0
100
AcDbRotatedDimension
1001
ACAD
1000
DSTYLE
1002
{
1070
144
1040
1
1002
}
  0
DIMENSION
  5
94
100
AcDbEntity
  8
COTAS
 62
256
370
-1
  6
BYLAYER
100
AcDbDimension
 10
90.0
 20
11.999999999999973
 30
0.0
 11
88.125
 21
16.100000000000041
 31
0.0
 70
0
 71
8
 72
2
 41
1.0
 42
0.0
  1

  3
Standard
100
AcDbAlignedDimension
 13
74.0
 23
18.60000000000008
 33
0.0
 14
74.000000000000014
 24
13.6
 34
0.0
 50
90.0
100
AcDbRotatedDimension
1001
ACAD
1000
DSTYLE
1002
{
1070
144
1040
1
1002
}
  0
DIMENSION
  5
95
100
AcDbEntity
  8
COTAS
 62
256
370
-1
  6
BYLAYER
100
AcDbDimension
 10
90.0
 20
18.60000000000008
 30
0.0
 11
88.125
 21
68.0
 31
0.0
 70
0
 71
8
 72
2
 41
1.0
 42
0.0
  1

  3
Standard
100
AcDbAlignedDimension
 13
74.0
 23
74.0
 33
0.0
 14
74.0
 24
62.0
 34
0.0
 50
90.0
100
AcDbRotatedDimension
1001
ACAD
1000
DSTYLE
1002
{
1070
144
1040
1
1002
}
  0
DIMENSION
  5
96
100
AcDbEntity
  8
COTAS
 62
256
370
-1
  6
BYLAYER
100
AcDbDimension
 10
80.0
 20
60.0
 30
0.0
 11
78.125
 21
64.291666666666671
 31
0.0
 70
0
 71
8
 72
2
 41
1.0
 42
0.0
  1

  3
Standard
100
AcDbAlignedDimension
 13
74.0
 23
62.0
 33
0.0
 14
74.0
 24
60.399999999999999
 34
0.0
 50
90.0
100
AcDbRotatedDimension
1001
ACAD
1000
DSTYLE
1002
{
1070
144
1040
1
1002
}
  0
DIMENSION
  5
97
100
AcDbEntity
  8
COTAS
 62
256
370
-1
  6
BYLAYER
100
AcDbDimension
 10
90.0
 20
62.0
 30
0.0
 11
88.125
 21
56.359999999999999
 31
0.0
 70
0
 71
8
 72
2
 41
1.0
 42
0.0
  1

  3
Standard
100
AcDbAlignedDimension
 13
74.000000000000014
 23
60.399999999999999
 33
0.0
 14
74.000000000000014
 24
52.32
 34
0.0
 50
90.0
100
AcDbRotatedDimension
1001
ACAD
1000
DSTYLE
1002
{
1070
144
1040
1
1002
}
  0
LINE
  5
98
100
AcDbEntity
100
AcDbLine
  8
LANZADOR
 62
256
370
-1
  6
BYLAYER
 10
-40.0
 20
74.0
 30
0.0
 11
-260.0
 21
74.0
 31
0.0
  0
LINE
  5
99
100
AcDbEntity
100
AcDbLine
  8
LANZADOR
 62
256
370
-1
  6
BYLAYER
 10
-260.0
 20
74.0
 30
0.0
 11
-260.0
 21
0.0
 31
0.0
  0
LINE
  5
9A
100
AcDbEntity
100
AcDbLine
  8
LANZADOR
 62
256
370
-1
  6
BYLAYER
 10
-260.0
 20
0.0
 30
0.0
 11
-40.0
 21
0.0
 31
0.0
  0
LINE
  5
9B
100
AcDbEntity
100
AcDbLine
  8
LANZADOR
 62
256
370
-1
  6
BYLAYER
 10
-40.0
 20
0.0
 30
0.0
 11
-40.0
 21
74.0
 31
0.0
  0
LINE
  5
9C
100
AcDbEntity
100
AcDbLine
  8
LANZADOR
 62
256
370
-1
  6
BYLAYER
 10
-40.0
 20
18.60000000000008
 30
0.0
 11
-260.0
 21
18.60000000000008
 31
0.0
  0
LINE
  5
9D
100
AcDbEntity
100
AcDbLine
  8
LANZADOR
 62
256
370
-1
  6
BYLAYER
 10
-40.0
 20
7.0
 30
0.0
 11
-260.0
 21
7.0
 31
0.0
  0
LINE
  5
9E
100
AcDbEntity
100
AcDbLine
  8
SAT
 62
256
370
-1
  6
CONTINUOUS
 10
-45.0
 20
12.0
 30
0.0
 11
-104.0
 21
12.0
 31
0.0
  0
LINE
  5
9F
100
AcDbEntity
100
AcDbLine
  8
SAT
 62
256
370
-1
  6
CONTINUOUS
 10
-104.0
 20
12.0
 30
0.0
 11
-104.0
 21
13.600000000000001
 31
0.0
  0
LINE
  5
A0
100
AcDbEntity
100
AcDbLine
  8
SAT
 62
256
370
-1
  6
DOT2
 10
-168.0
 20
12.0
 30
0.0
 11
-168.0
 21
62.0
 31
0.0
  0
LINE
  5
A1
100
AcDbEntity
100
AcDbLine
  8
SAT
 62
256
370
-1
  6
DOT2
 10
-232.0
 20
12.0
 30
0.0
 11
-232.0
 21
62.0
 31
0.0
  0
LINE
  5
A2
100
AcDbEntity
100
AcDbLine
  8
SAT
 62
256
370
-1
  6
CONTINUOUS
 10
-46.599999999999994
 20
13.600000000000001
 30
0.0
 11
-104.0
 21
13.600000000000005
 31
0.0
  0
LINE
  5
A3
100
AcDbEntity
100
AcDbLine
  8
SAT
 62
256
370
-1
  6
DOT2
 10
-161.0
 20
62.0
 30
0.0
 11
-161.0
 21
13.600000000000009
 31
0.0
  0
LINE
  5
A4
100
AcDbEntity
100
AcDbLine
  8
SAT
 62
256
370
-1
  6
DOT2
 10
-111.0
 20
62.0
 30
0.0
 11
-111.0
 21
13.600000000000001
 31
0.0
  0
LINE
  5
A5
100
AcDbEntity
100
AcDbLine
  8
SAT
 62
256
370
-1
  6
DOT2
 10
-161.0
 20
62.0
 30
0.0
 11
-111.0
 21
62.0
 31
0.0
  0
LINE
  5
A6
100
AcDbEntity
100
AcDbLine
  8
SAT
 62
256
370
-1
  6
DOT2
 10
-232.0
 20
62.0
 30
0.0
 11
-168.0
 21
62.0
 31
0.0
  0
DIMENSION
  5
A7
100
AcDbEntity
  8
COTAS
 62
256
370
-1
  6
BYLAYER
100
AcDbDimension
 10
-130.0
 20
-10.0
 30
0.0
 11
-136.0
 21
-8.125
 31
0.0
 70
0
 71
8
 72
2
 41
1.0
 42
0.0
  1

  3
Standard
100
AcDbAlignedDimension
 13
-161.00000000000003
 23
-0.0
 33
0.0
 14
-111.0
 24
-0.0
 34
0.0
 50
0.0
100
AcDbRotatedDimension
1001
ACAD
1000
DSTYLE
1002
{
1070
144
1040
1
1002
}
  0
DIMENSION
  5
A8
100
AcDbEntity
  8
COTAS
 62
256
370
-1
  6
BYLAYER
100
AcDbDimension
 10
-120.0
 20
-20.0
 30
0.0
 11
-136.0
 21
-18.125
 31
0.0
 70
0
 71
8
 72
2
 41
1.0
 42
0.0
  1

  3
Standard
100
AcDbAlignedDimension
 13
-168.0
 23
-0.0
 33
0.0
 14
-104.0
 24
-0.0
 34
0.0
 50
0.0
100
AcDbRotatedDimension
1001
ACAD
1000
DSTYLE
1002
{
1070
144
1040
1
1002
}
  0
DIMENSION
  5
A9
100
AcDbEntity
  8
COTAS
 62
256
370
-1
  6
BYLAYER
100
AcDbDimension
 10
-168.0
 20
-20.0
 30
0.0
 11
-200.0
 21
-18.125
 31
0.0
 70
0
 71
8
 72
2
 41
1.0
 42
0.0
  1

  3
Standard
100
AcDbAlignedDimension
 13
-232.0
 23
-0.0
 33
0.0
 14
-168.0
 24
-20.0
 34
0.0
 50
0.0
100
AcDbRotatedDimension
1001
ACAD
1000
DSTYLE
1002
{
1070
144
1040
1
1002
}
  0
DIMENSION
  5
AA
100
AcDbEntity
  8
COTAS
 62
256
370
-1
  6
BYLAYER
100
AcDbDimension
 10
-161.0
 20
-10.0
 30
0.0
 11
-164.5
 21
-8.125
 31
0.0
 70
0
 71
8
 72
2
 41
1.0
 42
0.0
  1

  3
Standard
100
AcDbAlignedDimension
 13
-168.0
 23
-0.0
 33
0.0
 14
-161.00000000000003
 24
-0.0
 34
0.0
 50
0.0
100
AcDbRotatedDimension
1001
ACAD
1000
DSTYLE
1002
{
1070
144
1040
1
1002
}
  0
DIMENSION
  5
AB
100
AcDbEntity
  8
COTAS
 62
256
370
-1
  6
BYLAYER
100
AcDbDimension
 10
-111.0
 20
-10.0
 30
0.0
 11
-107.5
 21
-8.125
 31
0.0
 70
0
 71
8
 72
2
 41
1.0
 42
0.0
  1

  3
Standard
100
AcDbAlignedDimension
 13
-111.0
 23
-0.0
 33
0.0
 14
-104.0
 24
-0.0
 34
0.0
 50
0.0
100
AcDbRotatedDimension
1001
ACAD
1000
DSTYLE
1002
{
1070
144
1040
1
1002
}
  0
LINE
  5
AC
100
AcDbEntity
100
AcDbLine
  8
SAT
 62
256
370
-1
  6
CONTINUOUS
 10
-100.99999999999999
 20
13.600000000000001
 30
0.0
 11
-101.0
 21
60.399999999999991
 31
0.0
  0
LINE
  5
AD
100
AcDbEntity
100
AcDbLine
  8
SAT
 62
256
370
-1
  6
CONTINUOUS
 10
-45.0
 20
12.0
 30
0.0
 11
-45.0
 21
62.0
 31
0.0
  0
LINE
  5
AE
100
AcDbEntity
100
AcDbLine
  8
SAT
 62
256
370
-1
  6
CONTINUOUS
 10
-45.0
 20
62.0
 30
0.0
 11
-101.0
 21
62.0
 31
0.0
  0
LINE
  5
AF
100
AcDbEntity
100
AcDbLine
  8
SAT
 62
256
370
-1
  6
CONTINUOUS
 10
-103.99999999999999
 20
61.999999999999993
 30
0.0
 11
-44.999999999999986
 21
61.999999999999993
 31
0.0
  0
LINE
  5
B0
100
AcDbEntity
100
AcDbLine
  8
SAT
 62
256
370
-1
  6
CONTINUOUS
 10
-44.999999999999986
 20
61.999999999999993
 30
0.0
 11
-44.999999999999986
 21
60.399999999999991
 31
0.0
  0
LINE
  5
B1
100
AcDbEntity
100
AcDbLine
  8
SAT
 62
256
370
-1
  6
CONTINUOUS
 10
-46.600000000000001
 20
60.399999999999999
 30
0.0
 11
-103.99999999999999
 21
60.399999999999991
 31
0.0
  0
LINE
  5
B2
100
AcDbEntity
100
AcDbLine
  8
SAT
 62
256
370
-1
  6
CONTINUOUS
 10
-103.99999999999999
 20
60.399999999999991
 30
0.0
 11
-103.99999999999999
 21
61.999999999999993
 31
0.0
  0
LINE
  5
B3
100
AcDbEntity
100
AcDbLine
  8
SAT
 62
256
370
-1
  6
CONTINUOUS
 10
-99.399999999999935
 20
13.600000000000003
 30
0.0
 11
-99.399999999999949
 21
60.399999999999991
 31
0.0
  0
LINE
  5
B4
100
AcDbEntity
100
AcDbLine
  8
SAT
 62
256
370
-1
  6
CONTINUOUS
 10
-46.599999999999994
 20
13.600000000000001
 30
0.0
 11
-46.600000000000001
 21
61.999999999999993
 31
0.0
  0
LINE
  5
B5
100
AcDbEntity
100
AcDbLine
  8
SAT
 62
256
370
-1
  6
CONTINUOUS
 10
-40.0
 20
21.679999999999971
 30
0.0
 11
-99.399999999999935
 21
21.679999999999961
 31
0.0
  0
LINE
  5
B6
100
AcDbEntity
100
AcDbLine
  8
SAT
 62
256
370
-1
  6
CONTINUOUS
 10
-40.0
 20
23.279999999999976
 30
0.0
 11
-99.399999999999935
 21
23.279999999999966
 31
0.0
  0
LINE
  5
B7
100
AcDbEntity
100
AcDbLine
  8
SAT
 62
256
370
-1
  6
CONTINUOUS
 10
-46.599999999999994
 20
31.359999999999982
 30
0.0
 11
-99.399999999999935
 21
31.359999999999971
 31
0.0
  0
LINE
  5
B8
100
AcDbEntity
100
AcDbLine
  8
SAT
 62
256
370
-1
  6
CONTINUOUS
 10
-46.599999999999994
 20
32.959999999999987
 30
0.0
 11
-99.399999999999935
 21
32.959999999999972
 31
0.0
  0
LINE
  5
B9
100
AcDbEntity
100
AcDbLine
  8
SAT
 62
256
370
-1
  6
CONTINUOUS
 10
-46.600000000000001
 20
41.039999999999985
 30
0.0
 11
-99.399999999999949
 21
41.039999999999964
 31
0.0
  0
LINE
  5
BA
100
AcDbEntity
100
AcDbLine
  8
SAT
 62
256
370
-1
  6
CONTINUOUS
 10
-46.600000000000001
 20
42.639999999999986
 30
0.0
 11
-99.399999999999949
 21
42.639999999999965
 31
0.0
  0
LINE
  5
BB
100
AcDbEntity
100
AcDbLine
  8
SAT
 62
256
370
-1
  6
CONTINUOUS
 10
-40.0
 20
50.719999999999978
 30
0.0
 11
-99.399999999999949
 21
50.719999999999963
 31
0.0
  0
LINE
  5
BC
100
AcDbEntity
100
AcDbLine
  8
SAT
 62
256
370
-1
  6
CONTINUOUS
 10
-40.0
 20
52.319999999999993
 30
0.0
 11
-99.399999999999949
 21
52.319999999999972
 31
0.0
  0
LINE
  5
BD
100
AcDbEntity
100
AcDbLine
  8
SAT
 62
256
370
-1
  6
CONTINUOUS
 10
-40.000000000000007
 20
52.32
 30
0.0
 11
-40.0
 21
21.679999999999975
 31
0.0
  0
LINE
  5
BE
100
AcDbEntity
100
AcDbLine
  8
SAT
 62
256
370
-1
  6
CONTINUOUS
 10
-46.599999999999994
 20
13.600000000000001
 30
0.0
 11
-46.599999999999994
 21
21.679999999999971
 31
0.0
  0
LINE
  5
BF
100
AcDbEntity
100
AcDbLine
  8
SAT
 62
256
370
-1
  6
CONTINUOUS
 10
-45.0
 20
12.0
 30
0.0
 11
-45.0
 21
21.679999999999971
 31
0.0
  0
LINE
  5
C0
100
AcDbEntity
100
AcDbLine
  8
SAT
 62
256
370
-1
  6
CONTINUOUS
 10
-46.600000000000001
 20
42.639999999999986
 30
0.0
 11
-40.000000000000007
 21
42.639999999999986
 31
0.0
  0
LINE
  5
C1
100
AcDbEntity
100
AcDbLine
  8
SAT
 62
256
370
-1
  6
CONTINUOUS
 10
-46.600000000000001
 20
41.039999999999985
 30
0.0
 11
-40.0
 21
41.039999999999985
 31
0.0
  0
LINE
  5
C2
100
AcDbEntity
100
AcDbLine
  8
SAT
 62
256
370
-1
  6
CONTINUOUS
 10
-46.599999999999994
 20
32.959999999999987
 30
0.0
 11
-40.0
 21
32.959999999999987
 31
0.0
  0
LINE
  5
C3
100
AcDbEntity
100
AcDbLine
  8
SAT
 62
256
370
-1
  6
CONTINUOUS
 10
-46.599999999999994
 20
31.359999999999982
 30
0.0
 11
-40.051937952405012
 21
31.361779133246312
 31
0.0
  0
DIMENSION
  5
C4
100
AcDbEntity
  8
COTAS
 62
256
370
-1
  6
BYLAYER
100
AcDbDimension
 10
-104.0
 20
-10.0
 30
0.0
 11
-42.5
 21
-8.125
 31
0.0
 70
0
 71
8
 72
2
 41
1.0
 42
0.0
  1

  3
Standard
100
AcDbAlignedDimension
 13
-45.0
 23
-0.0
 33
0.0
 14
-40.0
 24
0.0
 34
0.0
 50
0.0
100
AcDbRotatedDimension
1001
ACAD
1000
DSTYLE
1002
{
1070
144
1040
1
1002
}
  0
DIMENSION
  5
C5
100
AcDbEntity
  8
COTAS
 62
256
370
-1
  6
BYLAYER
100
AcDbDimension
 10
-45.000000000000007
 20
-10.0
 30
0.0
 11
-73.0
 21
-8.125
 31
0.0
 70
0
 71
8
 72
2
 41
1.0
 42
0.0
  1

  3
Standard
100
AcDbAlignedDimension
 13
-101.0
 23
-0.0
 33
0.0
 14
-45.0
 24
-0.0
 34
0.0
 50
0.0
100
AcDbRotatedDimension
1001
ACAD
1000
DSTYLE
1002
{
1070
144
1040
1
1002
}
  0
DIMENSION
  5
C6
100
AcDbEntity
  8
COTAS
 62
256
370
-1
  6
BYLAYER
100
AcDbDimension
 10
-104.0
 20
-20.0
 30
0.0
 11
-72.0
 21
-18.125
 31
0.0
 70
0
 71
8
 72
2
 41
1.0
 42
0.0
  1

  3
Standard
100
AcDbAlignedDimension
 13
-104.0
 23
-0.0
 33
0.0
 14
-40.0
 24
-10.0
 34
0.0
 50
0.0
100
AcDbRotatedDimension
1001
ACAD
1000
DSTYLE
1002
{
1070
144
1040
1
1002
}
  0
DIMENSION
  5
C7
100
AcDbEntity
  8
COTAS
 62
256
370
-1
  6
BYLAYER
100
AcDbDimension
 10
-101.0
 20
-10.0
 30
0.0
 11
-102.5
 21
-8.125
 31
0.0
 70
0
 71
8
 72
2
 41
1.0
 42
0.0
  1

  3
Standard
100
AcDbAlignedDimension
 13
-104.0
 23
-0.0
 33
0.0
 14
-101.0
 24
-10.0
 34
0.0
 50
0.0
100
AcDbRotatedDimension
1001
ACAD
1000
DSTYLE
1002
{
1070
144
1040
1
1002
}
  0
LINE
  5
C8
100
AcDbEntity
100
AcDbLine
  8
SAT
 62
256
370
-1
  6
BYLAYER
 10
21.68
 20
52.32
 30
0.0
 11
21.680000000000007
 21
21.679999999999993
 31
0.0
  0
LINE
  5
C9
100
AcDbEntity
100
AcDbLine
  8
SAT
 62
256
370
-1
  6
BYLAYER
 10
52.32
 20
52.32
 30
0.0
 11
52.320000000000007
 21
21.68
 31
0.0
  0
CIRCLE
  5
CA
100
AcDbEntity
100
AcDbCircle
  8
SAT
 62
256
370
-1
  6
DASHED2
 10
37.000000000000007
 20
37.0
 30
0.0
 40
21.665751775555826
  0
DIMENSION
  5
CB
100
AcDbEntity
  8
COTAS
 62
256
370
-1
  6
BYLAYER
100
AcDbDimension
 10
-50.388479999999973
 20
84.188159999999968
 30
0.0
 11
-72.999999999999972
 21
86.063159999999968
 31
0.0
 70
0
 71
8
 72
2
 41
1.0
 42
0.0
  1

  3
Standard
100
AcDbAlignedDimension
 13
-99.399999999999949
 23
74.0
 33
0.0
 14
-46.600000000000009
 24
74.000000000000014
 34
0.0
 50
0.0
100
AcDbRotatedDimension
1001
ACAD
1000
DSTYLE
1002
{
1070
144
1040
1
1002
}
  0
DIMENSION
  5
CC
100
AcDbEntity
  8
COTAS
 62
256
370
-1
  6
BYLAYER
100
AcDbDimension
 10
64.106311679999948
 20
-14.823475200000015
 30
0.0
 11
36.999999999999986
 21
-12.948475200000015
 31
0.0
 70
0
 71
8
 72
2
 41
1.0
 42
0.0
  1

  3
Standard
100
AcDbAlignedDimension
 13
8.9999999999999964
 23
-0.0
 33
0.0
 14
64.999999999999972
 24
-0.0
 34
0.0
 50
0.0
100
AcDbRotatedDimension
1001
ACAD
1000
DSTYLE
1002
{
1070
144
1040
1
1002
}
  0
LINE
  5
CD
100
AcDbEntity
100
AcDbLine
  8
SAT
 62
256
370
-1
  6
BYLAYER
 10
-104.0
 20
-54.0
 30
0.0
 11
-46.59999999999998
 21
-54.0
 31
0.0
  0
LINE
  5
CE
100
AcDbEntity
100
AcDbLine
  8
SAT
 62
256
370
-1
  6
BYLAYER
 10
-40.0
 20
-66.679999999999993
 30
0.0
 11
-40.0
 21
-97.320000000000007
 31
0.0
  0
LINE
  5
CF
100
AcDbEntity
100
AcDbLine
  8
SAT
 62
256
370
-1
  6
BYLAYER
 10
-46.599999999999987
 20
-110.0
 30
0.0
 11
-104.0
 21
-110.0
 31
0.0
  0
LINE
  5
D0
100
AcDbEntity
100
AcDbLine
  8
SAT
 62
256
370
-1
  6
BYLAYER
 10
-104.0
 20
-110.0
 30
0.0
 11
-104.0
 21
-54.0
 31
0.0
  0
DIMENSION
  5
D1
100
AcDbEntity
  8
COTAS
 62
256
370
-1
  6
BYLAYER
100
AcDbDimension
 10
62.0
 20
-10.0
 30
0.0
 11
63.499999999999986
 21
-8.125
 31
0.0
 70
0
 71
8
 72
2
 41
1.0
 42
0.0
  1

  3
Standard
100
AcDbAlignedDimension
 13
62.0
 23
-0.625
 33
0.0
 14
64.999999999999972
 24
-0.625
 34
0.0
 50
0.0
100
AcDbRotatedDimension
1001
ACAD
1000
DSTYLE
1002
{
1070
144
1040
1
1002
}
  0
LINE
  5
D2
100
AcDbEntity
100
AcDbLine
  8
SAT
 62
256
370
-1
  6
BYLAYER
 10
-104.0
 20
-57.0
 30
0.0
 11
-45.0
 21
-57.0
 31
0.0
  0
LINE
  5
D3
100
AcDbEntity
100
AcDbLine
  8
SAT
 62
256
370
-1
  6
BYLAYER
 10
-104.0
 20
-106.99999999999984
 30
0.0
 11
-45.0
 21
-106.99999999999984
 31
0.0
  0
LINE
  5
D4
100
AcDbEntity
100
AcDbLine
  8
SAT
 62
256
370
-1
  6
BYLAYER
 10
-99.400000000000006
 20
-58.600000000000009
 30
0.0
 11
-46.599999999999987
 21
-58.600000000000023
 31
0.0
  0
LINE
  5
D5
100
AcDbEntity
100
AcDbLine
  8
SAT
 62
256
370
-1
  6
BYLAYER
 10
-46.599999999999987
 20
-105.40000000000003
 30
0.0
 11
-99.400000000000006
 21
-105.40000000000002
 31
0.0
  0
LINE
  5
D6
100
AcDbEntity
100
AcDbLine
  8
SAT
 62
256
370
-1
  6
BYLAYER
 10
-101.0
 20
-57.0
 30
0.0
 11
-101.0
 21
-106.99999999999984
 31
0.0
  0
LINE
  5
D7
100
AcDbEntity
100
AcDbLine
  8
SAT
 62
256
370
-1
  6
BYLAYER
 10
-45.0
 20
-57.0
 30
0.0
 11
-45.0
 21
-106.99999999999986
 31
0.0
  0
LINE
  5
D8
100
AcDbEntity
100
AcDbLine
  8
SAT
 62
256
370
-1
  6
BYLAYER
 10
-99.400000000000006
 20
-57.0
 30
0.0
 11
-99.400000000000006
 21
-106.99999999999984
 31
0.0
  0
LINE
  5
D9
100
AcDbEntity
100
AcDbLine
  8
SAT
 62
256
370
-1
  6
BYLAYER
 10
-46.599999999999987
 20
-54.0
 30
0.0
 11
-46.599999999999987
 21
-110.0
 31
0.0
  0
DIMENSION
  5
DA
100
AcDbEntity
  8
COTAS
 62
256
370
-1
  6
BYLAYER
100
AcDbDimension
 10
-30.0
 20
40.0
 30
0.0
 11
-31.875
 21
36.999999999999986
 31
0.0
 70
0
 71
8
 72
2
 41
1.0
 42
0.0
  1

  3
Standard
100
AcDbAlignedDimension
 13
-40.000000000000007
 23
52.32
 33
0.0
 14
-40.0
 24
21.679999999999971
 34
0.0
 50
90.0
100
AcDbRotatedDimension
1001
ACAD
1000
DSTYLE
1002
{
1070
144
1040
1
1002
}
  0
LINE
  5
DB
100
AcDbEntity
100
AcDbLine
  8
SAT
 62
256
370
-1
  6
BYLAYER
 10
-40.0
 20
-66.680000000000007
 30
0.0
 11
-45.0
 21
-66.680000000000007
 31
0.0
  0
LINE
  5
DC
100
AcDbEntity
100
AcDbLine
  8
SAT
 62
256
370
-1
  6
BYLAYER
 10
-40.0
 20
-97.319999999999993
 30
0.0
 11
-45.0
 21
-97.319999999999993
 31
0.0
  0
LINE
  5
DD
100
AcDbEntity
100
AcDbLine
  8
SAT
 62
256
370
-1
  6
DOT2
 10
-104.0
 20
13.600000000000009
 30
0.0
 11
-232.0
 21
13.600000000000009
 31
0.0
  0
LINE
  5
DE
100
AcDbEntity
100
AcDbLine
  8
SAT
 62
256
370
-1
  6
DOT2
 10
-232.0
 20
13.600000000000009
 30
0.0
 11
-232.0
 21
12.0
 31
0.0
  0
LINE
  5
DF
100
AcDbEntity
100
AcDbLine
  8
SAT
 62
256
370
-1
  6
DOT2
 10
-232.0
 20
12.0
 30
0.0
 11
-104.0
 21
12.0
 31
0.0
  0
LINE
  5
E0
100
AcDbEntity
100
AcDbLine
  8
SAT
 62
256
370
-1
  6
CONTINUOUS
 10
-104.0
 20
12.0
 30
0.0
 11
-104.0
 21
13.600000000000009
 31
0.0
  0
DIMENSION
  5
E1
100
AcDbEntity
  8
COTAS
 62
256
370
-1
  6
BYLAYER
100
AcDbDimension
 10
-140.0
 20
-70.0
 30
0.0
 11
-141.875
 21
-82.0
 31
0.0
 70
0
 71
8
 72
2
 41
1.0
 42
0.0
  1

  3
Standard
100
AcDbAlignedDimension
 13
-104.0
 23
-54.0
 33
0.0
 14
-104.0
 24
-110.0
 34
0.0
 50
90.0
100
AcDbRotatedDimension
1001
ACAD
1000
DSTYLE
1002
{
1070
144
1040
1
1002
}
  0
DIMENSION
  5
E2
100
AcDbEntity
  8
COTAS
 62
256
370
-1
  6
BYLAYER
100
AcDbDimension
 10
-20.0
 20
-80.0
 30
0.0
 11
-21.875
 21
-82.0
 31
0.0
 70
0
 71
8
 72
2
 41
1.0
 42
0.0
  1

  3
Standard
100
AcDbAlignedDimension
 13
-40.0
 23
-66.680000000000007
 33
0.0
 14
-40.0
 24
-97.319999999999993
 34
0.0
 50
90.0
100
AcDbRotatedDimension
1001
ACAD
1000
DSTYLE
1002
{
1070
144
1040
1
1002
}
  0
DIMENSION
  5
E3
100
AcDbEntity
  8
COTAS
 62
256
370
-1
  6
BYLAYER
100
AcDbDimension
 10
-130.0
 20
-80.0
 30
0.0
 11
-131.875
 21
-81.999999999999915
 31
0.0
 70
0
 71
8
 72
2
 41
1.0
 42
0.0
  1

  3
Standard
100
AcDbAlignedDimension
 13
-104.0
 23
-57.0
 33
0.0
 14
-104.0
 24
-106.99999999999984
 34
0.0
 50
90.0
100
AcDbRotatedDimension
1001
ACAD
1000
DSTYLE
1002
{
1070
144
1040
1
1002
}
  0
DIMENSION
  5
E4
100
AcDbEntity
  8
COTAS
 62
256
370
-1
  6
BYLAYER
100
AcDbDimension
 10
-120.0
 20
-80.0
 30
0.0
 11
-121.875
 21
-82.000000000000028
 31
0.0
 70
0
 71
8
 72
2
 41
1.0
 42
0.0
  1

  3
Standard
100
AcDbAlignedDimension
 13
-104.0
 23
-58.600000000000023
 33
0.0
 14
-99.400000000000006
 24
-105.40000000000002
 34
0.0
 50
90.0
100
AcDbRotatedDimension
1001
ACAD
1000
DSTYLE
1002
{
1070
144
1040
1
1002
}
  0
DIMENSION
  5
E5
100
AcDbEntity
  8
COTAS
 62
256
370
-1
  6
BYLAYER
100
AcDbDimension
 10
-50.0
 20
-140.0
 30
0.0
 11
-73.0
 21
-138.125
 31
0.0
 70
0
 71
8
 72
2
 41
1.0
 42
0.0
  1

  3
Standard
100
AcDbAlignedDimension
 13
-101.0
 23
-106.99999999999984
 33
0.0
 14
-45.0
 24
-110.0
 34
0.0
 50
0.0
100
AcDbRotatedDimension
1001
ACAD
1000
DSTYLE
1002
{
1070
144
1040
1
1002
}
  0
DIMENSION
  5
E6
100
AcDbEntity
  8
COTAS
 62
256
370
-1
  6
BYLAYER
100
AcDbDimension
 10
-50.0
 20
-130.0
 30
0.0
 11
-73.0
 21
-128.125
 31
0.0
 70
0
 71
8
 72
2
 41
1.0
 42
0.0
  1

  3
Standard
100
AcDbAlignedDimension
 13
-99.400000000000006
 23
-105.40000000000002
 33
0.0
 14
-46.59999999999998
 24
-110.0
 34
0.0
 50
0.0
100
AcDbRotatedDimension
1001
ACAD
1000
DSTYLE
1002
{
1070
144
1040
1
1002
}
  0
DIMENSION
  5
E7
100
AcDbEntity
  8
COTAS
 62
256
370
-1
  6
BYLAYER
100
AcDbDimension
 10
-50.0
 20
-120.0
 30
0.0
 11
-69.700000000000003
 21
-118.125
 31
0.0
 70
0
 71
8
 72
2
 41
1.0
 42
0.0
  1

  3
Standard
100
AcDbAlignedDimension
 13
-99.400000000000006
 23
-105.40000000000002
 33
0.0
 14
-40.0
 24
-97.319999999999993
 34
0.0
 50
0.0
100
AcDbRotatedDimension
1001
ACAD
1000
DSTYLE
1002
{
1070
144
1040
1
1002
}
  0
LINE
  5
E8
100
AcDbEntity
100
AcDbLine
  8
SEPARADORES
 62
256
370
-1
  6
BYLAYER
 10
-99.400000000000006
 20
-105.40000000000002
 30
0.0
 11
-93.400000000000006
 21
-105.40000000000002
 31
0.0
  0
LINE
  5
E9
100
AcDbEntity
100
AcDbLine
  8
SEPARADORES
 62
256
370
-1
  6
BYLAYER
 10
-93.400000000000006
 20
-105.40000000000002
 30
0.0
 11
-93.400000000000006
 21
-99.40000000000002
 31
0.0
  0
LINE
  5
EA
100
AcDbEntity
100
AcDbLine
  8
SEPARADORES
 62
256
370
-1
  6
BYLAYER
 10
-93.400000000000006
 20
-99.40000000000002
 30
0.0
 11
-99.400000000000006
 21
-99.40000000000002
 31
0.0
  0
LINE
  5
EB
100
AcDbEntity
100
AcDbLine
  8
SEPARADORES
 62
256
370
-1
  6
BYLAYER
 10
-99.400000000000006
 20
-99.40000000000002
 30
0.0
 11
-99.400000000000006
 21
-105.40000000000002
 31
0.0
  0
CIRCLE
  5
EC
100
AcDbEntity
100
AcDbCircle
  8
SEPARADORES
 62
256
370
-1
  6
BYLAYER
 10
-96.400000000000006
 20
-102.40000000000002
 30
0.0
 40
1.5
  0
CIRCLE
  5
ED
100
AcDbEntity
100
AcDbCircle
  8
SEPARADORES
 62
256
370
-1
  6
BYLAYER
 10
-49.599999999999994
 20
-102.40000000000003
 30
0.0
 40
1.5
  0
LINE
  5
EE
100
AcDbEntity
100
AcDbLine
  8
SEPARADORES
 62
256
370
-1
  6
BYLAYER
 10
-52.599999999999994
 20
-105.40000000000003
 30
0.0
 11
-46.599999999999994
 21
-105.40000000000003
 31
0.0
  0
LINE
  5
EF
100
AcDbEntity
100
AcDbLine
  8
SEPARADORES
 62
256
370
-1
  6
BYLAYER
 10
-46.599999999999994
 20
-105.40000000000003
 30
0.0
 11
-46.599999999999994
 21
-99.400000000000034
 31
0.0
  0
LINE
  5
F0
100
AcDbEntity
100
AcDbLine
  8
SEPARADORES
 62
256
370
-1
  6
BYLAYER
 10
-46.599999999999994
 20
-99.400000000000034
 30
0.0
 11
-52.599999999999994
 21
-99.400000000000034
 31
0.0
  0
LINE
  5
F1
100
AcDbEntity
100
AcDbLine
  8
SEPARADORES
 62
256
370
-1
  6
BYLAYER
 10
-52.599999999999994
 20
-99.400000000000034
 30
0.0
 11
-52.599999999999994
 21
-105.40000000000003
 31
0.0
  0
LINE
  5
F2
100
AcDbEntity
100
AcDbLine
  8
SEPARADORES
 62
256
370
-1
  6
BYLAYER
 10
-99.400000000000006
 20
-58.600000000000016
 30
0.0
 11
-91.400000000000006
 21
-58.600000000000016
 31
0.0
  0
LINE
  5
F3
100
AcDbEntity
100
AcDbLine
  8
SEPARADORES
 62
256
370
-1
  6
BYLAYER
 10
-91.400000000000006
 20
-58.600000000000016
 30
0.0
 11
-91.400000000000006
 21
-66.600000000000023
 31
0.0
  0
LINE
  5
F4
100
AcDbEntity
100
AcDbLine
  8
SEPARADORES
 62
256
370
-1
  6
BYLAYER
 10
-91.400000000000006
 20
-66.600000000000023
 30
0.0
 11
-99.400000000000006
 21
-66.600000000000023
 31
0.0
  0
LINE
  5
F5
100
AcDbEntity
100
AcDbLine
  8
SEPARADORES
 62
256
370
-1
  6
BYLAYER
 10
-99.400000000000006
 20
-66.600000000000023
 30
0.0
 11
-99.400000000000006
 21
-58.600000000000016
 31
0.0
  0
CIRCLE
  5
F6
100
AcDbEntity
100
AcDbCircle
  8
SEPARADORES
 62
256
370
-1
  6
BYLAYER
 10
-95.400000000000006
 20
-62.600000000000023
 30
0.0
 40
1.5
  0
CIRCLE
  5
F7
100
AcDbEntity
100
AcDbCircle
  8
SEPARADORES
 62
256
370
-1
  6
BYLAYER
 10
-50.599999999999994
 20
-62.60000000000003
 30
0.0
 40
1.5
  0
LINE
  5
F8
100
AcDbEntity
100
AcDbLine
  8
SEPARADORES
 62
256
370
-1
  6
BYLAYER
 10
-54.599999999999994
 20
-58.600000000000023
 30
0.0
 11
-46.599999999999994
 21
-58.600000000000023
 31
0.0
  0
LINE
  5
F9
100
AcDbEntity
100
AcDbLine
  8
SEPARADORES
 62
256
370
-1
  6
BYLAYER
 10
-46.599999999999994
 20
-58.600000000000023
 30
0.0
 11
-46.599999999999994
 21
-66.600000000000023
 31
0.0
  0
LINE
  5
FA
100
AcDbEntity
100
AcDbLine
  8
SEPARADORES
 62
256
370
-1
  6
BYLAYER
 10
-46.599999999999994
 20
-66.600000000000023
 30
0.0
 11
-54.599999999999994
 21
-66.600000000000023
 31
0.0
  0
LINE
  5
FB
100
AcDbEntity
100
AcDbLine
  8
SEPARADORES
 62
256
370
-1
  6
BYLAYER
 10
-54.599999999999994
 20
-66.600000000000023
 30
0.0
 11
-54.599999999999994
 21
-58.600000000000023
 31
0.0
  0
LINE
  5
FC
100
AcDbEntity
100
AcDbLine
  8
SEPARADORES
 62
256
370
-1
  6
BYLAYER
 10
-91.399999999999991
 20
60.399999999999991
 30
0.0
 11
-99.399999999999949
 21
60.399999999999991
 31
0.0
  0
LINE
  5
FD
100
AcDbEntity
100
AcDbLine
  8
SEPARADORES
 62
256
370
-1
  6
BYLAYER
 10
-99.399999999999949
 20
60.399999999999991
 30
0.0
 11
-99.399999999999949
 21
52.319999999999979
 31
0.0
  0
LINE
  5
FE
100
AcDbEntity
100
AcDbLine
  8
SEPARADORES
 62
256
370
-1
  6
BYLAYER
 10
-99.399999999999949
 20
52.319999999999979
 30
0.0
 11
-91.399999999999991
 21
52.319999999999979
 31
0.0
  0
LINE
  5
FF
100
AcDbEntity
100
AcDbLine
  8
SEPARADORES
 62
256
370
-1
  6
BYLAYER
 10
-91.399999999999991
 20
52.319999999999979
 30
0.0
 11
-91.399999999999991
 21
60.399999999999991
 31
0.0
  0
LINE
  5
100
100
AcDbEntity
100
AcDbLine
  8
SEPARADORES
 62
256
370
-1
  6
BYLAYER
 10
-91.400000000000006
 20
50.719999999999956
 30
0.0
 11
-99.399999999999935
 21
50.719999999999956
 31
0.0
  0
LINE
  5
101
100
AcDbEntity
100
AcDbLine
  8
SEPARADORES
 62
256
370
-1
  6
BYLAYER
 10
-99.399999999999935
 20
50.719999999999956
 30
0.0
 11
-99.399999999999935
 21
42.639999999999958
 31
0.0
  0
LINE
  5
102
100
AcDbEntity
100
AcDbLine
  8
SEPARADORES
 62
256
370
-1
  6
BYLAYER
 10
-99.399999999999935
 20
42.639999999999958
 30
0.0
 11
-91.400000000000006
 21
42.639999999999958
 31
0.0
  0
LINE
  5
103
100
AcDbEntity
100
AcDbLine
  8
SEPARADORES
 62
256
370
-1
  6
BYLAYER
 10
-91.400000000000006
 20
42.639999999999958
 30
0.0
 11
-91.400000000000006
 21
50.719999999999956
 31
0.0
  0
LINE
  5
104
100
AcDbEntity
100
AcDbLine
  8
SEPARADORES
 62
256
370
-1
  6
BYLAYER
 10
-91.400000000000006
 20
41.039999999999971
 30
0.0
 11
-99.399999999999935
 21
41.039999999999971
 31
0.0
  0
LINE
  5
105
100
AcDbEntity
100
AcDbLine
  8
SEPARADORES
 62
256
370
-1
  6
BYLAYER
 10
-99.399999999999935
 20
41.039999999999971
 30
0.0
 11
-99.399999999999935
 21
32.959999999999972
 31
0.0
  0
LINE
  5
106
100
AcDbEntity
100
AcDbLine
  8
SEPARADORES
 62
256
370
-1
  6
BYLAYER
 10
-99.399999999999935
 20
32.959999999999972
 30
0.0
 11
-91.400000000000006
 21
32.959999999999972
 31
0.0
  0
LINE
  5
107
100
AcDbEntity
100
AcDbLine
  8
SEPARADORES
 62
256
370
-1
  6
BYLAYER
 10
-91.400000000000006
 20
32.959999999999972
 30
0.0
 11
-91.400000000000006
 21
41.039999999999971
 31
0.0
  0
LINE
  5
108
100
AcDbEntity
100
AcDbLine
  8
SEPARADORES
 62
256
370
-1
  6
BYLAYER
 10
-91.40000000000002
 20
31.359999999999978
 30
0.0
 11
-99.39999999999992
 21
31.359999999999978
 31
0.0
  0
LINE
  5
109
100
AcDbEntity
100
AcDbLine
  8
SEPARADORES
 62
256
370
-1
  6
BYLAYER
 10
-99.39999999999992
 20
31.359999999999978
 30
0.0
 11
-99.39999999999992
 21
23.279999999999966
 31
0.0
  0
LINE
  5
10A
100
AcDbEntity
100
AcDbLine
  8
SEPARADORES
 62
256
370
-1
  6
BYLAYER
 10
-99.39999999999992
 20
23.279999999999966
 30
0.0
 11
-91.40000000000002
 21
23.279999999999966
 31
0.0
  0
LINE
  5
10B
100
AcDbEntity
100
AcDbLine
  8
SEPARADORES
 62
256
370
-1
  6
BYLAYER
 10
-91.40000000000002
 20
23.279999999999966
 30
0.0
 11
-91.40000000000002
 21
31.359999999999978
 31
0.0
  0
LINE
  5
10C
100
AcDbEntity
100
AcDbLine
  8
SEPARADORES
 62
256
370
-1
  6
BYLAYER
 10
-91.400000000000006
 20
21.679999999999964
 30
0.0
 11
-99.39999999999992
 21
21.679999999999964
 31
0.0
  0
LINE
  5
10D
100
AcDbEntity
100
AcDbLine
  8
SEPARADORES
 62
256
370
-1
  6
BYLAYER
 10
-99.39999999999992
 20
21.679999999999964
 30
0.0
 11
-99.39999999999992
 21
13.600000000000007
 31
0.0
  0
LINE
  5
10E
100
AcDbEntity
100
AcDbLine
  8
SEPARADORES
 62
256
370
-1
  6
BYLAYER
 10
-99.39999999999992
 20
13.600000000000007
 30
0.0
 11
-91.400000000000006
 21
13.600000000000007
 31
0.0
  0
LINE
  5
10F
100
AcDbEntity
100
AcDbLine
  8
SEPARADORES
 62
256
370
-1
  6
BYLAYER
 10
-91.400000000000006
 20
13.600000000000007
 30
0.0
 11
-91.400000000000006
 21
21.679999999999964
 31
0.0
  0
LINE
  5
110
100
AcDbEntity
100
AcDbLine
  8
SEPARADORES
 62
256
370
-1
  6
BYLAYER
 10
-46.600000000000001
 20
60.399999999999991
 30
0.0
 11
-54.599999999999994
 21
60.399999999999991
 31
0.0
  0
LINE
  5
111
100
AcDbEntity
100
AcDbLine
  8
SEPARADORES
 62
256
370
-1
  6
BYLAYER
 10
-54.599999999999994
 20
60.399999999999991
 30
0.0
 11
-54.599999999999994
 21
52.319999999999993
 31
0.0
  0
LINE
  5
112
100
AcDbEntity
100
AcDbLine
  8
SEPARADORES
 62
256
370
-1
  6
BYLAYER
 10
-54.599999999999994
 20
52.319999999999993
 30
0.0
 11
-46.600000000000001
 21
52.319999999999993
 31
0.0
  0
LINE
  5
113
100
AcDbEntity
100
AcDbLine
  8
SEPARADORES
 62
256
370
-1
  6
BYLAYER
 10
-46.600000000000001
 20
52.319999999999993
 30
0.0
 11
-46.600000000000001
 21
60.399999999999991
 31
0.0
  0
LINE
  5
114
100
AcDbEntity
100
AcDbLine
  8
SEPARADORES
 62
256
370
-1
  6
BYLAYER
 10
-46.600000000000001
 20
50.719999999999978
 30
0.0
 11
-54.599999999999994
 21
50.719999999999978
 31
0.0
  0
LINE
  5
115
100
AcDbEntity
100
AcDbLine
  8
SEPARADORES
 62
256
370
-1
  6
BYLAYER
 10
-54.599999999999994
 20
50.719999999999978
 30
0.0
 11
-54.599999999999994
 21
42.639999999999993
 31
0.0
  0
LINE
  5
116
100
AcDbEntity
100
AcDbLine
  8
SEPARADORES
 62
256
370
-1
  6
BYLAYER
 10
-54.599999999999994
 20
42.639999999999993
 30
0.0
 11
-46.600000000000001
 21
42.639999999999993
 31
0.0
  0
LINE
  5
117
100
AcDbEntity
100
AcDbLine
  8
SEPARADORES
 62
256
370
-1
  6
BYLAYER
 10
-46.600000000000001
 20
42.639999999999993
 30
0.0
 11
-46.600000000000001
 21
50.719999999999978
 31
0.0
  0
LINE
  5
118
100
AcDbEntity
100
AcDbLine
  8
SEPARADORES
 62
256
370
-1
  6
BYLAYER
 10
-46.600000000000001
 20
41.039999999999992
 30
0.0
 11
-54.599999999999994
 21
41.039999999999992
 31
0.0
  0
LINE
  5
119
100
AcDbEntity
100
AcDbLine
  8
SEPARADORES
 62
256
370
-1
  6
BYLAYER
 10
-54.599999999999994
 20
41.039999999999992
 30
0.0
 11
-54.599999999999994
 21
32.959999999999987
 31
0.0
  0
LINE
  5
11A
100
AcDbEntity
100
AcDbLine
  8
SEPARADORES
 62
256
370
-1
  6
BYLAYER
 10
-54.599999999999994
 20
32.959999999999987
 30
0.0
 11
-46.600000000000001
 21
32.959999999999987
 31
0.0
  0
LINE
  5
11B
100
AcDbEntity
100
AcDbLine
  8
SEPARADORES
 62
256
370
-1
  6
BYLAYER
 10
-46.600000000000001
 20
32.959999999999987
 30
0.0
 11
-46.600000000000001
 21
41.039999999999992
 31
0.0
  0
LINE
  5
11C
100
AcDbEntity
100
AcDbLine
  8
SEPARADORES
 62
256
370
-1
  6
BYLAYER
 10
-46.60000000001817
 20
31.359999999999985
 30
0.0
 11
-54.599999999999994
 21
31.359999999999985
 31
0.0
  0
LINE
  5
11D
100
AcDbEntity
100
AcDbLine
  8
SEPARADORES
 62
256
370
-1
  6
BYLAYER
 10
-54.599999999999994
 20
31.359999999999985
 30
0.0
 11
-54.599999999999994
 21
23.279999999999976
 31
0.0
  0
LINE
  5
11E
100
AcDbEntity
100
AcDbLine
  8
SEPARADORES
 62
256
370
-1
  6
BYLAYER
 10
-54.599999999999994
 20
23.279999999999976
 30
0.0
 11
-46.60000000001817
 21
23.279999999999976
 31
0.0
  0
LINE
  5
11F
100
AcDbEntity
100
AcDbLine
  8
SEPARADORES
 62
256
370
-1
  6
BYLAYER
 10
-46.60000000001817
 20
23.279999999999976
 30
0.0
 11
-46.60000000001817
 21
31.359999999999985
 31
0.0
  0
LINE
  5
120
100
AcDbEntity
100
AcDbLine
  8
SEPARADORES
 62
256
370
-1
  6
BYLAYER
 10
-46.599999999999987
 20
21.679999999999971
 30
0.0
 11
-54.599999999999987
 21
21.679999999999971
 31
0.0
  0
LINE
  5
121
100
AcDbEntity
100
AcDbLine
  8
SEPARADORES
 62
256
370
-1
  6
BYLAYER
 10
-54.599999999999987
 20
21.679999999999971
 30
0.0
 11
-54.599999999999987
 21
13.600000000000003
 31
0.0
  0
LINE
  5
122
100
AcDbEntity
100
AcDbLine
  8
SEPARADORES
 62
256
370
-1
  6
BYLAYER
 10
-54.599999999999987
 20
13.600000000000003
 30
0.0
 11
-46.599999999999987
 21
13.600000000000003
 31
0.0
  0
LINE
  5
123
100
AcDbEntity
100
AcDbLine
  8
SEPARADORES
 62
256
370
-1
  6
BYLAYER
 10
-46.599999999999987
 20
13.600000000000003
 30
0.0
 11
-46.599999999999987
 21
21.679999999999971
 31
0.0
  0
LINE
  5
124
100
AcDbEntity
100
AcDbLine
  8
SEPARADORES
 62
256
370
-1
  6
BYLAYER
 10
-96.900000000000006
 20
9.0
 30
0.0
 11
-93.900000000000006
 21
9.0
 31
0.0
  0
LINE
  5
125
100
AcDbEntity
100
AcDbLine
  8
SEPARADORES
 62
256
370
-1
  6
BYLAYER
 10
-93.900000000000006
 20
9.0
 30
0.0
 11
-96.900000000000006
 21
9.0
 31
0.0
  0
LINE
  5
126
100
AcDbEntity
100
AcDbLine
  8
SEPARADORES
 62
256
370
-1
  6
BYLAYER
 10
-96.900000000000006
 20
9.0
 30
0.0
 11
-96.900000000000006
 21
65.0
 31
0.0
  0
LINE
  5
127
100
AcDbEntity
100
AcDbLine
  8
SEPARADORES
 62
256
370
-1
  6
BYLAYER
 10
-96.900000000000006
 20
65.0
 30
0.0
 11
-93.900000000000006
 21
65.0
 31
0.0
  0
LINE
  5
128
100
AcDbEntity
100
AcDbLine
  8
SEPARADORES
 62
256
370
-1
  6
BYLAYER
 10
-93.900000000000006
 20
65.0
 30
0.0
 11
-93.900000000000006
 21
9.0
 31
0.0
  0
LINE
  5
129
100
AcDbEntity
100
AcDbLine
  8
SEPARADORES
 62
256
370
-1
  6
BYLAYER
 10
-52.099999999999994
 20
9.0
 30
0.0
 11
-49.099999999999994
 21
9.0
 31
0.0
  0
LINE
  5
12A
100
AcDbEntity
100
AcDbLine
  8
SEPARADORES
 62
256
370
-1
  6
BYLAYER
 10
-49.099999999999994
 20
9.0
 30
0.0
 11
-52.099999999999994
 21
9.0
 31
0.0
  0
LINE
  5
12B
100
AcDbEntity
100
AcDbLine
  8
SEPARADORES
 62
256
370
-1
  6
BYLAYER
 10
-52.099999999999994
 20
9.0
 30
0.0
 11
-52.099999999999994
 21
65.0
 31
0.0
  0
LINE
  5
12C
100
AcDbEntity
100
AcDbLine
  8
SEPARADORES
 62
256
370
-1
  6
BYLAYER
 10
-52.099999999999994
 20
65.0
 30
0.0
 11
-49.099999999999994
 21
65.0
 31
0.0
  0
LINE
  5
12D
100
AcDbEntity
100
AcDbLine
  8
SEPARADORES
 62
256
370
-1
  6
BYLAYER
 10
-49.099999999999994
 20
65.0
 30
0.0
 11
-49.099999999999994
 21
9.0
 31
0.0
  0
DIMENSION
  5
12E
100
AcDbEntity
  8
COTAS
 62
256
370
-1
  6
BYLAYER
100
AcDbDimension
 10
-110.0
 20
-60.0
 30
0.0
 11
-111.875
 21
-62.600000000000023
 31
0.0
 70
0
 71
8
 72
2
 41
1.0
 42
0.0
  1

  3
Standard
100
AcDbAlignedDimension
 13
-104.0
 23
-58.60000000000003
 33
0.0
 14
-104.0
 24
-66.600000000000023
 34
0.0
 50
90.0
100
AcDbRotatedDimension
1001
ACAD
1000
DSTYLE
1002
{
1070
144
1040
1
1002
}
  0
DIMENSION
  5
12F
100
AcDbEntity
  8
COTAS
 62
256
370
-1
  6
BYLAYER
100
AcDbDimension
 10
-110.0
 20
-66.600000000000023
 30
0.0
 11
-111.875
 21
-83.000000000000028
 31
0.0
 70
0
 71
8
 72
2
 41
1.0
 42
0.0
  1

  3
Standard
100
AcDbAlignedDimension
 13
-104.625
 23
-66.600000000000023
 33
0.0
 14
-104.0
 24
-99.40000000000002
 34
0.0
 50
90.0
100
AcDbRotatedDimension
1001
ACAD
1000
DSTYLE
1002
{
1070
144
1040
1
1002
}
  0
DIMENSION
  5
130
100
AcDbEntity
  8
COTAS
 62
256
370
-1
  6
BYLAYER
100
AcDbDimension
 10
-60.55999373764007
 20
-43.402550032532957
 30
0.0
 11
-72.999999999999986
 21
-41.527550032532957
 31
0.0
 70
0
 71
8
 72
2
 41
1.0
 42
0.0
  1

  3
Standard
100
AcDbAlignedDimension
 13
-91.399999999999991
 23
-54.0
 33
0.0
 14
-54.599999999999987
 24
-54.0
 34
0.0
 50
0.0
100
AcDbRotatedDimension
1001
ACAD
1000
DSTYLE
1002
{
1070
144
1040
1
1002
}
  0
DIMENSION
  5
131
100
AcDbEntity
  8
COTAS
 62
256
370
-1
  6
BYLAYER
100
AcDbDimension
 10
-40.0
 20
-30.0
 30
0.0
 11
-136.0
 21
-28.125
 31
0.0
 70
0
 71
8
 72
2
 41
1.0
 42
0.0
  1

  3
Standard
100
AcDbAlignedDimension
 13
-232.0
 23
-0.625
 33
0.0
 14
-40.0
 24
0.0
 34
0.0
 50
0.0
100
AcDbRotatedDimension
1001
ACAD
1000
DSTYLE
1002
{
1070
144
1040
1
1002
}
  0
DIMENSION
  5
132
100
AcDbEntity
  8
COTAS
 62
256
370
-1
  6
BYLAYER
100
AcDbDimension
 10
-230.0
 20
-40.0
 30
0.0
 11
-168.0
 21
-38.125
 31
0.0
 70
0
 71
8
 72
2
 41
1.0
 42
0.0
  1

  3
Standard
100
AcDbAlignedDimension
 13
-232.00000000000003
 23
-20.0
 33
0.0
 14
-104.0
 24
-20.0
 34
0.0
 50
0.0
100
AcDbRotatedDimension
1001
ACAD
1000
DSTYLE
1002
{
1070
144
1040
1
1002
}
  0
DIMENSION
  5
133
100
AcDbEntity
  8
COTAS
 62
256
370
-1
  6
BYLAYER
100
AcDbDimension
 10
-56.502228769624708
 20
93.74950807027119
 30
0.0
 11
-87.999999999999986
 21
95.62450807027119
 31
0.0
 70
0
 71
8
 72
2
 41
1.0
 42
0.0
  1

  3
Standard
100
AcDbAlignedDimension
 13
-40.0
 23
74.0
 33
0.0
 14
-135.99999999999997
 24
73.999999999999986
 34
0.0
 50
0.0
100
AcDbRotatedDimension
1001
ACAD
1000
DSTYLE
1002
{
1070
144
1040
1
1002
}
  0
DIMENSION
  5
134
100
AcDbEntity
  8
COTAS
 62
256
370
-1
  6
BYLAYER
100
AcDbDimension
 10
-30.0
 20
70.0
 30
0.0
 11
-31.875
 21
69.5
 31
0.0
 70
0
 71
8
 72
2
 41
1.0
 42
0.0
  1

  3
Standard
100
AcDbAlignedDimension
 13
-40.0
 23
74.0
 33
0.0
 14
-40.0
 24
65.0
 34
0.0
 50
90.0
100
AcDbRotatedDimension
1001
ACAD
1000
DSTYLE
1002
{
1070
144
1040
1
1002
}
  0
DIMENSION
  5
135
100
AcDbEntity
  8
COTAS
 62
256
370
-1
  6
BYLAYER
100
AcDbDimension
 10
-29.999999999999996
 20
64.999999999999986
 30
0.0
 11
-31.874999999999996
 21
63.499999999999986
 31
0.0
 70
0
 71
8
 72
2
 41
1.0
 42
0.0
  1

  3
Standard
100
AcDbAlignedDimension
 13
-29.999999999999996
 23
64.999999999999986
 33
0.0
 14
-40.0
 24
61.999999999999986
 34
0.0
 50
90.0
100
AcDbRotatedDimension
1001
ACAD
1000
DSTYLE
1002
{
1070
144
1040
1
1002
}
  0
DIMENSION
  5
136
100
AcDbEntity
  8
COTAS
 62
256
370
-1
  6
BYLAYER
100
AcDbDimension
 10
-30.0
 20
21.679999999999971
 30
0.0
 11
-31.875
 21
4.5
 31
0.0
 70
0
 71
8
 72
2
 41
1.0
 42
0.0
  1

  3
Standard
100
AcDbAlignedDimension
 13
-40.0
 23
9.0
 33
0.0
 14
-40.0
 24
0.0
 34
0.0
 50
90.0
100
AcDbRotatedDimension
1001
ACAD
1000
DSTYLE
1002
{
1070
144
1040
1
1002
}
  0
DIMENSION
  5
137
100
AcDbEntity
  8
COTAS
 62
256
370
-1
  6
BYLAYER
100
AcDbDimension
 10
-30.0
 20
9.0
 30
0.0
 11
-31.875
 21
10.5
 31
0.0
 70
0
 71
8
 72
2
 41
1.0
 42
0.0
  1

  3
Standard
100
AcDbAlignedDimension
 13
-40.000000000000007
 23
12.0
 33
0.0
 14
-40.0
 24
9.0
 34
0.0
 50
90.0
100
AcDbRotatedDimension
1001
ACAD
1000
DSTYLE
1002
{
1070
144
1040
1
1002
}
  0
DIMENSION
  5
138
100
AcDbEntity
  8
COTAS
 62
256
370
-1
  6
BYLAYER
100
AcDbDimension
 10
-30.0
 20
21.679999999999978
 30
0.0
 11
-31.875
 21
16.839999999999979
 31
0.0
 70
0
 71
8
 72
2
 41
1.0
 42
0.0
  1

  3
Standard
100
AcDbAlignedDimension
 13
-40.0
 23
21.679999999999971
 33
0.0
 14
-30.0
 24
11.999999999999986
 34
0.0
 50
90.0
100
AcDbRotatedDimension
1001
ACAD
1000
DSTYLE
1002
{
1070
144
1040
1
1002
}
  0
DIMENSION
  5
139
100
AcDbEntity
  8
COTAS
 62
256
370
-1
  6
BYLAYER
100
AcDbDimension
 10
-30.000000000000004
 20
52.32
 30
0.0
 11
-31.875000000000004
 21
57.159999999999997
 31
0.0
 70
0
 71
8
 72
2
 41
1.0
 42
0.0
  1

  3
Standard
100
AcDbAlignedDimension
 13
-29.999999999999996
 23
62.0
 33
0.0
 14
-30.000000000000004
 24
52.32
 34
0.0
 50
90.0
100
AcDbRotatedDimension
1001
ACAD
1000
DSTYLE
1002
{
1070
144
1040
1
1002
}
  0
DIMENSION
  5
13A
100
AcDbEntity
  8
COTAS
 62
256
370
-1
  6
BYLAYER
100
AcDbDimension
 10
-23.126106204203154
 20
38.178169010098436
 30
0.0
 11
-25.001106204203154
 21
37.000000000000014
 31
0.0
 70
0
 71
8
 72
2
 41
1.0
 42
0.0
  1

  3
Standard
100
AcDbAlignedDimension
 13
-29.999999999999996
 23
62.000000000000021
 33
0.0
 14
-30.0
 24
12.000000000000002
 34
0.0
 50
90.0
100
AcDbRotatedDimension
1001
ACAD
1000
DSTYLE
1002
{
1070
144
1040
1
1002
}
  0
MTEXT
  5
13B
100
AcDbEntity
100
AcDbMText
  8
0
 62
256
370
-1
  6
BYLAYER
 10
40.0
 20
-130.0
 30
0.0
 40
5.0
 41
0.0
 71
5
 72
1
  1
PICOSAT 1P 166.04 29NOV2016
  7
textstyle0
 50
0.0
 73
2
 44
1.0
  0
DIMENSION
  5
13C
100
AcDbEntity
  8
COTAS
 62
256
370
-1
  6
BYLAYER
100
AcDbDimension
 10
-23.126106204203154
 20
12.0
 30
0.0
 11
-25.001106204203154
 21
6.0000000000000009
 31
0.0
 70
0
 71
8
 72
2
 41
1.0
 42
0.0
  1

  3
Standard
100
AcDbAlignedDimension
 13
-39.999999999999993
 23
12.000000000000002
 33
0.0
 14
-40.0
 24
0.0
 34
0.0
 50
90.0
100
AcDbRotatedDimension
1001
ACAD
1000
DSTYLE
1002
{
1070
144
1040
1
1002
}
  0
LINE
  5
13D
100
AcDbEntity
100
AcDbLine
  8
SEPARADORES
 62
256
370
-1
  6
BYLAYER
 10
13.599999999999994
 20
32.960000000000001
 30
0.0
 11
21.599999999999987
 21
32.960000000000001
 31
0.0
  0
LINE
  5
13E
100
AcDbEntity
100
AcDbLine
  8
SEPARADORES
 62
256
370
-1
  6
BYLAYER
 10
21.599999999999987
 20
32.960000000000001
 30
0.0
 11
21.599999999999987
 21
41.040000000000006
 31
0.0
  0
LINE
  5
13F
100
AcDbEntity
100
AcDbLine
  8
SEPARADORES
 62
256
370
-1
  6
BYLAYER
 10
21.599999999981819
 20
31.359999999999999
 30
0.0
 11
13.599999999999994
 21
31.359999999999999
 31
0.0
  0
LINE
  5
140
100
AcDbEntity
100
AcDbLine
  8
SEPARADORES
 62
256
370
-1
  6
BYLAYER
 10
13.599999999999994
 20
31.359999999999999
 30
0.0
 11
13.599999999999994
 21
23.27999999999999
 31
0.0
  0
LINE
  5
141
100
AcDbEntity
100
AcDbLine
  8
SEPARADORES
 62
256
370
-1
  6
BYLAYER
 10
13.599999999999994
 20
23.27999999999999
 30
0.0
 11
21.599999999981819
 21
23.27999999999999
 31
0.0
  0
LINE
  5
142
100
AcDbEntity
100
AcDbLine
  8
SEPARADORES
 62
256
370
-1
  6
BYLAYER
 10
21.599999999981819
 20
23.27999999999999
 30
0.0
 11
21.599999999981819
 21
31.359999999999999
 31
0.0
  0
LINE
  5
143
100
AcDbEntity
100
AcDbLine
  8
SEPARADORES
 62
256
370
-1
  6
BYLAYER
 10
21.600000000000001
 20
21.679999999999986
 30
0.0
 11
13.600000000000001
 21
21.679999999999986
 31
0.0
  0
LINE
  5
144
100
AcDbEntity
100
AcDbLine
  8
SEPARADORES
 62
256
370
-1
  6
BYLAYER
 10
13.600000000000001
 20
21.679999999999986
 30
0.0
 11
13.600000000000001
 21
13.600000000000017
 31
0.0
  0
LINE
  5
145
100
AcDbEntity
100
AcDbLine
  8
SEPARADORES
 62
256
370
-1
  6
BYLAYER
 10
13.600000000000001
 20
13.600000000000017
 30
0.0
 11
21.600000000000001
 21
13.600000000000017
 31
0.0
  0
LINE
  5
146
100
AcDbEntity
100
AcDbLine
  8
SEPARADORES
 62
256
370
-1
  6
BYLAYER
 10
21.600000000000001
 20
13.600000000000017
 30
0.0
 11
21.600000000000001
 21
21.679999999999986
 31
0.0
  0
LINE
  5
147
100
AcDbEntity
100
AcDbLine
  8
SEPARADORES
 62
256
370
-1
  6
BYLAYER
 10
16.099999999999994
 20
9.0000000000000142
 30
0.0
 11
19.099999999999994
 21
9.0000000000000142
 31
0.0
  0
LINE
  5
148
100
AcDbEntity
100
AcDbLine
  8
SEPARADORES
 62
256
370
-1
  6
BYLAYER
 10
19.099999999999994
 20
9.0000000000000142
 30
0.0
 11
16.099999999999994
 21
9.0000000000000142
 31
0.0
  0
LINE
  5
149
100
AcDbEntity
100
AcDbLine
  8
SEPARADORES
 62
256
370
-1
  6
BYLAYER
 10
16.099999999999994
 20
9.0000000000000142
 30
0.0
 11
16.099999999999994
 21
65.000000000000014
 31
0.0
  0
LINE
  5
14A
100
AcDbEntity
100
AcDbLine
  8
SEPARADORES
 62
256
370
-1
  6
BYLAYER
 10
16.099999999999994
 20
65.000000000000014
 30
0.0
 11
19.099999999999994
 21
65.000000000000014
 31
0.0
  0
LINE
  5
14B
100
AcDbEntity
100
AcDbLine
  8
SEPARADORES
 62
256
370
-1
  6
BYLAYER
 10
19.099999999999994
 20
65.000000000000014
 30
0.0
 11
19.099999999999994
 21
9.0000000000000142
 31
0.0
  0
LINE
  5
14C
100
AcDbEntity
100
AcDbLine
  8
SEPARADORES
 62
256
370
-1
  6
BYLAYER
 10
21.599999999999987
 20
60.400000000000006
 30
0.0
 11
13.599999999999994
 21
60.400000000000006
 31
0.0
  0
LINE
  5
14D
100
AcDbEntity
100
AcDbLine
  8
SEPARADORES
 62
256
370
-1
  6
BYLAYER
 10
13.599999999999994
 20
60.400000000000006
 30
0.0
 11
13.599999999999994
 21
52.320000000000007
 31
0.0
  0
LINE
  5
14E
100
AcDbEntity
100
AcDbLine
  8
SEPARADORES
 62
256
370
-1
  6
BYLAYER
 10
13.599999999999994
 20
52.320000000000007
 30
0.0
 11
21.599999999999987
 21
52.320000000000007
 31
0.0
  0
LINE
  5
14F
100
AcDbEntity
100
AcDbLine
  8
SEPARADORES
 62
256
370
-1
  6
BYLAYER
 10
21.599999999999987
 20
52.320000000000007
 30
0.0
 11
21.599999999999987
 21
60.400000000000006
 31
0.0
  0
LINE
  5
150
100
AcDbEntity
100
AcDbLine
  8
SEPARADORES
 62
256
370
-1
  6
BYLAYER
 10
21.599999999999987
 20
50.719999999999992
 30
0.0
 11
13.599999999999994
 21
50.719999999999992
 31
0.0
  0
LINE
  5
151
100
AcDbEntity
100
AcDbLine
  8
SEPARADORES
 62
256
370
-1
  6
BYLAYER
 10
13.599999999999994
 20
50.719999999999992
 30
0.0
 11
13.599999999999994
 21
42.640000000000008
 31
0.0
  0
LINE
  5
152
100
AcDbEntity
100
AcDbLine
  8
SEPARADORES
 62
256
370
-1
  6
BYLAYER
 10
13.599999999999994
 20
42.640000000000008
 30
0.0
 11
21.599999999999987
 21
42.640000000000008
 31
0.0
  0
LINE
  5
153
100
AcDbEntity
100
AcDbLine
  8
SEPARADORES
 62
256
370
-1
  6
BYLAYER
 10
21.599999999999987
 20
42.640000000000008
 30
0.0
 11
21.599999999999987
 21
50.719999999999992
 31
0.0
  0
LINE
  5
154
100
AcDbEntity
100
AcDbLine
  8
SEPARADORES
 62
256
370
-1
  6
BYLAYER
 10
21.599999999999987
 20
41.040000000000006
 30
0.0
 11
13.599999999999994
 21
41.040000000000006
 31
0.0
  0
LINE
  5
155
100
AcDbEntity
100
AcDbLine
  8
SEPARADORES
 62
256
370
-1
  6
BYLAYER
 10
13.599999999999994
 20
41.040000000000006
 30
0.0
 11
13.599999999999994
 21
32.960000000000001
 31
0.0
  0
LINE
  5
156
100
AcDbEntity
100
AcDbLine
  8
SEPARADORES
 62
256
370
-1
  6
BYLAYER
 10
52.399999999999991
 20
32.960000000000001
 30
0.0
 11
60.399999999999984
 21
32.960000000000001
 31
0.0
  0
LINE
  5
157
100
AcDbEntity
100
AcDbLine
  8
SEPARADORES
 62
256
370
-1
  6
BYLAYER
 10
60.399999999999984
 20
32.960000000000001
 30
0.0
 11
60.399999999999984
 21
41.040000000000006
 31
0.0
  0
LINE
  5
158
100
AcDbEntity
100
AcDbLine
  8
SEPARADORES
 62
256
370
-1
  6
BYLAYER
 10
60.399999999981816
 20
31.359999999999999
 30
0.0
 11
52.399999999999991
 21
31.359999999999999
 31
0.0
  0
LINE
  5
159
100
AcDbEntity
100
AcDbLine
  8
SEPARADORES
 62
256
370
-1
  6
BYLAYER
 10
52.399999999999991
 20
31.359999999999999
 30
0.0
 11
52.399999999999991
 21
23.27999999999999
 31
0.0
  0
LINE
  5
15A
100
AcDbEntity
100
AcDbLine
  8
SEPARADORES
 62
256
370
-1
  6
BYLAYER
 10
52.399999999999991
 20
23.27999999999999
 30
0.0
 11
60.399999999981816
 21
23.27999999999999
 31
0.0
  0
LINE
  5
15B
100
AcDbEntity
100
AcDbLine
  8
SEPARADORES
 62
256
370
-1
  6
BYLAYER
 10
60.399999999981816
 20
23.27999999999999
 30
0.0
 11
60.399999999981816
 21
31.359999999999999
 31
0.0
  0
LINE
  5
15C
100
AcDbEntity
100
AcDbLine
  8
SEPARADORES
 62
256
370
-1
  6
BYLAYER
 10
60.399999999999999
 20
21.679999999999986
 30
0.0
 11
52.399999999999999
 21
21.679999999999986
 31
0.0
  0
LINE
  5
15D
100
AcDbEntity
100
AcDbLine
  8
SEPARADORES
 62
256
370
-1
  6
BYLAYER
 10
52.399999999999999
 20
21.679999999999986
 30
0.0
 11
52.399999999999999
 21
13.600000000000017
 31
0.0
  0
LINE
  5
15E
100
AcDbEntity
100
AcDbLine
  8
SEPARADORES
 62
256
370
-1
  6
BYLAYER
 10
52.399999999999999
 20
13.600000000000017
 30
0.0
 11
60.399999999999999
 21
13.600000000000017
 31
0.0
  0
LINE
  5
15F
100
AcDbEntity
100
AcDbLine
  8
SEPARADORES
 62
256
370
-1
  6
BYLAYER
 10
60.399999999999999
 20
13.600000000000017
 30
0.0
 11
60.399999999999999
 21
21.679999999999986
 31
0.0
  0
LINE
  5
160
100
AcDbEntity
100
AcDbLine
  8
SEPARADORES
 62
256
370
-1
  6
BYLAYER
 10
54.899999999999991
 20
9.0000000000000142
 30
0.0
 11
57.899999999999991
 21
9.0000000000000142
 31
0.0
  0
LINE
  5
161
100
AcDbEntity
100
AcDbLine
  8
SEPARADORES
 62
256
370
-1
  6
BYLAYER
 10
57.899999999999991
 20
9.0000000000000142
 30
0.0
 11
54.899999999999991
 21
9.0000000000000142
 31
0.0
  0
LINE
  5
162
100
AcDbEntity
100
AcDbLine
  8
SEPARADORES
 62
256
370
-1
  6
BYLAYER
 10
54.899999999999991
 20
9.0000000000000142
 30
0.0
 11
54.899999999999991
 21
65.000000000000014
 31
0.0
  0
LINE
  5
163
100
AcDbEntity
100
AcDbLine
  8
SEPARADORES
 62
256
370
-1
  6
BYLAYER
 10
54.899999999999991
 20
65.000000000000014
 30
0.0
 11
57.899999999999991
 21
65.000000000000014
 31
0.0
  0
LINE
  5
164
100
AcDbEntity
100
AcDbLine
  8
SEPARADORES
 62
256
370
-1
  6
BYLAYER
 10
57.899999999999991
 20
65.000000000000014
 30
0.0
 11
57.899999999999991
 21
9.0000000000000142
 31
0.0
  0
LINE
  5
165
100
AcDbEntity
100
AcDbLine
  8
SEPARADORES
 62
256
370
-1
  6
BYLAYER
 10
60.399999999999984
 20
60.400000000000006
 30
0.0
 11
52.399999999999991
 21
60.400000000000006
 31
0.0
  0
LINE
  5
166
100
AcDbEntity
100
AcDbLine
  8
SEPARADORES
 62
256
370
-1
  6
BYLAYER
 10
52.399999999999991
 20
60.400000000000006
 30
0.0
 11
52.399999999999991
 21
52.320000000000007
 31
0.0
  0
LINE
  5
167
100
AcDbEntity
100
AcDbLine
  8
SEPARADORES
 62
256
370
-1
  6
BYLAYER
 10
52.399999999999991
 20
52.320000000000007
 30
0.0
 11
60.399999999999984
 21
52.320000000000007
 31
0.0
  0
LINE
  5
168
100
AcDbEntity
100
AcDbLine
  8
SEPARADORES
 62
256
370
-1
  6
BYLAYER
 10
60.399999999999984
 20
52.320000000000007
 30
0.0
 11
60.399999999999984
 21
60.400000000000006
 31
0.0
  0
LINE
  5
169
100
AcDbEntity
100
AcDbLine
  8
SEPARADORES
 62
256
370
-1
  6
BYLAYER
 10
60.399999999999984
 20
50.719999999999992
 30
0.0
 11
52.399999999999991
 21
50.719999999999992
 31
0.0
  0
LINE
  5
16A
100
AcDbEntity
100
AcDbLine
  8
SEPARADORES
 62
256
370
-1
  6
BYLAYER
 10
52.399999999999991
 20
50.719999999999992
 30
0.0
 11
52.399999999999991
 21
42.640000000000008
 31
0.0
  0
LINE
  5
16B
100
AcDbEntity
100
AcDbLine
  8
SEPARADORES
 62
256
370
-1
  6
BYLAYER
 10
52.399999999999991
 20
42.640000000000008
 30
0.0
 11
60.399999999999984
 21
42.640000000000008
 31
0.0
  0
LINE
  5
16C
100
AcDbEntity
100
AcDbLine
  8
SEPARADORES
 62
256
370
-1
  6
BYLAYER
 10
60.399999999999984
 20
42.640000000000008
 30
0.0
 11
60.399999999999984
 21
50.719999999999992
 31
0.0
  0
LINE
  5
16D
100
AcDbEntity
100
AcDbLine
  8
SEPARADORES
 62
256
370
-1
  6
BYLAYER
 10
60.399999999999984
 20
41.040000000000006
 30
0.0
 11
52.399999999999991
 21
41.040000000000006
 31
0.0
  0
LINE
  5
16E
100
AcDbEntity
100
AcDbLine
  8
SEPARADORES
 62
256
370
-1
  6
BYLAYER
 10
52.399999999999991
 20
41.040000000000006
 30
0.0
 11
52.399999999999991
 21
32.960000000000001
 31
0.0
  0
LINE
  5
16F
100
AcDbEntity
100
AcDbLine
  8
LANZADOR
 62
256
370
-1
  6
DOT
 10
-39.375000000000007
 20
12.0
 30
0.0
 11
-260.0
 21
12.0
 31
0.0
  0
LINE
  5
170
100
AcDbEntity
100
AcDbLine
  8
LANZADOR
 62
256
370
-1
  6
DOT2
 10
-40.0
 20
13.600000000000009
 30
0.0
 11
-260.0
 21
13.600000000000009
 31
0.0
  0
ENDSEC
  0
SECTION
  2
OBJECTS
  0
DICTIONARY
  5
C
100
AcDbDictionary
280
0
281
1
  3
ACAD_GROUP
350
D
  3
ACAD_LAYOUT
350
1A
  3
ACAD_MLINESTYLE
350
17
  3
ACAD_PLOTSETTINGS
350
19
  3
ACAD_PLOTSTYLENAME
350
E
  3
AcDbVariableDictionary
350
171
  3
QCAD_OBJECTS
350
172
  0
DICTIONARY
  5
D
100
AcDbDictionary
280
0
281
1
  0
ACDBDICTIONARYWDFLT
  5
E
100
AcDbDictionary
281
1
  3
Normal
350
F
100
AcDbDictionaryWithDefault
340
F
  0
ACDBPLACEHOLDER
  5
F
  0
DICTIONARY
  5
17
100
AcDbDictionary
280
0
281
1
  3
Standard
350
18
  0
MLINESTYLE
  5
18
100
AcDbMlineStyle
  2
STANDARD
 70
0
  3

 62
256
 51
90.0
 52
90.0
 71
2
 49
0.5
 62
256
  6
BYLAYER
 49
-0.5
 62
256
  6
BYLAYER
  0
DICTIONARY
  5
19
100
AcDbDictionary
280
0
281
1
  0
DICTIONARY
  5
1A
100
AcDbDictionary
281
1
  3
Layout1
350
1E
  3
Layout2
350
26
  3
Model
350
22
  0
LAYOUT
  5
1E
100
AcDbPlotSettings
  1

  2
C:\Program Files\AutoCAD 2002\plotters\DWF ePlot (optimized for plotting).pc3
  4

  6

 40
0.0
 41
0.0
 42
0.0
 43
0.0
 44
0.0
 45
0.0
 46
0.0
 47
0.0
 48
0.0
 49
0.0
140
0.0
141
0.0
142
1.0
143
1.0
 70
688
 72
0
 73
0
 74
5
  7

 75
16
147
1.0
148
0.0
149
0.0
100
AcDbLayout
  1
Layout1
 70
1
 71
1
 10
0.0
 20
0.0
 11
420.0
 21
297.0
 12
0.0
 22
0.0
 32
0.0
 14
100000000000000000000.0
 24
100000000000000000000.0
 34
100000000000000000000.0
 15
-100000000000000000000.0
 25
-100000000000000000000.0
 35
-100000000000000000000.0
146
0.0
 13
0.0
 23
0.0
 33
0.0
 16
1.0
 26
0.0
 36
0.0
 17
0.0
 27
1.0
 37
0.0
 76
0
330
1B
  0
LAYOUT
  5
22
100
AcDbPlotSettings
  1

  2
C:\Program Files\AutoCAD 2002\plotters\DWF ePlot (optimized for plotting).pc3
  4

  6

 40
0.0
 41
0.0
 42
0.0
 43
0.0
 44
0.0
 45
0.0
 46
0.0
 47
0.0
 48
0.0
 49
0.0
140
0.0
141
0.0
142
1.0
143
1.0
 70
1712
 72
0
 73
0
 74
0
  7

 75
0
147
1.0
148
0.0
149
0.0
100
AcDbLayout
  1
Model
 70
1
 71
0
 10
0.0
 20
0.0
 11
12.0
 21
9.0
 12
0.0
 22
0.0
 32
0.0
 14
0.0
 24
0.0
 34
0.0
 15
0.0
 25
0.0
 35
0.0
146
0.0
 13
0.0
 23
0.0
 33
0.0
 16
1.0
 26
0.0
 36
0.0
 17
0.0
 27
1.0
 37
0.0
 76
0
330
1F
  0
LAYOUT
  5
26
100
AcDbPlotSettings
  1

  2
C:\Program Files\AutoCAD 2002\plotters\DWF ePlot (optimized for plotting).pc3
  4

  6

 40
0.0
 41
0.0
 42
0.0
 43
0.0
 44
0.0
 45
0.0
 46
0.0
 47
0.0
 48
0.0
 49
0.0
140
0.0
141
0.0
142
1.0
143
1.0
 70
688
 72
0
 73
0
 74
5
  7

 75
16
147
1.0
148
0.0
149
0.0
100
AcDbLayout
  1
Layout2
 70
1
 71
2
 10
0.0
 20
0.0
 11
12.0
 21
9.0
 12
0.0
 22
0.0
 32
0.0
 14
0.0
 24
0.0
 34
0.0
 15
0.0
 25
0.0
 35
0.0
146
0.0
 13
0.0
 23
0.0
 33
0.0
 16
1.0
 26
0.0
 36
0.0
 17
0.0
 27
1.0
 37
0.0
 76
0
330
23
  0
DICTIONARY
  5
171
100
AcDbDictionary
281
1
  3
DIMASSOC
350
174
  3
HIDETEXT
350
173
  0
DICTIONARYVAR
  5
173
100
DictionaryVariables
280
0
  1
2
  0
DICTIONARYVAR
  5
174
100
DictionaryVariables
280
0
  1
1
  0
DICTIONARY
  5
172
100
AcDbDictionary
281
1
  3
Grid/DisplayGrid00
350
175
  3
Grid/DisplayGrid01
350
176
  3
Grid/DisplayGrid02
350
177
  3
Grid/DisplayGrid03
350
178
  3
Grid/GridSpacingX00
350
179
  3
Grid/GridSpacingX01
350
17A
  3
Grid/GridSpacingX02
350
17B
  3
Grid/GridSpacingX03
350
17C
  3
Grid/GridSpacingY00
350
17D
  3
Grid/GridSpacingY01
350
17E
  3
Grid/GridSpacingY02
350
17F
  3
Grid/GridSpacingY03
350
180
  3
Grid/IsometricGrid00
350
181
  3
Grid/IsometricGrid01
350
182
  3
Grid/IsometricGrid02
350
183
  3
Grid/IsometricGrid03
350
184
  3
Grid/IsometricProjection00
350
185
  3
Grid/IsometricProjection01
350
186
  3
Grid/IsometricProjection02
350
187
  3
Grid/IsometricProjection03
350
188
  3
Grid/MetaGridSpacingX00
350
189
  3
Grid/MetaGridSpacingX01
350
18A
  3
Grid/MetaGridSpacingX02
350
18B
  3
Grid/MetaGridSpacingX03
350
18C
  3
Grid/MetaGridSpacingY00
350
18D
  3
Grid/MetaGridSpacingY01
350
18E
  3
Grid/MetaGridSpacingY02
350
18F
  3
Grid/MetaGridSpacingY03
350
190
  3
MultiPageSettings/Columns
350
191
  3
MultiPageSettings/GlueMarginsBottom
350
192
  3
MultiPageSettings/GlueMarginsLeft
350
193
  3
MultiPageSettings/GlueMarginsRight
350
194
  3
MultiPageSettings/GlueMarginsTop
350
195
  3
MultiPageSettings/PrintCropMarks
350
196
  3
MultiPageSettings/Rows
350
197
  3
PageSettings/OffsetX
350
198
  3
PageSettings/OffsetY
350
199
  3
PageSettings/PageOrientation
350
19A
  3
PageSettings/PaperHeight
350
19B
  3
PageSettings/PaperWidth
350
19C
  3
PageSettings/Scale
350
19D
  3
PageSettings/ShowPaperBorders
350
19E
  3
UnitSettings/PaperUnit
350
19F
  0
XRECORD
  5
175
330
172
100
AcDbXrecord
280
1
290
1
  0
XRECORD
  5
176
330
172
100
AcDbXrecord
280
1
290
1
  0
XRECORD
  5
177
330
172
100
AcDbXrecord
280
1
290
1
  0
XRECORD
  5
178
330
172
100
AcDbXrecord
280
1
290
1
  0
XRECORD
  5
179
330
172
100
AcDbXrecord
280
1
1000
auto
  0
XRECORD
  5
17A
330
172
100
AcDbXrecord
280
1
1000
auto
  0
XRECORD
  5
17B
330
172
100
AcDbXrecord
280
1
1000
auto
  0
XRECORD
  5
17C
330
172
100
AcDbXrecord
280
1
1000
auto
  0
XRECORD
  5
17D
330
172
100
AcDbXrecord
280
1
1000
auto
  0
XRECORD
  5
17E
330
172
100
AcDbXrecord
280
1
1000
auto
  0
XRECORD
  5
17F
330
172
100
AcDbXrecord
280
1
1000
auto
  0
XRECORD
  5
180
330
172
100
AcDbXrecord
280
1
1000
auto
  0
XRECORD
  5
181
330
172
100
AcDbXrecord
280
1
290
0
  0
XRECORD
  5
182
330
172
100
AcDbXrecord
280
1
290
0
  0
XRECORD
  5
183
330
172
100
AcDbXrecord
280
1
290
0
  0
XRECORD
  5
184
330
172
100
AcDbXrecord
280
1
290
0
  0
XRECORD
  5
185
330
172
100
AcDbXrecord
280
1
 90
0
  0
XRECORD
  5
186
330
172
100
AcDbXrecord
280
1
 90
0
  0
XRECORD
  5
187
330
172
100
AcDbXrecord
280
1
 90
0
  0
XRECORD
  5
188
330
172
100
AcDbXrecord
280
1
 90
0
  0
XRECORD
  5
189
330
172
100
AcDbXrecord
280
1
1000
auto
  0
XRECORD
  5
18A
330
172
100
AcDbXrecord
280
1
1000
auto
  0
XRECORD
  5
18B
330
172
100
AcDbXrecord
280
1
1000
auto
  0
XRECORD
  5
18C
330
172
100
AcDbXrecord
280
1
1000
auto
  0
XRECORD
  5
18D
330
172
100
AcDbXrecord
280
1
1000
auto
  0
XRECORD
  5
18E
330
172
100
AcDbXrecord
280
1
1000
auto
  0
XRECORD
  5
18F
330
172
100
AcDbXrecord
280
1
1000
auto
  0
XRECORD
  5
190
330
172
100
AcDbXrecord
280
1
1000
auto
  0
XRECORD
  5
191
330
172
100
AcDbXrecord
280
1
 90
1
  0
XRECORD
  5
192
330
172
100
AcDbXrecord
280
1
 40
10.0
  0
XRECORD
  5
193
330
172
100
AcDbXrecord
280
1
 40
10.0
  0
XRECORD
  5
194
330
172
100
AcDbXrecord
280
1
 40
10.0
  0
XRECORD
  5
195
330
172
100
AcDbXrecord
280
1
 40
10.0
  0
XRECORD
  5
196
330
172
100
AcDbXrecord
280
1
290
0
  0
XRECORD
  5
197
330
172
100
AcDbXrecord
280
1
 90
1
  0
XRECORD
  5
198
330
172
100
AcDbXrecord
280
1
 40
-272.68050541516243
  0
XRECORD
  5
199
330
172
100
AcDbXrecord
280
1
 40
-155.33292975035613
  0
XRECORD
  5
19A
330
172
100
AcDbXrecord
280
1
1000
Landscape
  0
XRECORD
  5
19B
330
172
100
AcDbXrecord
280
1
 40
297.0
  0
XRECORD
  5
19C
330
172
100
AcDbXrecord
280
1
 40
210.0
  0
XRECORD
  5
19D
330
172
100
AcDbXrecord
280
1
1000
0.7886120996441282
  0
XRECORD
  5
19E
330
172
100
AcDbXrecord
280
1
290
1
  0
XRECORD
  5
19F
330
172
100
AcDbXrecord
280
1
 90
4
  0
ENDSEC
  0
EOF
