G04 #@! TF.FileFunction,Soldermask,Bot*
%FSLAX46Y46*%
G04 Gerber Fmt 4.6, Leading zero omitted, Abs format (unit mm)*
G04 Created by KiCad (PCBNEW 4.0.4-stable) date 06/03/17 21:35:24*
%MOMM*%
%LPD*%
G01*
G04 APERTURE LIST*
%ADD10C,0.100000*%
%ADD11C,1.600200*%
%ADD12C,1.500000*%
%ADD13O,3.500120X1.800860*%
%ADD14O,1.998980X1.998980*%
%ADD15R,1.998980X1.998980*%
%ADD16C,0.600000*%
G04 APERTURE END LIST*
D10*
D11*
X46969680Y-194066160D03*
X50144680Y-194066160D03*
D12*
X27750000Y-186700000D03*
X24299319Y-183249319D03*
D13*
X48442880Y-160050480D03*
X48442880Y-162590480D03*
X48442880Y-165130480D03*
X48442880Y-167670480D03*
D14*
X15740000Y-188375000D03*
D15*
X15740000Y-195995000D03*
D14*
X15740000Y-193455000D03*
X15740000Y-190915000D03*
X15740000Y-185835000D03*
X15940000Y-164985000D03*
D15*
X15940000Y-172605000D03*
D14*
X15940000Y-170065000D03*
X15940000Y-167525000D03*
X15940000Y-162445000D03*
X29960000Y-194745000D03*
D15*
X22340000Y-194745000D03*
D14*
X24880000Y-194745000D03*
X27420000Y-194745000D03*
X32500000Y-194745000D03*
D16*
X35160000Y-189860000D03*
X46880000Y-184310000D03*
X44520000Y-184600000D03*
X41840000Y-171620000D03*
X44550000Y-171270000D03*
X46730000Y-170250000D03*
X42150000Y-169170000D03*
X41600000Y-164275000D03*
X40610000Y-196195000D03*
X35150000Y-193560000D03*
X44820000Y-179265000D03*
X49510000Y-187535000D03*
X32100000Y-186340000D03*
X37350000Y-187380000D03*
X24470000Y-168790000D03*
X21630000Y-173030000D03*
X29260000Y-161890000D03*
X38790000Y-164295000D03*
X14732000Y-176784000D03*
X30226000Y-180594000D03*
X20066000Y-181356000D03*
X16002000Y-180594000D03*
X38650000Y-188900000D03*
X35500000Y-160440000D03*
X22275000Y-164045000D03*
X25820000Y-159510000D03*
X15200000Y-183075000D03*
X28460000Y-164995000D03*
X40070000Y-160525000D03*
X36030000Y-173615000D03*
X19480000Y-169225000D03*
X24960000Y-177445000D03*
X17700000Y-181420000D03*
X19800000Y-176820000D03*
X50800000Y-182626000D03*
X45466000Y-190246000D03*
X43434000Y-169164000D03*
X41402000Y-167132000D03*
X23410000Y-168270000D03*
X21660000Y-171740000D03*
X29718000Y-178816000D03*
X43990000Y-179870000D03*
X45650000Y-176120000D03*
X50540000Y-188790000D03*
X39900000Y-192540000D03*
X18990000Y-175945000D03*
X28170000Y-175295000D03*
X17100000Y-177500000D03*
X30180000Y-173395000D03*
X44270000Y-161185000D03*
X19020000Y-180655000D03*
X28590000Y-178895000D03*
X33190000Y-180060000D03*
X35180000Y-185590000D03*
X50770000Y-177180000D03*
X49960000Y-179125000D03*
X29310000Y-174155000D03*
X50390000Y-181375000D03*
X42122060Y-180252781D03*
X42350000Y-183160000D03*
X35814000Y-196596000D03*
X47752000Y-175006000D03*
X39116000Y-162306000D03*
X38100000Y-168910000D03*
X21050000Y-166140000D03*
X19560000Y-171560000D03*
X28940000Y-177450000D03*
X26170000Y-169745000D03*
X28320000Y-160785000D03*
X26120000Y-166565000D03*
X33660000Y-175885000D03*
X32630000Y-177830000D03*
X31780000Y-177440000D03*
X41730000Y-178375000D03*
X27890000Y-159175000D03*
X26550000Y-172785000D03*
X13130000Y-176650000D03*
X28630000Y-175955000D03*
X29040000Y-192905000D03*
X25570000Y-167980000D03*
X17780000Y-171450000D03*
X17526000Y-168148000D03*
X18542000Y-166370000D03*
X20574000Y-172720000D03*
M02*
