G04 #@! TF.FileFunction,Paste,Top*
%FSLAX46Y46*%
G04 Gerber Fmt 4.6, Leading zero omitted, Abs format (unit mm)*
G04 Created by KiCad (PCBNEW 4.0.4-stable) date 06/04/17 23:31:50*
%MOMM*%
%LPD*%
G01*
G04 APERTURE LIST*
%ADD10C,0.100000*%
%ADD11R,1.360000X1.360000*%
%ADD12R,1.587000X0.317000*%
%ADD13R,1.060000X0.760000*%
%ADD14R,0.610000X1.060000*%
%ADD15R,1.060000X0.610000*%
%ADD16R,0.760000X1.060000*%
%ADD17R,1.060000X0.260000*%
%ADD18R,1.860000X3.660000*%
%ADD19R,1.860000X1.360000*%
%ADD20R,0.860000X0.860000*%
%ADD21R,1.310000X0.310000*%
G04 APERTURE END LIST*
D10*
G36*
X40329838Y-174790852D02*
X40626822Y-175087836D01*
X39594446Y-176120212D01*
X39297462Y-175823228D01*
X40329838Y-174790852D01*
X40329838Y-174790852D01*
G37*
G36*
X39764152Y-174225167D02*
X40061136Y-174522151D01*
X39028760Y-175554527D01*
X38731776Y-175257543D01*
X39764152Y-174225167D01*
X39764152Y-174225167D01*
G37*
G36*
X39198467Y-173659482D02*
X39495451Y-173956466D01*
X38463075Y-174988842D01*
X38166091Y-174691858D01*
X39198467Y-173659482D01*
X39198467Y-173659482D01*
G37*
G36*
X38632782Y-173093796D02*
X38929766Y-173390780D01*
X37897390Y-174423156D01*
X37600406Y-174126172D01*
X38632782Y-173093796D01*
X38632782Y-173093796D01*
G37*
G36*
X38067096Y-172528111D02*
X38364080Y-172825095D01*
X37331704Y-173857471D01*
X37034720Y-173560487D01*
X38067096Y-172528111D01*
X38067096Y-172528111D01*
G37*
G36*
X37501411Y-171962425D02*
X37798395Y-172259409D01*
X36766019Y-173291785D01*
X36469035Y-172994801D01*
X37501411Y-171962425D01*
X37501411Y-171962425D01*
G37*
G36*
X36935725Y-171396740D02*
X37232709Y-171693724D01*
X36200333Y-172726100D01*
X35903349Y-172429116D01*
X36935725Y-171396740D01*
X36935725Y-171396740D01*
G37*
G36*
X36370040Y-170831054D02*
X36667024Y-171128038D01*
X35634648Y-172160414D01*
X35337664Y-171863430D01*
X36370040Y-170831054D01*
X36370040Y-170831054D01*
G37*
G36*
X35804354Y-170265369D02*
X36101338Y-170562353D01*
X35068962Y-171594729D01*
X34771978Y-171297745D01*
X35804354Y-170265369D01*
X35804354Y-170265369D01*
G37*
G36*
X35238669Y-169699684D02*
X35535653Y-169996668D01*
X34503277Y-171029044D01*
X34206293Y-170732060D01*
X35238669Y-169699684D01*
X35238669Y-169699684D01*
G37*
G36*
X34672984Y-169133998D02*
X34969968Y-169430982D01*
X33937592Y-170463358D01*
X33640608Y-170166374D01*
X34672984Y-169133998D01*
X34672984Y-169133998D01*
G37*
G36*
X31024312Y-169430982D02*
X31321296Y-169133998D01*
X32353672Y-170166374D01*
X32056688Y-170463358D01*
X31024312Y-169430982D01*
X31024312Y-169430982D01*
G37*
G36*
X30458627Y-169996668D02*
X30755611Y-169699684D01*
X31787987Y-170732060D01*
X31491003Y-171029044D01*
X30458627Y-169996668D01*
X30458627Y-169996668D01*
G37*
G36*
X29892942Y-170562353D02*
X30189926Y-170265369D01*
X31222302Y-171297745D01*
X30925318Y-171594729D01*
X29892942Y-170562353D01*
X29892942Y-170562353D01*
G37*
G36*
X29327256Y-171128038D02*
X29624240Y-170831054D01*
X30656616Y-171863430D01*
X30359632Y-172160414D01*
X29327256Y-171128038D01*
X29327256Y-171128038D01*
G37*
G36*
X28761571Y-171693724D02*
X29058555Y-171396740D01*
X30090931Y-172429116D01*
X29793947Y-172726100D01*
X28761571Y-171693724D01*
X28761571Y-171693724D01*
G37*
G36*
X28195885Y-172259409D02*
X28492869Y-171962425D01*
X29525245Y-172994801D01*
X29228261Y-173291785D01*
X28195885Y-172259409D01*
X28195885Y-172259409D01*
G37*
G36*
X27630200Y-172825095D02*
X27927184Y-172528111D01*
X28959560Y-173560487D01*
X28662576Y-173857471D01*
X27630200Y-172825095D01*
X27630200Y-172825095D01*
G37*
G36*
X27064514Y-173390780D02*
X27361498Y-173093796D01*
X28393874Y-174126172D01*
X28096890Y-174423156D01*
X27064514Y-173390780D01*
X27064514Y-173390780D01*
G37*
G36*
X26498829Y-173956466D02*
X26795813Y-173659482D01*
X27828189Y-174691858D01*
X27531205Y-174988842D01*
X26498829Y-173956466D01*
X26498829Y-173956466D01*
G37*
G36*
X25933144Y-174522151D02*
X26230128Y-174225167D01*
X27262504Y-175257543D01*
X26965520Y-175554527D01*
X25933144Y-174522151D01*
X25933144Y-174522151D01*
G37*
G36*
X25367458Y-175087836D02*
X25664442Y-174790852D01*
X26696818Y-175823228D01*
X26399834Y-176120212D01*
X25367458Y-175087836D01*
X25367458Y-175087836D01*
G37*
G36*
X26399834Y-177407148D02*
X26696818Y-177704132D01*
X25664442Y-178736508D01*
X25367458Y-178439524D01*
X26399834Y-177407148D01*
X26399834Y-177407148D01*
G37*
G36*
X26965520Y-177972833D02*
X27262504Y-178269817D01*
X26230128Y-179302193D01*
X25933144Y-179005209D01*
X26965520Y-177972833D01*
X26965520Y-177972833D01*
G37*
G36*
X27531205Y-178538518D02*
X27828189Y-178835502D01*
X26795813Y-179867878D01*
X26498829Y-179570894D01*
X27531205Y-178538518D01*
X27531205Y-178538518D01*
G37*
G36*
X28096890Y-179104204D02*
X28393874Y-179401188D01*
X27361498Y-180433564D01*
X27064514Y-180136580D01*
X28096890Y-179104204D01*
X28096890Y-179104204D01*
G37*
G36*
X28662576Y-179669889D02*
X28959560Y-179966873D01*
X27927184Y-180999249D01*
X27630200Y-180702265D01*
X28662576Y-179669889D01*
X28662576Y-179669889D01*
G37*
G36*
X29228261Y-180235575D02*
X29525245Y-180532559D01*
X28492869Y-181564935D01*
X28195885Y-181267951D01*
X29228261Y-180235575D01*
X29228261Y-180235575D01*
G37*
G36*
X29793947Y-180801260D02*
X30090931Y-181098244D01*
X29058555Y-182130620D01*
X28761571Y-181833636D01*
X29793947Y-180801260D01*
X29793947Y-180801260D01*
G37*
G36*
X30359632Y-181366946D02*
X30656616Y-181663930D01*
X29624240Y-182696306D01*
X29327256Y-182399322D01*
X30359632Y-181366946D01*
X30359632Y-181366946D01*
G37*
G36*
X30925318Y-181932631D02*
X31222302Y-182229615D01*
X30189926Y-183261991D01*
X29892942Y-182965007D01*
X30925318Y-181932631D01*
X30925318Y-181932631D01*
G37*
G36*
X31491003Y-182498316D02*
X31787987Y-182795300D01*
X30755611Y-183827676D01*
X30458627Y-183530692D01*
X31491003Y-182498316D01*
X31491003Y-182498316D01*
G37*
G36*
X32056688Y-183064002D02*
X32353672Y-183360986D01*
X31321296Y-184393362D01*
X31024312Y-184096378D01*
X32056688Y-183064002D01*
X32056688Y-183064002D01*
G37*
G36*
X33640608Y-183360986D02*
X33937592Y-183064002D01*
X34969968Y-184096378D01*
X34672984Y-184393362D01*
X33640608Y-183360986D01*
X33640608Y-183360986D01*
G37*
G36*
X34206293Y-182795300D02*
X34503277Y-182498316D01*
X35535653Y-183530692D01*
X35238669Y-183827676D01*
X34206293Y-182795300D01*
X34206293Y-182795300D01*
G37*
G36*
X34771978Y-182229615D02*
X35068962Y-181932631D01*
X36101338Y-182965007D01*
X35804354Y-183261991D01*
X34771978Y-182229615D01*
X34771978Y-182229615D01*
G37*
G36*
X35337664Y-181663930D02*
X35634648Y-181366946D01*
X36667024Y-182399322D01*
X36370040Y-182696306D01*
X35337664Y-181663930D01*
X35337664Y-181663930D01*
G37*
G36*
X35903349Y-181098244D02*
X36200333Y-180801260D01*
X37232709Y-181833636D01*
X36935725Y-182130620D01*
X35903349Y-181098244D01*
X35903349Y-181098244D01*
G37*
G36*
X36469035Y-180532559D02*
X36766019Y-180235575D01*
X37798395Y-181267951D01*
X37501411Y-181564935D01*
X36469035Y-180532559D01*
X36469035Y-180532559D01*
G37*
G36*
X37034720Y-179966873D02*
X37331704Y-179669889D01*
X38364080Y-180702265D01*
X38067096Y-180999249D01*
X37034720Y-179966873D01*
X37034720Y-179966873D01*
G37*
G36*
X37600406Y-179401188D02*
X37897390Y-179104204D01*
X38929766Y-180136580D01*
X38632782Y-180433564D01*
X37600406Y-179401188D01*
X37600406Y-179401188D01*
G37*
G36*
X38166091Y-178835502D02*
X38463075Y-178538518D01*
X39495451Y-179570894D01*
X39198467Y-179867878D01*
X38166091Y-178835502D01*
X38166091Y-178835502D01*
G37*
G36*
X38731776Y-178269817D02*
X39028760Y-177972833D01*
X40061136Y-179005209D01*
X39764152Y-179302193D01*
X38731776Y-178269817D01*
X38731776Y-178269817D01*
G37*
G36*
X39297462Y-177704132D02*
X39594446Y-177407148D01*
X40626822Y-178439524D01*
X40329838Y-178736508D01*
X39297462Y-177704132D01*
X39297462Y-177704132D01*
G37*
D11*
X46980000Y-186345000D03*
X46980000Y-183045000D03*
D12*
X46606000Y-178400000D03*
X46606000Y-179050000D03*
X46606000Y-179700000D03*
X46606000Y-180350000D03*
X48714000Y-180350000D03*
X48714000Y-179700000D03*
X48714000Y-179050000D03*
X48714000Y-178400000D03*
D13*
X49470000Y-183105000D03*
X49470000Y-186405000D03*
D14*
X16776840Y-181828240D03*
X16776840Y-179928240D03*
D10*
G36*
X31264590Y-190131505D02*
X30833255Y-189700170D01*
X31582788Y-188950637D01*
X32014123Y-189381972D01*
X31264590Y-190131505D01*
X31264590Y-190131505D01*
G37*
G36*
X32608092Y-188788003D02*
X32176757Y-188356668D01*
X32926290Y-187607135D01*
X33357625Y-188038470D01*
X32608092Y-188788003D01*
X32608092Y-188788003D01*
G37*
D15*
X38139000Y-159496000D03*
X40039000Y-159496000D03*
D10*
G36*
X22255850Y-178437815D02*
X22687185Y-178869150D01*
X21937652Y-179618683D01*
X21506317Y-179187348D01*
X22255850Y-178437815D01*
X22255850Y-178437815D01*
G37*
G36*
X20912348Y-179781317D02*
X21343683Y-180212652D01*
X20594150Y-180962185D01*
X20162815Y-180530850D01*
X20912348Y-179781317D01*
X20912348Y-179781317D01*
G37*
D15*
X34075000Y-159496000D03*
X35975000Y-159496000D03*
D10*
G36*
X19519150Y-179912185D02*
X19087815Y-179480850D01*
X19837348Y-178731317D01*
X20268683Y-179162652D01*
X19519150Y-179912185D01*
X19519150Y-179912185D01*
G37*
G36*
X20862652Y-178568683D02*
X20431317Y-178137348D01*
X21180850Y-177387815D01*
X21612185Y-177819150D01*
X20862652Y-178568683D01*
X20862652Y-178568683D01*
G37*
G36*
X37505975Y-170185910D02*
X37937310Y-169754575D01*
X38686843Y-170504108D01*
X38255508Y-170935443D01*
X37505975Y-170185910D01*
X37505975Y-170185910D01*
G37*
G36*
X38849477Y-171529412D02*
X39280812Y-171098077D01*
X40030345Y-171847610D01*
X39599010Y-172278945D01*
X38849477Y-171529412D01*
X38849477Y-171529412D01*
G37*
G36*
X38705975Y-168985910D02*
X39137310Y-168554575D01*
X39886843Y-169304108D01*
X39455508Y-169735443D01*
X38705975Y-168985910D01*
X38705975Y-168985910D01*
G37*
G36*
X40049477Y-170329412D02*
X40480812Y-169898077D01*
X41230345Y-170647610D01*
X40799010Y-171078945D01*
X40049477Y-170329412D01*
X40049477Y-170329412D01*
G37*
D14*
X22320000Y-171785000D03*
X22320000Y-173685000D03*
X22275000Y-162825000D03*
X22275000Y-160925000D03*
X20425000Y-162800000D03*
X20425000Y-160900000D03*
D10*
G36*
X40568716Y-173311117D02*
X41106117Y-172773716D01*
X41855650Y-173523249D01*
X41318249Y-174060650D01*
X40568716Y-173311117D01*
X40568716Y-173311117D01*
G37*
G36*
X42124350Y-174866751D02*
X42661751Y-174329350D01*
X43411284Y-175078883D01*
X42873883Y-175616284D01*
X42124350Y-174866751D01*
X42124350Y-174866751D01*
G37*
G36*
X38784277Y-183338044D02*
X38246876Y-182800643D01*
X38996409Y-182051110D01*
X39533810Y-182588511D01*
X38784277Y-183338044D01*
X38784277Y-183338044D01*
G37*
G36*
X40339911Y-181782410D02*
X39802510Y-181245009D01*
X40552043Y-180495476D01*
X41089444Y-181032877D01*
X40339911Y-181782410D01*
X40339911Y-181782410D01*
G37*
D16*
X44170000Y-191085000D03*
X44170000Y-188885000D03*
X27368160Y-163066760D03*
X27368160Y-160866760D03*
X13346840Y-181818240D03*
X13346840Y-179618240D03*
X15096840Y-179618240D03*
X15096840Y-181818240D03*
X20600000Y-173935000D03*
X20600000Y-171735000D03*
X24068160Y-160966760D03*
X24068160Y-163166760D03*
X29275000Y-167500000D03*
X29275000Y-165300000D03*
X30861000Y-167505560D03*
X30861000Y-165305560D03*
X31068160Y-160716760D03*
X31068160Y-162916760D03*
X29318160Y-162916760D03*
X29318160Y-160716760D03*
D17*
X22124360Y-165364160D03*
X22124360Y-165999160D03*
X22124360Y-166634160D03*
X22124360Y-167269160D03*
X22124360Y-167904160D03*
X22124360Y-168539160D03*
X22124360Y-169174160D03*
X22124360Y-169809160D03*
X27324360Y-169809160D03*
X27324360Y-169174160D03*
X27324360Y-168539160D03*
X27324360Y-167904160D03*
X27324360Y-167269160D03*
X27324360Y-166634160D03*
X27324360Y-165999160D03*
X27324360Y-165364160D03*
D14*
X25818160Y-162766760D03*
X25818160Y-160866760D03*
X23960000Y-171795000D03*
X23960000Y-173695000D03*
D11*
X44540000Y-186295000D03*
X44540000Y-182995000D03*
D16*
X17630000Y-175955000D03*
X14330000Y-175955000D03*
D18*
X43452180Y-164271960D03*
D19*
X37152180Y-164271960D03*
X37152180Y-166571960D03*
X37152180Y-161971960D03*
D20*
X41910000Y-193705000D03*
X41910000Y-196205000D03*
D21*
X41780000Y-190880000D03*
X41780000Y-190230000D03*
X41780000Y-189580000D03*
X41780000Y-188930000D03*
X37380000Y-188930000D03*
X37380000Y-189580000D03*
X37380000Y-190230000D03*
X37380000Y-190880000D03*
D13*
X48640000Y-175880000D03*
X50840000Y-175880000D03*
M02*
