G04 #@! TF.FileFunction,Soldermask,Top*
%FSLAX46Y46*%
G04 Gerber Fmt 4.6, Leading zero omitted, Abs format (unit mm)*
G04 Created by KiCad (PCBNEW 4.0.4-stable) date 06/03/17 21:35:24*
%MOMM*%
%LPD*%
G01*
G04 APERTURE LIST*
%ADD10C,0.100000*%
%ADD11R,1.500000X1.500000*%
%ADD12C,1.600200*%
%ADD13C,1.500000*%
%ADD14R,1.727000X0.457000*%
%ADD15R,1.200000X0.900000*%
%ADD16R,0.750000X1.200000*%
%ADD17R,1.200000X0.750000*%
%ADD18R,0.900000X1.200000*%
%ADD19R,1.200000X0.400000*%
%ADD20O,3.500120X1.800860*%
%ADD21R,2.000000X3.800000*%
%ADD22R,2.000000X1.500000*%
%ADD23R,1.000000X1.000000*%
%ADD24R,1.450000X0.450000*%
%ADD25O,1.998980X1.998980*%
%ADD26R,1.998980X1.998980*%
%ADD27C,2.540000*%
%ADD28C,0.600000*%
G04 APERTURE END LIST*
D10*
G36*
X40329838Y-174691857D02*
X40725817Y-175087836D01*
X39594446Y-176219207D01*
X39198467Y-175823228D01*
X40329838Y-174691857D01*
X40329838Y-174691857D01*
G37*
G36*
X39764152Y-174126172D02*
X40160131Y-174522151D01*
X39028760Y-175653522D01*
X38632781Y-175257543D01*
X39764152Y-174126172D01*
X39764152Y-174126172D01*
G37*
G36*
X39198467Y-173560487D02*
X39594446Y-173956466D01*
X38463075Y-175087837D01*
X38067096Y-174691858D01*
X39198467Y-173560487D01*
X39198467Y-173560487D01*
G37*
G36*
X38632782Y-172994801D02*
X39028761Y-173390780D01*
X37897390Y-174522151D01*
X37501411Y-174126172D01*
X38632782Y-172994801D01*
X38632782Y-172994801D01*
G37*
G36*
X38067096Y-172429116D02*
X38463075Y-172825095D01*
X37331704Y-173956466D01*
X36935725Y-173560487D01*
X38067096Y-172429116D01*
X38067096Y-172429116D01*
G37*
G36*
X37501411Y-171863430D02*
X37897390Y-172259409D01*
X36766019Y-173390780D01*
X36370040Y-172994801D01*
X37501411Y-171863430D01*
X37501411Y-171863430D01*
G37*
G36*
X36935725Y-171297745D02*
X37331704Y-171693724D01*
X36200333Y-172825095D01*
X35804354Y-172429116D01*
X36935725Y-171297745D01*
X36935725Y-171297745D01*
G37*
G36*
X36370040Y-170732059D02*
X36766019Y-171128038D01*
X35634648Y-172259409D01*
X35238669Y-171863430D01*
X36370040Y-170732059D01*
X36370040Y-170732059D01*
G37*
G36*
X35804354Y-170166374D02*
X36200333Y-170562353D01*
X35068962Y-171693724D01*
X34672983Y-171297745D01*
X35804354Y-170166374D01*
X35804354Y-170166374D01*
G37*
G36*
X35238669Y-169600689D02*
X35634648Y-169996668D01*
X34503277Y-171128039D01*
X34107298Y-170732060D01*
X35238669Y-169600689D01*
X35238669Y-169600689D01*
G37*
G36*
X34672984Y-169035003D02*
X35068963Y-169430982D01*
X33937592Y-170562353D01*
X33541613Y-170166374D01*
X34672984Y-169035003D01*
X34672984Y-169035003D01*
G37*
G36*
X30925317Y-169430982D02*
X31321296Y-169035003D01*
X32452667Y-170166374D01*
X32056688Y-170562353D01*
X30925317Y-169430982D01*
X30925317Y-169430982D01*
G37*
G36*
X30359632Y-169996668D02*
X30755611Y-169600689D01*
X31886982Y-170732060D01*
X31491003Y-171128039D01*
X30359632Y-169996668D01*
X30359632Y-169996668D01*
G37*
G36*
X29793947Y-170562353D02*
X30189926Y-170166374D01*
X31321297Y-171297745D01*
X30925318Y-171693724D01*
X29793947Y-170562353D01*
X29793947Y-170562353D01*
G37*
G36*
X29228261Y-171128038D02*
X29624240Y-170732059D01*
X30755611Y-171863430D01*
X30359632Y-172259409D01*
X29228261Y-171128038D01*
X29228261Y-171128038D01*
G37*
G36*
X28662576Y-171693724D02*
X29058555Y-171297745D01*
X30189926Y-172429116D01*
X29793947Y-172825095D01*
X28662576Y-171693724D01*
X28662576Y-171693724D01*
G37*
G36*
X28096890Y-172259409D02*
X28492869Y-171863430D01*
X29624240Y-172994801D01*
X29228261Y-173390780D01*
X28096890Y-172259409D01*
X28096890Y-172259409D01*
G37*
G36*
X27531205Y-172825095D02*
X27927184Y-172429116D01*
X29058555Y-173560487D01*
X28662576Y-173956466D01*
X27531205Y-172825095D01*
X27531205Y-172825095D01*
G37*
G36*
X26965519Y-173390780D02*
X27361498Y-172994801D01*
X28492869Y-174126172D01*
X28096890Y-174522151D01*
X26965519Y-173390780D01*
X26965519Y-173390780D01*
G37*
G36*
X26399834Y-173956466D02*
X26795813Y-173560487D01*
X27927184Y-174691858D01*
X27531205Y-175087837D01*
X26399834Y-173956466D01*
X26399834Y-173956466D01*
G37*
G36*
X25834149Y-174522151D02*
X26230128Y-174126172D01*
X27361499Y-175257543D01*
X26965520Y-175653522D01*
X25834149Y-174522151D01*
X25834149Y-174522151D01*
G37*
G36*
X25268463Y-175087836D02*
X25664442Y-174691857D01*
X26795813Y-175823228D01*
X26399834Y-176219207D01*
X25268463Y-175087836D01*
X25268463Y-175087836D01*
G37*
G36*
X26399834Y-177308153D02*
X26795813Y-177704132D01*
X25664442Y-178835503D01*
X25268463Y-178439524D01*
X26399834Y-177308153D01*
X26399834Y-177308153D01*
G37*
G36*
X26965520Y-177873838D02*
X27361499Y-178269817D01*
X26230128Y-179401188D01*
X25834149Y-179005209D01*
X26965520Y-177873838D01*
X26965520Y-177873838D01*
G37*
G36*
X27531205Y-178439523D02*
X27927184Y-178835502D01*
X26795813Y-179966873D01*
X26399834Y-179570894D01*
X27531205Y-178439523D01*
X27531205Y-178439523D01*
G37*
G36*
X28096890Y-179005209D02*
X28492869Y-179401188D01*
X27361498Y-180532559D01*
X26965519Y-180136580D01*
X28096890Y-179005209D01*
X28096890Y-179005209D01*
G37*
G36*
X28662576Y-179570894D02*
X29058555Y-179966873D01*
X27927184Y-181098244D01*
X27531205Y-180702265D01*
X28662576Y-179570894D01*
X28662576Y-179570894D01*
G37*
G36*
X29228261Y-180136580D02*
X29624240Y-180532559D01*
X28492869Y-181663930D01*
X28096890Y-181267951D01*
X29228261Y-180136580D01*
X29228261Y-180136580D01*
G37*
G36*
X29793947Y-180702265D02*
X30189926Y-181098244D01*
X29058555Y-182229615D01*
X28662576Y-181833636D01*
X29793947Y-180702265D01*
X29793947Y-180702265D01*
G37*
G36*
X30359632Y-181267951D02*
X30755611Y-181663930D01*
X29624240Y-182795301D01*
X29228261Y-182399322D01*
X30359632Y-181267951D01*
X30359632Y-181267951D01*
G37*
G36*
X30925318Y-181833636D02*
X31321297Y-182229615D01*
X30189926Y-183360986D01*
X29793947Y-182965007D01*
X30925318Y-181833636D01*
X30925318Y-181833636D01*
G37*
G36*
X31491003Y-182399321D02*
X31886982Y-182795300D01*
X30755611Y-183926671D01*
X30359632Y-183530692D01*
X31491003Y-182399321D01*
X31491003Y-182399321D01*
G37*
G36*
X32056688Y-182965007D02*
X32452667Y-183360986D01*
X31321296Y-184492357D01*
X30925317Y-184096378D01*
X32056688Y-182965007D01*
X32056688Y-182965007D01*
G37*
G36*
X33541613Y-183360986D02*
X33937592Y-182965007D01*
X35068963Y-184096378D01*
X34672984Y-184492357D01*
X33541613Y-183360986D01*
X33541613Y-183360986D01*
G37*
G36*
X34107298Y-182795300D02*
X34503277Y-182399321D01*
X35634648Y-183530692D01*
X35238669Y-183926671D01*
X34107298Y-182795300D01*
X34107298Y-182795300D01*
G37*
G36*
X34672983Y-182229615D02*
X35068962Y-181833636D01*
X36200333Y-182965007D01*
X35804354Y-183360986D01*
X34672983Y-182229615D01*
X34672983Y-182229615D01*
G37*
G36*
X35238669Y-181663930D02*
X35634648Y-181267951D01*
X36766019Y-182399322D01*
X36370040Y-182795301D01*
X35238669Y-181663930D01*
X35238669Y-181663930D01*
G37*
G36*
X35804354Y-181098244D02*
X36200333Y-180702265D01*
X37331704Y-181833636D01*
X36935725Y-182229615D01*
X35804354Y-181098244D01*
X35804354Y-181098244D01*
G37*
G36*
X36370040Y-180532559D02*
X36766019Y-180136580D01*
X37897390Y-181267951D01*
X37501411Y-181663930D01*
X36370040Y-180532559D01*
X36370040Y-180532559D01*
G37*
G36*
X36935725Y-179966873D02*
X37331704Y-179570894D01*
X38463075Y-180702265D01*
X38067096Y-181098244D01*
X36935725Y-179966873D01*
X36935725Y-179966873D01*
G37*
G36*
X37501411Y-179401188D02*
X37897390Y-179005209D01*
X39028761Y-180136580D01*
X38632782Y-180532559D01*
X37501411Y-179401188D01*
X37501411Y-179401188D01*
G37*
G36*
X38067096Y-178835502D02*
X38463075Y-178439523D01*
X39594446Y-179570894D01*
X39198467Y-179966873D01*
X38067096Y-178835502D01*
X38067096Y-178835502D01*
G37*
G36*
X38632781Y-178269817D02*
X39028760Y-177873838D01*
X40160131Y-179005209D01*
X39764152Y-179401188D01*
X38632781Y-178269817D01*
X38632781Y-178269817D01*
G37*
G36*
X39198467Y-177704132D02*
X39594446Y-177308153D01*
X40725817Y-178439524D01*
X40329838Y-178835503D01*
X39198467Y-177704132D01*
X39198467Y-177704132D01*
G37*
D11*
X46980000Y-186345000D03*
X46980000Y-183045000D03*
D12*
X46969680Y-194066160D03*
X50144680Y-194066160D03*
D13*
X27750000Y-186700000D03*
X24299319Y-183249319D03*
D14*
X46606000Y-178400000D03*
X46606000Y-179050000D03*
X46606000Y-179700000D03*
X46606000Y-180350000D03*
X48714000Y-180350000D03*
X48714000Y-179700000D03*
X48714000Y-179050000D03*
X48714000Y-178400000D03*
D15*
X49470000Y-183105000D03*
X49470000Y-186405000D03*
D16*
X16776840Y-181828240D03*
X16776840Y-179928240D03*
D10*
G36*
X31264590Y-190230500D02*
X30734260Y-189700170D01*
X31582788Y-188851642D01*
X32113118Y-189381972D01*
X31264590Y-190230500D01*
X31264590Y-190230500D01*
G37*
G36*
X32608092Y-188886998D02*
X32077762Y-188356668D01*
X32926290Y-187508140D01*
X33456620Y-188038470D01*
X32608092Y-188886998D01*
X32608092Y-188886998D01*
G37*
D17*
X38139000Y-159496000D03*
X40039000Y-159496000D03*
D10*
G36*
X22255850Y-178338820D02*
X22786180Y-178869150D01*
X21937652Y-179717678D01*
X21407322Y-179187348D01*
X22255850Y-178338820D01*
X22255850Y-178338820D01*
G37*
G36*
X20912348Y-179682322D02*
X21442678Y-180212652D01*
X20594150Y-181061180D01*
X20063820Y-180530850D01*
X20912348Y-179682322D01*
X20912348Y-179682322D01*
G37*
D17*
X34075000Y-159496000D03*
X35975000Y-159496000D03*
D10*
G36*
X19519150Y-180011180D02*
X18988820Y-179480850D01*
X19837348Y-178632322D01*
X20367678Y-179162652D01*
X19519150Y-180011180D01*
X19519150Y-180011180D01*
G37*
G36*
X20862652Y-178667678D02*
X20332322Y-178137348D01*
X21180850Y-177288820D01*
X21711180Y-177819150D01*
X20862652Y-178667678D01*
X20862652Y-178667678D01*
G37*
G36*
X37406980Y-170185910D02*
X37937310Y-169655580D01*
X38785838Y-170504108D01*
X38255508Y-171034438D01*
X37406980Y-170185910D01*
X37406980Y-170185910D01*
G37*
G36*
X38750482Y-171529412D02*
X39280812Y-170999082D01*
X40129340Y-171847610D01*
X39599010Y-172377940D01*
X38750482Y-171529412D01*
X38750482Y-171529412D01*
G37*
G36*
X38606980Y-168985910D02*
X39137310Y-168455580D01*
X39985838Y-169304108D01*
X39455508Y-169834438D01*
X38606980Y-168985910D01*
X38606980Y-168985910D01*
G37*
G36*
X39950482Y-170329412D02*
X40480812Y-169799082D01*
X41329340Y-170647610D01*
X40799010Y-171177940D01*
X39950482Y-170329412D01*
X39950482Y-170329412D01*
G37*
D16*
X22320000Y-171785000D03*
X22320000Y-173685000D03*
X22275000Y-162825000D03*
X22275000Y-160925000D03*
X20425000Y-162800000D03*
X20425000Y-160900000D03*
D10*
G36*
X40469721Y-173311117D02*
X41106117Y-172674721D01*
X41954645Y-173523249D01*
X41318249Y-174159645D01*
X40469721Y-173311117D01*
X40469721Y-173311117D01*
G37*
G36*
X42025355Y-174866751D02*
X42661751Y-174230355D01*
X43510279Y-175078883D01*
X42873883Y-175715279D01*
X42025355Y-174866751D01*
X42025355Y-174866751D01*
G37*
G36*
X38784277Y-183437039D02*
X38147881Y-182800643D01*
X38996409Y-181952115D01*
X39632805Y-182588511D01*
X38784277Y-183437039D01*
X38784277Y-183437039D01*
G37*
G36*
X40339911Y-181881405D02*
X39703515Y-181245009D01*
X40552043Y-180396481D01*
X41188439Y-181032877D01*
X40339911Y-181881405D01*
X40339911Y-181881405D01*
G37*
D18*
X44170000Y-191085000D03*
X44170000Y-188885000D03*
X27368160Y-163066760D03*
X27368160Y-160866760D03*
X13346840Y-181818240D03*
X13346840Y-179618240D03*
X15096840Y-179618240D03*
X15096840Y-181818240D03*
X20600000Y-173935000D03*
X20600000Y-171735000D03*
X24068160Y-160966760D03*
X24068160Y-163166760D03*
X29275000Y-167500000D03*
X29275000Y-165300000D03*
X30861000Y-167505560D03*
X30861000Y-165305560D03*
X31068160Y-160716760D03*
X31068160Y-162916760D03*
X29318160Y-162916760D03*
X29318160Y-160716760D03*
D19*
X22124360Y-165364160D03*
X22124360Y-165999160D03*
X22124360Y-166634160D03*
X22124360Y-167269160D03*
X22124360Y-167904160D03*
X22124360Y-168539160D03*
X22124360Y-169174160D03*
X22124360Y-169809160D03*
X27324360Y-169809160D03*
X27324360Y-169174160D03*
X27324360Y-168539160D03*
X27324360Y-167904160D03*
X27324360Y-167269160D03*
X27324360Y-166634160D03*
X27324360Y-165999160D03*
X27324360Y-165364160D03*
D20*
X48442880Y-160050480D03*
X48442880Y-162590480D03*
X48442880Y-165130480D03*
X48442880Y-167670480D03*
D16*
X25818160Y-162766760D03*
X25818160Y-160866760D03*
X23960000Y-171795000D03*
X23960000Y-173695000D03*
D11*
X44540000Y-186295000D03*
X44540000Y-182995000D03*
D18*
X17630000Y-175955000D03*
X14330000Y-175955000D03*
D21*
X43452180Y-164271960D03*
D22*
X37152180Y-164271960D03*
X37152180Y-166571960D03*
X37152180Y-161971960D03*
D23*
X41910000Y-193705000D03*
X41910000Y-196205000D03*
D24*
X41780000Y-190880000D03*
X41780000Y-190230000D03*
X41780000Y-189580000D03*
X41780000Y-188930000D03*
X37380000Y-188930000D03*
X37380000Y-189580000D03*
X37380000Y-190230000D03*
X37380000Y-190880000D03*
D25*
X15740000Y-188375000D03*
D26*
X15740000Y-195995000D03*
D25*
X15740000Y-193455000D03*
X15740000Y-190915000D03*
X15740000Y-185835000D03*
X15940000Y-164985000D03*
D26*
X15940000Y-172605000D03*
D25*
X15940000Y-170065000D03*
X15940000Y-167525000D03*
X15940000Y-162445000D03*
X29960000Y-194745000D03*
D26*
X22340000Y-194745000D03*
D25*
X24880000Y-194745000D03*
X27420000Y-194745000D03*
X32500000Y-194745000D03*
D27*
X12000000Y-158100000D03*
X12000000Y-198000000D03*
X52100000Y-158100000D03*
D15*
X48640000Y-175880000D03*
X50840000Y-175880000D03*
D28*
X35160000Y-189860000D03*
X46880000Y-184310000D03*
X44520000Y-184600000D03*
X41840000Y-171620000D03*
X44550000Y-171270000D03*
X46730000Y-170250000D03*
X42150000Y-169170000D03*
X41600000Y-164275000D03*
X40610000Y-196195000D03*
X35150000Y-193560000D03*
X44820000Y-179265000D03*
X49510000Y-187535000D03*
X32100000Y-186340000D03*
X37350000Y-187380000D03*
X24470000Y-168790000D03*
X21630000Y-173030000D03*
X29260000Y-161890000D03*
X38790000Y-164295000D03*
X14732000Y-176784000D03*
X30226000Y-180594000D03*
X20066000Y-181356000D03*
X16002000Y-180594000D03*
X38650000Y-188900000D03*
X35500000Y-160440000D03*
X22275000Y-164045000D03*
X25820000Y-159510000D03*
X15200000Y-183075000D03*
X28460000Y-164995000D03*
X40070000Y-160525000D03*
X36030000Y-173615000D03*
X19480000Y-169225000D03*
X24960000Y-177445000D03*
X17700000Y-181420000D03*
X19800000Y-176820000D03*
X50800000Y-182626000D03*
X45466000Y-190246000D03*
X43434000Y-169164000D03*
X41402000Y-167132000D03*
X23410000Y-168270000D03*
X21660000Y-171740000D03*
X29718000Y-178816000D03*
X43990000Y-179870000D03*
X45650000Y-176120000D03*
X50540000Y-188790000D03*
X39900000Y-192540000D03*
X18990000Y-175945000D03*
X28170000Y-175295000D03*
X17100000Y-177500000D03*
X30180000Y-173395000D03*
X44270000Y-161185000D03*
X19020000Y-180655000D03*
X28590000Y-178895000D03*
X33190000Y-180060000D03*
X35180000Y-185590000D03*
X50770000Y-177180000D03*
X49960000Y-179125000D03*
X29310000Y-174155000D03*
X50390000Y-181375000D03*
X42122060Y-180252781D03*
X42350000Y-183160000D03*
X35814000Y-196596000D03*
X47752000Y-175006000D03*
X39116000Y-162306000D03*
X38100000Y-168910000D03*
X21050000Y-166140000D03*
X19560000Y-171560000D03*
X28940000Y-177450000D03*
X26170000Y-169745000D03*
X28320000Y-160785000D03*
X26120000Y-166565000D03*
X33660000Y-175885000D03*
X32630000Y-177830000D03*
X31780000Y-177440000D03*
X41730000Y-178375000D03*
X27890000Y-159175000D03*
X26550000Y-172785000D03*
X13130000Y-176650000D03*
X28630000Y-175955000D03*
X29040000Y-192905000D03*
X25570000Y-167980000D03*
X17780000Y-171450000D03*
X17526000Y-168148000D03*
X18542000Y-166370000D03*
X20574000Y-172720000D03*
M02*
