G04 #@! TF.FileFunction,Legend,Top*
%FSLAX46Y46*%
G04 Gerber Fmt 4.6, Leading zero omitted, Abs format (unit mm)*
G04 Created by KiCad (PCBNEW 4.0.4-stable) date 05/16/17 00:16:13*
%MOMM*%
%LPD*%
G01*
G04 APERTURE LIST*
%ADD10C,0.100000*%
%ADD11C,0.150000*%
%ADD12C,0.120000*%
%ADD13C,0.200000*%
G04 APERTURE END LIST*
D10*
D11*
X40315695Y-176763680D02*
X39891431Y-176339416D01*
X32997140Y-184082235D02*
X32523378Y-183608474D01*
X25678585Y-176763680D02*
X26152346Y-177237442D01*
X32997140Y-169445125D02*
X33470902Y-169918886D01*
X40315695Y-176763680D02*
X39841934Y-177237442D01*
X32997140Y-169445125D02*
X32523378Y-169918886D01*
X25678585Y-176763680D02*
X26152346Y-176289918D01*
X32997140Y-184082235D02*
X33470902Y-183608474D01*
X39891431Y-176339416D02*
X40934414Y-175296433D01*
D12*
X47830000Y-182195000D02*
X46130000Y-182195000D01*
X46130000Y-182245000D02*
X46130000Y-186295000D01*
X47830000Y-182245000D02*
X47830000Y-186295000D01*
D11*
X49743360Y-195816220D02*
X50744120Y-195816220D01*
X50243740Y-195315840D02*
X50243740Y-196316600D01*
X49194720Y-194767200D02*
X49093120Y-194866260D01*
X49093120Y-194866260D02*
X48892460Y-194965320D01*
X48892460Y-194965320D02*
X48592740Y-195066920D01*
X48592740Y-195066920D02*
X48394620Y-195066920D01*
X48394620Y-195066920D02*
X48094900Y-194965320D01*
X48094900Y-194965320D02*
X47894240Y-194866260D01*
X49093120Y-193266060D02*
X48892460Y-193167000D01*
X48892460Y-193167000D02*
X48592740Y-193065400D01*
X48592740Y-193065400D02*
X48394620Y-193065400D01*
X48394620Y-193065400D02*
X48094900Y-193167000D01*
X48094900Y-193167000D02*
X47894240Y-193266060D01*
X51793140Y-194066160D02*
G75*
G03X51793140Y-194066160I-3299460J0D01*
G01*
D12*
X30072845Y-185451956D02*
G75*
G02X26501957Y-189022846I-1785444J-1785445D01*
G01*
X25547363Y-180926474D02*
G75*
G03X21976473Y-184497362I-1785445J-1785444D01*
G01*
X26501957Y-189022846D02*
X21976473Y-184497362D01*
X30072846Y-185451957D02*
X25547362Y-180926473D01*
D13*
X47260000Y-177775000D02*
X45660000Y-177775000D01*
D12*
X50470000Y-182505000D02*
X48470000Y-182505000D01*
X48470000Y-182505000D02*
X48470000Y-186405000D01*
X50470000Y-182505000D02*
X50470000Y-186405000D01*
X16176840Y-181228240D02*
X16176840Y-180528240D01*
X17376840Y-180528240D02*
X17376840Y-181228240D01*
X31423689Y-188692543D02*
X31918663Y-188197569D01*
X32767191Y-189046097D02*
X32272217Y-189541071D01*
X38739000Y-158896000D02*
X39439000Y-158896000D01*
X39439000Y-160096000D02*
X38739000Y-160096000D01*
X22096751Y-179876777D02*
X21601777Y-180371751D01*
X20753249Y-179523223D02*
X21248223Y-179028249D01*
X34675000Y-158896000D02*
X35375000Y-158896000D01*
X35375000Y-160096000D02*
X34675000Y-160096000D01*
X21021751Y-178826777D02*
X20526777Y-179321751D01*
X19678249Y-178473223D02*
X20173223Y-177978249D01*
X38944937Y-170345009D02*
X39439911Y-170839983D01*
X38591383Y-171688511D02*
X38096409Y-171193537D01*
X40144937Y-169145009D02*
X40639911Y-169639983D01*
X39791383Y-170488511D02*
X39296409Y-169993537D01*
X22920000Y-172385000D02*
X22920000Y-173085000D01*
X21720000Y-173085000D02*
X21720000Y-172385000D01*
X21675000Y-162225000D02*
X21675000Y-161525000D01*
X22875000Y-161525000D02*
X22875000Y-162225000D01*
X19825000Y-162200000D02*
X19825000Y-161500000D01*
X21025000Y-161500000D02*
X21025000Y-162200000D01*
X41862721Y-175029386D02*
X41155614Y-174322279D01*
X42117279Y-173360614D02*
X42824386Y-174067721D01*
X40502546Y-182044039D02*
X39795439Y-182751146D01*
X38833774Y-181789481D02*
X39540881Y-181082374D01*
X44850000Y-189485000D02*
X44850000Y-190485000D01*
X43490000Y-190485000D02*
X43490000Y-189485000D01*
X28048160Y-161466760D02*
X28048160Y-162466760D01*
X26688160Y-162466760D02*
X26688160Y-161466760D01*
X14026840Y-180218240D02*
X14026840Y-181218240D01*
X12666840Y-181218240D02*
X12666840Y-180218240D01*
X14416840Y-181218240D02*
X14416840Y-180218240D01*
X15776840Y-180218240D02*
X15776840Y-181218240D01*
X21280000Y-172335000D02*
X21280000Y-173335000D01*
X19920000Y-173335000D02*
X19920000Y-172335000D01*
X23388160Y-162566760D02*
X23388160Y-161566760D01*
X24748160Y-161566760D02*
X24748160Y-162566760D01*
X29955000Y-165900000D02*
X29955000Y-166900000D01*
X28595000Y-166900000D02*
X28595000Y-165900000D01*
X31541000Y-165905560D02*
X31541000Y-166905560D01*
X30181000Y-166905560D02*
X30181000Y-165905560D01*
X30388160Y-162316760D02*
X30388160Y-161316760D01*
X31748160Y-161316760D02*
X31748160Y-162316760D01*
X29998160Y-161316760D02*
X29998160Y-162316760D01*
X28638160Y-162316760D02*
X28638160Y-161316760D01*
D11*
X22724360Y-170261660D02*
X26724360Y-170261660D01*
X21449360Y-164861660D02*
X26724360Y-164861660D01*
X50982880Y-168940480D02*
X50982880Y-158780480D01*
X46537880Y-168940480D02*
X45267880Y-168940480D01*
X50347880Y-158780480D02*
X51617880Y-158780480D01*
X51617880Y-158780480D02*
X51617880Y-168940480D01*
X51617880Y-168940480D02*
X50347880Y-168940480D01*
X45267880Y-168940480D02*
X45267880Y-158780480D01*
X45267880Y-158780480D02*
X46537880Y-158780480D01*
D12*
X25218160Y-162166760D02*
X25218160Y-161466760D01*
X26418160Y-161466760D02*
X26418160Y-162166760D01*
X24560000Y-172395000D02*
X24560000Y-173095000D01*
X23360000Y-173095000D02*
X23360000Y-172395000D01*
X45390000Y-182145000D02*
X43690000Y-182145000D01*
X43690000Y-182195000D02*
X43690000Y-186245000D01*
X45390000Y-182195000D02*
X45390000Y-186245000D01*
X18230000Y-176955000D02*
X18230000Y-174955000D01*
X18230000Y-174955000D02*
X14330000Y-174955000D01*
X18230000Y-176955000D02*
X14330000Y-176955000D01*
X42212180Y-167681960D02*
X42212180Y-166421960D01*
X42212180Y-160861960D02*
X42212180Y-162121960D01*
X38452180Y-167681960D02*
X42212180Y-167681960D01*
X36202180Y-160861960D02*
X42212180Y-160861960D01*
X42760000Y-193055000D02*
X41060000Y-193055000D01*
X41060000Y-193055000D02*
X41060000Y-196205000D01*
X42760000Y-193055000D02*
X42760000Y-196205000D01*
D11*
X41255000Y-191580000D02*
X41255000Y-191405000D01*
X37905000Y-191580000D02*
X37905000Y-191330000D01*
X37905000Y-188230000D02*
X37905000Y-188480000D01*
X41255000Y-188230000D02*
X41255000Y-188480000D01*
X41255000Y-191580000D02*
X37905000Y-191580000D01*
X41255000Y-188230000D02*
X37905000Y-188230000D01*
X41255000Y-191405000D02*
X42505000Y-191405000D01*
X18340960Y-187115160D02*
X18838800Y-187115160D01*
X18838800Y-184316080D02*
X18838800Y-197513920D01*
X18340960Y-197513920D02*
X18340960Y-184316080D01*
X13039980Y-197513920D02*
X13039980Y-184316080D01*
X12641200Y-184316080D02*
X12641200Y-197513920D01*
X18340960Y-189617060D02*
X18838800Y-189617060D01*
X18340960Y-192215480D02*
X18838800Y-192215480D01*
X18838800Y-197313260D02*
X18340960Y-197313260D01*
X18340960Y-184516740D02*
X18838800Y-184516740D01*
X18838800Y-194712300D02*
X18340960Y-194712300D01*
X18838800Y-184318620D02*
X12641200Y-184318620D01*
X12641200Y-197511380D02*
X18838800Y-197511380D01*
X18540960Y-163725160D02*
X19038800Y-163725160D01*
X19038800Y-160926080D02*
X19038800Y-174123920D01*
X18540960Y-174123920D02*
X18540960Y-160926080D01*
X13239980Y-174123920D02*
X13239980Y-160926080D01*
X12841200Y-160926080D02*
X12841200Y-174123920D01*
X18540960Y-166227060D02*
X19038800Y-166227060D01*
X18540960Y-168825480D02*
X19038800Y-168825480D01*
X19038800Y-173923260D02*
X18540960Y-173923260D01*
X18540960Y-161126740D02*
X19038800Y-161126740D01*
X19038800Y-171322300D02*
X18540960Y-171322300D01*
X19038800Y-160928620D02*
X12841200Y-160928620D01*
X12841200Y-174121380D02*
X19038800Y-174121380D01*
X31219840Y-197345960D02*
X31219840Y-197843800D01*
X34018920Y-197843800D02*
X20821080Y-197843800D01*
X20821080Y-197345960D02*
X34018920Y-197345960D01*
X20821080Y-192044980D02*
X34018920Y-192044980D01*
X34018920Y-191646200D02*
X20821080Y-191646200D01*
X28717940Y-197345960D02*
X28717940Y-197843800D01*
X26119520Y-197345960D02*
X26119520Y-197843800D01*
X21021740Y-197843800D02*
X21021740Y-197345960D01*
X33818260Y-197345960D02*
X33818260Y-197843800D01*
X23622700Y-197843800D02*
X23622700Y-197345960D01*
X34016380Y-197843800D02*
X34016380Y-191646200D01*
X20823620Y-191646200D02*
X20823620Y-197843800D01*
M02*
