G04 #@! TF.FileFunction,Other,User*
%FSLAX46Y46*%
G04 Gerber Fmt 4.6, Leading zero omitted, Abs format (unit mm)*
G04 Created by KiCad (PCBNEW 4.0.4-stable) date 06/03/17 21:35:24*
%MOMM*%
%LPD*%
G01*
G04 APERTURE LIST*
%ADD10C,0.100000*%
%ADD11C,0.050000*%
%ADD12C,0.200000*%
G04 APERTURE END LIST*
D10*
D11*
X42755214Y-176763680D02*
X32997140Y-167005606D01*
X32997140Y-186521754D02*
X23239066Y-176763680D01*
X42755214Y-176763680D02*
X32997140Y-186521754D01*
X32997140Y-167005606D02*
X23239066Y-176763680D01*
X47980000Y-187345000D02*
X45980000Y-187345000D01*
X45980000Y-187345000D02*
X45980000Y-182045000D01*
X45980000Y-182045000D02*
X47980000Y-182045000D01*
X47980000Y-182045000D02*
X47980000Y-187345000D01*
X28315685Y-191225483D02*
X32275483Y-187265685D01*
X32275483Y-187265685D02*
X23719491Y-178709693D01*
X23719491Y-178709693D02*
X19759693Y-182669491D01*
X19759693Y-182669491D02*
X28315685Y-191225483D01*
D12*
X45492500Y-177625000D02*
X49827500Y-177625000D01*
X45492500Y-181125000D02*
X45492500Y-177625000D01*
X49827500Y-181125000D02*
X45492500Y-181125000D01*
X49827500Y-177625000D02*
X49827500Y-181125000D01*
D11*
X50620000Y-182405000D02*
X50620000Y-187105000D01*
X50620000Y-187105000D02*
X48320000Y-187105000D01*
X48320000Y-187105000D02*
X48320000Y-182405000D01*
X50620000Y-182405000D02*
X48320000Y-182405000D01*
X16126840Y-182678240D02*
X16126840Y-179078240D01*
X16126840Y-182678240D02*
X17426840Y-182678240D01*
X17426840Y-179078240D02*
X16126840Y-179078240D01*
X17426840Y-179078240D02*
X17426840Y-182678240D01*
X30363028Y-189682493D02*
X32908613Y-187136908D01*
X30363028Y-189682493D02*
X31282267Y-190601732D01*
X33827852Y-188056147D02*
X32908613Y-187136908D01*
X33827852Y-188056147D02*
X31282267Y-190601732D01*
X37289000Y-158846000D02*
X40889000Y-158846000D01*
X37289000Y-158846000D02*
X37289000Y-160146000D01*
X40889000Y-160146000D02*
X40889000Y-158846000D01*
X40889000Y-160146000D02*
X37289000Y-160146000D01*
X23157412Y-178886827D02*
X20611827Y-181432412D01*
X23157412Y-178886827D02*
X22238173Y-177967588D01*
X19692588Y-180513173D02*
X20611827Y-181432412D01*
X19692588Y-180513173D02*
X22238173Y-177967588D01*
X33225000Y-158846000D02*
X36825000Y-158846000D01*
X33225000Y-158846000D02*
X33225000Y-160146000D01*
X36825000Y-160146000D02*
X36825000Y-158846000D01*
X36825000Y-160146000D02*
X33225000Y-160146000D01*
X18617588Y-179463173D02*
X21163173Y-176917588D01*
X18617588Y-179463173D02*
X19536827Y-180382412D01*
X22082412Y-177836827D02*
X21163173Y-176917588D01*
X22082412Y-177836827D02*
X19536827Y-180382412D01*
X37954987Y-169284348D02*
X40500572Y-171829933D01*
X37954987Y-169284348D02*
X37035748Y-170203587D01*
X39581333Y-172749172D02*
X40500572Y-171829933D01*
X39581333Y-172749172D02*
X37035748Y-170203587D01*
X39154987Y-168084348D02*
X41700572Y-170629933D01*
X39154987Y-168084348D02*
X38235748Y-169003587D01*
X40781333Y-171549172D02*
X41700572Y-170629933D01*
X40781333Y-171549172D02*
X38235748Y-169003587D01*
X22970000Y-170935000D02*
X22970000Y-174535000D01*
X22970000Y-170935000D02*
X21670000Y-170935000D01*
X21670000Y-174535000D02*
X22970000Y-174535000D01*
X21670000Y-174535000D02*
X21670000Y-170935000D01*
X21625000Y-163675000D02*
X21625000Y-160075000D01*
X21625000Y-163675000D02*
X22925000Y-163675000D01*
X22925000Y-160075000D02*
X21625000Y-160075000D01*
X22925000Y-160075000D02*
X22925000Y-163675000D01*
X19775000Y-163650000D02*
X19775000Y-160050000D01*
X19775000Y-163650000D02*
X21075000Y-163650000D01*
X21075000Y-160050000D02*
X19775000Y-160050000D01*
X21075000Y-160050000D02*
X21075000Y-163650000D01*
X41099045Y-172314096D02*
X43863833Y-175078883D01*
X41099045Y-172314096D02*
X40109096Y-173304045D01*
X42873883Y-176068833D02*
X43863833Y-175078883D01*
X42873883Y-176068833D02*
X40109096Y-173304045D01*
X37787256Y-182807715D02*
X40552043Y-180042927D01*
X37787256Y-182807715D02*
X38777205Y-183797664D01*
X41541993Y-181032877D02*
X40552043Y-180042927D01*
X41541993Y-181032877D02*
X38777205Y-183797664D01*
X43470000Y-191945000D02*
X43470000Y-188035000D01*
X43470000Y-191945000D02*
X44870000Y-191945000D01*
X44870000Y-188035000D02*
X43470000Y-188035000D01*
X44870000Y-188035000D02*
X44870000Y-191945000D01*
X26668160Y-163926760D02*
X26668160Y-160016760D01*
X26668160Y-163926760D02*
X28068160Y-163926760D01*
X28068160Y-160016760D02*
X26668160Y-160016760D01*
X28068160Y-160016760D02*
X28068160Y-163926760D01*
X12646840Y-182678240D02*
X12646840Y-178768240D01*
X12646840Y-182678240D02*
X14046840Y-182678240D01*
X14046840Y-178768240D02*
X12646840Y-178768240D01*
X14046840Y-178768240D02*
X14046840Y-182678240D01*
X15796840Y-178758240D02*
X15796840Y-182668240D01*
X15796840Y-178758240D02*
X14396840Y-178758240D01*
X14396840Y-182668240D02*
X15796840Y-182668240D01*
X14396840Y-182668240D02*
X14396840Y-178758240D01*
X19900000Y-174795000D02*
X19900000Y-170885000D01*
X19900000Y-174795000D02*
X21300000Y-174795000D01*
X21300000Y-170885000D02*
X19900000Y-170885000D01*
X21300000Y-170885000D02*
X21300000Y-174795000D01*
X24768160Y-160106760D02*
X24768160Y-164016760D01*
X24768160Y-160106760D02*
X23368160Y-160106760D01*
X23368160Y-164016760D02*
X24768160Y-164016760D01*
X23368160Y-164016760D02*
X23368160Y-160106760D01*
X28575000Y-168360000D02*
X28575000Y-164450000D01*
X28575000Y-168360000D02*
X29975000Y-168360000D01*
X29975000Y-164450000D02*
X28575000Y-164450000D01*
X29975000Y-164450000D02*
X29975000Y-168360000D01*
X30161000Y-168365560D02*
X30161000Y-164455560D01*
X30161000Y-168365560D02*
X31561000Y-168365560D01*
X31561000Y-164455560D02*
X30161000Y-164455560D01*
X31561000Y-164455560D02*
X31561000Y-168365560D01*
X31768160Y-159856760D02*
X31768160Y-163766760D01*
X31768160Y-159856760D02*
X30368160Y-159856760D01*
X30368160Y-163766760D02*
X31768160Y-163766760D01*
X30368160Y-163766760D02*
X30368160Y-159856760D01*
X28618160Y-163776760D02*
X28618160Y-159866760D01*
X28618160Y-163776760D02*
X30018160Y-163776760D01*
X30018160Y-159866760D02*
X28618160Y-159866760D01*
X30018160Y-159866760D02*
X30018160Y-163776760D01*
X21274360Y-164736660D02*
X21274360Y-170386660D01*
X28174360Y-164736660D02*
X28174360Y-170386660D01*
X21274360Y-164736660D02*
X28174360Y-164736660D01*
X21274360Y-170386660D02*
X28174360Y-170386660D01*
X25168160Y-163616760D02*
X25168160Y-160016760D01*
X25168160Y-163616760D02*
X26468160Y-163616760D01*
X26468160Y-160016760D02*
X25168160Y-160016760D01*
X26468160Y-160016760D02*
X26468160Y-163616760D01*
X24610000Y-170945000D02*
X24610000Y-174545000D01*
X24610000Y-170945000D02*
X23310000Y-170945000D01*
X23310000Y-174545000D02*
X24610000Y-174545000D01*
X23310000Y-174545000D02*
X23310000Y-170945000D01*
X45540000Y-187295000D02*
X43540000Y-187295000D01*
X43540000Y-187295000D02*
X43540000Y-181995000D01*
X43540000Y-181995000D02*
X45540000Y-181995000D01*
X45540000Y-181995000D02*
X45540000Y-187295000D01*
X18330000Y-177105000D02*
X13630000Y-177105000D01*
X13630000Y-177105000D02*
X13630000Y-174805000D01*
X13630000Y-174805000D02*
X18330000Y-174805000D01*
X18330000Y-177105000D02*
X18330000Y-174805000D01*
X44702180Y-160671960D02*
X35902180Y-160671960D01*
X44702180Y-167871960D02*
X44702180Y-160671960D01*
X35902180Y-167871960D02*
X44702180Y-167871960D01*
X35902180Y-160671960D02*
X35902180Y-167871960D01*
X42860000Y-192955000D02*
X42860000Y-196955000D01*
X42860000Y-196955000D02*
X40960000Y-196955000D01*
X40960000Y-192955000D02*
X40960000Y-196955000D01*
X42860000Y-192955000D02*
X40960000Y-192955000D01*
X42780000Y-191755000D02*
X42780000Y-188055000D01*
X36380000Y-191755000D02*
X36380000Y-188055000D01*
X42780000Y-191755000D02*
X36380000Y-191755000D01*
X42780000Y-188055000D02*
X36380000Y-188055000D01*
X12438000Y-197773000D02*
X12438000Y-184057000D01*
X19042000Y-197773000D02*
X12438000Y-197773000D01*
X19042000Y-184057000D02*
X19042000Y-197773000D01*
X12438000Y-184057000D02*
X19042000Y-184057000D01*
X12638000Y-174383000D02*
X12638000Y-160667000D01*
X19242000Y-174383000D02*
X12638000Y-174383000D01*
X19242000Y-160667000D02*
X19242000Y-174383000D01*
X12638000Y-160667000D02*
X19242000Y-160667000D01*
X20562000Y-191443000D02*
X34278000Y-191443000D01*
X20562000Y-198047000D02*
X20562000Y-191443000D01*
X34278000Y-198047000D02*
X20562000Y-198047000D01*
X34278000Y-191443000D02*
X34278000Y-198047000D01*
X13550000Y-158100000D02*
G75*
G03X13550000Y-158100000I-1550000J0D01*
G01*
X13550000Y-198000000D02*
G75*
G03X13550000Y-198000000I-1550000J0D01*
G01*
X53650000Y-158100000D02*
G75*
G03X53650000Y-158100000I-1550000J0D01*
G01*
X47780000Y-175180000D02*
X51690000Y-175180000D01*
X47780000Y-175180000D02*
X47780000Y-176580000D01*
X51690000Y-176580000D02*
X51690000Y-175180000D01*
X51690000Y-176580000D02*
X47780000Y-176580000D01*
M02*
