M48
;DRILL file {KiCad 4.0.4-stable} date 05/16/17 00:16:14
;FORMAT={-:-/ absolute / inch / decimal}
FMAT,2
INCH,TZ
T1C0.016
T2C0.031
T3C0.039
T4C0.043
T5C0.047
%
G90
G05
M72
T1
X0.5169Y-6.9547
X0.58Y-6.96
X0.5984Y-7.2077
X0.63Y-7.11
X0.6732Y-6.9882
X0.69Y-6.62
X0.6969Y-7.1425
X0.7Y-6.75
X0.73Y-6.55
X0.7476Y-6.927
X0.7488Y-7.1124
X0.7669Y-6.6624
X0.7701Y-6.7543
X0.7795Y-6.9614
X0.79Y-7.14
X0.81Y-6.8
X0.8287Y-6.5409
X0.8516Y-6.8122
X0.8528Y-6.7614
X0.877Y-6.4585
X0.9217Y-6.6248
X0.9634Y-6.6453
X0.9827Y-6.9896
X1.0028Y-6.6146
X1.0165Y-6.2799
X1.0283Y-6.5577
X1.0303Y-6.6829
X1.0453Y-6.8026
X1.098Y-6.2667
X1.1091Y-6.9014
X1.115Y-6.3301
X1.1205Y-6.4959
X1.1256Y-7.0431
X1.1272Y-6.9274
X1.1433Y-7.5947
X1.152Y-6.3736
X1.1539Y-6.8565
X1.17Y-7.04
X1.1713Y-6.9917
X1.1882Y-6.8266
X1.19Y-7.11
X1.2583Y-6.9707
X1.2638Y-7.3362
X1.3051Y-6.9797
X1.3067Y-7.089
X1.3252Y-6.9246
X1.3819Y-7.4654
X1.3839Y-7.6205
X1.385Y-7.3067
X1.3976Y-6.3165
X1.41Y-7.74
X1.4185Y-6.8352
X1.4705Y-7.3772
X1.5Y-6.65
X1.5217Y-7.437
X1.5272Y-6.4683
X1.54Y-6.39
X1.5709Y-7.5803
X1.5776Y-6.3199
X1.5988Y-7.7242
X1.63Y-6.58
X1.6378Y-6.4675
X1.6429Y-7.0226
X1.6472Y-6.7567
X1.6594Y-6.6602
X1.66Y-7.2
X1.6705Y-7.1055
X1.6866Y-7.1699
X1.71Y-6.66
X1.7319Y-7.0815
X1.7429Y-6.3459
X1.7528Y-7.2677
X1.7539Y-6.7429
X1.7646Y-7.0577
X1.79Y-7.49
X1.7972Y-6.9339
X1.8398Y-6.7028
X1.8457Y-7.2563
X1.88Y-6.89
X1.9492Y-7.3833
X1.9669Y-7.0522
X1.9839Y-7.1407
X1.9898Y-7.4327
X2.Y-7.19
T2
X0.9567Y-7.2145
X1.0925Y-7.3504
T3
X1.8492Y-7.6404
X1.9742Y-7.6404
T4
X0.6197Y-7.3163
X0.6197Y-7.4163
X0.6197Y-7.5163
X0.6197Y-7.6163
X0.6197Y-7.7163
X0.6276Y-6.3955
X0.6276Y-6.4955
X0.6276Y-6.5955
X0.6276Y-6.6955
X0.6276Y-6.7955
X0.8795Y-7.6671
X0.9795Y-7.6671
X1.0795Y-7.6671
X1.1795Y-7.6671
X1.2795Y-7.6671
T5
X1.9072Y-6.3012
X1.9072Y-6.4012
X1.9072Y-6.5012
X1.9072Y-6.6012
T0
M30
